<svg width="1000" height="663" viewBox="0 0 1000 663" fill="none" xmlns="http://www.w3.org/2000/svg">
<path d="M492.392 0.120891C558.085 2.37336 589.415 11.1971 655.259 70.5498C705.279 115.639 716.255 135.319 758.387 154.184C788.817 167.81 944.521 195.058 984.137 321.453C1026.2 455.655 982.45 575.259 878.493 628.951C764.046 688.061 674.053 637.735 620.673 615.116C546.471 583.675 516.254 570.15 390.522 633.353C272.93 692.463 142.763 657.877 66.6742 562.295C-5.14192 472.08 -31.5477 304.766 51.5823 201.975C121.592 115.407 201.873 141.608 267.9 108.28C320.059 81.9518 382.347 -3.65209 492.392 0.120891Z" fill="url(#paint0_linear)"/>
<path d="M689.045 581.455C655.418 581.455 623.941 590.64 596.963 606.618C609.842 610.372 623.102 616.029 638.856 622.705C678.253 639.399 742.738 675.06 824.569 642.507C791.411 605.067 742.991 581.455 689.045 581.455Z" fill="url(#paint1_radial)"/>
<path d="M812.715 294.418C831.86 294.418 847.38 278.898 847.38 259.753C847.38 240.608 831.86 225.088 812.715 225.088C793.57 225.088 778.05 240.608 778.05 259.753C778.05 278.898 793.57 294.418 812.715 294.418Z" fill="url(#paint2_radial)"/>
<path d="M153.348 274.096C172.309 274.096 187.681 258.725 187.681 239.763C187.681 220.802 172.309 205.43 153.348 205.43C134.386 205.43 119.015 220.802 119.015 239.763C119.015 258.725 134.386 274.096 153.348 274.096Z" fill="url(#paint3_radial)"/>
<path d="M153.348 262.096C165.682 262.096 175.681 252.097 175.681 239.763C175.681 227.429 165.682 217.43 153.348 217.43C141.013 217.43 131.015 227.429 131.015 239.763C131.015 252.097 141.013 262.096 153.348 262.096Z" fill="url(#paint4_linear)"/>
<path d="M153.348 262.096C165.682 262.096 175.681 252.097 175.681 239.763C175.681 227.429 165.682 217.43 153.348 217.43C141.013 217.43 131.015 227.429 131.015 239.763C131.015 252.097 141.013 262.096 153.348 262.096Z" fill="url(#paint5_linear)"/>
<path d="M145.848 241.596C142.723 241.596 140.181 239.054 140.181 235.929C140.181 232.804 142.723 230.262 145.848 230.262C148.973 230.262 151.515 232.804 151.515 235.929C151.515 239.054 148.973 241.596 145.848 241.596ZM145.848 231.263C143.275 231.263 141.181 233.356 141.181 235.93C141.181 238.504 143.274 240.597 145.848 240.597C148.422 240.597 150.515 238.504 150.515 235.93C150.515 233.356 148.422 231.263 145.848 231.263Z" fill="#FDE1A7"/>
<path d="M162.216 254.987C160.089 254.987 158.28 254.075 157.256 252.485C155.452 249.685 156.703 245.656 160.043 243.503C161.394 242.633 162.905 242.173 164.414 242.173C166.541 242.173 168.35 243.085 169.374 244.676C171.178 247.476 169.928 251.505 166.587 253.657C165.236 254.528 163.725 254.987 162.216 254.987ZM164.413 243.173C163.097 243.173 161.773 243.578 160.584 244.343C157.707 246.197 156.59 249.606 158.096 251.942C158.933 253.241 160.434 253.986 162.216 253.986C163.532 253.986 164.856 253.581 166.045 252.816C168.922 250.962 170.039 247.553 168.533 245.217C167.696 243.918 166.195 243.173 164.413 243.173Z" fill="#DABACC"/>
<path d="M138.602 256.675L138.012 255.867C139.237 254.972 139.94 253.602 139.94 252.106C139.94 249.533 137.847 247.439 135.273 247.439C134.391 247.439 133.524 247.696 132.766 248.182L132.227 247.34C133.146 246.751 134.2 246.439 135.273 246.439C138.398 246.439 140.94 248.981 140.94 252.106C140.94 253.925 140.088 255.59 138.602 256.675Z" fill="#FDE1A7"/>
<path d="M165.385 227.361C162.628 227.361 160.385 225.118 160.385 222.361C160.385 221.063 160.886 219.829 161.797 218.888L162.516 219.583C161.787 220.336 161.386 221.323 161.386 222.36C161.386 224.566 163.18 226.36 165.386 226.36C166.935 226.36 168.316 225.482 168.988 224.068L169.891 224.498C169.063 226.237 167.295 227.361 165.385 227.361Z" fill="#FDE1A7"/>
<path d="M812.715 283.753C825.969 283.753 836.715 273.008 836.715 259.753C836.715 246.498 825.969 235.753 812.715 235.753C799.46 235.753 788.715 246.498 788.715 259.753C788.715 273.008 799.46 283.753 812.715 283.753Z" fill="url(#paint6_linear)"/>
<path d="M834.92 269.37C834.86 269.37 834.801 269.36 834.742 269.337C830.845 267.852 823.861 262.427 816.95 255.516C810.039 248.605 804.614 241.621 803.131 237.724C803.032 237.466 803.162 237.177 803.42 237.079C803.678 236.98 803.967 237.11 804.065 237.369C805.503 241.144 810.838 247.99 817.658 254.809C824.477 261.628 831.323 266.964 835.098 268.402C835.357 268.5 835.486 268.789 835.387 269.048C835.312 269.248 835.121 269.37 834.92 269.37Z" fill="#0090B2"/>
<path d="M836.699 261.151C836.624 261.151 836.548 261.134 836.475 261.098C832.759 259.244 827.476 255.073 822.342 249.939C817.318 244.915 813.185 239.706 811.286 236.007C811.159 235.761 811.257 235.46 811.502 235.334C811.747 235.209 812.05 235.305 812.175 235.55C814.029 239.162 818.095 244.277 823.049 249.232C828.111 254.294 833.297 258.395 836.922 260.204C837.169 260.327 837.269 260.627 837.146 260.874C837.059 261.049 836.882 261.151 836.699 261.151Z" fill="#8A69E3"/>
<path d="M695.965 599.623C671.484 599.623 648.634 606.599 629.282 618.66C632.379 619.96 635.56 621.308 638.855 622.705C673.824 637.522 728.555 667.283 797.637 651.027C774.65 619.851 737.672 599.623 695.965 599.623Z" fill="url(#paint7_linear)"/>
<path d="M797.638 651.027C779.415 626.314 752.398 608.493 721.206 602.161C716.327 603.137 711.841 605.433 712.105 610.455C712.605 619.955 727.071 620.852 734.355 622.455C742.689 624.288 754.356 628.038 754.605 634.205C754.787 638.704 748.94 639.37 745.94 639.37C742.94 639.37 738.444 637.954 737.688 640.538C736.689 643.955 743.987 645.198 743.522 647.705C742.834 651.42 733.295 650.709 731.391 653.909C751.612 656.766 773.768 656.644 797.638 651.027Z" fill="url(#paint8_linear)"/>
<path d="M678.856 632.204C681.856 628.037 704.022 627.537 702.356 619.537C700.921 612.65 674.689 617.871 673.522 610.037C672.831 605.394 678.579 602.216 684.139 600.188C664.134 602.049 645.48 608.563 629.283 618.659C632.38 619.959 635.561 621.307 638.856 622.704C650.219 627.519 663.672 633.912 679.024 639.791C677.856 637.123 677.355 634.288 678.856 632.204Z" fill="url(#paint9_linear)"/>
<path d="M516.096 567.069C513.318 567.069 510.511 566.851 507.667 566.396C490.792 563.691 479.214 553.847 473.253 537.135C463.909 510.94 471.804 474.105 479.316 465.655C479.499 465.449 479.815 465.431 480.022 465.613C480.229 465.797 480.247 466.113 480.064 466.319C473.682 473.499 464.417 509.382 474.196 536.799C480.025 553.141 491.339 562.766 507.826 565.407C510.605 565.852 513.355 566.065 516.074 566.066C544.003 566.068 568.933 543.609 595.195 519.954C617.091 500.232 639.732 479.838 667.162 468.192C706.498 451.491 741.43 453.598 766.938 455.137C780.317 455.946 791.871 456.642 800.571 454.499C815.419 450.841 828.101 442.731 840.366 434.888C847.036 430.622 853.933 426.212 861.13 422.54C886.885 409.398 907.68 407.24 914.109 417.044C921.852 428.853 908.121 439.997 894.84 450.774C884.083 459.503 872.961 468.53 872.524 478.008C871.873 492.157 892.25 497.119 892.456 497.16C892.727 497.214 892.902 497.477 892.849 497.748C892.794 498.019 892.528 498.196 892.261 498.141C892.046 498.098 870.837 492.919 871.527 477.961C871.984 468.035 883.284 458.865 894.212 449.997C907.742 439.017 920.523 428.644 913.275 417.592C907.145 408.245 886.856 410.538 861.587 423.43C854.434 427.079 847.557 431.477 840.906 435.73C828.573 443.617 815.821 451.772 800.811 455.469C791.966 457.649 780.34 456.948 766.879 456.134C741.475 454.603 706.676 452.501 667.554 469.111C640.278 480.692 617.7 501.029 595.866 520.696C569.456 544.484 544.381 567.068 516.096 567.069Z" fill="#4578BA"/>
<path d="M707.797 357.328C709.019 357.328 710.008 356.338 710.008 355.117C710.008 353.896 709.019 352.906 707.797 352.906C706.576 352.906 705.586 353.896 705.586 355.117C705.586 356.338 706.576 357.328 707.797 357.328Z" fill="#4578BA"/>
<path d="M690.746 358.316C671.225 358.316 645.361 349.569 631.402 322.156C611.402 282.88 643.492 250.438 647.765 247.996C648.001 247.859 648.31 247.941 648.449 248.182C648.586 248.422 648.503 248.727 648.262 248.864C644.074 251.258 612.63 283.091 632.291 321.703C650.793 358.034 690.484 361.09 707.621 354.65C707.878 354.549 708.167 354.684 708.264 354.942C708.362 355.201 708.232 355.489 707.973 355.586C703.493 357.269 697.499 358.316 690.746 358.316Z" fill="#4578BA"/>
<path d="M796.14 346.471C796.004 346.471 795.869 346.416 795.771 346.308C795.584 346.104 795.599 345.787 795.803 345.602C799.832 341.928 800.786 333.37 799.921 331.019C799.825 330.76 799.958 330.472 800.217 330.377C800.472 330.278 800.763 330.414 800.859 330.673C801.82 333.278 800.869 342.336 796.477 346.34C796.381 346.428 796.26 346.471 796.14 346.471Z" fill="#4578BA"/>
<path d="M842.804 283.779C842.261 281.898 841.467 280.175 840.599 278.51C838.887 275.261 836.844 272.253 834.703 269.335C834.428 269.967 834.132 270.591 833.8 271.202C835.648 273.848 837.365 276.584 838.793 279.432C839.586 281.035 840.293 282.684 840.731 284.343C840.946 285.168 841.087 286.003 841.072 286.763C841.061 287.53 840.855 288.162 840.491 288.503C840.135 288.853 839.51 289.033 838.75 289.024C837.999 289.02 837.176 288.86 836.362 288.627C834.727 288.156 833.104 287.416 831.529 286.591C828.373 284.926 825.373 282.885 822.461 280.738C816.639 276.422 811.207 271.545 806.09 266.379C803.516 263.809 801.021 261.16 798.631 258.423C796.23 255.697 793.908 252.901 791.749 249.994C789.587 247.094 787.554 244.088 785.884 240.935C785.059 239.361 784.319 237.739 783.846 236.104C783.612 235.291 783.452 234.469 783.447 233.717C783.437 232.965 783.614 232.347 783.956 231.989C784.736 231.167 786.525 231.31 788.127 231.733C789.787 232.169 791.438 232.875 793.041 233.667C795.895 235.092 798.63 236.816 801.285 238.657C801.884 238.332 802.495 238.044 803.113 237.774C800.209 235.621 797.2 233.587 793.957 231.872C792.293 231.004 790.571 230.208 788.69 229.665C787.748 229.399 786.761 229.193 785.685 229.187C785.147 229.187 784.581 229.243 784.002 229.415C783.713 229.507 783.422 229.621 783.143 229.784C783.01 229.856 782.859 229.955 782.705 230.076C782.53 230.207 782.509 230.243 782.402 230.331L782.39 230.341L782.36 230.371C781.388 231.337 781.126 232.641 781.113 233.695C781.098 234.781 781.285 235.78 781.532 236.735C782.038 238.641 782.8 240.391 783.636 242.084C785.325 245.46 787.351 248.6 789.502 251.633C793.825 257.687 798.739 263.26 803.969 268.5C809.242 273.697 814.823 278.592 820.85 282.949C823.871 285.116 827.016 287.133 830.389 288.827C832.081 289.663 833.83 290.426 835.736 290.932C836.69 291.18 837.688 291.368 838.774 291.353C839.829 291.34 841.132 291.078 842.098 290.107C843.054 289.126 843.29 287.828 843.284 286.782C843.275 285.708 843.069 284.721 842.804 283.779Z" fill="url(#paint10_linear)"/>
<path d="M878.932 482.295L890.598 476.712C890.598 476.712 892.848 481.878 892.848 489.212C892.848 496.712 889.932 502.295 889.932 502.295L878.848 496.712L878.932 482.295Z" fill="url(#paint11_radial)"/>
<path d="M768.5 498.821C767.598 494.642 786.348 474.546 800.848 471.046C815.348 467.546 877.494 471.816 878.827 473.983C880.16 476.15 880.357 484.245 880.515 489.712C880.616 493.211 880.681 503.046 878.848 503.546C877.015 504.046 832.873 512.243 819.348 512.379C802.765 512.545 769.75 504.612 768.5 498.821Z" fill="url(#paint12_linear)"/>
<path d="M875.682 449.711V475.045H854.432C854.432 475.045 852.552 474.462 852.515 472.878C852.474 471.129 864.515 451.295 867.703 450.045C870.239 449.05 875.682 449.711 875.682 449.711Z" fill="url(#paint13_linear)"/>
<path d="M830.681 507.463C830.681 507.463 846.098 501.463 851.848 499.463C857.598 497.463 875.309 492.272 875.309 492.272C875.309 492.272 897.242 501.323 899.098 502.879C900.265 503.858 900.673 505.895 899.848 506.879C898.765 508.17 889.077 513.42 886.944 513.977C884.956 514.496 874.14 514.42 857.431 513.046C845.439 512.06 829.264 510.88 830.681 507.463Z" fill="url(#paint14_linear)"/>
<path d="M868.704 514.337C868.544 514.337 868.387 514.26 868.29 514.117C868.136 513.888 868.195 513.578 868.424 513.423C874.057 509.604 888.583 502.707 896.293 500.615C896.564 500.544 896.834 500.701 896.906 500.967C896.978 501.234 896.821 501.508 896.554 501.58C888.927 503.649 874.557 510.473 868.984 514.251C868.899 514.309 868.801 514.337 868.704 514.337Z" fill="#C0EAFB"/>
<path d="M777.71 485.816C771.966 491.416 768.077 496.865 768.5 498.822C769.063 501.434 776.097 504.479 785.161 507.023C786.462 494.031 781.371 488.362 777.71 485.816Z" fill="url(#paint15_linear)"/>
<path d="M812.181 481.212C814.626 479.506 815.523 473.446 815.845 469.766C809.35 469.897 803.984 470.289 800.848 471.046C796.044 472.205 790.776 475.192 785.908 478.813C791.613 480.63 808.336 483.895 812.181 481.212Z" fill="url(#paint16_linear)"/>
<path d="M823.432 492.546C825.641 492.546 827.432 490.755 827.432 488.546C827.432 486.337 825.641 484.546 823.432 484.546C821.223 484.546 819.432 486.337 819.432 488.546C819.432 490.755 821.223 492.546 823.432 492.546Z" fill="url(#paint17_radial)"/>
<path d="M836.849 491.213C838.92 491.213 840.599 489.534 840.599 487.463C840.599 485.392 838.92 483.713 836.849 483.713C834.778 483.713 833.099 485.392 833.099 487.463C833.099 489.534 834.778 491.213 836.849 491.213Z" fill="url(#paint18_radial)"/>
<path d="M849.265 490.13C851.152 490.13 852.682 488.6 852.682 486.713C852.682 484.826 851.152 483.296 849.265 483.296C847.377 483.296 845.848 484.826 845.848 486.713C845.848 488.6 847.377 490.13 849.265 490.13Z" fill="url(#paint19_radial)"/>
<path d="M870.89 473.337C870.614 473.337 870.39 473.113 870.39 472.837V449.5C870.39 449.224 870.614 449 870.89 449C871.166 449 871.39 449.224 871.39 449.5V472.837C871.39 473.113 871.166 473.337 870.89 473.337Z" fill="#C0EAFB"/>
<path d="M693.265 276.596C696.911 276.563 708.012 276.138 716.015 267.846C726.39 257.096 722.765 236.596 722.765 236.596C722.765 236.596 726.522 236.446 728.015 239.721C729.953 243.971 727.39 251.721 729.015 252.596C731.725 254.055 732.39 247.721 734.515 248.721C736.64 249.721 736.353 254.594 735.89 258.971C735.452 263.104 732.577 266.997 733.577 268.284C734.89 269.972 738.015 265.721 739.015 267.721C740.015 269.721 736.39 273.596 733.202 275.659C730.43 277.453 725.639 279.097 725.764 280.097C725.889 281.097 730.389 281.097 729.639 283.097C728.889 285.097 723.264 284.347 719.889 284.347C716.514 284.347 711.389 284.222 708.639 286.472C705.889 288.722 693.265 276.596 693.265 276.596Z" fill="url(#paint20_linear)"/>
<path d="M706.349 257.263C706.192 257.263 706.037 257.19 705.94 257.052C705.781 256.827 705.834 256.515 706.059 256.355C706.123 256.309 712.482 251.737 712.183 246.961C711.99 243.88 710.306 242.312 708.357 240.496C707.091 239.316 705.782 238.097 704.752 236.35C700.677 229.44 705.033 224.147 707.057 222.69C707.279 222.529 707.592 222.579 707.754 222.804C707.916 223.028 707.865 223.34 707.641 223.502C705.825 224.81 701.918 229.578 705.614 235.842C706.571 237.464 707.826 238.633 709.04 239.764C711.059 241.644 712.965 243.42 713.183 246.898C713.517 252.231 706.92 256.971 706.639 257.17C706.549 257.233 706.449 257.263 706.349 257.263Z" fill="#E8878E"/>
<path d="M698.682 244.429C698.581 244.429 698.48 244.399 698.392 244.337C694.986 241.916 694.039 238.651 693.845 236.339C693.571 233.075 694.662 230.075 695.828 228.909C696.023 228.714 696.34 228.714 696.535 228.909C696.73 229.104 696.73 229.421 696.535 229.616C695.514 230.637 694.601 233.4 694.841 236.255C695.018 238.357 695.878 241.323 698.972 243.522C699.197 243.682 699.249 243.994 699.089 244.219C698.993 244.356 698.838 244.429 698.682 244.429Z" fill="#E8878E"/>
<path d="M737.516 282.096C737.501 282.096 737.488 282.096 737.473 282.094C737.199 282.071 736.994 281.829 737.017 281.554C737.169 279.728 739.429 278.834 743.531 277.212C744.781 276.718 746.213 276.151 747.82 275.469C750.086 274.506 751.534 273.165 752.124 271.484C752.953 269.122 751.899 266.745 751.408 265.833C751.277 265.59 751.368 265.287 751.611 265.155C751.853 265.025 752.157 265.115 752.289 265.358C752.843 266.387 754.028 269.077 753.068 271.815C752.38 273.773 750.747 275.312 748.211 276.389C746.596 277.076 745.156 277.645 743.898 278.142C740.292 279.568 738.114 280.429 738.013 281.637C737.992 281.899 737.773 282.096 737.516 282.096Z" fill="#E8878E"/>
<path d="M647.273 218.563L648.069 218.623C648.425 218.667 648.832 218.71 649.146 218.769C649.796 218.879 650.44 219.016 651.067 219.195C652.325 219.545 653.53 220.021 654.668 220.595C656.946 221.745 658.957 223.28 660.681 225.043C664.124 228.58 666.453 233.02 667.608 237.698C668.736 242.279 668.964 247.009 668.237 251.727C667.485 256.418 665.81 261.17 662.446 265.322L654.335 258.369C656.252 256.301 657.672 253.228 658.357 249.951C659.058 246.669 659.086 243.114 658.446 239.763C657.838 236.517 656.399 233.434 654.295 231.019C653.244 229.816 652.027 228.79 650.715 228.033C650.06 227.655 649.381 227.343 648.693 227.108C648.349 226.986 648.003 226.894 647.656 226.813L647.227 226.721C647.048 226.689 646.743 226.659 646.507 226.628L647.273 218.563Z" fill="url(#paint21_linear)"/>
<path d="M655.031 232.588C654.783 232.588 654.567 232.403 654.536 232.15C654.502 231.876 654.696 231.626 654.97 231.592C656.697 231.375 659.795 230.352 661.156 225.929C661.236 225.665 661.518 225.516 661.78 225.598C662.045 225.679 662.192 225.959 662.111 226.223C660.587 231.183 657.061 232.338 655.095 232.584C655.073 232.587 655.052 232.588 655.031 232.588Z" fill="#FFA2BA"/>
<path d="M662.101 243.41C660.776 243.41 659.543 243.195 658.666 242.936C658.401 242.858 658.25 242.58 658.328 242.315C658.405 242.05 658.681 241.897 658.949 241.977C661.13 242.619 665.767 243.003 667.69 239.856C667.833 239.62 668.139 239.545 668.378 239.69C668.613 239.834 668.688 240.142 668.544 240.378C667.111 242.726 664.461 243.41 662.101 243.41Z" fill="#FFA2BA"/>
<path d="M664.653 255.001C660.521 255.001 658.283 252.863 657.417 251.783C657.244 251.567 657.278 251.253 657.494 251.08C657.709 250.909 658.023 250.942 658.196 251.157C659.148 252.344 661.975 254.96 667.656 253.633C667.934 253.57 668.194 253.738 668.258 254.006C668.321 254.275 668.154 254.544 667.885 254.607C666.698 254.883 665.623 255.001 664.653 255.001Z" fill="#FFA2BA"/>
<path d="M687.986 337.438C687.508 336.514 687.086 335.543 686.765 334.513C684.691 327.843 685.431 321.43 685.431 321.43C685.431 321.43 676.514 318.597 669.431 317.097C662.348 315.597 652.866 313.576 652.866 313.576C653.098 320.014 657.182 333.18 665.848 341.43C669.536 344.942 672.877 347.256 675.818 348.847C679.518 348.843 685.515 344.157 687.986 337.438Z" fill="url(#paint22_linear)"/>
<path d="M695.598 359.263C698.327 358.596 696.848 349.846 696.015 347.846C695.308 346.148 690.671 342.64 687.986 337.438C685.515 344.157 679.518 348.843 675.818 348.846C682.065 352.224 686.502 352.322 688.598 353.596C690.522 354.766 692.673 359.978 695.598 359.263Z" fill="url(#paint23_linear)"/>
<path d="M602.847 267.679C598.928 269.957 596.324 271.226 589.764 271.429C589.411 271.44 589.049 271.444 588.681 271.445C589.703 274.827 589.846 280.591 588.11 284.883C594.081 287.354 600.296 288.342 606.262 287.621C609.686 283.832 606.577 271.971 602.847 267.679Z" fill="url(#paint24_linear)"/>
<path d="M588.681 271.445C583.442 271.445 576.84 270.42 574.098 270.512C569.765 270.658 567.202 272.345 565.327 274.283C563.724 275.939 563.306 279.241 565.139 280.408C567.434 281.868 573.18 279.762 576.346 279.345C579.512 278.928 582.014 282.345 588.014 284.845C588.045 284.858 588.076 284.868 588.109 284.882C589.846 280.591 589.703 274.827 588.681 271.445Z" fill="url(#paint25_linear)"/>
<path d="M687.39 290.471C695.66 280.957 707.681 283.921 709.99 286.204C709.858 286.058 709.733 285.905 709.598 285.762C699.767 275.348 685.849 272.512 671.848 265.429C659.858 259.363 647.182 250.929 643.515 246.971C643.515 246.971 637.182 255.846 622.209 262.303C612.044 266.686 598.765 265.221 598.765 265.221C598.765 265.221 599.946 276.371 604.515 284.846C611.39 297.596 634.765 310.846 655.14 317.346C669.385 321.89 679.024 323.167 689.14 324.221C686.89 320.096 678.985 300.141 687.39 290.471Z" fill="url(#paint26_linear)"/>
<path d="M686.859 291.64C686.838 291.64 686.817 291.639 686.796 291.636C653.177 287.518 635.124 261.948 632.962 257.084C632.85 256.832 632.964 256.536 633.216 256.424C633.469 256.314 633.764 256.425 633.876 256.678C636 261.457 653.764 286.583 686.918 290.644C687.192 290.677 687.388 290.927 687.354 291.201C687.323 291.454 687.108 291.64 686.859 291.64Z" fill="#00E2EC"/>
<path d="M722.839 329.093C720.237 321.305 720.589 298.013 709.988 286.205C707.679 283.921 695.658 280.957 687.388 290.472C678.983 300.142 686.888 320.097 689.138 324.222C694.543 332.745 700.538 338.265 705.992 342.036C710.182 341.262 720.331 335.255 722.839 329.093Z" fill="url(#paint27_linear)"/>
<path d="M726.639 356.846C730.851 356.664 730.243 346.218 729.514 341.721C728.764 337.096 724.766 334.128 723.014 329.596C722.953 329.439 722.897 329.264 722.839 329.093C720.331 335.255 710.182 341.262 705.993 342.036C711.764 346.026 716.928 348.058 720.139 349.597C721.753 350.369 722.764 357.013 726.639 356.846Z" fill="url(#paint28_linear)"/>
<path d="M716.89 336.691C716.763 336.691 716.636 336.643 716.538 336.546C695.907 316.137 697.803 297.182 698.517 290.046C698.544 289.771 698.793 289.576 699.064 289.598C699.338 289.625 699.54 289.87 699.511 290.145C698.811 297.151 696.949 315.762 717.241 335.835C717.437 336.029 717.439 336.346 717.245 336.542C717.148 336.642 717.019 336.691 716.89 336.691Z" fill="#00E2EC"/>
<path d="M656.389 267.721C652.973 264.244 645.389 261.846 638.514 264.721C629.297 268.575 621.135 280.628 615.32 287.374C618.633 288.119 623.167 290.245 625.139 293.908C626.508 296.45 627.003 299.157 627.167 301.173C637.069 299.34 648.343 294.928 654.764 288.721C663.261 280.507 659.889 271.284 656.389 267.721Z" fill="url(#paint29_linear)"/>
<path d="M615.32 287.375C614.011 288.893 612.821 290.144 611.764 290.971C605.475 295.893 599.543 299.369 597.014 301.971C594.826 304.221 592.764 307.721 594.889 309.721C597.791 312.453 601.952 310.034 606.639 305.971C610.389 302.721 612.351 302.895 622.318 301.883C623.875 301.725 625.505 301.481 627.168 301.174C627.004 299.158 626.509 296.451 625.14 293.909C623.166 290.245 618.633 288.12 615.32 287.375Z" fill="url(#paint30_linear)"/>
<path d="M625.139 294.409C624.932 294.409 624.739 294.28 624.666 294.073C624.576 293.812 624.714 293.528 624.975 293.438C638.364 288.791 653.817 272.03 655.936 267.509C656.054 267.259 656.353 267.152 656.601 267.27C656.851 267.387 656.959 267.685 656.842 267.935C654.61 272.695 639.181 289.566 625.303 294.382C625.248 294.401 625.194 294.409 625.139 294.409Z" fill="#00E2EC"/>
<path d="M581.271 239.334C583.389 239.283 592.889 236.533 594.514 233.721C596.139 230.909 600.014 233.533 600.014 233.533C600.014 233.533 600.452 241.221 592.076 241.471C583.7 241.721 581.271 239.334 581.271 239.334Z" fill="url(#paint31_linear)"/>
<path d="M587.021 239.959C587.25 239.272 588.577 238.127 590.952 237.283C593.516 236.372 595.64 236.095 599.077 236.033C595.983 238.137 597.39 241.274 594.848 241.471C588.931 241.929 587.021 239.959 587.021 239.959Z" fill="#D039A3"/>
<path d="M603.848 209.429C603.515 206.762 604.1 193.846 605.183 193.512C606.266 193.178 614.014 201.679 614.098 208.179C610.515 210.096 603.848 209.429 603.848 209.429Z" fill="url(#paint32_linear)"/>
<path d="M567.765 214.471C568.524 213.427 569.64 213.471 570.765 213.471C571.89 213.471 593.39 213.721 593.39 213.721C593.39 213.721 601.515 208.096 607.765 207.346C614.015 206.596 622.39 207.471 622.39 207.471C622.39 207.471 626.015 203.721 629.14 200.971C632.265 198.221 635.89 194.596 637.265 194.971C638.64 195.346 637.636 205.051 636.015 209.846C634.515 214.284 630.89 218.721 630.89 218.721C630.89 218.721 632.265 227.096 635.515 234.221C638.345 240.426 643.515 246.971 643.515 246.971C643.515 246.971 637.147 256.978 624.265 261.596C607.702 267.534 598.765 265.221 598.765 265.221C598.765 265.221 598.568 260.846 598.64 257.096C598.728 252.538 598.89 248.721 598.89 248.721C598.89 248.721 593.314 247.982 589.015 246.221C583.827 244.096 581.39 242.158 581.272 239.334C582.319 239.654 585.27 240.437 590.14 239.471C598.328 237.846 598.765 234.221 598.765 234.221C598.765 234.221 592.865 235.984 583.515 232.221C573.265 228.096 564.766 218.596 567.765 214.471Z" fill="url(#paint33_linear)"/>
<path d="M577.684 213.542C574.075 213.502 571.161 213.471 570.765 213.471C569.64 213.471 568.524 213.427 567.765 214.471C566.272 216.525 567.63 219.91 570.634 223.302C573.252 221.998 577.323 218.715 577.684 213.542Z" fill="url(#paint34_linear)"/>
<path d="M602.099 216.68C603.157 216.68 604.016 215.822 604.016 214.763C604.016 213.704 603.157 212.846 602.099 212.846C601.04 212.846 600.182 213.704 600.182 214.763C600.182 215.822 601.04 216.68 602.099 216.68Z" fill="#212F66"/>
<path d="M601.568 214.7C601.97 214.7 602.297 214.374 602.297 213.971C602.297 213.569 601.97 213.242 601.568 213.242C601.165 213.242 600.839 213.569 600.839 213.971C600.839 214.374 601.165 214.7 601.568 214.7Z" fill="#0090B2"/>
<path d="M614.433 220.679C615.675 220.679 616.683 219.672 616.683 218.429C616.683 217.187 615.675 216.179 614.433 216.179C613.19 216.179 612.183 217.187 612.183 218.429C612.183 219.672 613.19 220.679 614.433 220.679Z" fill="#212F66"/>
<path d="M613.515 218.555C613.952 218.555 614.307 218.201 614.307 217.763C614.307 217.326 613.952 216.971 613.515 216.971C613.077 216.971 612.723 217.326 612.723 217.763C612.723 218.201 613.077 218.555 613.515 218.555Z" fill="#0090B2"/>
<path d="M629.078 180.772C608.206 167.797 580.766 174.199 567.792 195.071C554.818 215.943 561.219 243.383 582.092 256.358C602.964 269.333 630.404 262.931 643.378 242.059C656.352 221.187 649.952 193.747 629.078 180.772ZM637.574 238.863C627.193 255.564 605.238 260.686 588.538 250.304C571.838 239.922 566.715 217.968 577.098 201.267C587.479 184.567 609.434 179.444 626.134 189.826C642.833 200.207 647.956 222.162 637.574 238.863Z" fill="url(#paint35_radial)"/>
<g opacity="0.5">
<path opacity="0.5" d="M602.539 185.009L601.435 185.255L600.418 185.526C599.729 185.723 599.047 185.938 598.374 186.169C597.323 186.531 596.178 185.972 595.815 184.921C595.454 183.87 596.012 182.725 597.064 182.363C597.205 182.314 597.362 182.281 597.504 182.265C598.296 182.179 599.086 182.114 599.875 182.071L601.084 182.029L602.215 182.033C603.047 182.035 603.72 182.713 603.717 183.545C603.716 184.261 603.212 184.859 602.539 185.009Z" fill="white"/>
</g>
<g opacity="0.5">
<path opacity="0.5" d="M592.195 188.193L591.066 188.694L590.045 189.19C589.353 189.546 588.669 189.922 587.998 190.32C586.66 191.122 585.378 192.019 584.163 193.004C581.734 194.972 579.582 197.292 577.785 199.873C577.254 200.64 576.201 200.831 575.434 200.299C574.682 199.778 574.487 198.752 574.98 197.989C576.865 195.091 579.163 192.448 581.793 190.176C583.107 189.04 584.504 187.996 585.969 187.055C586.702 186.587 587.452 186.143 588.215 185.721L589.403 185.099L590.52 184.561C591.515 184.082 592.71 184.5 593.19 185.495C593.67 186.49 593.252 187.686 592.255 188.165C592.239 188.173 592.211 188.185 592.195 188.193Z" fill="white"/>
</g>
<path d="M646.091 249.316C645.016 248.433 644.129 247.635 643.514 246.971C643.514 246.971 642.776 246.035 641.705 244.539C631.695 258.486 614.861 265.073 598.674 262.536C598.714 264.113 598.764 265.221 598.764 265.221C598.764 265.221 598.924 266.724 599.351 269.042C616.919 271.201 634.922 264.063 646.091 249.316Z" fill="url(#paint36_linear)"/>
<path d="M648.724 207.643C647.4 202.581 645.183 197.762 642.205 193.477C639.221 189.198 635.485 185.45 631.209 182.483C626.947 179.487 622.186 177.231 617.159 175.887C612.14 174.531 606.883 174.094 601.712 174.564C591.361 175.489 581.395 180.181 574.167 187.628C566.906 195.032 562.366 205.046 561.693 215.383C560.901 225.706 563.903 236.28 570.036 244.649C576.126 253.046 585.302 259.146 595.408 261.554C605.512 264.005 616.466 262.69 625.745 257.967C630.395 255.636 634.645 252.481 638.202 248.663C641.769 244.855 644.654 240.402 646.706 235.591C644.729 240.434 641.909 244.945 638.383 248.829C634.865 252.724 630.633 255.974 625.968 258.404C616.617 263.243 605.525 264.632 595.255 262.202C584.983 259.811 575.618 253.668 569.364 245.142C563.071 236.648 559.936 225.875 560.698 215.312C561.443 204.742 566.136 194.55 573.574 187.046C580.981 179.496 591.144 174.785 601.653 173.903C612.164 172.958 622.947 175.93 631.49 182.085C635.765 185.151 639.471 188.99 642.406 193.339C645.333 197.695 647.478 202.562 648.724 207.643Z" fill="white"/>
<path d="M648.712 207.646C647.066 208.195 645.485 209.03 644.051 210.177C637.504 215.411 636.439 224.964 641.674 231.513C643.082 233.275 644.806 234.637 646.697 235.587C650.457 226.537 651.013 216.738 648.712 207.646Z" fill="url(#paint37_linear)"/>
<path d="M247.702 272.736C247.105 273.319 246.394 274.277 245.745 275.297C245.092 276.325 244.482 277.44 243.924 278.589C242.808 280.893 241.899 283.341 241.202 285.83C239.81 290.814 239.277 295.985 239.718 300.964C240.151 305.948 241.566 310.73 243.853 315.074C246.132 319.426 249.266 323.345 252.963 326.8L242.317 337.142C237.992 332.345 234.267 326.806 231.714 320.689C229.144 314.587 227.814 307.951 227.82 301.424C227.812 294.887 229.07 288.493 231.293 282.547C232.412 279.571 233.766 276.698 235.404 273.944C236.226 272.567 237.117 271.219 238.129 269.896C239.154 268.58 240.244 267.26 241.829 265.957L247.702 272.736Z" fill="url(#paint38_linear)"/>
<path d="M240.618 285.683C235.698 285.683 232.41 281.926 231.483 280.722C231.315 280.503 231.356 280.189 231.575 280.021C231.794 279.854 232.107 279.895 232.276 280.113C233.174 281.282 236.484 285.066 241.357 284.653C241.632 284.626 241.874 284.834 241.897 285.109C241.92 285.384 241.716 285.626 241.441 285.649C241.162 285.672 240.887 285.683 240.618 285.683Z" fill="#00E2EC"/>
<path d="M233.951 301.39C231.158 301.39 228.946 300.337 227.603 299.476C227.371 299.327 227.303 299.018 227.452 298.785C227.601 298.552 227.91 298.484 228.143 298.634C230.146 299.919 234.268 301.67 239.376 298.944C239.618 298.814 239.922 298.905 240.052 299.15C240.182 299.394 240.09 299.696 239.846 299.826C237.7 300.972 235.71 301.39 233.951 301.39Z" fill="#00E2EC"/>
<path d="M232.241 319.867C231.847 319.867 231.478 319.854 231.138 319.835C230.862 319.819 230.652 319.583 230.668 319.307C230.684 319.031 230.921 318.818 231.196 318.837C234.189 319.012 239.694 318.578 242.903 313.74C243.055 313.51 243.365 313.446 243.596 313.6C243.826 313.752 243.889 314.063 243.736 314.293C240.619 318.992 235.569 319.867 232.241 319.867Z" fill="#00E2EC"/>
<path d="M641.349 496.429C640.349 493.095 619.682 493.096 617.015 492.762C615.546 492.578 610.437 475.968 601.14 456.868C585.349 459.429 573.515 472.762 570.331 477.974L570.333 477.979C588.753 493.843 601.511 509.165 607.849 510.928C613.694 512.555 642.349 499.763 641.349 496.429Z" fill="url(#paint39_linear)"/>
<path d="M601.14 456.868C593.553 441.283 583.178 424.042 569.712 412.711C552.024 397.827 533.682 391.096 519.348 389.763C519.348 389.763 499.935 398.023 490.182 407.263C480.682 416.263 480.015 423.431 478.181 435.93C497.014 437.096 513.685 441.939 537.682 454.929C549.987 461.59 560.901 469.856 570.333 477.98L570.331 477.975C573.515 472.762 585.349 459.429 601.14 456.868Z" fill="url(#paint40_linear)"/>
<path d="M566.516 457.596C566.201 457.596 565.89 457.448 565.696 457.169C545.86 428.784 498.425 411.923 488.092 410.176C487.548 410.083 487.181 409.568 487.273 409.023C487.365 408.479 487.873 408.118 488.426 408.204C498.926 409.979 547.145 427.132 567.334 456.023C567.65 456.476 567.54 457.099 567.088 457.416C566.913 457.537 566.713 457.596 566.516 457.596Z" fill="#9F36AD"/>
<path d="M398.264 254.596C398.264 254.596 383.639 251.846 357.889 253.096C349.896 253.484 342.854 254.231 336.885 255.091C335.348 261.025 332.968 266.62 329.881 271.739C334.514 272.846 338.514 273.346 358.014 282.721C377.514 292.096 406.395 311.293 416.889 309.346C429.014 307.096 459.389 295.971 460.639 279.221C461.951 261.643 398.264 254.596 398.264 254.596Z" fill="url(#paint41_linear)"/>
<path d="M460.639 279.221C460.937 275.224 457.868 271.773 452.958 268.824C448.522 271.892 443.066 277.286 441.348 284.846C439.819 291.574 440.71 297.413 441.441 300.477C451.297 295.255 459.983 288.015 460.639 279.221Z" fill="url(#paint42_linear)"/>
<path d="M402.847 266.846C402.77 266.846 402.691 266.834 402.614 266.809C376.846 258.382 335.7 260.808 332.61 261.965C332.225 262.112 331.791 261.914 331.645 261.526C331.499 261.138 331.696 260.706 332.084 260.561C335.347 259.337 376.424 256.666 403.08 265.384C403.474 265.513 403.689 265.936 403.56 266.33C403.457 266.645 403.163 266.846 402.847 266.846Z" fill="#9F36AD"/>
<path d="M459.889 272.721C456.076 262.783 439.8 254.743 429.663 249.72C426.727 248.265 423.526 246.889 420.255 245.556C419.824 248.788 418.427 253.953 414.013 258.263C408.702 263.447 401.856 264.379 397.512 264.444C400.601 268.256 403.789 271.803 407.013 274.472C415.143 281.204 431.736 291.516 444.271 292.649C449.658 293.136 454.408 292.007 457.19 288.009C459.184 285.142 462.799 280.305 459.889 272.721Z" fill="url(#paint43_linear)"/>
<path d="M457.191 288.008C459.185 285.142 462.799 280.306 459.889 272.721C459.112 270.696 457.811 268.751 456.157 266.893C451.65 269.207 443.518 275.296 441.348 284.846C440.765 287.411 440.538 289.844 440.516 292.048C441.796 292.319 443.058 292.538 444.272 292.648C449.659 293.135 454.409 292.006 457.191 288.008Z" fill="url(#paint44_linear)"/>
<path d="M420.256 245.556C408.069 240.587 394.903 236.213 390.764 230.596C386.643 225.004 388.201 215.408 386.389 208.596C385.037 203.515 380.826 197.408 376.639 198.096C371.544 198.932 370.764 205.846 371.764 211.346C372.764 216.846 374.014 221.346 370.889 222.096C368.212 222.739 364.738 220.586 363.139 219.971C362.056 219.554 357.793 219.45 359.264 224.471C361.181 231.013 372.597 236.286 379.139 241.846C384.307 246.239 390.665 255.993 397.513 264.443C401.857 264.378 408.703 263.446 414.014 258.262C418.428 253.953 419.825 248.788 420.256 245.556Z" fill="url(#paint45_linear)"/>
<path d="M480.515 361.346C480.515 361.346 463.682 335.429 427.39 308.596C388.07 279.524 332.781 266.358 327.515 266.596C327.515 266.596 317.265 279.846 306.015 286.846C294.765 293.846 271.515 294.596 271.515 294.596C271.515 294.596 275.265 326.471 291.515 364.971C296.75 377.374 302.387 386.431 309.168 398.314C329.015 433.096 360.515 469.096 402.765 471.346C396.682 437.429 422.515 386.096 480.515 361.346Z" fill="url(#paint46_linear)"/>
<path d="M449.151 380.351C448.859 380.351 448.569 380.224 448.372 379.978C405.611 326.896 353.536 291.333 321.935 277.008C321.432 276.78 321.209 276.188 321.437 275.684C321.665 275.182 322.257 274.959 322.761 275.186C354.561 289.602 406.947 325.368 449.929 378.724C450.275 379.154 450.208 379.784 449.778 380.129C449.593 380.279 449.371 380.351 449.151 380.351Z" fill="#FFA2BA"/>
<path d="M402.848 450.874C402.808 450.874 402.769 450.872 402.729 450.867C352.537 444.947 319.869 394.124 318.502 391.963C318.207 391.496 318.346 390.879 318.813 390.584C319.28 390.287 319.897 390.428 320.193 390.895C331.589 408.918 363.555 444.233 402.964 448.881C403.512 448.945 403.904 449.443 403.84 449.991C403.78 450.5 403.348 450.874 402.848 450.874Z" fill="#FFA2BA"/>
<path d="M332.182 328.43C330.349 337.43 363.849 367.972 373.515 367.972C382.894 367.972 417.252 329.195 427.625 308.773C427.545 308.714 427.47 308.655 427.39 308.597C412.99 297.95 396.449 289.438 381.006 282.935C366.811 291.54 334.192 318.564 332.182 328.43Z" fill="url(#paint47_linear)"/>
<path d="M371.261 339.794C376.095 339.794 380.014 335.875 380.014 331.041C380.014 326.206 376.095 322.288 371.261 322.288C366.427 322.288 362.508 326.206 362.508 331.041C362.508 335.875 366.427 339.794 371.261 339.794Z" fill="#1AA9E8"/>
<path d="M384.169 321.953C386.278 321.953 387.989 320.243 387.989 318.133C387.989 316.024 386.278 314.313 384.169 314.313C382.059 314.313 380.349 316.024 380.349 318.133C380.349 320.243 382.059 321.953 384.169 321.953Z" fill="#1AA9E8"/>
<path d="M371.261 350.291C360.647 350.291 352.011 341.655 352.011 331.041C352.011 320.427 360.647 311.791 371.261 311.791C381.875 311.791 390.511 320.427 390.511 331.041C390.511 341.655 381.875 350.291 371.261 350.291ZM371.261 313.791C361.749 313.791 354.011 321.529 354.011 331.041C354.011 340.553 361.749 348.291 371.261 348.291C380.773 348.291 388.511 340.553 388.511 331.041C388.511 321.529 380.773 313.791 371.261 313.791Z" fill="#1AA9E8"/>
<path d="M393.229 312.476C392.728 312.476 392.226 312.288 391.837 311.912C391.044 311.143 391.024 309.877 391.793 309.084L406.02 294.403C406.79 293.61 408.056 293.591 408.848 294.359C409.641 295.128 409.661 296.394 408.892 297.187L394.665 311.868C394.273 312.273 393.751 312.476 393.229 312.476Z" fill="#9F36AD"/>
<path d="M384.28 304.439C383.774 304.439 383.267 304.248 382.878 303.865C382.09 303.091 382.08 301.824 382.855 301.037L395.076 288.612C395.85 287.825 397.118 287.815 397.904 288.589C398.692 289.363 398.702 290.63 397.927 291.417L385.706 303.842C385.314 304.24 384.797 304.439 384.28 304.439Z" fill="#9F36AD"/>
<path d="M403.791 319.981C403.319 319.981 402.845 319.815 402.464 319.477C401.638 318.744 401.563 317.479 402.296 316.653L416.415 300.743C417.15 299.917 418.414 299.843 419.239 300.575C420.065 301.308 420.14 302.573 419.407 303.399L405.288 319.309C404.892 319.754 404.343 319.981 403.791 319.981Z" fill="#9F36AD"/>
<path d="M597.149 378.526C568.995 368.682 533.929 354.956 510.015 355.846C490.015 356.591 480.515 361.346 480.515 361.346C422.515 386.096 396.682 437.429 402.765 471.346C476.937 475.296 498.703 431.653 538.015 418.096C553.528 412.746 572.68 412.13 590.179 412.483C590.179 412.482 590.178 412.481 590.178 412.48C586.008 394.197 594.682 382.263 597.149 378.526Z" fill="url(#paint48_linear)"/>
<path d="M509.765 382.93C530.727 381.107 536.2 365.615 535.891 358.899C526.516 356.785 517.69 355.56 510.015 355.846C490.015 356.591 480.515 361.346 480.515 361.346C481.432 371.93 490.026 384.647 509.765 382.93Z" fill="url(#paint49_linear)"/>
<path d="M507.564 374.596C506.739 374.596 506.068 373.93 506.064 373.104L505.972 355.737C505.968 354.909 506.636 354.234 507.464 354.229C507.467 354.229 507.469 354.229 507.472 354.229C508.297 354.229 508.968 354.895 508.972 355.721L509.064 373.088C509.068 373.916 508.4 374.591 507.572 374.596C507.569 374.596 507.567 374.596 507.564 374.596Z" fill="#9F36AD"/>
<path d="M518.937 374.58C518.112 374.58 517.441 373.913 517.437 373.088L517.351 356.15C517.347 355.321 518.015 354.646 518.843 354.642C518.846 354.642 518.849 354.642 518.851 354.642C519.676 354.642 520.347 355.309 520.351 356.134L520.437 373.072C520.441 373.901 519.773 374.576 518.945 374.58C518.942 374.58 518.939 374.58 518.937 374.58Z" fill="#9F36AD"/>
<path d="M496.443 374.659C495.639 374.659 494.974 374.022 494.945 373.213L494.376 357.243C494.347 356.415 494.994 355.72 495.821 355.69C496.642 355.652 497.343 356.307 497.374 357.135L497.943 373.105C497.972 373.933 497.325 374.628 496.498 374.658C496.479 374.659 496.46 374.659 496.443 374.659Z" fill="#9F36AD"/>
<path d="M413.935 451.519C410.229 451.519 406.493 451.311 402.73 450.868C402.182 450.804 401.79 450.306 401.854 449.758C401.919 449.209 402.417 448.819 402.964 448.882C442.814 453.585 480.135 431.2 504.83 416.39C513.744 411.044 520.784 406.822 526.167 404.827C543.731 398.316 570.135 399.841 589.192 402.266C589.74 402.336 590.128 402.836 590.058 403.384C589.988 403.932 589.495 404.314 588.94 404.25C570.102 401.852 544.044 400.332 526.862 406.701C521.654 408.632 514.334 413.021 505.858 418.104C483.245 431.666 450.143 451.519 413.935 451.519Z" fill="#FFA2BA"/>
<path d="M636.515 411.596C640.866 409.77 646.683 406.231 653.265 395.346C657.598 388.18 660.932 374.77 658.265 374.846C652.432 375.013 645.501 387.299 636.015 388.096C627.921 388.776 613.734 384.324 597.149 378.526C594.682 382.263 586.008 394.197 590.178 412.48C590.178 412.481 590.179 412.482 590.179 412.483C610.845 412.898 629.204 414.664 636.515 411.596Z" fill="url(#paint50_linear)"/>
<path d="M609.015 406.096C612.328 406.096 615.015 403.41 615.015 400.096C615.015 396.782 612.328 394.096 609.015 394.096C605.701 394.096 603.015 396.782 603.015 400.096C603.015 403.41 605.701 406.096 609.015 406.096Z" fill="#9F36AD"/>
<path d="M303.515 425.596C305.765 404.346 312.515 392.721 313.265 376.096C314.083 357.954 308.159 305.26 274.265 297.846C268.265 296.533 261.515 297.909 261.515 297.909C247.848 317.096 234.681 345.096 235.847 381.096C237.133 420.778 260.154 446.953 273.847 460.596C273.963 460.711 274.073 460.821 274.188 460.935C278.472 456.902 288.719 450.043 303.729 449.761C302.947 441.725 302.708 433.213 303.515 425.596Z" fill="url(#paint51_linear)"/>
<path d="M255.765 397.971C251.533 384.592 241.066 381.066 235.843 380.808C235.846 380.905 235.846 380.999 235.849 381.096C236.449 399.6 241.776 415.165 248.679 427.894C254.441 423.671 260.015 411.405 255.765 397.971Z" fill="url(#paint52_linear)"/>
<path d="M239.534 405.771C238.885 405.771 238.287 405.347 238.095 404.694C237.862 403.899 238.317 403.065 239.112 402.832L249.028 399.921C249.822 399.691 250.656 400.145 250.89 400.938C251.123 401.733 250.668 402.567 249.873 402.8L239.957 405.711C239.816 405.751 239.673 405.771 239.534 405.771Z" fill="#9F36AD"/>
<path d="M237.749 397.748C237.1 397.748 236.502 397.324 236.31 396.671C236.077 395.876 236.532 395.042 237.327 394.809L246.767 392.038C247.562 391.807 248.395 392.261 248.629 393.055C248.862 393.85 248.407 394.684 247.612 394.917L238.172 397.688C238.031 397.729 237.889 397.748 237.749 397.748Z" fill="#9F36AD"/>
<path d="M241.961 414.223C241.337 414.223 240.755 413.831 240.542 413.208C240.274 412.424 240.692 411.571 241.476 411.304L251.007 408.045C251.793 407.774 252.644 408.195 252.912 408.979C253.18 409.763 252.762 410.616 251.978 410.883L242.447 414.142C242.286 414.198 242.121 414.223 241.961 414.223Z" fill="#9F36AD"/>
<path d="M280.015 445.763C279.675 445.763 279.344 445.59 279.157 445.278C278.985 444.992 278.758 444.624 278.482 444.175C259.984 414.178 255.33 388.079 254.682 371.468C253.209 333.7 264.304 306.825 271.093 296.9C271.404 296.444 272.028 296.327 272.483 296.639C272.939 296.951 273.056 297.573 272.744 298.029C266.095 307.752 255.228 334.144 256.681 371.39C257.32 387.762 261.916 413.498 280.185 443.125C280.466 443.582 280.698 443.957 280.873 444.248C281.157 444.722 281.004 445.336 280.53 445.62C280.368 445.717 280.19 445.763 280.015 445.763Z" fill="#FFA2BA"/>
<path d="M297.702 488.721C299.806 495.416 294.264 502.263 293.889 508.221C293.465 514.957 301.435 524.192 305.639 523.971C309.597 523.763 311.639 519.096 311.514 515.846C311.389 512.596 309.889 504.846 312.764 504.221C315.639 503.596 314.796 509.356 316.139 511.346C317.264 513.013 320.097 512.929 320.889 510.596C321.697 508.214 322.014 501.513 320.014 497.346C317.57 492.253 313.014 486.721 309.764 479.346C307.747 474.769 305.009 462.904 303.729 449.761C288.72 450.043 278.472 456.902 274.188 460.935C290.535 477.22 295.653 482.204 297.702 488.721Z" fill="url(#paint53_linear)"/>
<path d="M300.639 254.721C302.07 256.971 310.264 266.096 314.889 268.596C313.514 272.846 307.889 279.596 299.014 283.721C291.75 287.097 282.701 288.471 282.701 288.471C282.701 288.471 279.263 280.096 277.138 270.158C275.695 263.409 275.138 257.095 275.138 257.095C275.138 257.095 280.951 260.283 288.263 260.095C295.467 259.911 300.639 254.721 300.639 254.721Z" fill="url(#paint54_linear)"/>
<path d="M301.597 240.179C298.68 228.512 289.764 216.679 287.347 213.512H280.43L256.013 228.512L255.263 241.345C255.263 241.345 258.62 245.619 263.995 251.297C261.898 252.156 260.43 254.148 260.43 256.469C260.43 259.576 263.06 262.094 266.305 262.094C268.68 262.094 270.72 260.743 271.646 258.802C280.446 266.077 292.141 265.976 297.68 262.177C303.497 258.191 304.514 251.846 301.597 240.179Z" fill="url(#paint55_linear)"/>
<path d="M279.514 241.346C280.619 241.346 281.514 240.451 281.514 239.346C281.514 238.242 280.619 237.346 279.514 237.346C278.41 237.346 277.514 238.242 277.514 239.346C277.514 240.451 278.41 241.346 279.514 241.346Z" fill="#212F66"/>
<path d="M293.597 231.596C294.61 231.596 295.43 230.776 295.43 229.763C295.43 228.751 294.61 227.93 293.597 227.93C292.585 227.93 291.764 228.751 291.764 229.763C291.764 230.776 292.585 231.596 293.597 231.596Z" fill="#212F66"/>
<path d="M286.559 230.38C287.983 228.779 298.321 237.241 298.054 239.023C297.787 240.805 295.139 242.034 293.326 242.346C291.349 238.783 285.846 231.182 286.559 230.38Z" fill="url(#paint56_linear)"/>
<path d="M293.733 252.18C292.566 252.18 291.464 251.797 290.548 251.073C290.331 250.902 290.295 250.587 290.466 250.371C290.637 250.154 290.953 250.118 291.169 250.289C291.907 250.872 292.793 251.181 293.732 251.181C296.024 251.181 297.888 249.303 297.888 246.993C297.888 246.709 297.861 246.424 297.805 246.148C297.75 245.877 297.924 245.613 298.194 245.559C298.466 245.502 298.73 245.679 298.784 245.949C298.854 246.291 298.888 246.642 298.888 246.993C298.889 249.853 296.577 252.18 293.733 252.18Z" fill="#954374"/>
<path d="M292.847 199.846C290.264 197.429 286.43 200.263 284.097 202.846C281.764 205.429 279.923 208.438 277.764 208.263C274.681 208.013 275.746 200.647 271.931 201.096C266.264 201.763 263.431 214.929 261.598 215.929C259.765 216.929 258.228 212.787 255.348 214.596C251.765 216.846 252.872 227.5 252.431 230.096C252.134 231.843 246.998 235.025 247.514 241.346C248.136 248.961 255.638 254.616 260.432 256.494C260.432 256.486 260.431 256.478 260.431 256.471C260.431 253.806 262.369 251.578 264.968 250.998C264.946 248.271 264.426 245.148 263.764 242.847C262.181 237.347 258.557 233.076 258.557 233.076C260.89 232.826 275.348 228.514 285.431 219.681C294.046 212.133 295.567 202.39 292.847 199.846Z" fill="url(#paint57_linear)"/>
<path d="M275.896 192.252C258.838 192.252 243.904 201.34 235.667 214.938C243.429 207.91 253.724 203.627 265.021 203.627C289.184 203.627 308.771 223.214 308.771 247.377C308.771 263.187 300.383 277.036 287.817 284.723C308.001 279.446 322.896 261.09 322.896 239.252C322.896 213.295 301.853 192.252 275.896 192.252Z" fill="url(#paint58_radial)"/>
<path d="M287.918 279.444C272.854 279.444 256.565 274.073 248.348 262.763C233.515 242.346 242.89 204.721 259.036 195.38C241.411 202.158 228.896 219.238 228.896 239.252C228.896 265.21 249.938 286.252 275.896 286.252C286.789 286.252 296.809 282.536 304.779 276.316C299.543 278.329 293.862 279.444 287.918 279.444Z" fill="url(#paint59_linear)"/>
<path d="M241.035 256.42C238.12 256.42 235.412 257.295 233.148 258.787C237.184 267.604 243.861 274.953 252.174 279.823C254.182 277.353 255.39 274.206 255.39 270.775C255.391 262.846 248.964 256.42 241.035 256.42Z" fill="url(#paint60_linear)"/>
<g opacity="0.5">
<path opacity="0.5" d="M299.141 208.548L300.145 209.191L301.183 209.911C301.854 210.396 302.513 210.9 303.161 211.424C303.934 212.049 304.054 213.183 303.428 213.957C302.803 214.73 301.669 214.85 300.896 214.224C300.809 214.154 300.722 214.067 300.651 213.985C300.163 213.407 299.657 212.84 299.135 212.285L298.352 211.483L297.487 210.663C296.946 210.151 296.924 209.297 297.436 208.757C297.888 208.279 298.607 208.206 299.141 208.548Z" fill="white"/>
</g>
<g opacity="0.5">
<path opacity="0.5" d="M308.268 217.2C309.263 218.703 310.183 220.325 310.967 221.974C311.755 223.629 312.425 225.339 312.971 227.086C314.064 230.58 314.652 234.223 314.728 237.865C314.748 238.798 314.007 239.57 313.074 239.59C312.159 239.609 311.398 238.892 311.351 237.984C311.182 234.658 310.548 231.367 309.465 228.237C308.924 226.672 308.274 225.147 307.519 223.676C306.76 222.199 305.916 220.804 304.946 219.428C304.309 218.525 304.525 217.277 305.427 216.64C306.329 216.003 307.578 216.219 308.215 217.121C308.225 217.135 308.234 217.148 308.243 217.162L308.268 217.2Z" fill="white"/>
</g>
<path d="M336.885 255.091C328.634 256.279 322.451 257.68 318.701 258.654C311.313 274.928 294.931 286.253 275.894 286.253C274.184 286.253 272.497 286.156 270.833 285.978C266.762 290.425 262.358 296.635 259.92 300.205C265.022 301.538 270.374 302.253 275.893 302.253C305.218 302.252 329.86 282.218 336.885 255.091Z" fill="url(#paint61_linear)"/>
<path d="M259.031 195.368C264.146 193.278 269.665 192.174 275.21 192.016C280.757 191.883 286.34 192.732 291.605 194.539C302.164 198.127 311.284 205.685 316.927 215.313C322.574 224.942 324.6 236.639 322.549 247.578C321.533 253.052 319.536 258.332 316.69 263.098C313.813 267.843 310.122 272.088 305.793 275.52C314.194 268.349 319.991 258.262 321.793 247.444C322.694 242.04 322.697 236.49 321.73 231.111C320.766 225.728 318.838 220.525 316.065 215.818C313.327 211.09 309.734 206.861 305.534 203.361C301.328 199.863 296.501 197.126 291.352 195.263C281.044 191.539 269.407 191.582 259.031 195.368Z" fill="white"/>
<path d="M384.704 225.405C384.834 225.918 384.524 226.439 384.011 226.57L367.402 231.172C366.889 231.302 366.368 230.992 366.237 230.479L355.837 193.987C355.707 193.475 356.017 192.953 356.529 192.822L374.138 187.22C374.65 187.09 375.172 187.4 375.302 187.912L384.704 225.405Z" fill="url(#paint62_linear)"/>
<path d="M380.802 222.771L367.602 226.507L358.455 194.722L372.583 190.005L380.802 222.771Z" fill="url(#paint63_linear)"/>
<path d="M367.515 205.596C369.54 205.596 371.182 203.954 371.182 201.929C371.182 199.904 369.54 198.262 367.515 198.262C365.489 198.262 363.848 199.904 363.848 201.929C363.848 203.954 365.489 205.596 367.515 205.596Z" fill="#FE697A"/>
<path d="M175.905 378.096C177.838 378.096 179.405 376.529 179.405 374.596C179.405 372.663 177.838 371.096 175.905 371.096C173.972 371.096 172.405 372.663 172.405 374.596C172.405 376.529 173.972 378.096 175.905 378.096Z" fill="#FE697A"/>
<path d="M329.361 393.724C331.294 393.724 332.861 392.157 332.861 390.224C332.861 388.291 331.294 386.724 329.361 386.724C327.428 386.724 325.861 388.291 325.861 390.224C325.861 392.157 327.428 393.724 329.361 393.724Z" fill="#FE697A"/>
<path d="M515.515 262.096C517.448 262.096 519.015 260.529 519.015 258.596C519.015 256.663 517.448 255.096 515.515 255.096C513.582 255.096 512.015 256.663 512.015 258.596C512.015 260.529 513.582 262.096 515.515 262.096Z" fill="#FE697A"/>
<path d="M525.181 160.096C524.64 160.096 524.195 159.664 524.181 159.12C524.091 155.42 523.154 152.779 521.317 151.045C517.473 147.419 509.74 147.679 499.958 148.01L497.379 148.096C493.573 148.208 491.157 147.523 489.737 145.925C487.805 143.751 488.295 140.483 488.813 137.023C489.282 133.902 489.765 130.674 488.596 127.997C485.139 120.074 464.747 120.302 447.838 125.059C430.315 129.987 416.738 135.342 416.603 135.395C416.09 135.597 415.508 135.347 415.305 134.833C415.101 134.32 415.353 133.739 415.867 133.535C416.003 133.481 429.669 128.091 447.297 123.133C461.54 119.127 485.844 116.688 490.431 127.196C491.829 130.401 491.279 134.076 490.792 137.319C490.325 140.433 489.922 143.122 491.232 144.596C492.214 145.702 494.207 146.191 497.316 146.097L499.889 146.013C510.138 145.666 518.237 145.393 522.688 149.592C524.934 151.711 526.076 154.812 526.18 159.072C526.193 159.624 525.756 160.083 525.204 160.096C525.197 160.096 525.189 160.096 525.181 160.096Z" fill="#FDE1A7"/>
<path d="M530.85 151.748C530.444 151.748 530.11 151.424 530.1 151.016C529.935 144.227 527.149 141.019 520.483 139.942C520.074 139.876 519.795 139.491 519.862 139.082C519.928 138.673 520.322 138.396 520.721 138.461C528.063 139.647 531.418 143.507 531.6 150.979C531.61 151.393 531.283 151.737 530.869 151.747C530.862 151.748 530.856 151.748 530.85 151.748Z" fill="#FDE1A7"/>
<path d="M421.62 124.802C421.384 124.802 421.151 124.691 421.005 124.482C420.767 124.143 420.85 123.675 421.189 123.438C423.355 121.921 434.931 115.905 447.899 116.428C448.313 116.445 448.635 116.794 448.619 117.207C448.603 117.621 448.247 117.952 447.84 117.927C435.27 117.419 424.133 123.208 422.05 124.667C421.919 124.758 421.769 124.802 421.62 124.802Z" fill="#FDE1A7"/>
<path d="M447.744 142.677C447.65 142.677 447.554 142.659 447.46 142.621C444.867 141.56 437.526 141.675 435.159 141.801C434.721 141.812 434.392 141.504 434.37 141.092C434.349 140.678 434.666 140.325 435.079 140.303C435.175 140.299 444.633 139.845 448.028 141.233C448.411 141.39 448.595 141.828 448.438 142.212C448.32 142.501 448.04 142.677 447.744 142.677Z" fill="#FDE1A7"/>
<path d="M511.236 247.848C511.195 247.848 511.153 247.846 511.111 247.84C510.563 247.772 510.174 247.272 510.243 246.724C510.976 240.854 517.145 238.14 523.11 235.515C529.84 232.554 536.197 229.757 536.318 222.997C536.404 218.241 532.444 215.802 527.86 212.978C523.338 210.192 518.211 207.035 517.492 200.966C516.64 193.776 521.926 187.782 526.172 182.966C528.495 180.332 530.69 177.843 531.27 175.821C531.422 175.291 531.976 174.984 532.506 175.135C533.037 175.287 533.344 175.841 533.192 176.372C532.488 178.828 530.256 181.358 527.672 184.289C523.482 189.041 518.732 194.427 519.479 200.73C520.084 205.838 524.371 208.479 528.91 211.274C533.588 214.156 538.425 217.135 538.319 223.032C538.174 231.071 530.599 234.404 523.917 237.345C518.211 239.855 512.821 242.227 512.229 246.971C512.164 247.478 511.733 247.848 511.236 247.848Z" fill="#FDE1A7"/>
<path d="M505.819 210.723C505.582 210.723 505.348 210.611 505.203 210.402C499.726 202.544 502.498 195.099 504.728 192.26C504.985 191.934 505.456 191.877 505.781 192.134C506.107 192.39 506.164 192.862 505.908 193.187C505.85 193.26 500.217 200.625 506.433 209.545C506.67 209.885 506.586 210.352 506.246 210.589C506.116 210.68 505.966 210.723 505.819 210.723Z" fill="#FDE1A7"/>
<path d="M381.819 151.846C381.582 151.846 381.348 151.734 381.203 151.525C375.726 143.667 378.498 136.222 380.728 133.383C380.985 133.057 381.456 133 381.781 133.257C382.107 133.513 382.164 133.985 381.908 134.31C381.85 134.383 376.217 141.748 382.433 150.668C382.67 151.008 382.586 151.475 382.246 151.712C382.116 151.803 381.966 151.846 381.819 151.846Z" fill="#FDE1A7"/>
<path d="M462.016 313.452C461.685 313.452 461.361 313.288 461.17 312.987C460.875 312.521 461.013 311.903 461.479 311.607C464.37 309.774 469.452 309.278 475.337 308.703C480.287 308.22 485.897 307.672 490.431 306.181C497.833 303.747 505.97 298.496 506.606 291.056C507.022 286.199 504.74 283.878 502.325 281.422C500.288 279.351 498.182 277.21 498.015 273.624C497.582 264.318 512.336 257.474 512.965 257.187C513.465 256.958 514.06 257.179 514.29 257.682C514.519 258.184 514.298 258.777 513.795 259.007C508.899 261.242 499.716 267.154 500.013 273.531C500.144 276.353 501.815 278.052 503.75 280.02C506.254 282.566 509.092 285.452 508.599 291.226C507.879 299.638 499.065 305.449 491.056 308.081C486.312 309.641 480.585 310.2 475.532 310.693C470.136 311.22 465.038 311.718 462.551 313.297C462.385 313.402 462.199 313.452 462.016 313.452Z" fill="#FDE1A7"/>
<path d="M350.016 184.452C349.685 184.452 349.361 184.288 349.17 183.987C348.875 183.521 349.013 182.903 349.479 182.607C352.37 180.774 357.452 180.278 363.337 179.703C368.287 179.22 373.897 178.672 378.431 177.181C385.833 174.747 393.97 169.496 394.606 162.056C395.022 157.199 392.74 154.878 390.325 152.422C388.288 150.351 386.182 148.21 386.015 144.624C385.582 135.318 400.336 128.474 400.965 128.187C401.465 127.958 402.06 128.179 402.29 128.682C402.519 129.184 402.298 129.777 401.795 130.007C396.899 132.242 387.716 138.154 388.013 144.531C388.144 147.353 389.815 149.052 391.75 151.02C394.254 153.566 397.092 156.452 396.599 162.226C395.879 170.638 387.065 176.449 379.056 179.081C374.312 180.641 368.585 181.2 363.532 181.693C358.136 182.22 353.038 182.718 350.551 184.297C350.385 184.402 350.199 184.452 350.016 184.452Z" fill="#FDE1A7"/>
<path d="M492.016 273.971C491.978 273.971 491.941 273.969 491.903 273.965C491.354 273.903 490.96 273.408 491.021 272.86C492.298 261.496 500.469 256.93 503.51 256.13C504.044 255.988 504.592 256.309 504.732 256.843C504.872 257.377 504.553 257.924 504.019 258.065C501.527 258.721 494.154 262.888 493.008 273.085C492.952 273.594 492.518 273.971 492.016 273.971Z" fill="#FDE1A7"/>
<path d="M328.157 391.359C325.325 391.359 318.228 390.062 302.768 381.214C300.738 380.052 298.678 378.854 296.587 377.638C275.942 365.632 252.545 352.032 225.684 354.342C205.788 356.06 196.342 367.78 193.238 371.632C192.934 372.008 192.694 372.307 192.512 372.51C192.145 372.923 191.513 372.961 191.1 372.593C190.687 372.227 190.65 371.594 191.017 371.182C191.183 370.995 191.403 370.722 191.681 370.377C194.917 366.36 204.767 354.141 225.513 352.35C252.998 349.966 276.691 363.754 297.594 375.91C299.68 377.123 301.736 378.319 303.762 379.478C323.47 390.756 328.986 389.292 329.039 389.278C329.553 389.121 330.116 389.397 330.29 389.907C330.464 390.416 330.221 390.966 329.719 391.158C329.572 391.214 329.102 391.359 328.157 391.359Z" fill="#FDE1A7"/>
<path d="M188.097 358.096C187.932 358.096 187.767 358.042 187.629 357.932C187.306 357.673 187.254 357.201 187.512 356.877C190.249 353.455 198.182 345.621 212.743 346.848C213.156 346.883 213.462 347.245 213.428 347.658C213.393 348.071 213.023 348.376 212.618 348.343C198.787 347.184 191.271 354.58 188.683 357.814C188.535 357.999 188.317 358.096 188.097 358.096Z" fill="#FDE1A7"/>
<path d="M173.404 416.096C172.883 416.096 172.444 415.693 172.407 415.165C171.118 396.61 173.278 380.269 174.942 374.326C175.091 373.794 175.644 373.483 176.174 373.633C176.706 373.781 177.016 374.334 176.867 374.865C175.24 380.678 173.131 396.722 174.402 415.026C174.44 415.577 174.025 416.054 173.474 416.093C173.451 416.095 173.427 416.096 173.404 416.096Z" fill="#FDE1A7"/>
<path d="M172.426 455.751C172.297 455.751 172.165 455.726 172.038 455.673C171.71 455.534 163.999 452.224 163.132 446.672C162.563 443.031 164.167 440.702 165.718 438.45C166.639 437.113 167.592 435.731 168.153 434.01C170.293 427.451 165.727 423.848 163.787 423.014C163.28 422.795 163.046 422.207 163.264 421.7C163.481 421.193 164.07 420.961 164.578 421.177C166.984 422.213 172.659 426.649 170.055 434.632C169.404 436.628 168.321 438.199 167.366 439.586C165.855 441.778 164.662 443.511 165.108 446.364C165.804 450.813 172.747 453.801 172.816 453.831C173.324 454.046 173.563 454.633 173.348 455.141C173.186 455.522 172.815 455.751 172.426 455.751Z" fill="#FDE1A7"/>
<path d="M177.141 441.317C176.961 441.317 176.781 441.253 176.638 441.123C176.331 440.846 176.307 440.371 176.585 440.064C179.066 437.321 179.261 434.316 178.987 432.279C178.577 429.228 177.001 426.967 176.013 426.337C175.664 426.114 175.561 425.65 175.784 425.302C176.007 424.952 176.471 424.85 176.82 425.073C178.258 425.99 180.028 428.758 180.474 432.079C180.79 434.432 180.565 437.901 177.698 441.07C177.549 441.234 177.345 441.317 177.141 441.317Z" fill="#FDE1A7"/>
<defs>
<linearGradient id="paint0_linear" x1="174.512" y1="77.3104" x2="809.941" y2="712.739" gradientUnits="userSpaceOnUse">
<stop stop-color="#071832"/>
<stop offset="0.526042" stop-color="#38294E"/>
</linearGradient>
<radialGradient id="paint1_radial" cx="0" cy="0" r="1" gradientUnits="userSpaceOnUse" gradientTransform="translate(699.15 651.159) rotate(5.24423) scale(136.953 69.865)">
<stop stop-color="white" stop-opacity="0.3"/>
<stop offset="0.292" stop-color="#FDFDFE" stop-opacity="0.2124"/>
<stop offset="0.4342" stop-color="#F5F8FB" stop-opacity="0.1697"/>
<stop offset="0.5439" stop-color="#E8EEF6" stop-opacity="0.1368"/>
<stop offset="0.6372" stop-color="#D6DFEF" stop-opacity="0.1089"/>
<stop offset="0.7198" stop-color="#BDCDE6" stop-opacity="0.0841"/>
<stop offset="0.7951" stop-color="#A0B6DB" stop-opacity="0.0615"/>
<stop offset="0.8647" stop-color="#7C9BCE" stop-opacity="0.0406"/>
<stop offset="0.9299" stop-color="#537CBE" stop-opacity="0.021"/>
<stop offset="0.9892" stop-color="#265AAD" stop-opacity="0.01"/>
<stop offset="1" stop-color="#1D53AA" stop-opacity="0"/>
</radialGradient>
<radialGradient id="paint2_radial" cx="0" cy="0" r="1" gradientUnits="userSpaceOnUse" gradientTransform="translate(812.715 259.753) scale(34.665)">
<stop stop-color="white" stop-opacity="0.25"/>
<stop offset="0.2938" stop-color="#FDFDFE" stop-opacity="0.1766"/>
<stop offset="0.4368" stop-color="#F6F5FA" stop-opacity="0.1408"/>
<stop offset="0.5472" stop-color="#EAE8F2" stop-opacity="0.1132"/>
<stop offset="0.6409" stop-color="#D9D6E8" stop-opacity="0.0898"/>
<stop offset="0.7241" stop-color="#C3BDDA" stop-opacity="0.069"/>
<stop offset="0.7998" stop-color="#A8A0CA" stop-opacity="0.0501"/>
<stop offset="0.8697" stop-color="#887CB6" stop-opacity="0.0326"/>
<stop offset="0.9348" stop-color="#63549F" stop-opacity="0.0163"/>
<stop offset="0.9946" stop-color="#3A2685" stop-opacity="0.01"/>
<stop offset="1" stop-color="#362283" stop-opacity="0"/>
</radialGradient>
<radialGradient id="paint3_radial" cx="0" cy="0" r="1" gradientUnits="userSpaceOnUse" gradientTransform="translate(153.348 239.763) scale(34.3335)">
<stop stop-color="white" stop-opacity="0.25"/>
<stop offset="0.3207" stop-color="#FDFDFF" stop-opacity="0.1698"/>
<stop offset="0.4767" stop-color="#F6F5FD" stop-opacity="0.1308"/>
<stop offset="0.5972" stop-color="#E9E8FA" stop-opacity="0.1007"/>
<stop offset="0.6995" stop-color="#D8D6F6" stop-opacity="0.0751"/>
<stop offset="0.7902" stop-color="#C1BDF1" stop-opacity="0.0524"/>
<stop offset="0.8728" stop-color="#A5A0EB" stop-opacity="0.0318"/>
<stop offset="0.9475" stop-color="#847DE4" stop-opacity="0.0131"/>
<stop offset="1" stop-color="#6860DE" stop-opacity="0"/>
</radialGradient>
<linearGradient id="paint4_linear" x1="137.556" y1="223.971" x2="169.14" y2="255.555" gradientUnits="userSpaceOnUse">
<stop stop-color="#FFE2A8"/>
<stop offset="1" stop-color="#271068"/>
</linearGradient>
<linearGradient id="paint5_linear" x1="137.556" y1="223.971" x2="169.14" y2="255.555" gradientUnits="userSpaceOnUse">
<stop stop-color="#FFE2A8"/>
<stop offset="1" stop-color="#A482FF"/>
</linearGradient>
<linearGradient id="paint6_linear" x1="795.745" y1="242.783" x2="829.686" y2="276.724" gradientUnits="userSpaceOnUse">
<stop stop-color="#8C6AE2"/>
<stop offset="1" stop-color="#5A55F8"/>
</linearGradient>
<linearGradient id="paint7_linear" x1="629.283" y1="627.685" x2="797.638" y2="627.685" gradientUnits="userSpaceOnUse">
<stop stop-color="#005092"/>
<stop offset="1" stop-color="#8C6AE2"/>
</linearGradient>
<linearGradient id="paint8_linear" x1="712.095" y1="628.954" x2="797.638" y2="628.954" gradientUnits="userSpaceOnUse">
<stop stop-color="#1AA9E8"/>
<stop offset="1" stop-color="#005092"/>
</linearGradient>
<linearGradient id="paint9_linear" x1="629.283" y1="619.99" x2="702.445" y2="619.99" gradientUnits="userSpaceOnUse">
<stop stop-color="#005092"/>
<stop offset="1" stop-color="#1AA9E8"/>
</linearGradient>
<linearGradient id="paint10_linear" x1="803.966" y1="268.502" x2="818.917" y2="253.55" gradientUnits="userSpaceOnUse">
<stop stop-color="#FFE2A8"/>
<stop offset="1" stop-color="#745B7F"/>
</linearGradient>
<radialGradient id="paint11_radial" cx="0" cy="0" r="1" gradientUnits="userSpaceOnUse" gradientTransform="translate(880.191 489.525) rotate(89.5817) scale(14.5052 13.5014)">
<stop stop-color="#231F20"/>
<stop offset="0.1018" stop-color="#262228"/>
<stop offset="0.2637" stop-color="#2F2A3F"/>
<stop offset="0.4653" stop-color="#3D3865"/>
<stop offset="0.6989" stop-color="#504A99"/>
<stop offset="0.9564" stop-color="#6962DB"/>
<stop offset="1" stop-color="#6D66E7"/>
</radialGradient>
<linearGradient id="paint12_linear" x1="824.513" y1="512.382" x2="824.513" y2="469.716" gradientUnits="userSpaceOnUse">
<stop stop-color="#1AA9E8"/>
<stop offset="1" stop-color="#B0E1FF"/>
</linearGradient>
<linearGradient id="paint13_linear" x1="859.933" y1="457.508" x2="876.576" y2="474.151" gradientUnits="userSpaceOnUse">
<stop stop-color="#B0E1FF"/>
<stop offset="1" stop-color="#1AA9E8"/>
</linearGradient>
<linearGradient id="paint14_linear" x1="848.702" y1="489.442" x2="882.997" y2="523.737" gradientUnits="userSpaceOnUse">
<stop stop-color="#B0E1FF"/>
<stop offset="1" stop-color="#1AA9E8"/>
</linearGradient>
<linearGradient id="paint15_linear" x1="776.919" y1="507.022" x2="776.919" y2="485.815" gradientUnits="userSpaceOnUse">
<stop stop-color="#6D66E7"/>
<stop offset="0.0436" stop-color="#6962DB"/>
<stop offset="0.3011" stop-color="#504A99"/>
<stop offset="0.5347" stop-color="#3D3865"/>
<stop offset="0.7363" stop-color="#2F2A3F"/>
<stop offset="0.8982" stop-color="#262228"/>
<stop offset="1" stop-color="#231F20"/>
</linearGradient>
<linearGradient id="paint16_linear" x1="791.608" y1="468.939" x2="812.672" y2="481.1" gradientUnits="userSpaceOnUse">
<stop stop-color="#6D66E7"/>
<stop offset="0.0436" stop-color="#6962DB"/>
<stop offset="0.3011" stop-color="#504A99"/>
<stop offset="0.5347" stop-color="#3D3865"/>
<stop offset="0.7363" stop-color="#2F2A3F"/>
<stop offset="0.8982" stop-color="#262228"/>
<stop offset="1" stop-color="#231F20"/>
</linearGradient>
<radialGradient id="paint17_radial" cx="0" cy="0" r="1" gradientUnits="userSpaceOnUse" gradientTransform="translate(820.14 486.754) scale(7.0295)">
<stop stop-color="#231F20"/>
<stop offset="0.1018" stop-color="#262228"/>
<stop offset="0.2637" stop-color="#2F2A3F"/>
<stop offset="0.4653" stop-color="#3D3865"/>
<stop offset="0.6989" stop-color="#504A99"/>
<stop offset="0.9564" stop-color="#6962DB"/>
<stop offset="1" stop-color="#6D66E7"/>
</radialGradient>
<radialGradient id="paint18_radial" cx="0" cy="0" r="1" gradientUnits="userSpaceOnUse" gradientTransform="translate(833.536 486.213) scale(7.104)">
<stop stop-color="#231F20"/>
<stop offset="0.1018" stop-color="#262228"/>
<stop offset="0.2637" stop-color="#2F2A3F"/>
<stop offset="0.4653" stop-color="#3D3865"/>
<stop offset="0.6989" stop-color="#504A99"/>
<stop offset="0.9564" stop-color="#6962DB"/>
<stop offset="1" stop-color="#6D66E7"/>
</radialGradient>
<radialGradient id="paint19_radial" cx="0" cy="0" r="1" gradientUnits="userSpaceOnUse" gradientTransform="translate(846.077 485.713) scale(7.02418)">
<stop stop-color="#231F20"/>
<stop offset="0.1018" stop-color="#262228"/>
<stop offset="0.2637" stop-color="#2F2A3F"/>
<stop offset="0.4653" stop-color="#3D3865"/>
<stop offset="0.6989" stop-color="#504A99"/>
<stop offset="0.9564" stop-color="#6962DB"/>
<stop offset="1" stop-color="#6D66E7"/>
</radialGradient>
<linearGradient id="paint20_linear" x1="693.265" y1="261.672" x2="739.184" y2="261.672" gradientUnits="userSpaceOnUse">
<stop stop-color="#FFE2A8"/>
<stop offset="1" stop-color="#728390"/>
</linearGradient>
<linearGradient id="paint21_linear" x1="646.506" y1="241.943" x2="668.654" y2="241.943" gradientUnits="userSpaceOnUse">
<stop stop-color="#A281FF"/>
<stop offset="1" stop-color="#FF57BD"/>
</linearGradient>
<linearGradient id="paint22_linear" x1="652.865" y1="331.21" x2="687.985" y2="331.21" gradientUnits="userSpaceOnUse">
<stop stop-color="#FF57BD"/>
<stop offset="1" stop-color="#FE6A77"/>
</linearGradient>
<linearGradient id="paint23_linear" x1="675.817" y1="348.384" x2="697.17" y2="348.384" gradientUnits="userSpaceOnUse">
<stop stop-color="#C5188E"/>
<stop offset="1" stop-color="#9F36AD"/>
</linearGradient>
<linearGradient id="paint24_linear" x1="588.11" y1="277.766" x2="607.74" y2="277.766" gradientUnits="userSpaceOnUse">
<stop stop-color="#FF57BD"/>
<stop offset="1" stop-color="#FE6A77"/>
</linearGradient>
<linearGradient id="paint25_linear" x1="563.935" y1="277.695" x2="589.436" y2="277.695" gradientUnits="userSpaceOnUse">
<stop stop-color="#C5188E"/>
<stop offset="1" stop-color="#9F36AD"/>
</linearGradient>
<linearGradient id="paint26_linear" x1="611.61" y1="305.512" x2="704.686" y2="271.636" gradientUnits="userSpaceOnUse">
<stop stop-color="#05C5DA"/>
<stop offset="1" stop-color="#5860C4"/>
</linearGradient>
<linearGradient id="paint27_linear" x1="683.607" y1="312.968" x2="722.84" y2="312.968" gradientUnits="userSpaceOnUse">
<stop stop-color="#00E2EC"/>
<stop offset="1" stop-color="#0090B2"/>
</linearGradient>
<linearGradient id="paint28_linear" x1="705.994" y1="342.971" x2="730.036" y2="342.971" gradientUnits="userSpaceOnUse">
<stop stop-color="#A281FF"/>
<stop offset="1" stop-color="#FF57BD"/>
</linearGradient>
<linearGradient id="paint29_linear" x1="628.896" y1="271.565" x2="650.411" y2="293.08" gradientUnits="userSpaceOnUse">
<stop stop-color="#00E2EC"/>
<stop offset="1" stop-color="#0090B2"/>
</linearGradient>
<linearGradient id="paint30_linear" x1="593.998" y1="299.13" x2="627.168" y2="299.13" gradientUnits="userSpaceOnUse">
<stop stop-color="#A281FF"/>
<stop offset="1" stop-color="#FF57BD"/>
</linearGradient>
<linearGradient id="paint31_linear" x1="581.271" y1="236.955" x2="600.018" y2="236.955" gradientUnits="userSpaceOnUse">
<stop stop-color="#9F36AD"/>
<stop offset="0.1071" stop-color="#8D3399"/>
<stop offset="0.4036" stop-color="#602A65"/>
<stop offset="0.662" stop-color="#3F243F"/>
<stop offset="0.8695" stop-color="#2A2028"/>
<stop offset="1" stop-color="#231F20"/>
</linearGradient>
<linearGradient id="paint32_linear" x1="601.005" y1="197.658" x2="612.813" y2="209.466" gradientUnits="userSpaceOnUse">
<stop stop-color="#FFE2A8"/>
<stop offset="1" stop-color="#728390"/>
</linearGradient>
<linearGradient id="paint33_linear" x1="585.071" y1="197.121" x2="639.617" y2="251.667" gradientUnits="userSpaceOnUse">
<stop stop-color="#FFE2A8"/>
<stop offset="1" stop-color="#728390"/>
</linearGradient>
<linearGradient id="paint34_linear" x1="567.154" y1="218.386" x2="577.683" y2="218.386" gradientUnits="userSpaceOnUse">
<stop stop-color="#653271"/>
<stop offset="0.1129" stop-color="#5B2F65"/>
<stop offset="0.496" stop-color="#3D263F"/>
<stop offset="0.8053" stop-color="#2A2128"/>
<stop offset="1" stop-color="#231F20"/>
</linearGradient>
<radialGradient id="paint35_radial" cx="0" cy="0" r="1" gradientUnits="userSpaceOnUse" gradientTransform="translate(605.586 218.565) scale(44.5061)">
<stop stop-color="#4E40AF" stop-opacity="0"/>
<stop offset="0.1096" stop-color="#5446B2" stop-opacity="0.0438"/>
<stop offset="0.2617" stop-color="#6558B9" stop-opacity="0.1047"/>
<stop offset="0.4387" stop-color="#8076C6" stop-opacity="0.1755"/>
<stop offset="0.6345" stop-color="#A69FD7" stop-opacity="0.2538"/>
<stop offset="0.8432" stop-color="#D6D3ED" stop-opacity="0.3373"/>
<stop offset="1" stop-color="white" stop-opacity="0.4"/>
</radialGradient>
<linearGradient id="paint36_linear" x1="598.675" y1="256.98" x2="646.091" y2="256.98" gradientUnits="userSpaceOnUse">
<stop stop-color="#FF57BD"/>
<stop offset="1" stop-color="#FE6A77"/>
</linearGradient>
<linearGradient id="paint37_linear" x1="638.35" y1="221.617" x2="650.081" y2="221.617" gradientUnits="userSpaceOnUse">
<stop stop-color="#05C5DA"/>
<stop offset="1" stop-color="#0090B2"/>
</linearGradient>
<linearGradient id="paint38_linear" x1="227.82" y1="301.549" x2="252.963" y2="301.549" gradientUnits="userSpaceOnUse">
<stop stop-color="#05C5DA"/>
<stop offset="1" stop-color="#5860C4"/>
</linearGradient>
<linearGradient id="paint39_linear" x1="570.331" y1="483.97" x2="641.374" y2="483.97" gradientUnits="userSpaceOnUse">
<stop stop-color="#05C5DA"/>
<stop offset="1" stop-color="#5860C4"/>
</linearGradient>
<linearGradient id="paint40_linear" x1="478.181" y1="433.872" x2="601.14" y2="433.872" gradientUnits="userSpaceOnUse">
<stop stop-color="#FF57BD"/>
<stop offset="1" stop-color="#FE6A77"/>
</linearGradient>
<linearGradient id="paint41_linear" x1="395.271" y1="252.771" x2="395.271" y2="309.484" gradientUnits="userSpaceOnUse">
<stop stop-color="#FE6A77"/>
<stop offset="1" stop-color="#C91C91"/>
</linearGradient>
<linearGradient id="paint42_linear" x1="440.509" y1="284.651" x2="460.659" y2="284.651" gradientUnits="userSpaceOnUse">
<stop stop-color="#05C5DA"/>
<stop offset="1" stop-color="#5860C4"/>
</linearGradient>
<linearGradient id="paint43_linear" x1="397.513" y1="269.155" x2="460.98" y2="269.155" gradientUnits="userSpaceOnUse">
<stop stop-color="#FF57BD"/>
<stop offset="1" stop-color="#FE6A77"/>
</linearGradient>
<linearGradient id="paint44_linear" x1="440.516" y1="279.824" x2="460.98" y2="279.824" gradientUnits="userSpaceOnUse">
<stop stop-color="#05C5DA"/>
<stop offset="1" stop-color="#0090B2"/>
</linearGradient>
<linearGradient id="paint45_linear" x1="358.959" y1="231.243" x2="420.256" y2="231.243" gradientUnits="userSpaceOnUse">
<stop stop-color="#00E2EC"/>
<stop offset="1" stop-color="#0090B2"/>
</linearGradient>
<linearGradient id="paint46_linear" x1="310.37" y1="405.434" x2="432.424" y2="303.019" gradientUnits="userSpaceOnUse">
<stop stop-color="#FE6A77"/>
<stop offset="1" stop-color="#FF57BD"/>
</linearGradient>
<linearGradient id="paint47_linear" x1="347.021" y1="351.139" x2="415.182" y2="293.945" gradientUnits="userSpaceOnUse">
<stop stop-color="#C5188E"/>
<stop offset="1" stop-color="#FF57BD"/>
</linearGradient>
<linearGradient id="paint48_linear" x1="401.895" y1="413.701" x2="597.148" y2="413.701" gradientUnits="userSpaceOnUse">
<stop stop-color="#C91C91"/>
<stop offset="1" stop-color="#FE6A77"/>
</linearGradient>
<linearGradient id="paint49_linear" x1="480.515" y1="369.445" x2="535.902" y2="369.445" gradientUnits="userSpaceOnUse">
<stop stop-color="#00E2EC"/>
<stop offset="1" stop-color="#0090B2"/>
</linearGradient>
<linearGradient id="paint50_linear" x1="589.062" y1="394.106" x2="659.218" y2="394.106" gradientUnits="userSpaceOnUse">
<stop stop-color="#00E2EC"/>
<stop offset="1" stop-color="#0090B2"/>
</linearGradient>
<linearGradient id="paint51_linear" x1="235.776" y1="379.107" x2="313.335" y2="379.107" gradientUnits="userSpaceOnUse">
<stop stop-color="#FE6A77"/>
<stop offset="1" stop-color="#C91C91"/>
</linearGradient>
<linearGradient id="paint52_linear" x1="235.842" y1="404.351" x2="257.261" y2="404.351" gradientUnits="userSpaceOnUse">
<stop stop-color="#00E2EC"/>
<stop offset="1" stop-color="#0090B2"/>
</linearGradient>
<linearGradient id="paint53_linear" x1="274.188" y1="486.868" x2="321.515" y2="486.868" gradientUnits="userSpaceOnUse">
<stop stop-color="#00E2EC"/>
<stop offset="1" stop-color="#0090B2"/>
</linearGradient>
<linearGradient id="paint54_linear" x1="293.253" y1="253.903" x2="298.848" y2="285.631" gradientUnits="userSpaceOnUse">
<stop stop-color="#C16846"/>
<stop offset="0.2653" stop-color="#D27565"/>
<stop offset="0.5308" stop-color="#DE7F7B"/>
<stop offset="0.7814" stop-color="#E58589"/>
<stop offset="1" stop-color="#E8878E"/>
</linearGradient>
<linearGradient id="paint55_linear" x1="260.784" y1="258.872" x2="298.707" y2="227.05" gradientUnits="userSpaceOnUse">
<stop stop-color="#E8878E"/>
<stop offset="1" stop-color="#F4BEA3"/>
</linearGradient>
<linearGradient id="paint56_linear" x1="286.496" y1="236.263" x2="298.059" y2="236.263" gradientUnits="userSpaceOnUse">
<stop stop-color="#FF57BD"/>
<stop offset="1" stop-color="#FE6A77"/>
</linearGradient>
<linearGradient id="paint57_linear" x1="247.478" y1="227.711" x2="294.075" y2="227.711" gradientUnits="userSpaceOnUse">
<stop stop-color="#994574"/>
<stop offset="1" stop-color="#43256F"/>
</linearGradient>
<radialGradient id="paint58_radial" cx="0" cy="0" r="1" gradientUnits="userSpaceOnUse" gradientTransform="translate(275.781 238.988) scale(47.0205)">
<stop stop-color="#635AD5" stop-opacity="0"/>
<stop offset="0.1205" stop-color="#6960D7" stop-opacity="0.0482"/>
<stop offset="0.2878" stop-color="#7A72DB" stop-opacity="0.1151"/>
<stop offset="0.4824" stop-color="#9690E3" stop-opacity="0.193"/>
<stop offset="0.6977" stop-color="#BDB9ED" stop-opacity="0.2791"/>
<stop offset="0.9273" stop-color="#EEEDFA" stop-opacity="0.3709"/>
<stop offset="1" stop-color="white" stop-opacity="0.4"/>
</radialGradient>
<linearGradient id="paint59_linear" x1="228.895" y1="240.816" x2="304.778" y2="240.816" gradientUnits="userSpaceOnUse">
<stop stop-color="#00E2EC"/>
<stop offset="1" stop-color="#0090B2"/>
</linearGradient>
<linearGradient id="paint60_linear" x1="240.967" y1="270.727" x2="251.981" y2="261.485" gradientUnits="userSpaceOnUse">
<stop stop-color="#A281FF"/>
<stop offset="0.0945" stop-color="#B17AF5"/>
<stop offset="0.3504" stop-color="#D36BDD"/>
<stop offset="0.5934" stop-color="#EB60CB"/>
<stop offset="0.8163" stop-color="#FA59C1"/>
<stop offset="1" stop-color="#FF57BD"/>
</linearGradient>
<linearGradient id="paint61_linear" x1="259.922" y1="278.671" x2="336.886" y2="278.671" gradientUnits="userSpaceOnUse">
<stop stop-color="#00E2EC"/>
<stop offset="1" stop-color="#0090B2"/>
</linearGradient>
<linearGradient id="paint62_linear" x1="355.808" y1="209.196" x2="384.734" y2="209.196" gradientUnits="userSpaceOnUse">
<stop stop-color="#653271"/>
<stop offset="0.1129" stop-color="#5B2F65"/>
<stop offset="0.496" stop-color="#3D263F"/>
<stop offset="0.8053" stop-color="#2A2128"/>
<stop offset="1" stop-color="#231F20"/>
</linearGradient>
<linearGradient id="paint63_linear" x1="357.507" y1="195.671" x2="382.705" y2="220.868" gradientUnits="userSpaceOnUse">
<stop stop-color="#84DBF1"/>
<stop offset="1" stop-color="#FFE2A8"/>
</linearGradient>
</defs>
</svg>
