<svg width="607" height="600" viewBox="0 0 607 600" fill="none" xmlns="http://www.w3.org/2000/svg">
<path d="M423.974 21.4681C437.832 31.6824 451.977 52.0773 443.976 83.2333C435.975 114.389 431.913 132.552 440.309 148.552C456.728 179.845 607.877 233.55 606.996 318.817C605.996 415.565 485.481 419.664 454.478 450.82C431.64 473.771 429.474 536.089 358.466 572.985C296.591 605.134 173.541 610.303 95.9336 555.357C40.9269 516.412 43.5942 468.858 46.2606 448.907C48.9269 428.957 71.8737 368.381 34.7242 323.872C-9.41325 270.989 -4.28762 230.332 10.9412 187.016C25.425 145.819 64.8008 81.4058 163.275 36.2262C272.288 -13.7874 387.636 -5.31456 423.974 21.4681Z" fill="url(#paint0_linear)"/>
<path d="M398.422 65.1021H361.422V102.099H398.422V65.1021Z" fill="#C7A0F6"/>
<path d="M75.422 197.351H21.869C17.212 208.361 13.643 218.722 10.941 228.097C3.38199 254.324 -1.68401 279.752 0.525991 306.601H75.422V197.351Z" fill="url(#paint1_linear)"/>
<path d="M386.073 65.1021H373.772V77.402H386.073V65.1021Z" fill="#FDE1A7"/>
<path d="M386.073 89.7998H373.772V102.1H386.073V89.7998Z" fill="#FF57BC"/>
<path d="M373.723 77.4512H361.422V89.7512H373.723V77.4512Z" fill="#FF9BBB"/>
<path d="M398.422 77.4512H386.121V89.7512H398.422V77.4512Z" fill="#1AA9E8"/>
<path d="M415.589 182.351V128.851C415.589 128.299 415.142 127.851 414.589 127.851H407.922C407.369 127.851 406.922 128.299 406.922 128.851V182.351H415.589Z" fill="#05C5DA"/>
<path d="M406.922 182.351V123.851C406.922 120.538 404.235 117.851 400.922 117.851H394.922C391.609 117.851 388.922 120.538 388.922 123.851V182.351H406.922Z" fill="#FDE1A7"/>
<path d="M406.922 130.184H388.922V135.851H406.922V130.184Z" fill="#C7A0F6"/>
<path d="M365.05 181.684H383.314L365.155 112.418C364.735 110.815 363.095 109.856 361.492 110.276L350.208 113.234C348.604 113.654 347.646 115.294 348.066 116.897L365.05 181.684Z" fill="#1AA9E8"/>
<path d="M365.05 181.684L346.206 109.804C346.065 109.27 345.519 108.95 344.985 109.091L334.344 111.881C333.809 112.021 333.49 112.568 333.63 113.102L351.609 181.685H365.05V181.684Z" fill="#FF9BBB"/>
<path d="M369.441 128.774L352.352 133.254L359.495 160.499L376.584 156.019L369.441 128.774Z" fill="#0090B2"/>
<path d="M51.4219 234.851C41.4209 238.4 26.6719 239.851 19.9219 253.351C12.7089 267.777 21.4219 274.476 21.9219 282.851C22.3599 290.185 17.1379 296.005 10.9019 299.351H67.6719V224.451C64.3739 228.003 59.6589 231.928 51.4219 234.851Z" fill="url(#paint2_linear)"/>
<path d="M333.255 182.601V0.0828171C331.166 0.0328171 329.053 0.0098125 326.922 0.0078125V182.601H333.255Z" fill="url(#paint3_linear)"/>
<path d="M43.297 225.976C50.547 222.101 37.297 209.601 49.672 204.601H18.922C17.099 209.266 15.4699 213.796 14.0229 218.158C15.0019 217.736 16.041 217.438 17.172 217.351C28.547 216.476 30.379 232.881 43.297 225.976Z" fill="#1AA9E8"/>
<path d="M319.839 32.1841V32.5171H429.998C428.014 30.1371 425.966 28.0211 423.922 26.1841H325.839C322.526 26.1841 319.839 28.8711 319.839 32.1841Z" fill="url(#paint4_linear)"/>
<path d="M319.839 104.351V104.684H443.257C443.476 103.64 443.697 102.587 443.922 101.518C444.147 100.451 444.348 99.3971 444.538 98.3511H325.839C322.526 98.3511 319.839 101.038 319.839 104.351Z" fill="url(#paint5_linear)"/>
<path d="M319.839 185.768V186.101H443.007C441.876 184.415 440.939 182.774 440.255 181.184C440.053 180.714 439.864 180.241 439.676 179.767H325.839C322.526 179.768 319.839 182.455 319.839 185.768Z" fill="url(#paint6_linear)"/>
<path d="M21.922 282.851C21.422 274.476 12.709 267.777 19.922 253.351C26.672 239.851 41.421 238.4 51.422 234.851C59.659 231.928 64.374 228.003 67.672 224.451V204.601H49.672C37.297 209.601 50.547 222.101 43.297 225.976C30.379 232.881 28.547 216.476 17.172 217.351C16.04 217.438 15.001 217.736 14.023 218.158C12.889 221.576 11.864 224.895 10.941 228.096C4.06599 251.951 -0.748003 275.146 0.0999968 299.35H10.902C17.138 296.005 22.36 290.185 21.922 282.851Z" fill="url(#paint7_linear)"/>
<path d="M42.9219 277.518C48.8131 277.518 53.5889 272.742 53.5889 266.851C53.5889 260.96 48.8131 256.184 42.9219 256.184C37.0307 256.184 32.2549 260.96 32.2549 266.851C32.2549 272.742 37.0307 277.518 42.9219 277.518Z" fill="url(#paint8_linear)"/>
<path d="M66.1988 422.447C64.9038 425.225 66.8328 427.954 70.4718 429.444C74.6058 431.136 77.7498 430.851 79.1538 434.578C80.5578 438.306 79.5498 442.591 82.0228 442.564C84.4968 442.538 88.6158 432.336 84.0498 424.862C79.4468 417.323 69.1558 416.102 66.1988 422.447Z" fill="url(#paint9_linear)"/>
<path d="M97.5912 512.278C99.5912 506.778 119.966 478.028 155.716 475.278C188.01 472.794 200.768 487.611 197.591 494.153C195.466 498.528 187.841 497.278 184.716 496.403C181.591 495.528 176.108 492.394 172.466 494.278C168.841 496.153 169.273 500.953 165.591 502.778C158.99 506.05 152.195 500.583 146.591 498.403C139.841 495.778 128.466 493.403 120.341 500.903C110.394 510.086 108.314 518.024 105.202 531.964C102.09 545.904 100.619 552.799 99.9662 553.653C99.1532 554.716 97.8412 555.903 94.3412 554.528C90.8412 553.153 95.3412 535.278 94.9662 528.028C94.5912 520.778 97.5912 512.278 97.5912 512.278Z" fill="url(#paint10_linear)"/>
<path d="M92.1598 552.645C93.7968 551.672 92.2848 542.895 89.1598 538.52C86.0348 534.145 80.1598 532.02 80.1598 528.895C80.1598 525.77 81.7068 523.015 79.9098 519.145C78.2848 515.645 71.9098 517.02 71.6598 511.395C71.4098 505.77 74.2698 498.836 76.4558 486.591C78.4098 475.645 76.6298 471.872 73.7848 470.145C70.2848 468.02 69.5348 462.895 72.1598 455.645C73.9878 450.598 72.9498 418.828 61.7848 418.02C52.2848 417.332 48.3698 434.256 48.2848 442.895C48.1598 455.583 53.0558 458.739 51.1598 465.27C48.9098 473.02 45.8268 474.103 45.1598 482.645C44.6108 489.683 44.6598 499.27 59.4098 517.27C73.3678 534.304 82.5588 541.617 85.0348 545.145C88.0768 549.479 89.2848 554.354 92.1598 552.645Z" fill="url(#paint11_linear)"/>
<path d="M93.2423 553.726C93.2423 547.476 95.9923 527.226 90.2423 516.476C84.4923 505.726 81.2423 494.726 83.9923 482.726C86.7423 470.726 100.242 447.601 99.2423 439.601C98.2423 431.601 94.1173 418.101 101.492 391.976C107.077 372.193 119.751 358.763 128.492 364.226C134.492 367.976 131.742 381.976 128.742 387.226C125.742 392.476 120.529 401.637 121.529 406.887C122.529 412.137 125.82 412.708 125.541 419.835C124.993 433.851 105.368 455.351 100.743 474.476C96.9053 490.345 95.4933 509.476 99.4933 510.226C103.493 510.976 99.2223 548.624 97.3573 552.488C95.4923 556.352 93.2423 553.726 93.2423 553.726Z" fill="url(#paint12_linear)"/>
<path d="M82.9233 379.816C86.6733 382.315 87.0903 388.315 85.5903 392.482C84.0903 396.649 82.7093 398.571 83.0903 401.316C83.5073 404.315 89.2573 405.315 91.0903 411.482C92.9233 417.649 89.9233 429.981 86.7573 438.815C83.5913 447.649 84.4243 454.149 87.5903 454.649C90.7563 455.149 93.5903 450.815 94.5903 445.482C95.5903 440.149 95.1123 416.657 109.257 420.815C114.924 422.481 114.507 432.064 110.924 438.815C108.161 444.02 98.8413 455.398 94.0913 470.815C89.6973 485.077 86.2403 496.394 94.9243 498.149C102.341 499.648 106.424 491.315 107.424 485.982C108.424 480.649 111.821 462.303 128.257 465.482C136.007 466.981 131.167 485.801 119.757 495.649C111.977 502.364 102.096 510.726 99.2573 522.315C96.1743 534.898 100.59 547.815 98.7573 550.315C96.9243 552.815 89.7573 551.316 89.9243 549.649C90.0913 547.982 91.9243 544.648 88.4243 541.815C84.9243 538.982 76.7843 535.063 71.2573 531.149C65.7303 527.235 66.2573 521.149 69.0903 518.982C71.9233 516.815 75.1953 519.543 76.4233 520.982C78.8403 523.815 84.4233 541.024 91.0903 536.482C95.3333 533.591 88.5373 519.431 83.7573 512.982C76.5903 503.314 60.5073 499.648 51.4243 487.482C45.0213 478.906 48.7833 469.288 53.0913 467.649C59.0083 465.398 64.4313 470.757 65.6133 476.17C67.1963 483.418 70.3893 494.938 78.9243 488.483C88.8413 480.982 73.9113 466.856 66.5913 458.817C53.0083 443.899 46.5083 420.482 58.2583 416.817C63.4893 415.185 67.8413 422.482 69.0913 430.817C70.5263 440.381 77.5603 470.988 83.7583 467.483C87.5913 465.315 79.0913 457.984 78.7583 451.817C78.4253 445.65 79.2583 436.816 76.2583 428.983C73.2583 421.15 65.3803 400.42 69.5913 388.15C73.4233 376.981 81.2543 378.704 82.9233 379.816Z" fill="url(#paint13_linear)"/>
<path d="M118.757 539.462C122.195 541.087 121.007 546.275 114.713 550.881C108.758 555.238 100.218 555.409 100.007 553.121C99.7967 550.832 104.59 550.694 108.507 546.962C112.424 543.228 114.18 537.298 118.757 539.462Z" fill="url(#paint14_linear)"/>
<path d="M527.904 221.368L523.255 221.384V338.517H531.255C534.568 338.517 537.255 335.831 537.255 332.517V229.476C537.255 225.351 534.672 221.368 527.904 221.368Z" fill="#9180E6"/>
<path d="M450.422 366.601C464.172 354.352 456.922 338.518 454.922 336.351H423.296C425.296 338.518 432.546 354.352 418.796 366.601H450.422Z" fill="url(#paint15_linear)"/>
<path d="M451.652 368.395L449.091 365.108C453.791 360.921 456.316 355.898 456.595 350.18C456.91 343.722 454.206 338.526 453.451 337.708L456.39 334.995C458.03 336.771 460.945 343.106 460.589 350.375C460.262 357.109 457.107 363.537 451.652 368.395Z" fill="#9180E6"/>
<path d="M451.63 368.366C451.63 368.366 450.859 365.226 450.139 364.093H395.716C392.403 364.093 389.716 366.78 389.716 370.093V370.426H451.63V368.366Z" fill="#9180E6"/>
<path d="M338.255 332.518C338.255 335.832 340.942 338.518 344.255 338.518H527.255C530.568 338.518 533.255 335.832 533.255 332.518V227.184C533.255 223.871 530.568 221.184 527.255 221.184L344.255 228.684C340.942 228.684 338.255 231.371 338.255 234.684V332.518Z" fill="url(#paint16_linear)"/>
<path d="M345.922 323.851L522.589 320.851V231.184L345.922 238.684V323.851Z" fill="url(#paint17_linear)"/>
<path d="M512.382 245.94C512.454 247.902 510.723 249.559 508.516 249.64L409.594 253.406C407.387 253.488 405.538 251.962 405.466 250L405.384 247.779C405.312 245.817 407.043 244.16 409.251 244.078L508.172 240.312C510.38 240.231 512.228 241.756 512.3 243.718L512.382 245.94Z" fill="url(#paint18_linear)"/>
<path d="M481.672 304.101C481.672 305.205 480.776 306.101 479.672 306.101L391.922 307.601C390.818 307.601 389.922 306.705 389.922 305.601V266.101C389.922 264.997 390.818 264.101 391.922 264.101L479.672 262.601C480.776 262.601 481.672 263.497 481.672 264.601V304.101Z" fill="#FF9BBB"/>
<path d="M361.597 254.589C364.174 254.589 366.264 252.499 366.264 249.922C366.264 247.344 364.174 245.255 361.597 245.255C359.019 245.255 356.93 247.344 356.93 249.922C356.93 252.499 359.019 254.589 361.597 254.589Z" fill="#FBBB6C"/>
<path d="M377.293 254.239C379.87 254.239 381.96 252.15 381.96 249.572C381.96 246.995 379.87 244.905 377.293 244.905C374.715 244.905 372.626 246.995 372.626 249.572C372.626 252.15 374.715 254.239 377.293 254.239Z" fill="#5265F9"/>
<path d="M392.989 253.889C395.566 253.889 397.656 251.8 397.656 249.222C397.656 246.645 395.566 244.555 392.989 244.555C390.411 244.555 388.322 246.645 388.322 249.222C388.322 251.8 390.411 253.889 392.989 253.889Z" fill="#EA4D81"/>
<path d="M470.502 274.304C456.672 274.101 407.922 275.351 391.422 273.351C374.922 271.351 355.943 264.294 349.172 258.601C348.668 258.178 348.247 257.772 347.878 257.373C349.089 261.685 350.797 265.601 349.589 271.851C348.628 276.824 343.617 283.91 336.763 286.886C339.699 288.244 342.818 289.567 345.922 290.684C358.422 295.184 383.43 297.517 400.089 297.517C416.748 297.517 470.756 297.517 470.756 297.517L470.502 274.304Z" fill="url(#paint19_linear)"/>
<path d="M470.502 274.304C466.372 274.243 459.117 274.312 450.549 274.386C452.672 276.226 458.547 285.559 451.172 297.518C462.361 297.518 470.756 297.518 470.756 297.518L470.502 274.304Z" fill="url(#paint20_linear)"/>
<path d="M349.589 271.851C350.797 265.601 349.089 261.684 347.878 257.373C345.558 254.865 345.493 252.63 342.797 248.101C339.978 243.364 338.498 239.233 338.255 236.601C337.755 231.184 341.075 226.814 340.658 223.314C340.261 219.979 331.543 218.69 328.672 223.601C326.089 228.018 327.409 234.62 327.797 236.976C328.339 240.268 327.922 241.601 327.922 241.601C327.922 241.601 319.672 251.976 319.297 260.351C318.922 268.726 320.672 278.351 320.672 278.351C320.672 278.351 327.876 282.777 336.763 286.886C343.617 283.91 348.628 276.824 349.589 271.851Z" fill="url(#paint21_linear)"/>
<path d="M432.436 297.518C429.202 288.948 420.928 282.851 411.226 282.851C401.658 282.851 393.48 288.783 390.155 297.166C394.497 297.399 398.656 297.518 402.393 297.518C408.703 297.518 420.373 297.518 432.436 297.518Z" fill="url(#paint22_linear)"/>
<path d="M432.436 298.268C432.133 298.268 431.848 298.083 431.734 297.783C428.533 289.301 420.292 283.601 411.226 283.601C402.184 283.601 394.187 289.034 390.852 297.443C390.699 297.828 390.265 298.015 389.878 297.864C389.493 297.711 389.305 297.275 389.457 296.89C393.02 287.906 401.565 282.101 411.226 282.101C420.912 282.101 429.717 288.19 433.138 297.253C433.284 297.64 433.088 298.073 432.7 298.219C432.613 298.252 432.524 298.268 432.436 298.268Z" fill="#AD7CF7"/>
<path d="M416.64 298.268C416.318 298.268 416.021 298.06 415.922 297.736C415.24 295.491 413.206 293.983 410.859 293.983C408.512 293.983 406.478 295.491 405.796 297.736C405.675 298.132 405.253 298.354 404.86 298.236C404.464 298.115 404.24 297.696 404.36 297.3C405.235 294.419 407.846 292.483 410.858 292.483C413.87 292.483 416.481 294.419 417.356 297.3C417.476 297.696 417.252 298.115 416.856 298.236C416.785 298.257 416.712 298.268 416.64 298.268Z" fill="#AD7CF7"/>
<path d="M314.047 255.789C313.547 254.789 311.234 247.789 315.985 244.226C320.496 240.843 326.251 240.31 329.423 242.601C331.826 244.337 335.584 247.591 335.673 252.226C335.736 255.476 333.235 258.351 333.235 258.351C333.235 258.351 335.548 260.851 335.423 263.976C335.273 267.725 332.798 269.976 332.798 269.976C332.798 269.976 334.111 276.664 330.36 278.101C327.325 279.264 325.047 277.413 323.047 277.476C321.293 277.531 321.389 278.782 321.389 278.782C321.389 278.782 317.224 279.021 315.922 276.851C314.234 274.038 315.547 269.851 315.547 269.851C315.547 269.851 312.561 265.724 312.422 261.351C312.297 257.414 314.047 255.789 314.047 255.789Z" fill="url(#paint23_linear)"/>
<path d="M330.36 278.101C334.11 276.663 332.798 269.976 332.798 269.976C332.798 269.976 335.273 267.725 335.423 263.976C335.548 260.851 333.235 258.351 333.235 258.351C333.235 258.351 335.735 255.476 335.673 252.226C335.584 247.591 331.826 244.337 329.423 242.601C328.139 241.674 326.429 241.217 324.552 241.217C325.926 242.858 327.297 246.041 326.611 249.038C325.676 253.116 322.173 253.645 322.173 253.645C322.173 253.645 325.048 255.976 324.798 260.226C324.548 264.476 321.922 266.184 321.922 266.184C321.922 266.184 325.423 268.226 325.048 271.851C324.673 275.476 322.029 277.715 322.029 277.715V277.716C322.269 277.585 322.594 277.489 323.048 277.475C325.047 277.414 327.324 279.264 330.36 278.101Z" fill="url(#paint24_linear)"/>
<path d="M338.252 236.537C337.784 231.15 341.073 226.801 340.658 223.315C340.261 219.98 331.543 218.691 328.672 223.602C326.109 227.984 327.388 234.51 327.786 236.915C329.404 238.165 331.792 239.206 334.005 239.269C335.658 239.315 337.244 237.776 338.252 236.537Z" fill="url(#paint25_linear)"/>
<path d="M366.028 279.943C366.66 274.085 364.762 268.707 362.942 265.965C356.941 263.583 351.994 260.974 349.171 258.601C348.667 258.178 348.246 257.772 347.877 257.373C349.088 261.685 350.796 265.601 349.588 271.851C348.627 276.824 343.616 283.91 336.762 286.886C339.698 288.244 342.817 289.567 345.921 290.684C349.315 291.906 353.634 292.966 358.453 293.865C359.74 292.688 365.238 287.263 366.028 279.943Z" fill="url(#paint26_linear)"/>
<path d="M451.171 298.268C451.037 298.268 450.901 298.232 450.778 298.156C450.425 297.939 450.316 297.477 450.533 297.124C457.721 285.468 451.887 276.538 450.057 274.953C449.744 274.682 449.71 274.208 449.982 273.895C450.254 273.582 450.728 273.548 451.04 273.819C453.061 275.571 459.549 285.363 451.811 297.911C451.669 298.141 451.423 298.268 451.171 298.268Z" fill="#AD7CF7"/>
<path d="M333.797 259.195C333.581 259.195 333.367 259.102 333.219 258.923C331.514 256.859 325.878 254.559 323.376 254.263C321.113 254 318.17 254.72 314.36 256.471C313.984 256.643 313.539 256.48 313.365 256.103C313.192 255.727 313.357 255.281 313.733 255.108C317.8 253.237 321.007 252.474 323.551 252.774C326.409 253.111 332.396 255.573 334.374 257.968C334.638 258.287 334.593 258.76 334.273 259.024C334.135 259.139 333.966 259.195 333.797 259.195Z" fill="#AD7CF7"/>
<path d="M333.141 271.132C332.835 271.132 332.548 270.944 332.437 270.641C331.906 269.195 327.614 267.014 323.955 266.766C320.191 266.516 316.047 270.601 316.006 270.642C315.714 270.935 315.239 270.936 314.945 270.643C314.652 270.35 314.652 269.875 314.945 269.582C315.133 269.394 319.611 264.966 324.056 265.269C327.774 265.521 332.97 267.742 333.845 270.123C333.988 270.512 333.788 270.943 333.4 271.086C333.315 271.118 333.227 271.132 333.141 271.132Z" fill="#AD7CF7"/>
<path d="M347.169 291.862C346.898 291.862 346.636 291.715 346.503 291.457C346.313 291.09 346.456 290.637 346.823 290.446C346.899 290.406 354.556 286.331 356.818 277.048C358.084 271.85 357.001 266.363 355.365 263.231C355.174 262.864 355.316 262.411 355.683 262.219C356.051 262.028 356.503 262.17 356.695 262.537C358.331 265.67 359.727 271.444 358.275 277.404C355.847 287.371 347.851 291.604 347.512 291.779C347.402 291.835 347.284 291.862 347.169 291.862Z" fill="#AD7CF7"/>
<path d="M477.672 312.553C488.533 312.553 497.338 303.748 497.338 292.887C497.338 282.026 488.533 273.221 477.672 273.221C466.811 273.221 458.006 282.026 458.006 292.887C458.006 303.748 466.811 312.553 477.672 312.553Z" fill="url(#paint27_linear)"/>
<path d="M489.242 282.192C488.09 281.391 486.507 281.675 485.705 282.827L476.322 296.314L465.915 287.395C465.19 286.773 464.102 286.74 463.337 287.365C462.479 288.067 462.352 289.332 463.054 290.191L474.44 304.112C474.702 304.429 475.033 304.714 475.415 304.925C477.041 305.825 479.089 305.237 479.989 303.612L480.051 303.501L490.015 285.509C490.632 284.385 490.319 282.942 489.242 282.192Z" fill="url(#paint28_linear)"/>
<path d="M567.339 334.74C560.666 334.74 555.256 339.514 555.256 345.407C555.256 351.3 560.666 356.074 567.339 356.074C574.012 356.074 579.422 351.3 579.422 345.407C579.422 339.514 574.012 334.74 567.339 334.74ZM566.651 350.074C564.074 350.074 561.984 347.985 561.984 345.407C561.984 342.829 564.074 340.74 566.651 340.74C569.228 340.74 571.318 342.829 571.318 345.407C571.318 347.985 569.229 350.074 566.651 350.074Z" fill="url(#paint29_linear)"/>
<path d="M560.631 369.351H533.089L525.589 326.3H568.131L560.631 369.351Z" fill="url(#paint30_linear)"/>
<path d="M546.884 337.684C558.645 337.684 568.179 332.587 568.179 326.3C568.179 320.013 558.645 314.916 546.884 314.916C535.123 314.916 525.589 320.013 525.589 326.3C525.589 332.587 535.123 337.684 546.884 337.684Z" fill="#FF9BBB"/>
<path d="M546.884 332.684C555.545 332.684 562.567 329.457 562.567 325.476C562.567 321.495 555.545 318.268 546.884 318.268C538.222 318.268 531.201 321.495 531.201 325.476C531.201 329.457 538.222 332.684 546.884 332.684Z" fill="url(#paint31_linear)"/>
<path d="M551.673 323.934C551.714 322.434 547.005 321.684 548.089 317.434C549.173 313.184 554.089 310.517 561.173 308.851C566.938 307.495 574.112 305.431 574.339 299.434C574.506 295.017 570.506 294.267 568.006 293.767C565.506 293.267 562.589 291.767 563.339 289.184C564.089 286.601 566.933 281.923 563.183 279.257C558.436 275.882 544.672 276.184 540.839 285.267C537.006 294.35 546.005 295.767 547.839 296.267C549.673 296.767 553.619 297.822 551.923 301.434C550.006 305.517 539.402 310.434 539.256 317.351C539.089 325.226 551.573 327.588 551.673 323.934Z" fill="url(#paint32_linear)"/>
<path d="M525.256 272.601C528.298 272.976 529.589 276.059 528.923 279.934C528.166 284.336 526.257 286.851 528.673 290.017C531.089 293.183 535.257 294.6 533.923 296.684C532.589 298.768 521.756 296.851 517.839 289.017C513.888 281.117 518.309 271.745 525.256 272.601Z" fill="url(#paint33_linear)"/>
<path d="M515.693 300.351C517.787 301.382 519.474 304.976 521.693 305.414C523.246 305.72 525.416 305.914 525.381 307.727C525.35 309.321 522.568 310.227 517.975 309.883C513.526 309.55 509.545 305.774 511.006 302.258C512.006 299.851 514.776 299.899 515.693 300.351Z" fill="url(#paint34_linear)"/>
<path d="M605.88 373.184H478.756V385.017C478.756 393.301 485.472 400.017 493.756 400.017H606.445C606.723 396.409 606.889 392.693 606.922 388.85C606.967 383.527 606.594 378.309 605.88 373.184Z" fill="url(#paint35_linear)"/>
<path d="M529.922 393.518C532.499 393.518 534.589 391.429 534.589 388.851C534.589 386.274 532.499 384.184 529.922 384.184C527.344 384.184 525.255 386.274 525.255 388.851C525.255 391.429 527.344 393.518 529.922 393.518Z" fill="#5265F9"/>
<path d="M579.589 400.768C579.175 400.768 578.839 400.432 578.839 400.018V377.801C578.839 377.387 579.175 377.051 579.589 377.051C580.003 377.051 580.339 377.387 580.339 377.801V400.018C580.339 400.432 580.003 400.768 579.589 400.768Z" fill="#FFA2BA"/>
<path d="M364.214 368.351V377.802H606.42C606.116 374.614 605.672 371.464 605.096 368.351H364.214Z" fill="url(#paint36_linear)"/>
<path d="M239.797 491.726C240.018 501.852 239.589 570.85 238.755 580.684C241.934 584.659 247.588 580.351 247.588 580.351C247.588 580.351 252.171 561.601 254.255 536.184C256.058 514.195 256.588 492.351 256.588 492.351L239.797 491.726Z" fill="url(#paint37_linear)"/>
<path d="M243.039 539.343C241.324 539.343 239.962 539.228 239.384 539.066C238.853 538.916 238.543 538.364 238.693 537.832C238.843 537.301 239.397 536.992 239.927 537.141C241.427 537.566 250.531 537.517 253.692 535.359C254.149 535.05 254.771 535.166 255.082 535.622C255.394 536.078 255.276 536.7 254.82 537.012C252.203 538.796 246.781 539.343 243.039 539.343Z" fill="#7B7BEF"/>
<path d="M153.922 340.851C144.392 342.143 112.31 352.711 108.453 374.712C108.33 375.413 109.572 377.159 109.797 377.851C117.547 401.726 152.547 433.851 165.922 436.101C166.512 436.201 167.352 436.825 167.944 436.595C177.163 433.026 186.763 415.318 194.672 409.601C198.11 407.116 153.922 340.851 153.922 340.851Z" fill="url(#paint38_linear)"/>
<path d="M112.156 365.212C109.997 368.694 108.55 372.566 108.172 376.851C106.422 396.685 152.322 439.586 166.172 437.101C167.735 436.821 169.313 436.076 170.896 435.004C142.266 423.813 116.278 382.042 112.156 365.212Z" fill="url(#paint39_linear)"/>
<path d="M237.172 453.351C246.172 453.333 291.696 454.174 299.422 458.851C305.755 462.685 307.124 469.043 303.348 475.043C299.572 481.043 281.672 492.226 245.672 492.476C209.672 492.726 186.672 485.101 186.422 476.351C186.172 467.601 190.242 454.514 212.422 452.351C226.089 451.018 232.172 453.361 237.172 453.351Z" fill="url(#paint40_linear)"/>
<path d="M246.422 496.101C282.422 495.851 299.571 481.043 303.348 475.043C305.004 472.411 305.67 469.71 305.362 467.184C295.664 473.946 274.121 480.841 245.423 482.018C217.235 483.174 193.696 478.928 186.422 476.27C186.422 476.296 186.422 476.325 186.423 476.351C186.672 485.101 210.422 496.351 246.422 496.101Z" fill="url(#paint41_linear)"/>
<path d="M185.531 256.559C186.005 262.935 184.255 289.518 175.005 302.518C178.284 309.914 195.941 310.532 201.922 310.018C215.505 308.851 225.089 301.351 225.089 301.351C225.089 301.351 219.922 274.018 214.089 264.851C209.577 263.416 203.506 262.768 197.839 260.934C192.172 259.1 185.531 256.559 185.531 256.559Z" fill="url(#paint42_linear)"/>
<path d="M222.089 225.184C214.914 213.119 204.291 204.142 202.589 202.351C202.589 202.351 171.714 196.511 163.256 220.018C158.339 233.685 173.089 248.851 173.089 248.851C173.089 248.851 174.438 249.365 176.489 250.436C174.988 251.705 174.033 253.598 174.033 255.717C174.033 259.537 177.13 262.634 180.95 262.634C183.873 262.634 186.367 260.819 187.379 258.257C187.496 258.371 187.615 258.477 187.731 258.593C192.755 263.602 211.968 273.735 223.279 263.354C233.089 254.351 228.259 235.561 222.089 225.184Z" fill="url(#paint43_linear)"/>
<path d="M219.589 174.101C215.837 171.599 207.839 176.101 203.589 180.434C199.339 184.767 193.505 188.017 191.922 186.267C190.339 184.517 194.392 182.681 192.505 180.267C190.422 177.6 178.922 180.934 173.672 189.934C168.422 198.934 164.256 211.017 159.839 212.351C155.422 213.685 156.672 206.768 152.089 206.601C147.506 206.434 141.672 212.351 140.256 217.018C138.151 223.954 140.173 228.935 143.423 229.185C149.273 229.635 152.673 220.602 156.756 222.685C159.546 224.108 157.673 230.101 156.173 235.268C154.673 240.435 156.59 247.351 162.59 252.101C167.078 255.654 171.371 256.397 174.071 256.434C174.047 256.198 174.034 255.958 174.034 255.716C174.034 252.047 176.892 249.054 180.503 248.821C180.941 247.068 181.045 245.233 180.423 243.6C178.423 238.35 164.373 226.893 167.006 220.933C168.589 217.35 172.839 217.266 180.506 217.016C188.173 216.766 192.89 217.42 193.673 214.433C194.59 210.933 187.706 212.216 188.173 210.35C188.923 207.35 201.558 209.736 212.34 198.35C222.755 187.351 223.339 176.601 219.589 174.101Z" fill="url(#paint44_linear)"/>
<path d="M205.172 248.518C205.172 248.518 210.339 248.101 213.172 247.768C216.005 247.435 223.089 246.935 223.089 246.935C223.089 246.935 220.589 254.768 214.839 255.435C209.089 256.102 205.172 248.518 205.172 248.518Z" fill="white"/>
<path d="M191.16 236.707C190.985 236.707 190.816 236.615 190.724 236.452C189.474 234.232 189.755 231.619 191.422 229.951C192.92 228.453 195.239 228.064 197.332 228.962C197.586 229.071 197.704 229.365 197.595 229.618C197.486 229.872 197.19 229.99 196.939 229.881C195.224 229.145 193.336 229.451 192.129 230.658C190.782 232.005 190.568 234.137 191.595 235.962C191.731 236.203 191.645 236.507 191.405 236.643C191.327 236.687 191.243 236.707 191.16 236.707Z" fill="#212F66"/>
<path d="M210.613 221.725C210.389 221.725 210.186 221.574 210.129 221.347C209.715 219.706 210.062 218.18 211.08 217.162C212.278 215.964 214.204 215.706 216.104 216.49C216.359 216.595 216.481 216.887 216.376 217.143C216.271 217.399 215.98 217.519 215.723 217.415C214.202 216.788 212.694 216.963 211.786 217.87C211.023 218.633 210.772 219.812 211.098 221.104C211.165 221.372 211.003 221.644 210.735 221.711C210.695 221.72 210.654 221.725 210.613 221.725Z" fill="#212F66"/>
<path d="M190.505 103.72C190.713 104.514 190.795 105.026 190.878 105.576C190.961 106.112 191.009 106.627 191.058 107.138C191.141 108.159 191.183 109.16 191.184 110.161C191.181 112.161 191.094 114.147 191.001 116.13C190.807 120.095 190.436 124.052 190.184 128.001C189.862 131.953 189.709 135.894 189.665 139.828C189.65 140.812 189.656 141.795 189.69 142.776C189.703 143.758 189.756 144.738 189.814 145.718C189.869 146.697 189.958 147.676 190.064 148.649C190.175 149.603 190.303 150.638 190.512 151.478C190.805 152.655 190.088 153.847 188.911 154.14C187.734 154.433 186.541 153.716 186.248 152.538C186.197 152.332 186.177 152.125 186.185 151.923L186.187 151.888C186.235 150.769 186.28 149.841 186.289 148.833C186.299 147.844 186.298 146.859 186.265 145.876C186.235 144.893 186.202 143.91 186.13 142.929C186.079 141.948 186.001 140.967 185.902 139.988C185.522 136.07 185.037 132.158 184.367 128.258L182.429 116.577C182.13 114.636 181.826 112.698 181.573 110.776C181.448 109.816 181.357 108.857 181.283 107.92C181.253 107.451 181.217 106.987 181.202 106.546C181.182 106.12 181.166 105.653 181.193 105.481L181.393 104.189C181.787 101.646 184.168 99.9033 186.712 100.297C188.6 100.591 190.047 101.983 190.505 103.72Z" fill="url(#paint45_linear)"/>
<path d="M157.342 125.907C157.497 126.64 157.918 127.928 158.329 129.135L159.679 132.921C160.605 135.489 161.607 138.072 162.431 140.752L163.751 144.748C164.223 146.067 164.73 147.373 165.296 148.644C165.852 149.921 166.44 151.182 167.09 152.391C167.415 152.994 167.734 153.6 168.086 154.164C168.436 154.716 168.808 155.295 169.152 155.668L169.166 155.683C169.825 156.397 169.781 157.512 169.066 158.171C168.351 158.831 167.237 158.786 166.578 158.071C166.569 158.062 166.555 158.046 166.547 158.036C165.951 157.355 165.524 156.765 165.09 156.145C164.663 155.533 164.243 154.936 163.844 154.328L161.479 150.701C160.708 149.488 159.914 148.288 159.114 147.088C158.3 145.896 157.485 144.7 156.705 143.483C155.103 141.066 153.778 138.505 152.552 135.855C151.942 134.526 151.375 133.168 150.868 131.738C150.614 131.021 150.377 130.285 150.169 129.494C150.06 129.1 149.968 128.688 149.88 128.242C149.835 128.02 149.797 127.789 149.762 127.532L149.705 127.064L149.688 126.798C149.556 124.673 151.171 122.841 153.297 122.709C155.232 122.588 156.922 123.917 157.31 125.759L157.342 125.907Z" fill="url(#paint46_linear)"/>
<path d="M218.185 115.443L217.386 119.879C217.094 121.38 216.787 122.885 216.448 124.389C215.756 127.395 214.873 130.386 213.661 133.335C213.354 134.071 213.015 134.801 212.64 135.523C212.458 135.884 212.251 136.243 212.052 136.597L211.488 137.55C210.743 138.823 209.974 140.08 209.277 141.36C208.572 142.634 207.908 143.922 207.378 145.212C206.85 146.479 206.444 147.833 206.503 148.819C206.574 150.017 205.661 151.045 204.464 151.117C203.266 151.188 202.237 150.275 202.166 149.077C202.158 148.932 202.163 148.79 202.182 148.652L202.197 148.549C202.479 146.576 203.153 145.125 203.751 143.676C204.377 142.248 205.018 140.884 205.644 139.521L207.507 135.462L207.971 134.454C208.103 134.148 208.238 133.852 208.358 133.539C208.605 132.921 208.827 132.284 209.024 131.631C209.839 129.027 210.252 126.227 210.531 123.41C210.822 120.57 210.846 117.762 210.846 114.758C210.846 112.714 212.504 111.057 214.548 111.057C216.592 111.057 218.249 112.715 218.249 114.759C218.249 114.976 218.23 115.189 218.194 115.395L218.185 115.443Z" fill="url(#paint47_linear)"/>
<path d="M230.534 140.142C229.674 141.958 228.498 143.161 227.377 144.294C226.242 145.419 225.064 146.415 223.931 147.42C222.8 148.424 221.668 149.399 220.648 150.421C220.142 150.932 219.662 151.454 219.252 151.984C218.85 152.509 218.528 153.072 218.452 153.518L218.433 153.629C218.346 154.138 217.863 154.48 217.354 154.393C216.914 154.318 216.598 153.946 216.577 153.518C216.523 152.43 216.884 151.568 217.236 150.792C217.604 150.016 218.041 149.323 218.494 148.659C219.403 147.334 220.376 146.117 221.348 144.933C222.32 143.751 223.268 142.578 224.15 141.433C225.017 140.287 225.839 139.142 226.245 138.185C226.752 136.986 228.136 136.425 229.335 136.933C230.534 137.441 231.095 138.825 230.587 140.023C230.575 140.051 230.563 140.078 230.551 140.105L230.534 140.142Z" fill="url(#paint48_linear)"/>
<path d="M221.37 212.474C219.086 209.242 215.571 207.235 212.196 207.235C210.577 207.235 209.06 207.702 207.808 208.587C204.249 211.102 203.574 216.422 205.976 221.064C203.835 221.441 202.002 223.12 200.857 224.603C198.845 222.421 195.974 221.044 192.779 221.044C186.713 221.044 181.779 225.979 181.779 232.044C181.779 234.537 182.622 236.831 184.025 238.677C181.709 241.112 177.177 247.101 175.261 251.359L175.502 251.467C176.314 250.428 177.414 249.63 178.684 249.189C180.816 245.641 183.789 241.864 185.379 240.158C187.336 241.944 189.929 243.044 192.781 243.044C198.847 243.044 203.781 238.109 203.781 232.044C203.781 229.922 203.167 227.946 202.123 226.265C203.038 224.959 205.082 222.747 207.219 223.017C209.504 226.037 212.87 227.909 216.118 227.909C217.737 227.909 219.254 227.441 220.506 226.556C224.481 223.745 224.869 217.428 221.37 212.474ZM192.779 241.043C187.816 241.043 183.779 237.005 183.779 232.043C183.779 227.081 187.817 223.043 192.779 223.043C197.741 223.043 201.779 227.081 201.779 232.043C201.779 237.005 197.742 241.043 192.779 241.043ZM219.35 224.921C218.437 225.566 217.319 225.907 216.116 225.907C213.38 225.907 210.491 224.223 208.576 221.513C205.712 217.46 205.886 212.393 208.962 210.22C209.887 209.566 210.975 209.235 212.195 209.235C214.931 209.235 217.82 210.919 219.735 213.629C222.6 217.681 222.426 222.747 219.35 224.921Z" fill="url(#paint49_linear)"/>
<path d="M156.228 224.481C156.205 224.481 156.183 224.481 156.16 224.48C155.056 224.443 154.191 223.518 154.228 222.414C154.364 218.346 155.554 212.564 157.239 210.317C157.903 209.434 159.156 209.255 160.039 209.917C160.922 210.58 161.102 211.834 160.439 212.717C159.545 213.908 158.359 218.559 158.226 222.547C158.19 223.629 157.301 224.481 156.228 224.481Z" fill="#FF57BC"/>
<path d="M207.216 223.01C211.66 224.691 221.853 231.19 222.422 234.601C222.839 237.101 215.089 239.684 214.505 238.851C213.921 238.018 211.838 233.518 209.172 229.684C207.188 226.831 205.111 224.809 204.856 223.61C205.262 223.392 206.36 222.83 207.216 223.01Z" fill="url(#paint50_linear)"/>
<path d="M125.787 198.036C122.062 172.928 124.351 157.419 124.672 151.976C125.172 143.476 130.547 136.393 132.922 130.101C134.877 124.924 137.63 121.601 135.797 120.351C133.086 118.503 128.172 124.934 128.172 124.934C128.172 124.934 128.964 108.184 125.297 108.351C122.172 108.493 124.172 118.226 122.422 118.726C120.672 119.226 117.714 109.601 115.047 109.976C113.603 110.179 113.38 113.684 113.38 113.684C113.38 113.684 112.605 113.033 111.797 113.726C110.63 114.726 111.653 120.625 110.672 122.976C110.26 122.394 109.947 121.971 109.339 122.101C104.651 123.101 105.465 147.397 104.756 152.851C103.619 161.586 102.735 178.901 103.817 199.718C108.257 200.217 116.515 200.505 125.787 198.036Z" fill="url(#paint51_linear)"/>
<path d="M283.308 183.366C282.355 174.199 281.568 167.309 281.422 165.017C280.922 157.184 280.589 150.684 279.755 143.35C278.921 136.016 276.088 128.017 275.588 125.35C275.088 122.683 276.019 119.052 274.734 116.037C273.651 113.495 272.338 114.516 272.338 114.516C272.338 114.516 272.25 110.893 270.671 111.016C268.796 111.162 266.296 122.662 265.004 122.849C264.262 122.957 265.171 109.724 262.921 109.474C261.306 109.294 260.108 111.537 258.546 118.787C257.198 125.043 259.179 136.1 258.171 136.1C257.046 136.1 256.421 131.1 255.296 127.85C254.171 124.6 252.858 121.412 251.171 121.6C249.493 121.787 249.209 125.744 249.959 131.369C250.555 135.836 257.671 158.35 260.671 168.6C261.84 172.595 262.59 178.948 262.968 186.157C267.124 186.747 274.62 186.889 283.308 183.366Z" fill="url(#paint52_linear)"/>
<path d="M110.53 122.331C110.958 122.924 111.257 123.637 111.397 124.38C111.467 124.752 111.505 125.132 111.507 125.515C111.506 125.905 111.486 126.266 111.398 126.69C111.341 126.961 111.075 127.136 110.803 127.079C110.532 127.022 110.357 126.756 110.414 126.484C110.42 126.455 110.429 126.426 110.44 126.399L110.445 126.387C110.553 126.124 110.642 125.775 110.697 125.453C110.754 125.123 110.78 124.786 110.776 124.447C110.766 123.769 110.619 123.09 110.313 122.455C110.283 122.392 110.309 122.318 110.371 122.288C110.427 122.261 110.496 122.283 110.53 122.331Z" fill="#C66C50"/>
<path d="M113.544 112.518C113.401 113.841 113.578 115.173 113.812 116.485C113.932 117.142 114.075 117.796 114.226 118.451C114.375 119.11 114.543 119.752 114.669 120.456C114.718 120.728 114.537 120.988 114.265 121.037C113.993 121.086 113.733 120.905 113.684 120.633C113.681 120.618 113.679 120.604 113.678 120.59L113.677 120.581C113.621 119.948 113.509 119.269 113.418 118.601C113.324 117.93 113.238 117.253 113.174 116.574C113.054 115.22 112.992 113.83 113.259 112.478C113.274 112.4 113.348 112.348 113.427 112.362C113.501 112.374 113.551 112.444 113.544 112.518Z" fill="#C66C50"/>
<path d="M123.255 115.98C123.28 117.149 123.214 118.317 123.128 119.482C123.083 120.065 123.029 120.647 122.966 121.229C122.899 121.816 122.838 122.384 122.718 123C122.665 123.271 122.402 123.449 122.131 123.396C121.86 123.343 121.682 123.08 121.735 122.809C121.738 122.79 121.743 122.772 121.749 122.754L121.753 122.742C121.914 122.232 122.046 121.654 122.173 121.097C122.299 120.534 122.416 119.968 122.526 119.401C122.741 118.265 122.935 117.123 123.04 115.971C123.045 115.911 123.098 115.867 123.158 115.873C123.212 115.879 123.254 115.925 123.255 115.98Z" fill="#C66C50"/>
<path d="M129.659 123.134C128.775 124.056 128.212 125.262 127.6 126.403L125.831 129.901C125.227 131.064 124.599 132.221 123.865 133.333C123.113 134.423 122.322 135.552 121.023 136.298C120.784 136.436 120.478 136.353 120.34 136.113C120.202 135.873 120.285 135.568 120.525 135.43C120.533 135.425 120.543 135.42 120.551 135.416L120.57 135.407C121.593 134.902 122.45 133.885 123.208 132.874C123.968 131.842 124.646 130.733 125.303 129.611L127.245 126.21C127.921 125.094 128.538 123.913 129.517 122.986C129.559 122.947 129.623 122.949 129.662 122.99C129.7 123.03 129.699 123.092 129.662 123.131L129.659 123.134Z" fill="#C66C50"/>
<path d="M257.565 134.471C257.83 135.298 258.379 135.986 258.992 136.616C259.61 137.243 260.297 137.81 261.003 138.362C261.708 138.916 262.435 139.449 263.145 140.036C263.499 140.332 263.851 140.638 264.181 140.998C264.497 141.364 264.852 141.766 264.961 142.424C265.006 142.697 264.822 142.955 264.549 143C264.276 143.045 264.018 142.861 263.973 142.588C263.971 142.57 263.969 142.553 263.967 142.536V142.528C263.952 142.279 263.74 141.921 263.48 141.608C263.218 141.288 262.903 140.982 262.58 140.683C261.93 140.085 261.23 139.512 260.547 138.914C259.862 138.318 259.185 137.699 258.571 137.007C257.967 136.32 257.397 135.524 257.154 134.606L257.15 134.592C257.12 134.476 257.189 134.358 257.304 134.327C257.416 134.298 257.53 134.362 257.565 134.471Z" fill="#C66C50"/>
<path d="M272.634 113.896C272.724 114.719 272.715 115.527 272.718 116.337C272.715 117.147 272.697 117.955 272.673 118.763C272.618 120.383 272.558 121.986 272.419 123.623C272.396 123.898 272.153 124.102 271.878 124.079C271.603 124.056 271.398 123.813 271.421 123.538C271.422 123.528 271.423 123.517 271.425 123.508L271.426 123.495C271.661 121.93 271.828 120.316 271.985 118.72C272.06 117.92 272.13 117.118 272.185 116.318C272.234 115.519 272.293 114.712 272.257 113.927C272.251 113.823 272.331 113.734 272.435 113.727C272.535 113.722 272.621 113.798 272.634 113.896Z" fill="#C66C50"/>
<path d="M253.922 385.351C251.672 366.601 253.084 341.058 260.672 321.351C266.255 306.851 282.755 281.018 286.422 257.101C288.887 241.022 285.612 205.532 283.308 183.366C274.62 186.888 267.123 186.746 262.969 186.158C263.561 197.446 263.24 210.837 262.172 220.601C260.422 236.601 249.922 267.101 236.672 284.101C223.422 301.101 211.172 302.601 200.922 302.601C185.797 302.601 157.547 299.851 139.172 249.351C131.86 229.257 127.879 212.138 125.787 198.036C116.515 200.505 108.257 200.218 103.815 199.718C104.714 217.029 106.972 236.76 111.587 256.018C117.415 280.334 128.087 305.351 138.087 324.185C147.111 341.18 151.815 370.44 161.42 394.852C167.535 410.392 175.765 433.399 190.807 448.831C192.342 426.682 221.257 404.517 253.922 385.351Z" fill="url(#paint53_linear)"/>
<path d="M109.443 231.307C108.481 231.307 107.552 231.253 106.664 231.142C106.253 231.091 105.961 230.717 106.012 230.306C106.063 229.895 106.441 229.602 106.848 229.654C113.523 230.483 122.665 227.947 130.71 223.041C131.064 222.825 131.525 222.937 131.741 223.291C131.957 223.645 131.845 224.106 131.491 224.322C124.228 228.752 116.055 231.307 109.443 231.307Z" fill="#FFA2BA"/>
<path d="M115.662 271.515C115.301 271.515 114.983 271.253 114.923 270.886C114.857 270.477 115.134 270.092 115.543 270.025C120.026 269.296 136.302 259.931 140.696 254.374C140.953 254.049 141.425 253.995 141.75 254.251C142.075 254.508 142.13 254.98 141.873 255.305C137.213 261.197 120.566 270.728 115.784 271.506C115.742 271.512 115.702 271.515 115.662 271.515Z" fill="#FFA2BA"/>
<path d="M126.642 301.032C126.277 301.032 125.957 300.765 125.901 300.393C125.84 299.983 126.122 299.601 126.532 299.54C131.264 298.833 150.863 284.382 153.789 278.651C153.977 278.282 154.43 278.135 154.798 278.324C155.167 278.512 155.314 278.964 155.125 279.333C151.986 285.482 131.837 300.265 126.754 301.024C126.716 301.029 126.679 301.032 126.642 301.032Z" fill="#FFA2BA"/>
<path d="M138.088 324.934C137.744 324.934 137.434 324.696 137.357 324.347C137.267 323.943 137.522 323.542 137.926 323.452C142.162 322.511 168.08 304.715 172.629 295.771C172.817 295.401 173.268 295.254 173.637 295.442C174.006 295.63 174.154 296.081 173.966 296.45C169.237 305.747 143.013 323.857 138.252 324.915C138.196 324.929 138.142 324.934 138.088 324.934Z" fill="#FFA2BA"/>
<path d="M273.392 221.539C268.787 221.539 264.376 221.052 262.059 220.372C261.662 220.255 261.434 219.838 261.551 219.441C261.668 219.043 262.086 218.817 262.482 218.933C267.214 220.324 280.824 220.786 286.071 218.054C286.437 217.863 286.892 218.006 287.082 218.373C287.273 218.74 287.131 219.193 286.763 219.384C283.754 220.95 278.455 221.539 273.392 221.539Z" fill="#FFA2BA"/>
<path d="M281.372 253.039C271.532 253.039 258.716 248.75 255.423 247.09C255.053 246.903 254.904 246.452 255.09 246.083C255.276 245.713 255.73 245.565 256.097 245.75C259.747 247.59 275.391 252.753 285.054 251.287C285.461 251.228 285.846 251.507 285.908 251.916C285.97 252.325 285.688 252.708 285.279 252.77C284.057 252.956 282.743 253.039 281.372 253.039Z" fill="#FFA2BA"/>
<path d="M278.214 284.681C278.21 284.681 278.206 284.681 278.202 284.681C261.794 284.421 248.862 272.696 246.007 268.454C245.776 268.11 245.867 267.644 246.21 267.413C246.553 267.182 247.021 267.273 247.251 267.616C249.989 271.684 262.416 282.93 278.225 283.18C278.64 283.187 278.97 283.528 278.963 283.942C278.958 284.352 278.623 284.681 278.214 284.681Z" fill="#FFA2BA"/>
<path d="M262.569 317.607C262.545 317.607 262.521 317.606 262.497 317.604C248.232 316.237 228.019 300.104 225.822 294.781C225.664 294.398 225.846 293.96 226.229 293.802C226.613 293.644 227.05 293.827 227.208 294.209C229.255 299.169 249.133 314.817 262.639 316.111C263.052 316.151 263.354 316.517 263.314 316.929C263.278 317.317 262.951 317.607 262.569 317.607Z" fill="#FFA2BA"/>
<path d="M180.047 329.636C159.507 329.636 142.965 328.564 139.14 327.428C138.743 327.31 138.516 326.892 138.635 326.495C138.754 326.098 139.173 325.874 139.567 325.989C148.264 328.57 223.369 330.8 260.473 320.627C260.876 320.514 261.285 320.753 261.394 321.152C261.504 321.551 261.269 321.964 260.869 322.073C239.83 327.843 206.6 329.636 180.047 329.636Z" fill="#FFA2BA"/>
<path d="M151.709 365.254C151.443 365.254 151.185 365.112 151.049 364.861C150.851 364.497 150.986 364.042 151.351 363.844C165.428 356.208 205.163 342.131 254.789 343.525C255.203 343.536 255.529 343.881 255.518 344.296C255.507 344.711 255.169 345.066 254.747 345.025C205.438 343.652 166.02 357.594 152.065 365.164C151.952 365.225 151.83 365.254 151.709 365.254Z" fill="#FFA2BA"/>
<path d="M159.82 391.366C159.592 391.366 159.367 391.262 159.22 391.067C158.971 390.736 159.037 390.265 159.368 390.016C182.388 372.696 213.891 363.585 253.002 362.937C253.436 362.94 253.758 363.261 253.764 363.675C253.771 364.089 253.441 364.43 253.026 364.437C214.239 365.08 183.031 374.089 160.269 391.215C160.135 391.317 159.977 391.366 159.82 391.366Z" fill="#FFA2BA"/>
<path d="M169.888 416.45C169.714 416.45 169.538 416.389 169.396 416.266C169.083 415.994 169.05 415.52 169.322 415.207C172.138 411.967 215.65 382.718 253.263 378.587C253.675 378.525 254.045 378.839 254.091 379.25C254.136 379.662 253.839 380.032 253.427 380.077C217.994 383.969 173.934 412.187 170.454 416.191C170.307 416.363 170.098 416.45 169.888 416.45Z" fill="#FFA2BA"/>
<path d="M287.291 240.016C272.999 250.344 280.585 267.841 282.906 271.455C284.458 266.663 285.695 261.845 286.423 257.101C287.103 252.659 287.344 246.731 287.291 240.016Z" fill="url(#paint54_linear)"/>
<path d="M108.729 242.434C109.565 246.963 110.506 251.504 111.588 256.018C112.763 260.923 114.144 265.854 115.668 270.76C127.749 260.183 119.259 243.363 108.729 242.434Z" fill="url(#paint55_linear)"/>
<path d="M311.34 419.347C311.34 419.347 242.922 450.517 250.422 455.184C257.922 459.851 278.009 465.973 294.255 471.684C312.621 478.14 329.422 486.184 329.422 486.184C329.422 486.184 317.547 497.726 306.089 511.351C305.171 512.443 304.205 513.644 303.208 514.924C307.129 520.553 317.008 530.24 331.499 533.621C348.925 521.652 378.419 500.341 380.172 482.6C382.569 458.34 316.73 421.73 311.34 419.347Z" fill="url(#paint56_linear)"/>
<path d="M371.315 462.97C367.076 468.79 361.495 484.764 372.871 498.289C376.934 492.969 379.675 487.641 380.173 482.601C380.767 476.58 377.157 469.8 371.315 462.97Z" fill="url(#paint57_linear)"/>
<path d="M303.208 514.924C293.247 527.718 280.13 548.594 279.524 550.715C278.857 553.048 280.089 560.184 282.255 565.518C284.421 570.852 296.422 587.226 298.588 585.184C301.51 582.431 298.088 562.018 299.255 558.184C300.422 554.35 309.672 548.851 322.422 539.851C324.651 538.277 327.806 536.159 331.499 533.622C317.008 530.241 307.129 520.553 303.208 514.924Z" fill="url(#paint58_linear)"/>
<path d="M337.192 530.414C337.15 530.414 337.108 530.411 337.065 530.403C327.093 528.702 309.835 515.211 306.454 510.655C306.207 510.322 306.277 509.852 306.609 509.605C306.943 509.359 307.412 509.428 307.659 509.76C310.595 513.717 327.595 527.266 337.317 528.924C337.725 528.993 338 529.381 337.93 529.789C337.867 530.156 337.55 530.414 337.192 530.414Z" fill="#6022B6"/>
<path d="M318.237 520.692C318.028 520.692 317.82 520.605 317.673 520.435C317.401 520.123 317.432 519.65 317.744 519.377C317.986 519.165 342.005 498.027 342.005 484.685C342.005 467.426 280.718 447.017 265.548 442.89C265.148 442.782 264.912 442.369 265.021 441.969C265.13 441.57 265.543 441.335 265.941 441.443C266.717 441.654 343.504 463.496 343.504 484.685C343.504 498.706 319.741 519.623 318.73 520.506C318.589 520.631 318.413 520.692 318.237 520.692Z" fill="#6022B6"/>
<path d="M282.947 544.594C280.983 547.81 279.703 550.087 279.524 550.715C279.108 552.172 279.432 555.5 280.261 559.094C285.436 555.259 284.354 548.36 282.947 544.594Z" fill="url(#paint59_linear)"/>
<path d="M282.672 568.351C284.172 567.601 299.136 564.931 301.755 567.768C302.82 568.921 302.255 586.684 299.422 588.018C296.949 589.182 289.44 580.813 287.628 578.242C285.816 575.671 282.672 568.351 282.672 568.351Z" fill="url(#paint60_linear)"/>
<path d="M297.92 589.476C297.59 589.476 297.255 589.395 296.946 589.222C278.646 578.998 274.477 551.892 274.44 551.621C274.291 550.526 275.057 549.518 276.151 549.369C277.245 549.216 278.254 549.986 278.402 551.08C278.437 551.331 282.56 576.603 298.896 585.729C299.86 586.268 300.206 587.486 299.667 588.451C299.302 589.107 298.621 589.476 297.92 589.476Z" fill="url(#paint61_linear)"/>
<path d="M411.761 399.304C393.005 380.584 366.664 360.172 338.172 359.601C300.756 358.851 263.255 381.351 253.922 385.351C221.257 404.517 192.342 426.682 190.808 448.83C200.622 458.899 213.334 465.745 230.255 465.184C285.589 463.351 302.922 414.851 342.088 414.518C357.709 414.385 373.228 420.252 386.947 427.292C392.335 423.203 404.566 409.272 411.761 399.304Z" fill="url(#paint62_linear)"/>
<path d="M229.044 447.87C209.285 447.87 197.001 435.381 195.541 433.816C195.258 433.513 195.275 433.039 195.578 432.756C195.88 432.472 196.354 432.489 196.638 432.792C198.198 434.463 212.535 449.034 235.323 445.941C247.11 444.343 258.727 436.465 272.179 427.344C290.632 414.832 311.547 400.651 338.724 399.434C372.092 397.936 393.496 413.758 393.708 413.918C394.039 414.167 394.104 414.637 393.855 414.968C393.605 415.298 393.134 415.365 392.805 415.115C392.596 414.959 371.6 399.47 338.789 400.931C312.035 402.129 291.307 416.184 273.019 428.585C259.411 437.812 247.658 445.78 235.522 447.426C233.283 447.732 231.121 447.87 229.044 447.87Z" fill="#00E2EC"/>
<path d="M215.476 445.796C215.231 445.796 214.991 445.676 214.847 445.455C214.621 445.107 214.72 444.642 215.067 444.417C217.058 443.122 218.326 439.854 218.734 434.965C219.497 425.828 216.986 413.909 215.096 412.171C214.791 411.891 214.771 411.416 215.052 411.111C215.333 410.807 215.807 410.787 216.112 411.067C218.49 413.254 221.008 425.766 220.23 435.089C219.775 440.533 218.313 444.095 215.886 445.674C215.758 445.757 215.616 445.796 215.476 445.796Z" fill="#00E2EC"/>
<path d="M467.089 431.018C465.423 429.018 445.047 432.601 439.672 430.101C437.626 429.15 427.294 414.807 411.761 399.304C404.566 409.272 392.335 423.202 386.948 427.292C407.022 437.593 423.245 450.403 430.302 450.607C443.047 450.976 468.755 433.018 467.089 431.018Z" fill="url(#paint63_linear)"/>
<path d="M382.28 425.733C382.018 425.733 381.764 425.596 381.626 425.352C381.423 424.992 381.55 424.534 381.91 424.33C385.278 422.427 402.388 405.601 406.427 394.548C406.569 394.158 407.001 393.959 407.389 394.102C407.778 394.244 407.978 394.674 407.835 395.064C403.603 406.649 386.224 423.616 382.648 425.637C382.532 425.702 382.405 425.733 382.28 425.733Z" fill="#00E2EC"/>
<path d="M341.922 374.184C351.491 374.071 358.332 368.119 361.705 364.361C354.115 361.513 346.229 359.762 338.172 359.601C331.423 359.466 324.673 360.095 318.084 361.228C321.668 366.796 330.143 374.324 341.922 374.184Z" fill="url(#paint64_linear)"/>
<path d="M432.088 444.351C427.765 444.161 424.728 446.454 423.514 448.395C426.277 449.744 428.567 450.558 430.301 450.608C432.859 450.682 435.942 450.009 439.218 448.884C438.191 447.001 436.092 444.528 432.088 444.351Z" fill="url(#paint65_linear)"/>
<path d="M456.672 425.226C454.524 425.906 450.572 437.923 457.122 447.075C458.982 445.285 465.804 438.438 467.823 436.111C469.842 433.784 476.797 424.226 477.291 423.397C477.785 422.568 465.36 422.476 456.672 425.226Z" fill="url(#paint66_linear)"/>
<path d="M441.674 462.601C441.05 462.601 440.435 462.31 440.044 461.763C439.402 460.865 439.61 459.616 440.51 458.973C442.428 457.603 466.853 437.41 474.687 423.732C475.235 422.775 476.458 422.441 477.416 422.991C478.374 423.54 478.706 424.762 478.157 425.72C469.847 440.229 444.898 460.754 442.834 462.229C442.483 462.48 442.076 462.601 441.674 462.601Z" fill="url(#paint67_linear)"/>
<path d="M272.262 514.728L272.345 514.7C273.027 514.439 273.373 513.665 273.11 512.976C272.913 512.461 272.411 512.117 271.861 512.117C271.698 512.117 271.538 512.146 271.383 512.205C268.294 513.386 264.927 514.471 260.468 515.723C257.138 516.63 253.582 517.453 249.271 518.317C242.244 519.728 234.79 520.732 226.483 521.384C220.619 521.814 214.756 522.032 209.052 522.032C199.344 522.032 189.806 521.402 180.704 520.161C172.489 519.035 165.258 517.497 158.598 515.456C154.651 514.242 151.302 512.938 148.359 511.469C146.664 510.62 145.136 509.726 143.817 508.81C143.466 508.567 143.122 508.314 142.795 508.064L142.337 507.702L141.826 507.28C141.135 506.703 140.475 506.115 139.862 505.528C137.181 502.963 135.22 500.256 134.034 497.481C132.783 494.567 132.348 491.501 132.744 488.368C133.116 485.411 134.3 482.325 136.168 479.445C137.071 478.043 138.094 476.757 139.207 475.627C140.157 474.657 141.555 473.484 142.532 473.056L142.631 473.011C143.662 472.529 144.442 471.673 144.829 470.604C145.216 469.534 145.163 468.377 144.68 467.348C143.981 465.859 142.466 464.896 140.821 464.896C140.196 464.896 139.589 465.032 139.017 465.3C136.355 466.548 134.702 468.071 133.105 469.653C131.576 471.217 130.225 472.923 128.988 474.855C126.474 478.828 124.955 483.054 124.477 487.413C124.223 489.757 124.289 492.072 124.675 494.293C125.068 496.533 125.77 498.727 126.762 500.811C128.511 504.496 131.19 507.963 134.724 511.118C135.498 511.807 136.313 512.484 137.146 513.128L137.776 513.601L138.469 514.094C138.91 514.396 139.356 514.686 139.815 514.971C141.494 516.009 143.32 516.955 145.395 517.863C148.808 519.347 152.458 520.557 156.88 521.673C163.663 523.352 171.072 524.45 180.195 525.129C185.137 525.494 190.286 525.671 195.934 525.671C198.372 525.671 200.856 525.639 203.528 525.571C210.772 525.408 218.36 524.884 226.726 523.972C243.796 522.083 258.692 519.061 272.262 514.728Z" fill="url(#paint68_linear)"/>
<path d="M119.978 345.791L120.033 345.758C120.51 345.45 120.648 344.814 120.341 344.339C120.152 344.045 119.829 343.869 119.478 343.869C119.282 343.869 119.09 343.926 118.924 344.033C116.424 345.644 113.819 347.173 111.299 348.652C110.424 349.166 109.547 349.68 108.671 350.2C104.627 352.562 101.425 354.652 98.5869 356.783C95.3159 359.307 92.1499 361.888 89.4879 365.6C87.9679 367.769 86.9679 369.911 86.4389 372.139C85.7269 374.991 86.0579 378.07 86.3179 379.653L86.3749 380.007C86.4259 380.306 86.5129 380.611 86.6309 380.907C87.3129 382.613 88.9409 383.715 90.7769 383.715C91.3439 383.715 91.9009 383.608 92.4329 383.395C94.7179 382.481 95.8339 379.877 94.9199 377.591C94.3359 376.132 93.9729 374.93 93.9669 373.451C93.9539 372.1 94.3359 370.553 95.0709 368.98C96.3539 366.226 98.5369 363.267 101.56 360.185C103.962 357.719 106.786 355.182 110.19 352.432C113.593 349.737 116.792 347.567 119.978 345.791Z" fill="url(#paint69_linear)"/>
<path d="M406.274 469.212C405.618 468.302 404.756 467.859 403.639 467.859C403.451 467.859 403.254 467.873 403.053 467.898C399.94 468.294 400.101 471.854 400.619 477.628C400.839 480.069 401.066 482.593 400.882 484.912C400.572 488.808 398.768 491.896 397.449 494.151C396.339 496.05 395.683 497.239 396.189 497.709C396.273 497.787 396.354 497.818 396.479 497.818C398.341 497.818 403.011 492.254 405.807 483.867C407.959 477.414 408.138 471.798 406.274 469.212Z" fill="url(#paint70_linear)"/>
<path d="M110.592 330.258C110.594 329.406 110.358 328.737 109.889 328.266C109.264 327.64 108.188 327.308 106.776 327.308C103.474 327.308 98.8778 329.082 94.4808 332.055C88.8888 335.835 85.0438 339.294 83.2568 341.318C83.3278 341.276 83.3988 341.234 83.4688 341.192C85.8598 339.771 89.4718 337.623 93.9148 336.446C96.4448 335.776 99.0378 335.406 101.324 335.081C107.236 334.238 110.582 333.599 110.592 330.258Z" fill="url(#paint71_linear)"/>
<path d="M185.231 498.305C184.413 497.242 182.313 496.511 179.612 496.349C179.192 496.324 178.689 496.312 178.121 496.297C174.294 496.202 167.888 496.044 163.262 491.977C157.467 486.882 156.938 481.462 156.684 478.858C156.668 478.697 156.651 478.522 156.633 478.358C156.535 478.462 156.431 478.611 156.326 478.82C155.036 481.395 155.842 488.852 159.598 493.878C162.681 498.002 168.938 502.3 175.965 502.603C176.808 502.639 177.556 502.657 178.252 502.657C184.204 502.657 185.288 501.261 185.563 499.896C185.689 499.269 185.584 498.763 185.231 498.305Z" fill="url(#paint72_linear)"/>
<defs>
<linearGradient id="paint0_linear" x1="303.5" y1="597" x2="303.5" y2="0.00035584" gradientUnits="userSpaceOnUse">
<stop stop-color="#0A1934"/>
<stop offset="0.640625" stop-color="#38294E"/>
</linearGradient>
<linearGradient id="paint1_linear" x1="0.00449086" y1="251.976" x2="75.422" y2="251.976" gradientUnits="userSpaceOnUse">
<stop stop-color="#B0E1FF"/>
<stop offset="1" stop-color="white"/>
</linearGradient>
<linearGradient id="paint2_linear" x1="10.9024" y1="261.901" x2="67.6719" y2="261.901" gradientUnits="userSpaceOnUse">
<stop stop-color="#00E2EC"/>
<stop offset="1" stop-color="#0090B2"/>
</linearGradient>
<linearGradient id="paint3_linear" x1="326.922" y1="91.3044" x2="333.255" y2="91.3044" gradientUnits="userSpaceOnUse">
<stop stop-color="white"/>
<stop offset="1" stop-color="#B0E1FF"/>
</linearGradient>
<linearGradient id="paint4_linear" x1="319.839" y1="29.3511" x2="429.998" y2="29.3511" gradientUnits="userSpaceOnUse">
<stop stop-color="white"/>
<stop offset="1" stop-color="#B0E1FF"/>
</linearGradient>
<linearGradient id="paint5_linear" x1="319.839" y1="101.518" x2="444.538" y2="101.518" gradientUnits="userSpaceOnUse">
<stop stop-color="white"/>
<stop offset="1" stop-color="#B0E1FF"/>
</linearGradient>
<linearGradient id="paint6_linear" x1="319.839" y1="182.935" x2="443.007" y2="182.935" gradientUnits="userSpaceOnUse">
<stop stop-color="white"/>
<stop offset="1" stop-color="#B0E1FF"/>
</linearGradient>
<linearGradient id="paint7_linear" x1="0.00259675" y1="251.976" x2="67.672" y2="251.976" gradientUnits="userSpaceOnUse">
<stop stop-color="#8C6AE2"/>
<stop offset="1" stop-color="#5A55F8"/>
</linearGradient>
<linearGradient id="paint8_linear" x1="32.2554" y1="266.851" x2="53.5884" y2="266.851" gradientUnits="userSpaceOnUse">
<stop stop-color="#C07EB0"/>
<stop offset="1" stop-color="#EE5C95"/>
</linearGradient>
<linearGradient id="paint9_linear" x1="65.7958" y1="430.462" x2="86.1044" y2="430.462" gradientUnits="userSpaceOnUse">
<stop stop-color="#FDE1A7"/>
<stop offset="1" stop-color="#F9A144"/>
</linearGradient>
<linearGradient id="paint10_linear" x1="92.9999" y1="515.075" x2="198.063" y2="515.075" gradientUnits="userSpaceOnUse">
<stop stop-color="#00E2EC"/>
<stop offset="1" stop-color="#0090B2"/>
</linearGradient>
<linearGradient id="paint11_linear" x1="44.9996" y1="485.498" x2="92.8278" y2="485.498" gradientUnits="userSpaceOnUse">
<stop stop-color="#5A55F8"/>
<stop offset="0.3102" stop-color="#6E5EEF"/>
<stop offset="0.7287" stop-color="#8467E5"/>
<stop offset="1" stop-color="#8C6AE2"/>
</linearGradient>
<linearGradient id="paint12_linear" x1="83.0001" y1="458.798" x2="132.055" y2="458.798" gradientUnits="userSpaceOnUse">
<stop stop-color="#5A55F8"/>
<stop offset="1" stop-color="#8C6AE2"/>
</linearGradient>
<linearGradient id="paint13_linear" x1="47.9985" y1="465.321" x2="132.033" y2="465.321" gradientUnits="userSpaceOnUse">
<stop stop-color="#FF57BD"/>
<stop offset="1" stop-color="#FE6A77"/>
</linearGradient>
<linearGradient id="paint14_linear" x1="99.9994" y1="546.788" x2="120.648" y2="546.788" gradientUnits="userSpaceOnUse">
<stop stop-color="#00E2EC"/>
<stop offset="1" stop-color="#0090B2"/>
</linearGradient>
<linearGradient id="paint15_linear" x1="438.709" y1="366.601" x2="438.709" y2="336.351" gradientUnits="userSpaceOnUse">
<stop stop-color="white"/>
<stop offset="1" stop-color="#E9B6F2"/>
</linearGradient>
<linearGradient id="paint16_linear" x1="338.255" y1="279.851" x2="533.255" y2="279.851" gradientUnits="userSpaceOnUse">
<stop stop-color="white"/>
<stop offset="1" stop-color="#F1D1F8"/>
</linearGradient>
<linearGradient id="paint17_linear" x1="345.922" y1="277.518" x2="522.589" y2="277.518" gradientUnits="userSpaceOnUse">
<stop stop-color="#00E2EC"/>
<stop offset="1" stop-color="#0090B2"/>
</linearGradient>
<linearGradient id="paint18_linear" x1="405.382" y1="246.86" x2="512.384" y2="246.86" gradientUnits="userSpaceOnUse">
<stop stop-color="#FDE1A7"/>
<stop offset="1" stop-color="#F9A144"/>
</linearGradient>
<linearGradient id="paint19_linear" x1="336.763" y1="277.445" x2="470.756" y2="277.445" gradientUnits="userSpaceOnUse">
<stop stop-color="#7523AF"/>
<stop offset="0.123" stop-color="#6D2EB2"/>
<stop offset="0.3398" stop-color="#594CBA"/>
<stop offset="0.625" stop-color="#387CC7"/>
<stop offset="0.9644" stop-color="#0ABED8"/>
<stop offset="1" stop-color="#05C5DA"/>
</linearGradient>
<linearGradient id="paint20_linear" x1="460.652" y1="297.518" x2="460.652" y2="245.534" gradientUnits="userSpaceOnUse">
<stop stop-color="#170389"/>
<stop offset="0.4221" stop-color="#3B0E9F"/>
<stop offset="0.7767" stop-color="#5215AD"/>
<stop offset="1" stop-color="#5A18B2"/>
</linearGradient>
<linearGradient id="paint21_linear" x1="319.244" y1="253.62" x2="350.002" y2="253.62" gradientUnits="userSpaceOnUse">
<stop stop-color="#170389"/>
<stop offset="0.0772" stop-color="#1C058C"/>
<stop offset="1" stop-color="#5A18B2"/>
</linearGradient>
<linearGradient id="paint22_linear" x1="390.154" y1="290.184" x2="432.435" y2="290.184" gradientUnits="userSpaceOnUse">
<stop stop-color="#170389"/>
<stop offset="0.0772" stop-color="#1C058C"/>
<stop offset="1" stop-color="#5A18B2"/>
</linearGradient>
<linearGradient id="paint23_linear" x1="312.415" y1="260" x2="335.673" y2="260" gradientUnits="userSpaceOnUse">
<stop stop-color="#170389"/>
<stop offset="0.0772" stop-color="#1C058C"/>
<stop offset="1" stop-color="#5A18B2"/>
</linearGradient>
<linearGradient id="paint24_linear" x1="321.921" y1="259.851" x2="335.673" y2="259.851" gradientUnits="userSpaceOnUse">
<stop stop-color="#F6E2FB"/>
<stop offset="1" stop-color="#FF9BBB"/>
</linearGradient>
<linearGradient id="paint25_linear" x1="327.114" y1="229.811" x2="340.694" y2="229.811" gradientUnits="userSpaceOnUse">
<stop stop-color="#F6E2FB"/>
<stop offset="1" stop-color="#FF9BBB"/>
</linearGradient>
<linearGradient id="paint26_linear" x1="322.922" y1="275.62" x2="366.152" y2="275.62" gradientUnits="userSpaceOnUse">
<stop stop-color="#FF9BBB"/>
<stop offset="1" stop-color="#F6E2FB"/>
</linearGradient>
<linearGradient id="paint27_linear" x1="463.767" y1="278.982" x2="491.579" y2="306.794" gradientUnits="userSpaceOnUse">
<stop stop-color="#FDE1A7"/>
<stop offset="1" stop-color="#F9A144"/>
</linearGradient>
<linearGradient id="paint28_linear" x1="462.6" y1="293.543" x2="490.328" y2="293.543" gradientUnits="userSpaceOnUse">
<stop stop-color="#C91C91"/>
<stop offset="1" stop-color="#FE6A77"/>
</linearGradient>
<linearGradient id="paint29_linear" x1="555.256" y1="345.407" x2="579.422" y2="345.407" gradientUnits="userSpaceOnUse">
<stop stop-color="#FF57BD"/>
<stop offset="1" stop-color="#FE6A77"/>
</linearGradient>
<linearGradient id="paint30_linear" x1="525.589" y1="347.825" x2="568.131" y2="347.825" gradientUnits="userSpaceOnUse">
<stop stop-color="#C07EB0"/>
<stop offset="1" stop-color="#EE5C95"/>
</linearGradient>
<linearGradient id="paint31_linear" x1="538.252" y1="316.844" x2="555.517" y2="334.109" gradientUnits="userSpaceOnUse">
<stop stop-color="#994574"/>
<stop offset="1" stop-color="#43256F"/>
</linearGradient>
<linearGradient id="paint32_linear" x1="539.254" y1="301.446" x2="574.344" y2="301.446" gradientUnits="userSpaceOnUse">
<stop stop-color="white"/>
<stop offset="1" stop-color="#FDE1A7"/>
</linearGradient>
<linearGradient id="paint33_linear" x1="516.352" y1="285.007" x2="534.181" y2="285.007" gradientUnits="userSpaceOnUse">
<stop stop-color="white"/>
<stop offset="1" stop-color="#FDE1A7"/>
</linearGradient>
<linearGradient id="paint34_linear" x1="510.698" y1="305.032" x2="525.381" y2="305.032" gradientUnits="userSpaceOnUse">
<stop stop-color="white"/>
<stop offset="1" stop-color="#FDE1A7"/>
</linearGradient>
<linearGradient id="paint35_linear" x1="542.841" y1="400.018" x2="542.841" y2="373.185" gradientUnits="userSpaceOnUse">
<stop stop-color="#FFE2A8"/>
<stop offset="1" stop-color="#A482FF"/>
</linearGradient>
<linearGradient id="paint36_linear" x1="364.214" y1="373.076" x2="634.256" y2="373.076" gradientUnits="userSpaceOnUse">
<stop stop-color="#F9A144"/>
<stop offset="1" stop-color="#FDE1A7"/>
</linearGradient>
<linearGradient id="paint37_linear" x1="247.672" y1="582.369" x2="247.672" y2="491.726" gradientUnits="userSpaceOnUse">
<stop stop-color="#8173CC"/>
<stop offset="1" stop-color="#271068"/>
</linearGradient>
<linearGradient id="paint38_linear" x1="108.444" y1="388.749" x2="194.863" y2="388.749" gradientUnits="userSpaceOnUse">
<stop stop-color="#994574"/>
<stop offset="1" stop-color="#43256F"/>
</linearGradient>
<linearGradient id="paint39_linear" x1="108.123" y1="401.208" x2="170.895" y2="401.208" gradientUnits="userSpaceOnUse">
<stop stop-color="#8173CC"/>
<stop offset="1" stop-color="#271068"/>
</linearGradient>
<linearGradient id="paint40_linear" x1="186.411" y1="472.212" x2="305.435" y2="472.212" gradientUnits="userSpaceOnUse">
<stop stop-color="#994574"/>
<stop offset="1" stop-color="#43256F"/>
</linearGradient>
<linearGradient id="paint41_linear" x1="186.421" y1="481.644" x2="305.435" y2="481.644" gradientUnits="userSpaceOnUse">
<stop stop-color="#8173CC"/>
<stop offset="1" stop-color="#271068"/>
</linearGradient>
<linearGradient id="paint42_linear" x1="200.047" y1="310.154" x2="200.047" y2="256.559" gradientUnits="userSpaceOnUse">
<stop stop-color="#E8878E"/>
<stop offset="0.2186" stop-color="#E58589"/>
<stop offset="0.4692" stop-color="#DE7F7B"/>
<stop offset="0.7347" stop-color="#D27565"/>
<stop offset="1" stop-color="#C16846"/>
</linearGradient>
<linearGradient id="paint43_linear" x1="162.252" y1="234.783" x2="228.879" y2="234.783" gradientUnits="userSpaceOnUse">
<stop stop-color="#E8878E"/>
<stop offset="1" stop-color="#F4BEA3"/>
</linearGradient>
<linearGradient id="paint44_linear" x1="139.394" y1="214.909" x2="221.698" y2="214.909" gradientUnits="userSpaceOnUse">
<stop stop-color="#994574"/>
<stop offset="1" stop-color="#43256F"/>
</linearGradient>
<linearGradient id="paint45_linear" x1="186.181" y1="154.207" x2="186.181" y2="100.243" gradientUnits="userSpaceOnUse">
<stop stop-color="#FDE1A7"/>
<stop offset="1" stop-color="white"/>
</linearGradient>
<linearGradient id="paint46_linear" x1="159.656" y1="158.637" x2="159.656" y2="122.699" gradientUnits="userSpaceOnUse">
<stop stop-color="#FDE1A7"/>
<stop offset="1" stop-color="white"/>
</linearGradient>
<linearGradient id="paint47_linear" x1="210.204" y1="151.121" x2="210.204" y2="111.058" gradientUnits="userSpaceOnUse">
<stop stop-color="#FDE1A7"/>
<stop offset="1" stop-color="white"/>
</linearGradient>
<linearGradient id="paint48_linear" x1="223.674" y1="154.408" x2="223.674" y2="136.746" gradientUnits="userSpaceOnUse">
<stop stop-color="#FDE1A7"/>
<stop offset="1" stop-color="white"/>
</linearGradient>
<linearGradient id="paint49_linear" x1="175.26" y1="229.35" x2="223.76" y2="229.35" gradientUnits="userSpaceOnUse">
<stop stop-color="#5A55F8"/>
<stop offset="1" stop-color="#8C6AE2"/>
</linearGradient>
<linearGradient id="paint50_linear" x1="204.856" y1="230.993" x2="222.438" y2="230.993" gradientUnits="userSpaceOnUse">
<stop stop-color="#FF57BD"/>
<stop offset="1" stop-color="#FE6A77"/>
</linearGradient>
<linearGradient id="paint51_linear" x1="103.325" y1="154.202" x2="136.399" y2="154.202" gradientUnits="userSpaceOnUse">
<stop stop-color="#E8878E"/>
<stop offset="1" stop-color="#F4BEA3"/>
</linearGradient>
<linearGradient id="paint52_linear" x1="249.567" y1="147.973" x2="283.308" y2="147.973" gradientUnits="userSpaceOnUse">
<stop stop-color="#E8878E"/>
<stop offset="1" stop-color="#F4BEA3"/>
</linearGradient>
<linearGradient id="paint53_linear" x1="103.816" y1="316.098" x2="287.299" y2="316.098" gradientUnits="userSpaceOnUse">
<stop stop-color="#FE6A77"/>
<stop offset="1" stop-color="#C91C91"/>
</linearGradient>
<linearGradient id="paint54_linear" x1="278.813" y1="255.735" x2="287.298" y2="255.735" gradientUnits="userSpaceOnUse">
<stop stop-color="#F9A144"/>
<stop offset="1" stop-color="#FDE1A7"/>
</linearGradient>
<linearGradient id="paint55_linear" x1="111.255" y1="256.763" x2="121.243" y2="255.002" gradientUnits="userSpaceOnUse">
<stop stop-color="#FDE1A7"/>
<stop offset="1" stop-color="#F9A144"/>
</linearGradient>
<linearGradient id="paint56_linear" x1="249.848" y1="476.484" x2="380.235" y2="476.484" gradientUnits="userSpaceOnUse">
<stop stop-color="#00E2EC"/>
<stop offset="0.2998" stop-color="#20B5DF"/>
<stop offset="1" stop-color="#6A4EC2"/>
</linearGradient>
<linearGradient id="paint57_linear" x1="366.144" y1="480.63" x2="380.236" y2="480.63" gradientUnits="userSpaceOnUse">
<stop stop-color="#5A18B2"/>
<stop offset="1" stop-color="#7A50C9"/>
</linearGradient>
<linearGradient id="paint58_linear" x1="279.343" y1="550.142" x2="331.499" y2="550.142" gradientUnits="userSpaceOnUse">
<stop stop-color="#E8878E"/>
<stop offset="0.2186" stop-color="#E58589"/>
<stop offset="0.4692" stop-color="#DE7F7B"/>
<stop offset="0.7347" stop-color="#D27565"/>
<stop offset="1" stop-color="#C16846"/>
</linearGradient>
<linearGradient id="paint59_linear" x1="279.343" y1="551.844" x2="284.11" y2="551.844" gradientUnits="userSpaceOnUse">
<stop stop-color="#F4BEA3"/>
<stop offset="1" stop-color="#E8878E"/>
</linearGradient>
<linearGradient id="paint60_linear" x1="282.672" y1="577.31" x2="302.257" y2="577.31" gradientUnits="userSpaceOnUse">
<stop stop-color="#FE6A77"/>
<stop offset="1" stop-color="#C91C91"/>
</linearGradient>
<linearGradient id="paint61_linear" x1="274.422" y1="569.413" x2="299.923" y2="569.413" gradientUnits="userSpaceOnUse">
<stop stop-color="#994574"/>
<stop offset="1" stop-color="#43256F"/>
</linearGradient>
<linearGradient id="paint62_linear" x1="190.808" y1="412.4" x2="411.761" y2="412.4" gradientUnits="userSpaceOnUse">
<stop stop-color="#05C5DA"/>
<stop offset="0.0356" stop-color="#0ABED8"/>
<stop offset="0.375" stop-color="#387CC7"/>
<stop offset="0.6602" stop-color="#594CBA"/>
<stop offset="0.877" stop-color="#6D2EB2"/>
<stop offset="1" stop-color="#7523AF"/>
</linearGradient>
<linearGradient id="paint63_linear" x1="386.947" y1="424.958" x2="467.166" y2="424.958" gradientUnits="userSpaceOnUse">
<stop stop-color="#E8878E"/>
<stop offset="0.2186" stop-color="#E58589"/>
<stop offset="0.4692" stop-color="#DE7F7B"/>
<stop offset="0.7347" stop-color="#D27565"/>
<stop offset="1" stop-color="#C16846"/>
</linearGradient>
<linearGradient id="paint64_linear" x1="339.895" y1="374.186" x2="339.895" y2="359.583" gradientUnits="userSpaceOnUse">
<stop stop-color="#170389"/>
<stop offset="0.0772" stop-color="#1C058C"/>
<stop offset="1" stop-color="#5A18B2"/>
</linearGradient>
<linearGradient id="paint65_linear" x1="430.608" y1="444.344" x2="431.728" y2="450.691" gradientUnits="userSpaceOnUse">
<stop stop-color="#E8878E"/>
<stop offset="1" stop-color="#F4BEA3"/>
</linearGradient>
<linearGradient id="paint66_linear" x1="453.513" y1="434.98" x2="477.305" y2="434.98" gradientUnits="userSpaceOnUse">
<stop stop-color="#FE6A77"/>
<stop offset="1" stop-color="#C91C91"/>
</linearGradient>
<linearGradient id="paint67_linear" x1="439.672" y1="442.664" x2="478.422" y2="442.664" gradientUnits="userSpaceOnUse">
<stop stop-color="#43256F"/>
<stop offset="1" stop-color="#994574"/>
</linearGradient>
<linearGradient id="paint68_linear" x1="159.249" y1="535.733" x2="227.64" y2="467.342" gradientUnits="userSpaceOnUse">
<stop stop-color="white"/>
<stop offset="1" stop-color="#FDE1A7"/>
</linearGradient>
<linearGradient id="paint69_linear" x1="86.0073" y1="363.792" x2="120.503" y2="363.792" gradientUnits="userSpaceOnUse">
<stop stop-color="white"/>
<stop offset="0.4533" stop-color="#FEEFD0"/>
<stop offset="0.8021" stop-color="#FDE5B2"/>
<stop offset="1" stop-color="#FDE1A7"/>
</linearGradient>
<linearGradient id="paint70_linear" x1="396.016" y1="482.839" x2="407.556" y2="482.839" gradientUnits="userSpaceOnUse">
<stop stop-color="white"/>
<stop offset="1" stop-color="#FDE1A7"/>
</linearGradient>
<linearGradient id="paint71_linear" x1="83.2572" y1="334.314" x2="110.592" y2="334.314" gradientUnits="userSpaceOnUse">
<stop stop-color="white"/>
<stop offset="1" stop-color="#FDE1A7"/>
</linearGradient>
<linearGradient id="paint72_linear" x1="155.753" y1="490.507" x2="185.614" y2="490.507" gradientUnits="userSpaceOnUse">
<stop stop-color="white"/>
<stop offset="1" stop-color="#FDE1A7"/>
</linearGradient>
</defs>
</svg>
