<svg width="349" height="186" viewBox="0 0 349 186" fill="none" xmlns="http://www.w3.org/2000/svg">
<path fill-rule="evenodd" clip-rule="evenodd" d="M63.7695 113.654L64.7138 125.496L82.6556 129.759L96.3479 135.917L107.207 145.391L112.401 141.128L119.011 126.443L126.566 125.022L153.95 127.864L163.393 130.706L160.088 146.812L156.783 158.654L211.553 155.338L209.664 127.864L198.333 102.759L153.478 80.9688L119.955 85.232L96.3479 111.285L85.9606 116.969L67.5467 116.022" fill="url(#paint0_linear)"/>
<path fill-rule="evenodd" clip-rule="evenodd" d="M289.602 4.80455C293.292 9.29018 287.855 15.6335 284.773 18.7634C283.277 20.283 282.037 22.0392 280.574 23.5966C279.129 25.1356 277.316 26.3468 276.018 27.8324C274.656 29.3926 273.083 31.1002 271.944 32.8554C271.223 33.9675 270.154 35.2095 269.796 36.5001C269.281 38.3559 269.711 37.2839 270.391 38.3332C271.086 39.4047 271.32 39.4666 271.556 40.9602C271.785 42.4123 272.111 43.4748 272.895 44.7153C274.187 46.7586 275.583 48.6796 276.494 50.9387C277.705 53.9434 278.563 56.994 279.528 60.0852C279.904 61.2907 280.157 62.6715 280.764 63.7822C281.627 65.3599 281.748 65.2277 283.032 64.2435C286.864 61.3063 290.739 58.2015 294.734 55.4021C297.022 53.7985 299.4 52.2283 301.814 50.8235C303.472 49.8592 307.033 48.1432 307.863 46.3534C308.963 43.98 307.251 41.8022 309.608 39.6167C311.143 38.1934 313.645 37.4044 315.645 37.0587C318.471 36.5704 321.594 37.2679 324.417 37.5205C327.272 37.7755 330.063 37.4979 332.862 36.9137C337.148 36.0198 345.38 31.0733 348.157 37.0157C349.373 39.6158 348.551 42.4968 348.322 45.162C348.124 47.4849 347.442 49.9508 345.995 51.8614C344.341 54.0445 341.934 54.1588 339.43 54.7387C336.473 55.4229 333.438 55.6723 330.477 56.34C329.018 56.6686 327.579 56.8287 326.082 56.8977C324.749 56.9595 322.826 56.4193 321.657 56.5898C320.547 56.7513 320.926 57.4516 320.147 57.937C319.831 58.1339 319.187 57.9927 318.99 58.1514C318.449 58.5868 318.292 58.966 317.897 59.7546C316.643 62.2597 314.745 64.7016 313.133 66.9966C311.774 68.9299 310.201 71.2971 308.603 73.0221C305.215 76.68 301.925 80.7104 298.582 84.5326C296.881 86.4772 294.841 88.546 292.864 90.2176C292.254 90.7338 291.021 91.198 290.709 91.9205C290.264 92.9504 291.474 95.217 291.757 96.2521C292.428 98.7134 292.519 101.255 293.232 103.679C293.913 105.997 294.161 108.525 294.312 110.942C294.654 116.403 295.4 121.584 295.225 127.049C295.074 131.761 294.901 136.281 293.265 140.908C291.775 145.12 287.312 149.705 283.162 151.257C280.691 152.181 278.396 153.021 275.91 153.522C273.455 154.017 270.867 154.523 268.429 155.22C263.906 156.512 259.139 157.414 254.441 157.857C248.429 158.423 242.157 158.477 236.16 158.269C233.425 158.174 230.614 158.168 227.915 158.176C225.118 158.185 222.484 158.736 219.688 159.029C209.822 160.064 199.396 159.232 189.535 160.244C184.662 160.744 179.796 161.707 174.837 161.765C170.398 161.816 165.897 161.523 161.556 161.504C160.18 161.498 158.98 161.608 157.605 161.292C156.879 161.125 155.859 160.476 155.127 160.85C154.487 161.176 154.004 162.553 153.607 163.139C152.741 164.421 151.685 165.451 150.569 166.514C146.143 170.733 141.756 172.154 135.946 173.7C133.279 174.41 131.962 174.781 129.723 176.406C127.898 177.729 126.052 178.679 123.953 179.459C119.834 180.989 114.978 179.806 111.107 178.479C109.233 177.836 107.263 177.251 105.348 176.488C102.74 175.449 100.588 173.723 98.017 172.662C98.3118 175.405 95.337 176.326 94.4345 178.169C93.8515 179.36 94.2048 181.23 93.583 182.576C93.0066 183.825 92.115 185.005 90.7247 185.332C88.8302 185.777 85.4435 183.669 84.1127 182.44C83.374 181.757 82.7145 179.939 81.8097 179.636C80.6298 179.241 78.4669 180.987 77.3503 181.38C72.0059 183.267 66.5902 184.157 60.8519 183.405C55.0376 182.644 49.7078 180.579 44.2554 178.621C33.577 174.787 24.2822 168.476 15.9205 160.876C15.4553 160.453 14.7803 160.076 14.4595 159.521C14.1793 159.037 14.2038 157.895 14.0207 157.624C13.4759 156.82 12.6598 156.962 11.638 156.885C8.48103 156.647 5.97323 155.885 3.52629 153.769C-0.325043 150.439 -1.74972 142.675 4.15418 140.613C5.6633 140.086 7.32431 139.981 8.88438 140.306C9.52784 140.44 11.9215 141.89 12.5329 141.793C13.4598 141.646 13.2796 140.453 13.5259 139.815C14.1505 138.2 15.0293 136.777 16.0889 135.406C17.8499 133.127 19.9959 130.837 22.198 128.982C24.5902 126.967 27.2244 126.072 30.0724 124.957C31.991 124.205 35.7361 122.914 37.7684 123.587C40.4149 124.463 39.1195 127.355 37.4519 128.367C35.07 129.812 32.2117 130.404 29.7983 131.867C27.1348 133.481 24.702 135.691 22.2645 137.631C20.303 139.192 18.6033 141.119 16.6106 142.616C16.0823 143.012 15.2195 143.707 15.0553 143.926C14.9982 144.002 15.0685 144.619 14.8071 144.893C13.6481 146.11 13.9193 145.973 12.1739 145.546C10.1161 145.043 5.20382 143.904 3.81641 146.455C2.5677 148.751 7.6786 150.82 9.3566 151.52C11.8201 152.548 12.3956 153.58 14.1557 155.539C15.9587 157.546 18.9538 158.91 21.2125 160.407C26.0946 163.641 31.5824 165.935 36.8108 168.504C41.8986 171.004 47.368 172.804 52.6695 174.553C55.8703 175.609 59.706 176.742 63.0653 177.067C66.4501 177.395 69.6245 176.843 72.9456 176.197C74.2735 175.939 75.276 175.741 76.6648 175.252C77.2833 175.033 78.2923 175.001 78.7834 174.62C79.5448 174.028 79.2283 173.555 79.3632 172.545C79.9529 168.113 83.0268 173.06 84.3873 174.536C85.4369 175.674 86.4705 177.074 87.8523 177.795C89.584 178.699 89.8845 178.273 90.4521 176.783C91.5144 173.993 91.914 170.821 95.9286 171.231C92.7589 168.519 89.7383 166.215 87.0253 162.956C84.3486 159.741 81.846 156.287 79.2792 152.982C77.1752 150.274 75.343 146.537 72.612 144.401C71.7487 143.726 69.1244 142.17 68.1253 142.202C66.6303 142.251 65.3028 144.694 63.6923 144.897C61.9133 145.121 61.0944 144.5 60.5863 143.056C60.0594 141.558 61.3189 139.833 60.8934 138.744C60.775 138.44 60.0178 138.077 59.7839 137.637C59.4319 136.976 59.4065 136.106 59.5117 135.374C59.6688 134.282 60.0551 133.836 59.9726 132.736C59.8768 131.459 59.3168 130.525 59.7579 129.189C60.2207 127.786 61.6449 127.017 62.5337 125.98C63.8791 124.412 63.1918 123.229 62.6521 121.213C61.4963 116.901 60.1485 112.638 58.9758 108.328C56.2788 109.181 53.6417 110.149 50.9306 110.944C48.3228 111.709 45.0956 112.396 42.676 113.603C41.2221 114.328 41.6259 113.662 41.7335 115.273C41.8023 116.315 42.2429 117.481 42.4477 118.509C42.8255 120.408 42.9902 125.309 44.4776 126.216C45.3782 126.766 46.8274 125.967 47.8176 127.077C48.6516 128.01 48.4016 129.368 48.9035 130.405C49.2153 131.05 49.8187 131.296 50.1942 131.888C50.9783 133.127 50.8948 134.169 51.033 135.558C51.1198 136.432 50.9853 139.051 51.4203 139.731C52.0005 140.637 53.1502 140.479 54.1196 140.762C56.5623 141.473 58.8121 142.71 60.8863 144.153C61.9629 145.469 69.6674 153.178 66.3213 154.158C64.7056 154.632 61.8468 150.992 60.684 150.002C58.8814 148.469 56.9935 147.462 54.7956 146.616C49.4314 144.552 44.5781 142.697 38.7365 143.554C36.232 143.921 33.1897 145.03 30.6738 144.786C28.142 144.541 28.7977 142.282 30.3809 141.022C31.7966 139.895 33.7671 140.212 34.3884 138.322C35.0153 136.414 34.3421 134.002 35.3484 132.089C36.2074 130.456 38.2326 128.76 39.796 127.814C40.4777 127.402 41.6462 127.114 42.0024 126.506C42.2944 126.007 41.0909 123.149 40.9239 122.555C40.1069 119.644 39.2162 116.731 38.5242 113.788C37.8826 111.061 37.7156 109.648 40.5881 108.658C44.972 107.147 49.5682 106.44 53.954 105.051C53.1766 103.026 50.7466 104.73 49.0012 104.66C46.8632 104.574 44.3894 103.87 42.3533 103.213C37.7312 101.721 34.586 98.0022 33.8718 93.2063C33.7147 92.1542 34.2096 90.0443 33.8265 89.114C33.4652 88.2352 32.4434 87.8079 31.6966 87.1817C29.7719 85.5686 28.067 83.3539 27.0287 81.0617C25.988 78.7644 25.9153 76.1837 26.5201 73.7593C26.8532 72.4234 27.0414 72.2397 26.5706 70.9765C26.0253 69.5154 25.136 68.2145 24.6331 66.7128C23.8095 64.2535 23.3604 61.6019 23.4052 59.0047C23.4561 56.0911 24.6246 54.784 25.3988 52.2151C26.0097 50.1874 25.1761 47.3848 25.3158 45.1346C25.4945 42.2555 26.2314 39.9426 27.5037 37.3798C29.4586 33.4424 32.5542 29.2217 36.5834 27.1572C37.3802 26.7487 38.6898 26.7246 39.4016 26.25C40.2861 25.6602 40.3555 24.7909 40.7017 23.7576C41.5278 21.2936 42.559 19.2975 44.345 17.4138C50.1376 11.3047 60.2882 9.14096 68.4286 9.65662C69.8905 9.74965 71.2841 10.4415 72.6696 10.0349C73.6296 9.75295 74.6467 8.75279 75.6364 8.33865C76.8889 7.81448 78.1437 7.50801 79.4915 7.3739C82.1531 7.10851 84.3179 7.38901 86.771 8.28765C87.6971 8.62718 88.5839 8.99787 89.4968 9.3662C90.938 9.94845 90.8559 9.67126 92.2112 9.40115C94.9124 8.86329 96.4645 9.26137 98.8576 10.4141C99.4954 10.721 100.504 10.9491 101.053 11.3793C101.829 11.9889 102.146 13.8414 103.01 14.1871C103.489 14.3793 104.971 13.6724 105.589 13.5718C106.68 13.3938 107.748 13.5506 108.833 13.5388C110.755 13.518 112.785 13.5893 114.54 14.4978C115.861 15.1816 117.451 16.501 118.589 17.3798C120.164 18.5953 121.147 20.8936 123.113 21.5302C123.883 21.7795 124.716 21.5273 125.502 21.7398C126.526 22.0165 127.511 22.7589 128.34 23.4143C129.768 24.5415 130.975 27.1619 132.429 27.6199C133.4 27.9259 134.908 27.6067 136.019 27.9236C137.412 28.3212 138.568 28.8973 139.601 29.9518C141.571 31.9634 142.128 34.937 142.212 37.6646C142.235 38.3998 141.782 40.4729 142.222 41.1255C142.613 41.7044 144.087 42.0383 144.687 42.6323C146.563 44.4896 147.41 47.5845 147.6 50.1288C147.817 53.0321 147.067 55.0782 146.551 57.8563C146.23 59.5879 145.814 58.4787 147.275 59.4987C148.279 60.199 148.972 60.6887 149.622 61.788C150.983 64.0863 151.325 66.7959 151.1 69.4153C150.819 72.6836 149.162 75.1193 148.417 78.2114C151.851 78.2114 155.551 79.119 158.906 79.7522C160.144 79.986 161.103 80.6665 162.201 81.2124C163.149 81.6832 163.857 81.7379 164.752 82.0501C166.916 82.8052 166.498 82.6791 168.004 81.134C174.004 74.979 182.545 71.2631 191.158 71.384C195.961 71.4511 200.608 72.0853 205.099 73.8145C206.961 74.5309 209.03 75.3035 210.682 76.4273C212.595 77.7297 212.879 77.7146 215.408 77.7675C224.566 77.9573 233.452 82.876 240.117 88.8378C240.713 84.839 247.207 82.4411 250.352 80.7836C251.427 80.2174 252.414 79.9222 252.943 78.8612C253.438 77.8681 253.409 75.8253 253.739 74.6556C254.346 72.5074 255.048 69.879 254.993 67.6138C254.836 61.0551 253.319 54.5266 253.122 47.9529C253.072 46.302 252.885 44.449 253.104 42.8141C253.281 41.4971 253.882 40.6759 253.018 39.4566C251.377 37.1423 248.352 36.5643 247.335 33.5175C245.696 28.6078 248.511 23.5872 252.356 20.6669C254.57 18.9858 256.733 18.6298 258.507 16.2729C260.105 14.1493 261.456 11.6381 263.277 9.70762C264.805 8.08932 266.196 5.92088 267.946 4.5741C269.741 3.19332 272.376 2.25974 274.519 1.60382C279.664 0.0284925 285.982 0.404385 289.602 4.80455ZM128.787 128.142C127.59 128.193 126.386 128.328 125.187 128.326C124.457 128.325 122.762 127.932 122.105 128.209C120.792 128.765 119.729 131.806 119.115 133.02C117.127 136.954 115.561 141.08 113.621 145.029C112.612 147.084 111.106 148.435 108.725 148.468C106.057 148.505 104.802 146.795 103.109 145.042C99.7327 141.543 95.1884 138.535 90.9979 136.102C86.4715 133.475 81.0742 130.928 75.9209 130C72.4889 129.382 64.6263 126.718 62.5384 131.022C63.6055 130.88 67.6781 130.257 67.8507 132.062C67.9804 133.416 62.9705 133.647 62.3516 135.771C63.6616 135.669 68.1833 134.407 68.5013 136.354C68.6701 137.389 66.7808 137.91 66.1161 138.259C64.799 138.952 64.006 139.671 62.9691 140.712C64.5688 140.712 66.1458 139.354 67.6648 139.495C68.2913 139.554 69.0447 140.491 69.6146 140.777C70.4231 141.181 71.2959 141.383 72.1875 141.493C74.1287 141.734 75.3038 141.186 76.8516 142.451C78.2414 143.586 79.6863 145.085 80.9667 146.348C83.699 149.046 85.9483 152.47 88.2924 155.502C91.1866 159.245 94.1921 162.216 98.042 165.019C101.176 167.301 104.352 168.778 107.903 170.458C111.386 172.106 115.767 174.017 119.719 174.108C122.871 174.181 126.811 173.169 129.68 171.824C131.349 171.041 131.955 171.042 133.625 170.732C136.216 170.252 139.215 168.86 141.614 167.769C149.147 164.342 153.921 156.872 157.317 149.561C159.251 145.4 160.458 141.334 161.264 136.832C161.703 134.379 162.085 133.803 159.696 132.789C157.282 131.765 154.674 131.131 152.162 130.408C144.794 128.286 136.395 127.818 128.787 128.142ZM146.787 83.7605C146.035 84.099 145.635 87.7134 145.298 88.5186C143.792 92.1117 141.122 94.3538 137.205 94.7278C135.99 94.844 134.007 93.7371 133.136 94.2603C131.969 94.9611 131.758 98.3106 130.503 99.4094C129.347 100.421 126.939 101.491 125.457 101.88C124.313 102.18 123.178 102.098 122.037 101.833C121.387 101.683 120.146 100.879 119.509 101.182C118.425 101.699 117.914 104.449 116.676 105.383C114.866 106.747 111.992 107.757 109.776 107.732C107.491 107.705 104.736 105.9 102.701 106.332C100.286 106.845 100.604 109.092 99.5492 110.848C97.3098 114.578 94.7652 117.79 90.7393 119.571C86.3847 121.497 80.1425 121.742 75.5751 120.762C73.0923 120.229 70.6005 119.476 68.505 118.053C66.8356 116.919 65.5823 115.408 64.0362 114.127L63.7835 113.922L63.7962 113.967C63.8305 114.087 63.8653 114.203 63.9008 114.317C64.6372 116.664 64.9641 120.83 66.427 122.745C67.7361 124.459 72.2814 124.555 74.4698 124.785C80.3341 125.403 85.377 126.776 90.5502 129.718C95.5016 132.534 100.024 135.941 104.311 139.614C105.192 140.368 105.896 141.577 106.961 142.063C108.701 142.855 108.56 141.93 109.02 140.381C109.964 137.203 110.965 134.064 112.403 131.069C113.019 129.785 114.421 128.195 114.721 126.831C115.009 125.523 114.418 124.096 114.619 122.692C115.126 119.144 116.727 116.119 118.735 113.25C120.128 111.258 124.297 107.868 123.765 112.88C123.371 116.581 120.669 119.86 120.005 123.497C122.053 123.115 123.339 123.226 125.184 123.343C127.701 123.502 130.563 122.517 133.157 122.509C138.131 122.493 143.031 122.817 147.92 123.704C150.185 124.115 152.34 124.579 154.524 125.354C156.239 125.962 158.52 127.901 160.347 128.049C161.672 128.156 161.21 128.33 161.571 127.2C161.905 126.151 161.546 124.264 161.479 123.164C161.327 120.674 160.73 118.25 160.42 115.777C160.288 114.715 159.021 110.29 160.358 109.433C162.403 108.12 163.258 113.27 163.518 114.192C164.852 118.92 165.711 123.578 165.671 128.521C165.636 132.796 165.352 136.905 164.552 141.155C164.08 143.666 163.213 146.077 162.24 148.431C161.728 149.671 158.722 154.371 159.14 155.199C159.475 155.863 164.582 154.708 165.368 154.64C168.163 154.401 170.966 154.568 173.765 154.402C177.901 154.155 182.069 154.206 186.03 153.477C188.392 153.042 190.899 153.458 193.258 153.473C195.861 153.49 198.376 153.249 200.996 153.498C202.985 153.686 205.97 154.736 207.889 154.3C209.854 153.853 209.274 152.538 209.288 150.537C209.32 145.704 208.889 140.142 207.81 135.443C207.241 132.965 206.475 130.567 206.067 128.048C205.658 125.528 205.679 122.805 204.919 120.365C203.571 116.035 199.865 112.277 196.795 109.078C193.636 105.786 190.122 103.395 186.246 101.034C182.951 99.0279 179.47 97.1437 175.901 95.574C171.618 93.6899 166.754 92.5282 162.784 90.0476C159.48 87.9835 154.702 85.9483 150.891 84.9925C150.287 84.8414 147.213 83.5687 146.787 83.7605ZM264.454 43.7491C261.706 44.1354 256.568 42.7929 256.57 46.5825C256.571 48.6612 257.261 50.841 257.457 52.9206C257.687 55.3748 257.528 57.8445 257.902 60.2892C258.507 64.2464 259.395 67.9009 259.097 71.9667C258.773 76.3863 257.852 80.6329 257.938 85.1157C258.019 89.3818 257.79 93.4953 259.817 97.41C260.672 99.0628 261.366 101.005 262.307 102.551C263.41 104.363 264.365 104.894 266.337 105.624C267.571 106.081 270.611 106.676 271.411 107.908C272.566 109.687 271.024 110.406 269.505 110.346C264.815 110.159 259.999 108.066 255.602 106.538C253.533 105.818 251.542 104.912 249.509 104.126C247.884 103.499 246.559 103.282 245.082 102.212C241.481 99.6026 238.701 95.9967 235.151 93.3206C228.433 88.2579 220.378 85.2352 211.941 84.3385C209.77 84.1076 208.089 84.2114 205.915 84.3956C204.712 84.4976 203.521 84.5302 202.329 84.7512C201.642 84.8792 199.055 86.1083 198.517 85.8529C195.027 84.1935 204.91 79.1421 206.022 78.8659C204.618 77.8766 201.701 78.0471 200.016 77.827C197.866 77.5456 195.775 77.2712 193.603 77.3897C190.567 77.556 187.337 77.4662 184.357 78.1217C180.624 78.9424 177.088 80.2028 173.714 81.9712C172.588 82.5615 171.003 83.2793 171.014 84.9245C171.024 86.4705 171.639 86.2174 173.145 86.5598C177.2 87.483 180.954 90.1709 184.567 92.2189C188.409 94.3958 192.235 96.8419 195.8 99.4505C202.634 104.452 206.535 111.647 209.57 119.468C211.14 123.513 212.278 128.238 212.75 132.549C213.276 137.346 212.838 142.17 213.213 146.962C213.301 148.094 213.453 152.613 214.307 153.317C214.955 153.851 218.172 152.896 219.079 152.834C222.869 152.573 226.683 152.599 230.401 152.384C238.26 151.931 246.316 152.563 254.247 152.097C258.236 151.862 262.098 151.301 266.01 150.496C269.647 149.748 274.178 149.659 277.495 147.931C283.88 144.604 287.772 136.584 288.052 129.793C288.356 122.431 287.853 114.42 286.307 107.087C285.497 103.241 284.794 99.5818 283.84 95.7818C282.772 91.5276 281.574 87.2917 280.402 83.0899C278.383 75.8574 275.241 69.1192 273.738 61.7063C272.91 57.6287 271.738 53.3655 270.514 49.3856C270.063 47.9188 269.174 45.1323 268.124 44.0178C267.021 42.8477 266.095 43.5187 264.454 43.7491ZM40.4173 131.836C38.7619 132.895 37.5684 135.277 37.6439 137.24C37.6439 139.832 39.7951 138.728 41.8221 138.822C43.0562 138.879 47.6199 140.145 48.4223 138.923C49.3805 137.463 46.499 138.115 46.1344 137.332C45.397 135.748 48.778 135.08 48.3648 133.707C47.9515 132.336 44.5163 135.502 43.7799 133.909C43.0982 132.434 46.5684 131.158 46.0358 130.143C45.5838 129.282 41.0022 131.461 40.4173 131.836ZM47.6055 118.333C47.597 119.438 47.2163 120.907 45.8431 120.682C44.1283 120.4 43.6084 117.108 43.4518 115.862C44.55 111.76 47.6239 115.817 47.6055 118.333ZM97.3976 83.0805C95.4148 83.3912 95.1912 84.279 94.2642 85.6413C93.8411 85.3042 93.5788 84.857 93.4778 84.2997C88.7901 86.4115 83.9127 88.0615 78.8282 88.842C73.163 89.7124 67.2535 88.3953 61.4972 87.8589C60.7524 87.7895 58.4658 86.8686 57.8587 87.2341C57.3563 87.5368 57.3648 90.0774 57.3237 90.5685C57.044 93.9156 57.6822 96.8726 58.1738 100.148C58.3049 101.021 58.1761 102.91 58.8635 103.654C59.347 104.177 60.2075 103.987 60.8198 104.777C62.4703 106.908 62.9852 111.037 63.7451 113.786L63.7639 113.853L63.7676 113.804C64.0028 111.001 66.1936 112.441 67.8238 113.176C70.2745 114.281 72.8427 114.871 75.4939 115.243C77.6258 115.542 80.0444 116.256 82.2314 116.142C84.5283 116.023 87.3536 115.113 89.5897 114.459C91.7083 113.839 92.8773 112.498 94.3397 110.771C95.7366 109.122 97.2565 107.992 98.7642 106.52C102.562 102.812 101.522 95.1297 98.2231 91.5007C100.892 90.1307 105.521 87.1194 101.462 84.065C100.412 83.275 98.6628 82.8821 97.3976 83.0805ZM63.7639 113.853L63.7602 113.903L63.7835 113.922L63.7639 113.853ZM76.7682 107.488C77.8207 107.567 78.5769 108.359 78.3 109.45C77.9499 110.828 75.5544 111.691 74.3567 111.767C71.1823 112.147 74.1849 107.293 76.7682 107.488ZM66.7433 102.186C66.857 102.986 66.7443 103.484 67.4377 103.744C67.968 103.943 68.97 103.534 69.6219 103.81C70.2725 104.086 70.2932 104.254 70.6928 104.902C70.2404 106.318 68.1642 107.919 66.4985 107.068C64.4271 106.009 64.2341 101.833 64.8021 100.051C65.7645 97.0309 66.5735 100.992 66.7433 102.186ZM250.93 86.2373C250.066 86.5513 249.303 87.4414 248.531 87.9259C246.475 89.2146 244.226 89.8989 242.257 91.3099C243.663 92.8271 244.4 94.8846 245.773 96.3447C246.632 97.2584 247.677 97.36 248.711 97.8558C251.731 99.3051 255.286 101.344 258.622 102.036C256.668 99.7508 255.429 97.683 254.269 94.9058C253.854 93.9128 253.334 92.8625 253.024 91.8312C252.578 90.3541 252.818 88.791 252.441 87.3333C252.034 85.7599 252.595 85.6328 250.93 86.2373ZM61.0451 94.8901C61.9235 95.9271 62.5986 98.2641 62.6731 99.5882C61.7466 104.027 58.6444 97.9029 58.7388 95.9153C58.8265 94.0821 59.7889 93.4083 61.0451 94.8901ZM69.4497 92.4614C70.955 93.7454 71.4466 95.8898 71.6027 97.6615C71.7726 99.5821 71.3338 100.399 69.4209 99.1641C67.7462 98.0832 66.9084 95.2055 66.8216 93.5192C66.8216 91.5973 67.9911 91.2171 69.4497 92.4614ZM99.7336 86.9644C100.11 88.9685 95.6714 91.0283 96.396 87.8899C96.2507 85.8872 99.3345 84.8412 99.7336 86.9644ZM309.285 50.6955C305.932 54.7883 301.873 57.3869 297.678 60.4795C293.962 63.2193 290.424 66.1792 286.401 68.4534C285.22 69.1216 283.285 69.5102 283.072 70.7512C282.871 71.9181 285.036 75.0518 285.537 76.3168C287.227 80.5834 288.474 84.9618 289.795 89.3643C293.732 83.2273 297.703 76.9883 302.529 71.4393C306.788 66.5423 311.157 61.4183 314.88 56.1416C312.626 54.7689 310.759 52.8758 309.285 50.6955ZM333.857 41.2572C330.123 42.4241 325.823 43.0809 321.932 42.6833C320.168 42.5029 318.43 42.3528 316.649 42.2427C315.316 42.1606 313.061 41.5103 311.915 42.5379C310.83 43.5092 310.961 45.4425 311.513 46.65C311.87 47.4306 312.366 47.5567 312.69 48.2031C312.794 48.4114 312.485 48.7712 312.753 49.2609C313.491 50.6086 316.002 52.8606 317.354 53.5468C319.089 54.4275 319.349 53.4032 320.701 52.5159C323.549 50.6483 328.334 50.6143 331.67 50.2781C331.737 50.9958 341.406 47.5453 342.361 46.9121C344.145 45.7282 346.236 40.2792 344.338 38.6642C342.046 36.7149 336.074 40.5635 333.857 41.2572ZM268.835 15.2836C267.66 17.1564 266.097 19.1672 264.361 20.5682C262.401 22.1507 259.856 22.765 257.615 23.8478C255.584 24.8282 253.78 25.8104 252.513 27.7021C251.636 29.0106 250.029 30.8466 250.762 32.5329C251.511 34.2579 254.464 35.4678 255.747 36.9671C257.513 39.0312 257.515 38.626 260.161 38.0556C261.482 37.7703 262.737 37.6816 264.088 37.7288C264.634 37.7477 266.479 38.2832 266.963 37.9238C267.583 37.4634 266.974 35.5518 267.052 34.8081C267.172 33.6766 267.574 32.5093 267.955 31.4426C269.466 27.2077 272.34 24.415 275.134 21.2039C278.132 17.7585 282.239 15.3403 285.193 11.8789C286.824 9.96781 286.081 8.61679 283.843 7.72193C282.706 7.26765 281.373 7.26954 280.206 6.90734C278.999 6.53287 277.924 5.79527 276.631 5.78063C271.136 5.5601 270.961 11.8945 268.835 15.2836Z" fill="white"/>
<defs>
<linearGradient id="paint0_linear" x1="137.661" y1="80.9688" x2="137.661" y2="158.654" gradientUnits="userSpaceOnUse">
<stop stop-color="#BF149C"/>
<stop offset="0.889228" stop-color="#96229F"/>
</linearGradient>
</defs>
</svg>
