<svg width="797" height="528" viewBox="0 0 797 528" fill="none" xmlns="http://www.w3.org/2000/svg">
<path d="M392.5 0.999933C444.734 2.79093 469.646 9.80693 522 56.9999C561.772 92.8519 570.5 108.5 604 123.5C628.196 134.334 752 156 783.5 256.5C816.946 363.208 782.159 458.308 699.5 501C608.5 548 536.944 507.985 494.5 490C435.5 465 411.473 454.246 311.5 504.5C218 551.5 114.5 524 54 448C-3.10301 376.268 -24.099 243.232 42 161.5C97.667 92.6669 161.5 113.5 214 86.9999C255.473 66.0659 305 -2.00007 392.5 0.999933Z" fill="url(#paint0_linear)"/>
<path d="M544.689 448.75C511.062 448.75 479.585 457.935 452.607 473.913C465.486 477.667 478.746 483.324 494.5 490C533.897 506.694 598.382 542.355 680.213 509.802C647.055 472.362 598.635 448.75 544.689 448.75Z" fill="url(#paint1_radial)"/>
<path d="M716.7 288.322C735.845 288.322 751.365 272.802 751.365 253.657C751.365 234.512 735.845 218.992 716.7 218.992C697.555 218.992 682.035 234.512 682.035 253.657C682.035 272.802 697.555 288.322 716.7 288.322Z" fill="url(#paint2_radial)"/>
<path d="M57.333 268C76.2946 268 91.666 252.629 91.666 233.667C91.666 214.705 76.2946 199.334 57.333 199.334C38.3714 199.334 23 214.705 23 233.667C23 252.629 38.3714 268 57.333 268Z" fill="url(#paint3_radial)"/>
<path d="M57.333 256C69.6672 256 79.666 246.001 79.666 233.667C79.666 221.333 69.6672 211.334 57.333 211.334C44.9988 211.334 35 221.333 35 233.667C35 246.001 44.9988 256 57.333 256Z" fill="url(#paint4_linear)"/>
<path d="M57.333 256C69.6672 256 79.666 246.001 79.666 233.667C79.666 221.333 69.6672 211.334 57.333 211.334C44.9988 211.334 35 221.333 35 233.667C35 246.001 44.9988 256 57.333 256Z" fill="url(#paint5_linear)"/>
<path d="M49.833 235.5C46.708 235.5 44.166 232.958 44.166 229.833C44.166 226.708 46.708 224.166 49.833 224.166C52.958 224.166 55.5 226.708 55.5 229.833C55.5 232.958 52.958 235.5 49.833 235.5ZM49.833 225.167C47.26 225.167 45.166 227.26 45.166 229.834C45.166 232.408 47.259 234.501 49.833 234.501C52.407 234.501 54.5 232.408 54.5 229.834C54.5 227.26 52.407 225.167 49.833 225.167Z" fill="#FDE1A7"/>
<path d="M66.201 248.891C64.074 248.891 62.265 247.979 61.241 246.389C59.437 243.589 60.688 239.56 64.028 237.407C65.379 236.537 66.89 236.077 68.399 236.077C70.526 236.077 72.335 236.989 73.359 238.58C75.163 241.38 73.913 245.409 70.572 247.561C69.221 248.432 67.71 248.891 66.201 248.891ZM68.398 237.077C67.082 237.077 65.758 237.482 64.569 238.247C61.692 240.101 60.575 243.51 62.081 245.846C62.918 247.145 64.419 247.89 66.201 247.89C67.517 247.89 68.841 247.485 70.03 246.72C72.907 244.866 74.024 241.457 72.518 239.121C71.681 237.822 70.18 237.077 68.398 237.077Z" fill="#DABACC"/>
<path d="M42.587 250.579L41.997 249.771C43.222 248.876 43.925 247.506 43.925 246.01C43.925 243.437 41.832 241.343 39.258 241.343C38.376 241.343 37.509 241.6 36.751 242.086L36.212 241.244C37.131 240.655 38.185 240.343 39.258 240.343C42.383 240.343 44.925 242.885 44.925 246.01C44.925 247.829 44.073 249.494 42.587 250.579Z" fill="#FDE1A7"/>
<path d="M69.37 221.265C66.613 221.265 64.37 219.022 64.37 216.265C64.37 214.967 64.871 213.733 65.782 212.792L66.501 213.487C65.772 214.24 65.371 215.227 65.371 216.264C65.371 218.47 67.165 220.264 69.371 220.264C70.92 220.264 72.301 219.386 72.973 217.972L73.876 218.402C73.048 220.141 71.28 221.265 69.37 221.265Z" fill="#FDE1A7"/>
<path d="M716.7 277.657C729.955 277.657 740.7 266.912 740.7 253.657C740.7 240.402 729.955 229.657 716.7 229.657C703.445 229.657 692.7 240.402 692.7 253.657C692.7 266.912 703.445 277.657 716.7 277.657Z" fill="url(#paint6_linear)"/>
<path d="M738.905 263.274C738.845 263.274 738.786 263.264 738.727 263.241C734.83 261.756 727.846 256.331 720.935 249.42C714.024 242.509 708.599 235.525 707.116 231.628C707.017 231.37 707.147 231.081 707.405 230.983C707.663 230.884 707.952 231.014 708.05 231.273C709.488 235.048 714.823 241.894 721.643 248.713C728.462 255.532 735.308 260.868 739.083 262.306C739.342 262.404 739.471 262.693 739.372 262.952C739.297 263.152 739.106 263.274 738.905 263.274Z" fill="#0090B2"/>
<path d="M740.684 255.055C740.609 255.055 740.533 255.038 740.46 255.002C736.744 253.148 731.461 248.977 726.327 243.843C721.303 238.819 717.17 233.61 715.271 229.911C715.144 229.665 715.242 229.364 715.487 229.238C715.732 229.113 716.035 229.209 716.16 229.454C718.014 233.066 722.08 238.181 727.034 243.136C732.096 248.198 737.282 252.299 740.907 254.108C741.154 254.231 741.254 254.531 741.131 254.778C741.044 254.953 740.867 255.055 740.684 255.055Z" fill="#8A69E3"/>
<path d="M551.609 466.918C527.128 466.918 504.278 473.894 484.926 485.955C488.023 487.255 491.204 488.603 494.499 490C529.468 504.817 584.199 534.578 653.281 518.322C630.294 487.146 593.316 466.918 551.609 466.918Z" fill="url(#paint7_linear)"/>
<path d="M653.282 518.322C635.059 493.609 608.042 475.788 576.85 469.456C571.971 470.432 567.485 472.728 567.749 477.75C568.249 487.25 582.715 488.147 589.999 489.75C598.333 491.583 610 495.333 610.249 501.5C610.431 505.999 604.584 506.665 601.584 506.665C598.584 506.665 594.088 505.249 593.332 507.833C592.333 511.25 599.631 512.493 599.166 515C598.478 518.715 588.939 518.004 587.035 521.204C607.256 524.061 629.412 523.939 653.282 518.322Z" fill="url(#paint8_linear)"/>
<path d="M534.5 499.5C537.5 495.333 559.666 494.833 558 486.833C556.565 479.946 530.333 485.167 529.166 477.333C528.475 472.69 534.223 469.512 539.783 467.484C519.778 469.345 501.124 475.859 484.927 485.955C488.024 487.255 491.205 488.603 494.5 490C505.863 494.815 519.316 501.208 534.668 507.087C533.5 504.419 532.999 501.584 534.5 499.5Z" fill="url(#paint9_linear)"/>
<path d="M295.74 475.416C292.962 475.416 290.155 475.198 287.311 474.743C270.436 472.038 258.858 462.194 252.897 445.482C243.553 419.287 251.448 382.452 258.96 374.002C259.143 373.796 259.459 373.778 259.666 373.96C259.873 374.144 259.891 374.46 259.708 374.666C253.326 381.846 244.061 417.729 253.84 445.146C259.669 461.488 270.983 471.113 287.47 473.754C290.249 474.199 292.999 474.412 295.718 474.413C323.647 474.415 348.577 451.956 374.839 428.301C396.735 408.579 419.376 388.185 446.806 376.539C486.142 359.838 521.074 361.945 546.582 363.484C559.961 364.293 571.515 364.989 580.215 362.846C595.063 359.188 607.745 351.078 620.01 343.235C626.68 338.969 633.577 334.559 640.774 330.887C666.529 317.745 687.324 315.587 693.753 325.391C701.496 337.2 687.765 348.344 674.484 359.121C663.727 367.85 652.605 376.877 652.168 386.355C651.517 400.504 671.894 405.466 672.1 405.507C672.371 405.561 672.546 405.824 672.493 406.095C672.438 406.366 672.172 406.543 671.905 406.488C671.69 406.445 650.481 401.266 651.171 386.308C651.628 376.382 662.928 367.212 673.856 358.344C687.386 347.364 700.167 336.991 692.919 325.939C686.789 316.592 666.5 318.885 641.231 331.777C634.078 335.426 627.201 339.824 620.55 344.077C608.217 351.964 595.465 360.119 580.455 363.816C571.61 365.996 559.984 365.295 546.523 364.481C521.119 362.95 486.32 360.848 447.198 377.458C419.922 389.039 397.344 409.376 375.51 429.043C349.1 452.831 324.025 475.415 295.74 475.416Z" fill="#4578BA"/>
<path d="M611.783 351.232C613.004 351.232 613.994 350.242 613.994 349.021C613.994 347.8 613.004 346.81 611.783 346.81C610.562 346.81 609.572 347.8 609.572 349.021C609.572 350.242 610.562 351.232 611.783 351.232Z" fill="#4578BA"/>
<path d="M594.731 352.22C575.21 352.22 549.346 343.473 535.387 316.06C515.387 276.784 547.478 244.342 551.751 241.9C551.987 241.763 552.295 241.845 552.434 242.086C552.571 242.326 552.488 242.631 552.247 242.768C548.059 245.162 516.616 276.995 536.277 315.607C554.779 351.938 594.469 354.994 611.606 348.554C611.863 348.453 612.153 348.588 612.25 348.846C612.348 349.105 612.217 349.393 611.958 349.49C607.479 351.173 601.484 352.22 594.731 352.22Z" fill="#4578BA"/>
<path d="M700.125 340.375C699.989 340.375 699.854 340.32 699.756 340.212C699.569 340.008 699.584 339.691 699.788 339.506C703.817 335.832 704.771 327.274 703.906 324.923C703.81 324.664 703.943 324.376 704.202 324.281C704.457 324.182 704.748 324.318 704.844 324.577C705.805 327.182 704.854 336.24 700.462 340.244C700.366 340.332 700.245 340.375 700.125 340.375Z" fill="#4578BA"/>
<path d="M746.789 277.683C746.246 275.802 745.452 274.079 744.584 272.414C742.872 269.165 740.829 266.157 738.688 263.239C738.413 263.871 738.117 264.495 737.785 265.106C739.633 267.752 741.35 270.488 742.778 273.336C743.571 274.939 744.278 276.588 744.716 278.247C744.931 279.072 745.072 279.907 745.057 280.667C745.046 281.434 744.84 282.066 744.476 282.407C744.12 282.757 743.495 282.937 742.735 282.928C741.984 282.924 741.161 282.764 740.347 282.531C738.712 282.06 737.089 281.32 735.514 280.495C732.358 278.83 729.358 276.789 726.446 274.642C720.624 270.326 715.192 265.449 710.075 260.283C707.501 257.713 705.006 255.064 702.616 252.327C700.215 249.601 697.893 246.805 695.734 243.898C693.572 240.998 691.539 237.992 689.869 234.839C689.044 233.265 688.304 231.643 687.831 230.008C687.597 229.195 687.437 228.373 687.432 227.621C687.422 226.869 687.599 226.251 687.941 225.893C688.721 225.071 690.51 225.214 692.112 225.637C693.772 226.073 695.423 226.779 697.026 227.571C699.88 228.996 702.615 230.72 705.27 232.561C705.869 232.236 706.48 231.948 707.098 231.678C704.194 229.525 701.185 227.491 697.942 225.776C696.278 224.908 694.556 224.112 692.675 223.569C691.733 223.303 690.746 223.097 689.67 223.091C689.132 223.091 688.566 223.147 687.987 223.319C687.698 223.411 687.407 223.525 687.128 223.688C686.995 223.76 686.844 223.859 686.69 223.98C686.515 224.111 686.494 224.147 686.387 224.235L686.375 224.245L686.345 224.275C685.373 225.241 685.111 226.545 685.098 227.599C685.083 228.685 685.27 229.684 685.517 230.639C686.023 232.545 686.785 234.295 687.621 235.988C689.31 239.364 691.336 242.504 693.487 245.537C697.81 251.591 702.724 257.164 707.954 262.404C713.227 267.601 718.808 272.496 724.835 276.853C727.856 279.02 731.001 281.037 734.374 282.731C736.066 283.567 737.815 284.33 739.721 284.836C740.675 285.084 741.673 285.272 742.759 285.257C743.814 285.244 745.117 284.982 746.083 284.011C747.039 283.03 747.275 281.732 747.269 280.686C747.26 279.612 747.054 278.625 746.789 277.683Z" fill="url(#paint10_linear)"/>
<path d="M709.917 414.25L721.583 408.667C721.583 408.667 723.833 413.833 723.833 421.167C723.833 428.667 720.917 434.25 720.917 434.25L709.833 428.667L709.917 414.25Z" fill="url(#paint11_radial)"/>
<path d="M599.485 430.776C598.583 426.597 617.333 406.501 631.833 403.001C646.333 399.501 708.479 403.771 709.812 405.938C711.145 408.105 711.342 416.2 711.5 421.667C711.601 425.166 711.666 435.001 709.833 435.501C708 436.001 663.858 444.198 650.333 444.334C633.75 444.5 600.735 436.567 599.485 430.776Z" fill="url(#paint12_linear)"/>
<path d="M706.667 381.666V407H685.417C685.417 407 683.537 406.417 683.5 404.833C683.459 403.084 695.5 383.25 698.688 382C701.224 381.005 706.667 381.666 706.667 381.666Z" fill="url(#paint13_linear)"/>
<path d="M661.666 439.418C661.666 439.418 677.083 433.418 682.833 431.418C688.583 429.418 706.294 424.227 706.294 424.227C706.294 424.227 728.227 433.278 730.083 434.834C731.25 435.813 731.658 437.85 730.833 438.834C729.75 440.125 720.062 445.375 717.929 445.932C715.941 446.451 705.125 446.375 688.416 445.001C676.424 444.015 660.249 442.835 661.666 439.418Z" fill="url(#paint14_linear)"/>
<path d="M699.689 446.292C699.529 446.292 699.372 446.215 699.275 446.072C699.121 445.843 699.18 445.533 699.409 445.378C705.042 441.559 719.568 434.662 727.278 432.57C727.549 432.499 727.819 432.656 727.891 432.922C727.963 433.189 727.806 433.463 727.539 433.535C719.912 435.604 705.542 442.428 699.969 446.206C699.884 446.264 699.786 446.292 699.689 446.292Z" fill="#C0EAFB"/>
<path d="M608.695 417.771C602.951 423.371 599.062 428.82 599.485 430.777C600.048 433.389 607.082 436.434 616.146 438.978C617.447 425.986 612.356 420.317 608.695 417.771Z" fill="url(#paint15_linear)"/>
<path d="M643.166 413.167C645.611 411.461 646.508 405.401 646.83 401.721C640.335 401.852 634.969 402.244 631.833 403.001C627.029 404.16 621.761 407.147 616.893 410.768C622.598 412.585 639.321 415.85 643.166 413.167Z" fill="url(#paint16_linear)"/>
<path d="M654.417 424.501C656.626 424.501 658.417 422.71 658.417 420.501C658.417 418.292 656.626 416.501 654.417 416.501C652.208 416.501 650.417 418.292 650.417 420.501C650.417 422.71 652.208 424.501 654.417 424.501Z" fill="url(#paint17_radial)"/>
<path d="M667.834 423.168C669.905 423.168 671.584 421.489 671.584 419.418C671.584 417.347 669.905 415.668 667.834 415.668C665.763 415.668 664.084 417.347 664.084 419.418C664.084 421.489 665.763 423.168 667.834 423.168Z" fill="url(#paint18_radial)"/>
<path d="M680.25 422.085C682.137 422.085 683.667 420.555 683.667 418.668C683.667 416.781 682.137 415.251 680.25 415.251C678.363 415.251 676.833 416.781 676.833 418.668C676.833 420.555 678.363 422.085 680.25 422.085Z" fill="url(#paint19_radial)"/>
<path d="M701.875 405.292C701.599 405.292 701.375 405.068 701.375 404.792V381.455C701.375 381.179 701.599 380.955 701.875 380.955C702.151 380.955 702.375 381.179 702.375 381.455V404.792C702.375 405.068 702.151 405.292 701.875 405.292Z" fill="#C0EAFB"/>
<path d="M606.25 210.5C609.896 210.467 620.997 210.042 629 201.75C639.375 191 635.75 170.5 635.75 170.5C635.75 170.5 639.507 170.35 641 173.625C642.938 177.875 640.375 185.625 642 186.5C644.71 187.959 645.375 181.625 647.5 182.625C649.625 183.625 649.338 188.498 648.875 192.875C648.437 197.008 645.562 200.901 646.562 202.188C647.875 203.876 651 199.625 652 201.625C653 203.625 649.375 207.5 646.187 209.563C643.415 211.357 638.624 213.001 638.749 214.001C638.874 215.001 643.374 215.001 642.624 217.001C641.874 219.001 636.249 218.251 632.874 218.251C629.499 218.251 624.374 218.126 621.624 220.376C618.874 222.626 606.25 210.5 606.25 210.5Z" fill="url(#paint20_linear)"/>
<path d="M619.334 191.167C619.177 191.167 619.022 191.094 618.925 190.956C618.766 190.731 618.819 190.419 619.044 190.259C619.108 190.213 625.467 185.641 625.168 180.865C624.975 177.784 623.291 176.216 621.342 174.4C620.076 173.22 618.767 172.001 617.737 170.254C613.662 163.344 618.018 158.051 620.042 156.594C620.264 156.433 620.577 156.483 620.739 156.708C620.901 156.932 620.85 157.244 620.626 157.406C618.81 158.714 614.903 163.482 618.599 169.746C619.556 171.368 620.811 172.537 622.025 173.668C624.044 175.548 625.95 177.324 626.168 180.802C626.502 186.135 619.905 190.875 619.624 191.074C619.534 191.137 619.434 191.167 619.334 191.167Z" fill="#E8878E"/>
<path d="M611.667 178.333C611.566 178.333 611.465 178.303 611.377 178.241C607.971 175.82 607.024 172.555 606.83 170.243C606.556 166.979 607.647 163.979 608.813 162.813C609.008 162.618 609.325 162.618 609.52 162.813C609.715 163.008 609.715 163.325 609.52 163.52C608.499 164.541 607.586 167.304 607.826 170.159C608.003 172.261 608.863 175.227 611.957 177.426C612.182 177.586 612.234 177.898 612.074 178.123C611.978 178.26 611.823 178.333 611.667 178.333Z" fill="#E8878E"/>
<path d="M650.501 216C650.486 216 650.473 216 650.458 215.998C650.184 215.975 649.979 215.733 650.002 215.458C650.154 213.632 652.414 212.738 656.516 211.116C657.766 210.622 659.198 210.055 660.805 209.373C663.071 208.41 664.519 207.069 665.109 205.388C665.938 203.026 664.884 200.649 664.393 199.737C664.262 199.494 664.353 199.191 664.596 199.059C664.838 198.929 665.142 199.019 665.274 199.262C665.828 200.291 667.013 202.981 666.053 205.719C665.365 207.677 663.732 209.216 661.196 210.293C659.581 210.98 658.141 211.549 656.883 212.046C653.277 213.472 651.099 214.333 650.998 215.541C650.977 215.803 650.758 216 650.501 216Z" fill="#E8878E"/>
<path d="M560.259 152.467L561.055 152.527C561.411 152.571 561.818 152.614 562.132 152.673C562.782 152.783 563.426 152.92 564.053 153.099C565.311 153.449 566.516 153.925 567.654 154.499C569.932 155.649 571.943 157.184 573.667 158.947C577.11 162.484 579.439 166.924 580.594 171.602C581.722 176.183 581.95 180.913 581.223 185.631C580.471 190.322 578.796 195.074 575.432 199.226L567.321 192.273C569.238 190.205 570.658 187.132 571.343 183.855C572.044 180.573 572.072 177.018 571.432 173.667C570.824 170.421 569.385 167.338 567.281 164.923C566.23 163.72 565.013 162.694 563.701 161.937C563.046 161.559 562.367 161.247 561.679 161.012C561.335 160.89 560.989 160.798 560.642 160.717L560.213 160.625C560.034 160.593 559.729 160.563 559.493 160.532L560.259 152.467Z" fill="url(#paint21_linear)"/>
<path d="M568.017 166.492C567.769 166.492 567.553 166.307 567.522 166.054C567.488 165.78 567.682 165.53 567.956 165.496C569.683 165.279 572.781 164.256 574.142 159.833C574.222 159.569 574.504 159.42 574.766 159.502C575.031 159.583 575.178 159.863 575.097 160.127C573.573 165.087 570.047 166.242 568.081 166.488C568.059 166.491 568.038 166.492 568.017 166.492Z" fill="#FFA2BA"/>
<path d="M575.087 177.314C573.762 177.314 572.529 177.099 571.652 176.84C571.387 176.762 571.236 176.484 571.314 176.219C571.391 175.954 571.667 175.801 571.935 175.881C574.116 176.523 578.753 176.907 580.676 173.76C580.819 173.524 581.125 173.449 581.364 173.594C581.599 173.738 581.674 174.046 581.53 174.282C580.097 176.63 577.447 177.314 575.087 177.314Z" fill="#FFA2BA"/>
<path d="M577.639 188.905C573.507 188.905 571.269 186.767 570.403 185.687C570.23 185.471 570.264 185.157 570.48 184.984C570.695 184.813 571.009 184.846 571.182 185.061C572.134 186.248 574.961 188.864 580.642 187.537C580.92 187.474 581.18 187.642 581.244 187.91C581.307 188.179 581.14 188.448 580.871 188.511C579.684 188.787 578.609 188.905 577.639 188.905Z" fill="#FFA2BA"/>
<path d="M600.971 271.342C600.493 270.418 600.071 269.447 599.75 268.417C597.676 261.747 598.416 255.334 598.416 255.334C598.416 255.334 589.499 252.501 582.416 251.001C575.333 249.501 565.851 247.48 565.851 247.48C566.083 253.918 570.167 267.084 578.833 275.334C582.521 278.846 585.862 281.16 588.803 282.751C592.503 282.747 598.5 278.061 600.971 271.342Z" fill="url(#paint22_linear)"/>
<path d="M608.583 293.167C611.312 292.5 609.833 283.75 609 281.75C608.293 280.052 603.656 276.544 600.971 271.342C598.5 278.061 592.503 282.747 588.803 282.75C595.05 286.128 599.487 286.226 601.583 287.5C603.507 288.67 605.658 293.882 608.583 293.167Z" fill="url(#paint23_linear)"/>
<path d="M515.833 201.583C511.914 203.861 509.31 205.13 502.75 205.333C502.397 205.344 502.035 205.348 501.667 205.349C502.689 208.731 502.832 214.495 501.096 218.787C507.067 221.258 513.282 222.246 519.248 221.525C522.672 217.736 519.563 205.875 515.833 201.583Z" fill="url(#paint24_linear)"/>
<path d="M501.667 205.349C496.428 205.349 489.825 204.324 487.083 204.416C482.75 204.562 480.187 206.249 478.312 208.187C476.709 209.843 476.291 213.145 478.124 214.312C480.419 215.772 486.166 213.666 489.332 213.249C492.498 212.832 494.999 216.249 500.999 218.749C501.03 218.762 501.062 218.772 501.095 218.786C502.832 214.495 502.689 208.731 501.667 205.349Z" fill="url(#paint25_linear)"/>
<path d="M600.375 224.375C608.645 214.861 620.666 217.825 622.975 220.108C622.843 219.962 622.718 219.809 622.583 219.666C612.752 209.252 598.834 206.416 584.833 199.333C572.843 193.267 560.167 184.833 556.5 180.875C556.5 180.875 550.167 189.75 535.194 196.207C525.029 200.59 511.75 199.125 511.75 199.125C511.75 199.125 512.931 210.275 517.5 218.75C524.375 231.5 547.75 244.75 568.125 251.25C582.37 255.794 592.009 257.071 602.125 258.125C599.875 254 591.97 234.045 600.375 224.375Z" fill="url(#paint26_linear)"/>
<path d="M599.844 225.544C599.823 225.544 599.803 225.543 599.782 225.54C566.163 221.422 548.109 195.852 545.947 190.988C545.835 190.736 545.949 190.44 546.201 190.328C546.454 190.218 546.749 190.329 546.861 190.582C548.985 195.361 566.749 220.487 599.903 224.548C600.177 224.581 600.373 224.831 600.339 225.105C600.308 225.358 600.093 225.544 599.844 225.544Z" fill="#00E2EC"/>
<path d="M635.825 262.997C633.223 255.209 633.575 231.917 622.974 220.109C620.665 217.825 608.644 214.861 600.374 224.376C591.969 234.046 599.874 254.001 602.124 258.126C607.529 266.649 613.524 272.169 618.978 275.94C623.168 275.166 633.317 269.159 635.825 262.997Z" fill="url(#paint27_linear)"/>
<path d="M639.625 290.75C643.837 290.568 643.229 280.122 642.5 275.625C641.75 271 637.752 268.032 636 263.5C635.939 263.343 635.883 263.168 635.825 262.997C633.317 269.159 623.168 275.166 618.979 275.94C624.75 279.93 629.914 281.962 633.125 283.501C634.739 284.273 635.75 290.917 639.625 290.75Z" fill="url(#paint28_linear)"/>
<path d="M629.876 270.595C629.749 270.595 629.622 270.547 629.524 270.45C608.893 250.041 610.789 231.086 611.503 223.95C611.53 223.675 611.779 223.48 612.05 223.502C612.324 223.529 612.526 223.774 612.497 224.049C611.797 231.055 609.935 249.666 630.227 269.739C630.423 269.933 630.425 270.25 630.231 270.446C630.134 270.546 630.005 270.595 629.876 270.595Z" fill="#00E2EC"/>
<path d="M569.375 201.625C565.959 198.148 558.375 195.75 551.5 198.625C542.283 202.479 534.121 214.532 528.306 221.278C531.619 222.023 536.153 224.149 538.125 227.812C539.494 230.354 539.989 233.061 540.153 235.077C550.055 233.244 561.329 228.832 567.75 222.625C576.247 214.411 572.875 205.188 569.375 201.625Z" fill="url(#paint29_linear)"/>
<path d="M528.306 221.278C526.997 222.796 525.807 224.048 524.75 224.875C518.461 229.797 512.529 233.273 510 235.875C507.812 238.125 505.75 241.625 507.875 243.625C510.777 246.357 514.938 243.938 519.625 239.875C523.375 236.625 525.337 236.799 535.304 235.787C536.861 235.629 538.491 235.385 540.154 235.078C539.99 233.062 539.495 230.355 538.126 227.813C536.152 224.149 531.619 222.023 528.306 221.278Z" fill="url(#paint30_linear)"/>
<path d="M538.125 228.313C537.918 228.313 537.725 228.184 537.652 227.977C537.562 227.716 537.7 227.431 537.961 227.341C551.35 222.694 566.803 205.934 568.922 201.413C569.04 201.163 569.339 201.055 569.587 201.173C569.837 201.29 569.945 201.588 569.828 201.838C567.596 206.598 552.167 223.469 538.289 228.285C538.234 228.304 538.18 228.313 538.125 228.313Z" fill="#00E2EC"/>
<path d="M494.257 173.238C496.375 173.187 505.875 170.437 507.5 167.625C509.125 164.813 513 167.437 513 167.437C513 167.437 513.438 175.125 505.062 175.375C496.686 175.625 494.257 173.238 494.257 173.238Z" fill="url(#paint31_linear)"/>
<path d="M500.007 173.863C500.236 173.176 501.563 172.031 503.938 171.187C506.502 170.276 508.626 169.999 512.063 169.937C508.969 172.041 510.376 175.178 507.834 175.375C501.917 175.833 500.007 173.863 500.007 173.863Z" fill="#D039A3"/>
<path d="M516.834 143.333C516.501 140.666 517.085 127.75 518.168 127.416C519.251 127.082 527 135.583 527.084 142.083C523.501 144 516.834 143.333 516.834 143.333Z" fill="url(#paint32_linear)"/>
<path d="M480.75 148.375C481.509 147.331 482.625 147.375 483.75 147.375C484.875 147.375 506.375 147.625 506.375 147.625C506.375 147.625 514.5 142 520.75 141.25C527 140.5 535.375 141.375 535.375 141.375C535.375 141.375 539 137.625 542.125 134.875C545.25 132.125 548.875 128.5 550.25 128.875C551.625 129.25 550.621 138.955 549 143.75C547.5 148.188 543.875 152.625 543.875 152.625C543.875 152.625 545.25 161 548.5 168.125C551.33 174.33 556.5 180.875 556.5 180.875C556.5 180.875 550.132 190.882 537.25 195.5C520.687 201.438 511.75 199.125 511.75 199.125C511.75 199.125 511.553 194.75 511.625 191C511.713 186.442 511.875 182.625 511.875 182.625C511.875 182.625 506.299 181.886 502 180.125C496.812 178 494.375 176.062 494.257 173.238C495.304 173.558 498.255 174.341 503.125 173.375C511.313 171.75 511.75 168.125 511.75 168.125C511.75 168.125 505.85 169.888 496.5 166.125C486.25 162 477.751 152.5 480.75 148.375Z" fill="url(#paint33_linear)"/>
<path d="M490.669 147.446C487.06 147.406 484.146 147.375 483.75 147.375C482.625 147.375 481.509 147.331 480.75 148.375C479.257 150.429 480.615 153.814 483.619 157.206C486.237 155.902 490.308 152.619 490.669 147.446Z" fill="url(#paint34_linear)"/>
<path d="M515.084 150.584C516.143 150.584 517.001 149.726 517.001 148.667C517.001 147.608 516.143 146.75 515.084 146.75C514.025 146.75 513.167 147.608 513.167 148.667C513.167 149.726 514.025 150.584 515.084 150.584Z" fill="#212F66"/>
<path d="M514.553 148.604C514.956 148.604 515.282 148.278 515.282 147.875C515.282 147.472 514.956 147.146 514.553 147.146C514.15 147.146 513.824 147.472 513.824 147.875C513.824 148.278 514.15 148.604 514.553 148.604Z" fill="#0090B2"/>
<path d="M527.418 154.583C528.661 154.583 529.668 153.576 529.668 152.333C529.668 151.09 528.661 150.083 527.418 150.083C526.175 150.083 525.168 151.09 525.168 152.333C525.168 153.576 526.175 154.583 527.418 154.583Z" fill="#212F66"/>
<path d="M526.5 152.459C526.937 152.459 527.292 152.104 527.292 151.667C527.292 151.23 526.937 150.875 526.5 150.875C526.063 150.875 525.708 151.23 525.708 151.667C525.708 152.104 526.063 152.459 526.5 152.459Z" fill="#0090B2"/>
<path d="M542.064 114.676C521.192 101.701 493.752 108.103 480.778 128.975C467.804 149.847 474.205 177.287 495.078 190.262C515.95 203.237 543.39 196.835 556.364 175.963C569.338 155.091 562.938 127.651 542.064 114.676ZM550.56 172.767C540.179 189.468 518.224 194.59 501.524 184.208C484.824 173.826 479.701 151.872 490.084 135.171C500.465 118.471 522.42 113.348 539.12 123.73C555.819 134.111 560.942 156.066 550.56 172.767Z" fill="url(#paint35_radial)"/>
<g opacity="0.5">
<path opacity="0.5" d="M515.525 118.913L514.421 119.159L513.404 119.43C512.715 119.627 512.033 119.842 511.36 120.073C510.309 120.435 509.164 119.876 508.801 118.825C508.44 117.774 508.998 116.629 510.05 116.267C510.191 116.218 510.348 116.185 510.49 116.169C511.282 116.083 512.072 116.018 512.861 115.975L514.07 115.933L515.201 115.937C516.033 115.939 516.706 116.617 516.703 117.449C516.702 118.165 516.198 118.763 515.525 118.913Z" fill="white"/>
</g>
<g opacity="0.5">
<path opacity="0.5" d="M505.181 122.097L504.052 122.598L503.031 123.094C502.339 123.45 501.655 123.826 500.984 124.224C499.646 125.026 498.364 125.923 497.149 126.908C494.72 128.876 492.568 131.196 490.771 133.777C490.24 134.544 489.187 134.735 488.42 134.203C487.668 133.682 487.473 132.656 487.966 131.893C489.851 128.995 492.149 126.352 494.779 124.08C496.093 122.944 497.49 121.9 498.955 120.959C499.688 120.491 500.438 120.047 501.201 119.625L502.389 119.003L503.506 118.465C504.501 117.986 505.696 118.404 506.176 119.399C506.656 120.394 506.238 121.59 505.241 122.069C505.225 122.077 505.197 122.089 505.181 122.097Z" fill="white"/>
</g>
<path d="M559.077 183.22C558.002 182.337 557.115 181.539 556.5 180.875C556.5 180.875 555.762 179.939 554.691 178.443C544.681 192.39 527.847 198.977 511.66 196.44C511.7 198.017 511.75 199.125 511.75 199.125C511.75 199.125 511.91 200.628 512.337 202.946C529.905 205.105 547.908 197.967 559.077 183.22Z" fill="url(#paint36_linear)"/>
<path d="M561.71 141.547C560.386 136.485 558.169 131.666 555.191 127.381C552.207 123.102 548.471 119.354 544.195 116.387C539.933 113.391 535.172 111.135 530.145 109.791C525.126 108.435 519.869 107.998 514.698 108.468C504.347 109.393 494.381 114.085 487.153 121.532C479.892 128.936 475.352 138.95 474.679 149.287C473.887 159.61 476.889 170.184 483.022 178.553C489.112 186.95 498.288 193.05 508.394 195.458C518.498 197.909 529.452 196.594 538.731 191.871C543.381 189.54 547.631 186.385 551.188 182.567C554.755 178.759 557.64 174.306 559.692 169.495C557.715 174.338 554.895 178.849 551.369 182.733C547.851 186.628 543.619 189.878 538.954 192.308C529.603 197.147 518.511 198.536 508.241 196.106C497.969 193.715 488.604 187.572 482.35 179.046C476.057 170.552 472.922 159.779 473.684 149.216C474.429 138.646 479.122 128.454 486.56 120.95C493.967 113.4 504.13 108.689 514.639 107.807C525.15 106.862 535.933 109.834 544.476 115.989C548.751 119.055 552.457 122.894 555.392 127.243C558.319 131.599 560.464 136.466 561.71 141.547Z" fill="white"/>
<path d="M561.698 141.55C560.052 142.099 558.471 142.934 557.037 144.081C550.49 149.315 549.425 158.868 554.66 165.417C556.068 167.179 557.792 168.541 559.683 169.491C563.443 160.441 563.999 150.642 561.698 141.55Z" fill="url(#paint37_linear)"/>
<path d="M160.687 206.64C160.09 207.223 159.379 208.181 158.73 209.201C158.077 210.229 157.467 211.344 156.909 212.493C155.793 214.797 154.884 217.245 154.187 219.734C152.795 224.718 152.262 229.889 152.703 234.868C153.136 239.852 154.551 244.634 156.838 248.978C159.117 253.33 162.251 257.249 165.948 260.704L155.302 271.046C150.977 266.249 147.252 260.71 144.699 254.593C142.129 248.491 140.799 241.855 140.805 235.328C140.797 228.791 142.055 222.397 144.278 216.451C145.397 213.475 146.751 210.602 148.389 207.848C149.211 206.471 150.102 205.123 151.114 203.8C152.139 202.484 153.229 201.164 154.814 199.861L160.687 206.64Z" fill="url(#paint38_linear)"/>
<path d="M153.603 219.587C148.683 219.587 145.395 215.83 144.468 214.626C144.3 214.407 144.341 214.093 144.56 213.925C144.779 213.758 145.092 213.799 145.261 214.017C146.159 215.186 149.469 218.97 154.342 218.557C154.617 218.53 154.859 218.738 154.882 219.013C154.905 219.288 154.701 219.53 154.426 219.553C154.147 219.576 153.872 219.587 153.603 219.587Z" fill="#00E2EC"/>
<path d="M146.936 235.294C144.143 235.294 141.931 234.241 140.588 233.38C140.356 233.231 140.288 232.922 140.437 232.689C140.586 232.456 140.895 232.388 141.128 232.538C143.131 233.823 147.253 235.574 152.361 232.848C152.603 232.718 152.907 232.809 153.037 233.054C153.167 233.298 153.075 233.6 152.831 233.73C150.685 234.876 148.695 235.294 146.936 235.294Z" fill="#00E2EC"/>
<path d="M145.226 253.771C144.832 253.771 144.463 253.758 144.123 253.739C143.847 253.723 143.637 253.487 143.653 253.211C143.669 252.935 143.906 252.722 144.181 252.741C147.174 252.916 152.679 252.482 155.888 247.644C156.04 247.414 156.35 247.35 156.581 247.504C156.811 247.656 156.874 247.967 156.721 248.197C153.604 252.896 148.554 253.771 145.226 253.771Z" fill="#00E2EC"/>
<path d="M554.334 430.333C553.334 426.999 532.667 427 530 426.666C528.531 426.482 523.422 409.872 514.125 390.772C498.334 393.333 486.5 406.666 483.316 411.878L483.318 411.883C501.738 427.747 514.496 443.069 520.834 444.832C526.679 446.459 555.334 433.667 554.334 430.333Z" fill="url(#paint39_linear)"/>
<path d="M514.125 390.772C506.538 375.187 496.163 357.946 482.697 346.615C465.009 331.731 446.667 325 432.333 323.667C432.333 323.667 412.92 331.927 403.167 341.167C393.667 350.167 393 357.335 391.166 369.834C409.999 371 426.67 375.843 450.667 388.833C462.972 395.494 473.886 403.76 483.318 411.884L483.316 411.879C486.5 406.666 498.334 393.333 514.125 390.772Z" fill="url(#paint40_linear)"/>
<path d="M479.501 391.5C479.186 391.5 478.875 391.352 478.681 391.073C458.845 362.688 411.41 345.827 401.077 344.08C400.533 343.987 400.166 343.472 400.258 342.927C400.35 342.383 400.858 342.022 401.411 342.108C411.911 343.883 460.13 361.036 480.319 389.927C480.635 390.38 480.525 391.003 480.073 391.32C479.898 391.441 479.698 391.5 479.501 391.5Z" fill="#9F36AD"/>
<path d="M311.25 188.5C311.25 188.5 296.625 185.75 270.875 187C262.882 187.388 255.84 188.135 249.871 188.995C248.334 194.929 245.954 200.524 242.867 205.643C247.5 206.75 251.5 207.25 271 216.625C290.5 226 319.381 245.197 329.875 243.25C342 241 372.375 229.875 373.625 213.125C374.937 195.547 311.25 188.5 311.25 188.5Z" fill="url(#paint41_linear)"/>
<path d="M373.625 213.125C373.923 209.128 370.854 205.677 365.944 202.728C361.508 205.796 356.052 211.19 354.334 218.75C352.805 225.478 353.696 231.317 354.427 234.381C364.283 229.159 372.969 221.919 373.625 213.125Z" fill="url(#paint42_linear)"/>
<path d="M315.833 200.75C315.756 200.75 315.677 200.738 315.6 200.713C289.832 192.286 248.686 194.712 245.596 195.869C245.211 196.016 244.777 195.818 244.631 195.43C244.485 195.042 244.682 194.61 245.07 194.465C248.333 193.241 289.41 190.57 316.066 199.288C316.46 199.417 316.675 199.84 316.546 200.234C316.443 200.549 316.149 200.75 315.833 200.75Z" fill="#9F36AD"/>
<path d="M372.875 206.625C369.062 196.687 352.786 188.647 342.649 183.624C339.713 182.169 336.512 180.793 333.241 179.46C332.81 182.692 331.413 187.857 326.999 192.167C321.688 197.351 314.842 198.283 310.498 198.348C313.587 202.16 316.775 205.707 319.999 208.376C328.129 215.108 344.722 225.42 357.257 226.553C362.644 227.04 367.394 225.911 370.176 221.913C372.17 219.046 375.785 214.209 372.875 206.625Z" fill="url(#paint43_linear)"/>
<path d="M370.177 221.912C372.171 219.046 375.785 214.21 372.875 206.625C372.098 204.6 370.797 202.655 369.143 200.797C364.636 203.111 356.504 209.2 354.334 218.75C353.751 221.315 353.524 223.748 353.502 225.952C354.782 226.223 356.044 226.442 357.258 226.552C362.645 227.039 367.395 225.91 370.177 221.912Z" fill="url(#paint44_linear)"/>
<path d="M333.242 179.46C321.055 174.491 307.889 170.117 303.75 164.5C299.629 158.908 301.187 149.312 299.375 142.5C298.023 137.419 293.812 131.312 289.625 132C284.53 132.836 283.75 139.75 284.75 145.25C285.75 150.75 287 155.25 283.875 156C281.198 156.643 277.724 154.49 276.125 153.875C275.042 153.458 270.779 153.354 272.25 158.375C274.167 164.917 285.583 170.19 292.125 175.75C297.293 180.143 303.651 189.897 310.499 198.347C314.843 198.282 321.689 197.35 327 192.166C331.414 187.857 332.811 182.692 333.242 179.46Z" fill="url(#paint45_linear)"/>
<path d="M393.5 295.25C393.5 295.25 376.667 269.333 340.375 242.5C301.055 213.428 245.766 200.262 240.5 200.5C240.5 200.5 230.25 213.75 219 220.75C207.75 227.75 184.5 228.5 184.5 228.5C184.5 228.5 188.25 260.375 204.5 298.875C209.735 311.278 215.372 320.335 222.153 332.218C242 367 273.5 403 315.75 405.25C309.667 371.333 335.5 320 393.5 295.25Z" fill="url(#paint46_linear)"/>
<path d="M362.136 314.254C361.844 314.254 361.554 314.127 361.357 313.881C318.596 260.799 266.521 225.236 234.92 210.911C234.417 210.683 234.194 210.091 234.422 209.587C234.65 209.085 235.242 208.862 235.746 209.089C267.546 223.505 319.932 259.271 362.914 312.627C363.26 313.057 363.193 313.687 362.763 314.032C362.578 314.182 362.356 314.254 362.136 314.254Z" fill="#FFA2BA"/>
<path d="M315.833 384.778C315.793 384.778 315.754 384.776 315.714 384.771C265.523 378.851 232.854 328.028 231.487 325.867C231.192 325.4 231.331 324.783 231.798 324.488C232.265 324.191 232.882 324.332 233.178 324.799C244.574 342.822 276.54 378.137 315.949 382.785C316.497 382.849 316.889 383.347 316.825 383.895C316.765 384.404 316.333 384.778 315.833 384.778Z" fill="#FFA2BA"/>
<path d="M245.167 262.333C243.334 271.333 276.834 301.875 286.5 301.875C295.879 301.875 330.237 263.098 340.61 242.676C340.53 242.617 340.455 242.558 340.375 242.5C325.975 231.853 309.434 223.341 293.991 216.838C279.796 225.443 247.177 252.467 245.167 262.333Z" fill="url(#paint47_linear)"/>
<path d="M284.246 273.697C289.08 273.697 292.999 269.779 292.999 264.944C292.999 260.11 289.08 256.191 284.246 256.191C279.412 256.191 275.493 260.11 275.493 264.944C275.493 269.779 279.412 273.697 284.246 273.697Z" fill="#1AA9E8"/>
<path d="M297.154 255.857C299.264 255.857 300.974 254.147 300.974 252.037C300.974 249.928 299.264 248.217 297.154 248.217C295.044 248.217 293.334 249.928 293.334 252.037C293.334 254.147 295.044 255.857 297.154 255.857Z" fill="#1AA9E8"/>
<path d="M284.246 284.194C273.632 284.194 264.996 275.558 264.996 264.944C264.996 254.33 273.632 245.694 284.246 245.694C294.86 245.694 303.496 254.33 303.496 264.944C303.496 275.558 294.86 284.194 284.246 284.194ZM284.246 247.694C274.734 247.694 266.996 255.432 266.996 264.944C266.996 274.456 274.734 282.194 284.246 282.194C293.758 282.194 301.496 274.456 301.496 264.944C301.496 255.432 293.758 247.694 284.246 247.694Z" fill="#1AA9E8"/>
<path d="M306.214 246.379C305.713 246.379 305.211 246.191 304.822 245.815C304.029 245.046 304.009 243.78 304.778 242.987L319.005 228.306C319.775 227.513 321.041 227.494 321.833 228.262C322.626 229.031 322.646 230.297 321.877 231.09L307.65 245.771C307.258 246.176 306.736 246.379 306.214 246.379Z" fill="#9F36AD"/>
<path d="M297.265 238.342C296.759 238.342 296.252 238.151 295.863 237.768C295.075 236.994 295.065 235.727 295.84 234.94L308.061 222.515C308.835 221.728 310.103 221.718 310.889 222.492C311.677 223.266 311.687 224.533 310.912 225.32L298.691 237.745C298.299 238.143 297.782 238.342 297.265 238.342Z" fill="#9F36AD"/>
<path d="M316.776 253.884C316.304 253.884 315.83 253.718 315.449 253.38C314.623 252.647 314.548 251.382 315.281 250.556L329.4 234.646C330.135 233.82 331.399 233.746 332.224 234.478C333.05 235.211 333.125 236.476 332.392 237.302L318.273 253.212C317.877 253.657 317.328 253.884 316.776 253.884Z" fill="#9F36AD"/>
<path d="M510.134 312.43C481.98 302.586 446.914 288.86 423 289.75C403 290.495 393.5 295.25 393.5 295.25C335.5 320 309.667 371.333 315.75 405.25C389.922 409.2 411.688 365.557 451 352C466.513 346.65 485.665 346.034 503.164 346.387C503.164 346.386 503.163 346.385 503.163 346.384C498.993 328.101 507.667 316.167 510.134 312.43Z" fill="url(#paint48_linear)"/>
<path d="M422.75 316.834C443.712 315.011 449.185 299.519 448.876 292.803C439.501 290.689 430.675 289.464 423 289.75C403 290.495 393.5 295.25 393.5 295.25C394.417 305.834 403.011 318.551 422.75 316.834Z" fill="url(#paint49_linear)"/>
<path d="M420.55 308.5C419.725 308.5 419.054 307.834 419.05 307.008L418.958 289.641C418.954 288.813 419.622 288.138 420.45 288.133C420.453 288.133 420.455 288.133 420.458 288.133C421.283 288.133 421.954 288.799 421.958 289.625L422.05 306.992C422.054 307.82 421.386 308.495 420.558 308.5C420.555 308.5 420.553 308.5 420.55 308.5Z" fill="#9F36AD"/>
<path d="M431.922 308.484C431.097 308.484 430.426 307.817 430.422 306.992L430.336 290.054C430.332 289.225 431 288.55 431.828 288.546C431.831 288.546 431.834 288.546 431.836 288.546C432.661 288.546 433.332 289.213 433.336 290.038L433.422 306.976C433.426 307.805 432.758 308.48 431.93 308.484C431.927 308.484 431.924 308.484 431.922 308.484Z" fill="#9F36AD"/>
<path d="M409.429 308.563C408.625 308.563 407.96 307.926 407.931 307.117L407.362 291.147C407.333 290.319 407.98 289.624 408.807 289.594C409.628 289.556 410.329 290.211 410.36 291.039L410.929 307.009C410.958 307.837 410.311 308.532 409.484 308.562C409.465 308.563 409.446 308.563 409.429 308.563Z" fill="#9F36AD"/>
<path d="M326.92 385.423C323.214 385.423 319.478 385.215 315.715 384.772C315.167 384.708 314.775 384.21 314.839 383.662C314.904 383.113 315.402 382.723 315.949 382.786C355.799 387.489 393.12 365.104 417.815 350.294C426.729 344.948 433.769 340.726 439.152 338.731C456.716 332.22 483.12 333.745 502.177 336.17C502.725 336.24 503.113 336.74 503.043 337.288C502.973 337.836 502.48 338.218 501.925 338.154C483.087 335.756 457.029 334.236 439.847 340.605C434.639 342.536 427.319 346.925 418.843 352.008C396.23 365.57 363.128 385.423 326.92 385.423Z" fill="#FFA2BA"/>
<path d="M549.5 345.5C553.851 343.674 559.668 340.135 566.25 329.25C570.583 322.084 573.917 308.674 571.25 308.75C565.417 308.917 558.486 321.203 549 322C540.906 322.68 526.719 318.228 510.134 312.43C507.667 316.167 498.993 328.101 503.163 346.384C503.163 346.385 503.164 346.386 503.164 346.387C523.83 346.802 542.189 348.568 549.5 345.5Z" fill="url(#paint50_linear)"/>
<path d="M522 340C525.314 340 528 337.314 528 334C528 330.686 525.314 328 522 328C518.686 328 516 330.686 516 334C516 337.314 518.686 340 522 340Z" fill="#9F36AD"/>
<path d="M216.5 359.5C218.75 338.25 225.5 326.625 226.25 310C227.068 291.858 221.144 239.164 187.25 231.75C181.25 230.437 174.5 231.813 174.5 231.813C160.833 251 147.667 279 148.833 315C150.119 354.682 173.14 380.857 186.833 394.5C186.949 394.615 187.058 394.725 187.173 394.839C191.457 390.806 201.705 383.947 216.715 383.665C215.932 375.629 215.693 367.117 216.5 359.5Z" fill="url(#paint51_linear)"/>
<path d="M168.75 331.875C164.518 318.496 154.051 314.97 148.828 314.712C148.831 314.809 148.831 314.903 148.834 315C149.434 333.504 154.761 349.069 161.664 361.798C167.426 357.575 173 345.309 168.75 331.875Z" fill="url(#paint52_linear)"/>
<path d="M152.52 339.675C151.871 339.675 151.273 339.251 151.081 338.598C150.848 337.803 151.303 336.969 152.098 336.736L162.014 333.825C162.808 333.595 163.642 334.049 163.876 334.842C164.109 335.637 163.654 336.471 162.859 336.704L152.943 339.615C152.802 339.655 152.659 339.675 152.52 339.675Z" fill="#9F36AD"/>
<path d="M150.734 331.652C150.085 331.652 149.487 331.228 149.295 330.575C149.062 329.78 149.517 328.946 150.312 328.713L159.752 325.942C160.547 325.711 161.38 326.165 161.614 326.959C161.847 327.754 161.392 328.588 160.597 328.821L151.157 331.592C151.016 331.633 150.874 331.652 150.734 331.652Z" fill="#9F36AD"/>
<path d="M154.946 348.127C154.322 348.127 153.74 347.735 153.527 347.112C153.259 346.328 153.677 345.475 154.461 345.208L163.992 341.949C164.778 341.678 165.629 342.099 165.897 342.883C166.165 343.667 165.747 344.52 164.963 344.787L155.432 348.046C155.271 348.102 155.106 348.127 154.946 348.127Z" fill="#9F36AD"/>
<path d="M193.001 379.667C192.661 379.667 192.33 379.494 192.143 379.182C191.971 378.896 191.744 378.528 191.468 378.079C172.97 348.082 168.316 321.983 167.668 305.372C166.195 267.604 177.29 240.729 184.079 230.804C184.39 230.348 185.014 230.231 185.469 230.543C185.925 230.855 186.042 231.477 185.73 231.933C179.081 241.656 168.214 268.048 169.667 305.294C170.306 321.666 174.902 347.402 193.171 377.029C193.452 377.486 193.684 377.861 193.859 378.152C194.143 378.626 193.99 379.24 193.516 379.524C193.354 379.621 193.176 379.667 193.001 379.667Z" fill="#FFA2BA"/>
<path d="M210.688 422.625C212.792 429.32 207.25 436.167 206.875 442.125C206.451 448.861 214.421 458.096 218.625 457.875C222.583 457.667 224.625 453 224.5 449.75C224.375 446.5 222.875 438.75 225.75 438.125C228.625 437.5 227.782 443.26 229.125 445.25C230.25 446.917 233.083 446.833 233.875 444.5C234.683 442.118 235 435.417 233 431.25C230.556 426.157 226 420.625 222.75 413.25C220.733 408.673 217.995 396.808 216.715 383.665C201.706 383.947 191.458 390.806 187.173 394.839C203.521 411.124 208.639 416.108 210.688 422.625Z" fill="url(#paint53_linear)"/>
<path d="M213.625 188.625C215.056 190.875 223.25 200 227.875 202.5C226.5 206.75 220.875 213.5 212 217.625C204.736 221.001 195.687 222.375 195.687 222.375C195.687 222.375 192.249 214 190.124 204.062C188.681 197.313 188.124 190.999 188.124 190.999C188.124 190.999 193.937 194.187 201.249 193.999C208.453 193.815 213.625 188.625 213.625 188.625Z" fill="url(#paint54_linear)"/>
<path d="M214.583 174.083C211.666 162.416 202.75 150.583 200.333 147.416H193.416L168.999 162.416L168.249 175.249C168.249 175.249 171.606 179.523 176.981 185.201C174.884 186.06 173.416 188.052 173.416 190.373C173.416 193.48 176.046 195.998 179.291 195.998C181.666 195.998 183.706 194.647 184.632 192.706C193.432 199.981 205.127 199.88 210.666 196.081C216.483 192.095 217.5 185.75 214.583 174.083Z" fill="url(#paint55_linear)"/>
<path d="M192.5 175.25C193.605 175.25 194.5 174.355 194.5 173.25C194.5 172.145 193.605 171.25 192.5 171.25C191.395 171.25 190.5 172.145 190.5 173.25C190.5 174.355 191.395 175.25 192.5 175.25Z" fill="#212F66"/>
<path d="M206.583 165.5C207.595 165.5 208.416 164.679 208.416 163.667C208.416 162.655 207.595 161.834 206.583 161.834C205.571 161.834 204.75 162.655 204.75 163.667C204.75 164.679 205.571 165.5 206.583 165.5Z" fill="#212F66"/>
<path d="M199.545 164.284C200.969 162.683 211.307 171.145 211.04 172.927C210.773 174.709 208.125 175.938 206.312 176.25C204.335 172.687 198.832 165.086 199.545 164.284Z" fill="url(#paint56_linear)"/>
<path d="M206.719 186.084C205.552 186.084 204.45 185.701 203.534 184.977C203.317 184.806 203.281 184.491 203.452 184.275C203.623 184.058 203.938 184.022 204.154 184.193C204.892 184.776 205.779 185.085 206.718 185.085C209.01 185.085 210.874 183.207 210.874 180.897C210.874 180.613 210.846 180.328 210.79 180.052C210.735 179.781 210.91 179.517 211.18 179.463C211.452 179.406 211.715 179.583 211.769 179.853C211.839 180.195 211.874 180.546 211.874 180.897C211.875 183.757 209.563 186.084 206.719 186.084Z" fill="#954374"/>
<path d="M205.833 133.75C203.25 131.333 199.416 134.167 197.083 136.75C194.75 139.333 192.909 142.342 190.75 142.167C187.667 141.917 188.732 134.551 184.917 135C179.25 135.667 176.417 148.833 174.584 149.833C172.751 150.833 171.214 146.691 168.334 148.5C164.751 150.75 165.858 161.404 165.417 164C165.12 165.747 159.984 168.929 160.5 175.25C161.122 182.865 168.624 188.52 173.418 190.398C173.418 190.39 173.417 190.382 173.417 190.375C173.417 187.71 175.355 185.482 177.954 184.902C177.932 182.175 177.412 179.052 176.75 176.751C175.167 171.251 171.543 166.98 171.543 166.98C173.876 166.73 188.334 162.418 198.417 153.585C207.032 146.037 208.553 136.294 205.833 133.75Z" fill="url(#paint57_linear)"/>
<path d="M188.881 126.156C171.823 126.156 156.889 135.244 148.652 148.842C156.414 141.814 166.709 137.531 178.006 137.531C202.169 137.531 221.756 157.118 221.756 181.281C221.756 197.091 213.368 210.94 200.802 218.627C220.986 213.35 235.881 194.994 235.881 173.156C235.881 147.199 214.838 126.156 188.881 126.156Z" fill="url(#paint58_radial)"/>
<path d="M200.904 213.348C185.84 213.348 169.551 207.977 161.334 196.667C146.501 176.25 155.876 138.625 172.022 129.284C154.397 136.062 141.882 153.142 141.882 173.156C141.882 199.114 162.924 220.156 188.882 220.156C199.775 220.156 209.795 216.44 217.765 210.22C212.529 212.233 206.848 213.348 200.904 213.348Z" fill="url(#paint59_linear)"/>
<path d="M154.021 190.324C151.106 190.324 148.398 191.199 146.134 192.691C150.17 201.508 156.847 208.857 165.16 213.727C167.168 211.257 168.376 208.11 168.376 204.679C168.377 196.75 161.95 190.324 154.021 190.324Z" fill="url(#paint60_linear)"/>
<g opacity="0.5">
<path opacity="0.5" d="M212.126 142.452L213.13 143.095L214.168 143.815C214.839 144.3 215.498 144.804 216.146 145.328C216.919 145.953 217.039 147.087 216.413 147.861C215.788 148.634 214.654 148.754 213.881 148.128C213.794 148.058 213.707 147.971 213.636 147.889C213.148 147.311 212.642 146.744 212.12 146.189L211.337 145.387L210.472 144.567C209.931 144.055 209.909 143.201 210.421 142.661C210.873 142.183 211.592 142.11 212.126 142.452Z" fill="white"/>
</g>
<g opacity="0.5">
<path opacity="0.5" d="M221.253 151.104C222.248 152.607 223.168 154.229 223.952 155.878C224.74 157.533 225.41 159.243 225.956 160.99C227.049 164.484 227.637 168.127 227.713 171.769C227.733 172.702 226.992 173.474 226.059 173.494C225.144 173.513 224.383 172.796 224.336 171.888C224.167 168.562 223.533 165.271 222.45 162.141C221.909 160.576 221.259 159.051 220.504 157.58C219.745 156.103 218.901 154.708 217.931 153.332C217.294 152.429 217.51 151.181 218.412 150.544C219.314 149.907 220.563 150.123 221.2 151.025C221.21 151.039 221.219 151.052 221.228 151.066L221.253 151.104Z" fill="white"/>
</g>
<path d="M249.871 188.995C241.62 190.183 235.437 191.584 231.687 192.558C224.299 208.832 207.917 220.157 188.88 220.157C187.17 220.157 185.483 220.06 183.819 219.882C179.748 224.329 175.344 230.539 172.906 234.109C178.008 235.442 183.36 236.157 188.879 236.157C218.204 236.156 242.846 216.122 249.871 188.995Z" fill="url(#paint61_linear)"/>
<path d="M172.017 129.272C177.132 127.182 182.651 126.078 188.196 125.92C193.743 125.787 199.325 126.636 204.591 128.443C215.15 132.031 224.27 139.589 229.913 149.217C235.56 158.846 237.585 170.543 235.535 181.482C234.518 186.956 232.522 192.236 229.676 197.002C226.799 201.747 223.108 205.992 218.779 209.424C227.18 202.253 232.976 192.166 234.778 181.348C235.679 175.944 235.683 170.394 234.716 165.015C233.752 159.632 231.824 154.429 229.051 149.722C226.313 144.994 222.719 140.765 218.519 137.265C214.313 133.767 209.486 131.03 204.337 129.167C194.029 125.443 182.393 125.486 172.017 129.272Z" fill="white"/>
<path d="M297.689 159.309C297.819 159.822 297.509 160.343 296.996 160.474L280.387 165.076C279.874 165.206 279.353 164.896 279.222 164.383L268.822 127.891C268.692 127.379 269.002 126.857 269.514 126.726L287.123 121.124C287.635 120.994 288.157 121.304 288.287 121.816L297.689 159.309Z" fill="url(#paint62_linear)"/>
<path d="M293.787 156.675L280.587 160.411L271.44 128.626L285.568 123.909L293.787 156.675Z" fill="url(#paint63_linear)"/>
<path d="M280.5 139.5C282.525 139.5 284.167 137.858 284.167 135.833C284.167 133.808 282.525 132.166 280.5 132.166C278.475 132.166 276.833 133.808 276.833 135.833C276.833 137.858 278.475 139.5 280.5 139.5Z" fill="#FE697A"/>
<path d="M88.8904 312C90.8234 312 92.3904 310.433 92.3904 308.5C92.3904 306.567 90.8234 305 88.8904 305C86.9574 305 85.3904 306.567 85.3904 308.5C85.3904 310.433 86.9574 312 88.8904 312Z" fill="#FE697A"/>
<path d="M242.346 327.628C244.279 327.628 245.846 326.061 245.846 324.128C245.846 322.195 244.279 320.628 242.346 320.628C240.413 320.628 238.846 322.195 238.846 324.128C238.846 326.061 240.413 327.628 242.346 327.628Z" fill="#FE697A"/>
<path d="M428.5 196C430.433 196 432 194.433 432 192.5C432 190.567 430.433 189 428.5 189C426.567 189 425 190.567 425 192.5C425 194.433 426.567 196 428.5 196Z" fill="#FE697A"/>
<path d="M438.167 93.9999C437.626 93.9999 437.181 93.5679 437.167 93.0239C437.077 89.3239 436.14 86.6829 434.303 84.9489C430.459 81.3229 422.726 81.5829 412.944 81.9139L410.365 81.9999C406.559 82.1119 404.143 81.4269 402.723 79.8289C400.791 77.6549 401.281 74.3869 401.799 70.9269C402.268 67.8059 402.751 64.5779 401.582 61.9009C398.125 53.9779 377.733 54.2059 360.824 58.9629C343.301 63.8909 329.724 69.2459 329.589 69.2989C329.076 69.5009 328.494 69.2509 328.291 68.7369C328.087 68.2239 328.339 67.6429 328.853 67.4389C328.989 67.3849 342.655 61.9949 360.283 57.0369C374.526 53.0309 398.83 50.5919 403.417 61.0999C404.815 64.3049 404.265 67.9799 403.778 71.2229C403.311 74.3369 402.908 77.0259 404.218 78.4999C405.2 79.6059 407.193 80.0949 410.302 80.0009L412.875 79.9169C423.124 79.5699 431.223 79.2969 435.674 83.4959C437.92 85.6149 439.062 88.7159 439.166 92.9759C439.179 93.5279 438.742 93.9869 438.19 93.9999C438.183 93.9999 438.175 93.9999 438.167 93.9999Z" fill="#FDE1A7"/>
<path d="M443.836 85.6519C443.43 85.6519 443.096 85.3279 443.086 84.9199C442.921 78.1309 440.135 74.9229 433.469 73.8459C433.06 73.7799 432.781 73.3949 432.848 72.9859C432.914 72.5769 433.308 72.2999 433.707 72.3649C441.049 73.5509 444.404 77.4109 444.586 84.8829C444.596 85.2969 444.269 85.6409 443.855 85.6509C443.848 85.6519 443.842 85.6519 443.836 85.6519Z" fill="#FDE1A7"/>
<path d="M334.605 58.7059C334.369 58.7059 334.136 58.5949 333.99 58.3859C333.752 58.0469 333.835 57.5789 334.174 57.3419C336.34 55.8249 347.916 49.8089 360.884 50.3319C361.298 50.3489 361.62 50.6979 361.604 51.1109C361.588 51.5249 361.232 51.8559 360.825 51.8309C348.255 51.3229 337.118 57.1119 335.035 58.5709C334.904 58.6619 334.754 58.7059 334.605 58.7059Z" fill="#FDE1A7"/>
<path d="M360.729 76.5809C360.635 76.5809 360.539 76.5629 360.445 76.5249C357.852 75.4639 350.511 75.5789 348.144 75.7049C347.706 75.7159 347.377 75.4079 347.355 74.9959C347.334 74.5819 347.651 74.2289 348.064 74.2069C348.16 74.2029 357.618 73.7489 361.013 75.1369C361.396 75.2939 361.58 75.7319 361.423 76.1159C361.305 76.4049 361.025 76.5809 360.729 76.5809Z" fill="#FDE1A7"/>
<path d="M424.221 181.751C424.18 181.751 424.138 181.749 424.096 181.743C423.548 181.675 423.159 181.175 423.228 180.627C423.961 174.757 430.13 172.043 436.095 169.418C442.825 166.457 449.182 163.66 449.303 156.9C449.389 152.144 445.429 149.705 440.845 146.881C436.323 144.095 431.196 140.938 430.477 134.869C429.625 127.679 434.911 121.685 439.157 116.869C441.48 114.235 443.675 111.746 444.255 109.724C444.407 109.194 444.961 108.887 445.491 109.038C446.022 109.19 446.329 109.744 446.177 110.275C445.473 112.731 443.241 115.261 440.657 118.192C436.467 122.944 431.717 128.33 432.464 134.633C433.069 139.741 437.356 142.382 441.895 145.177C446.573 148.059 451.41 151.038 451.304 156.935C451.159 164.974 443.584 168.307 436.902 171.248C431.196 173.758 425.806 176.13 425.214 180.874C425.149 181.381 424.718 181.751 424.221 181.751Z" fill="#FDE1A7"/>
<path d="M418.805 144.626C418.568 144.626 418.334 144.514 418.189 144.305C412.712 136.447 415.484 129.002 417.714 126.163C417.971 125.837 418.442 125.78 418.767 126.037C419.093 126.293 419.15 126.765 418.894 127.09C418.836 127.163 413.203 134.528 419.419 143.448C419.656 143.788 419.572 144.255 419.232 144.492C419.102 144.583 418.952 144.626 418.805 144.626Z" fill="#FDE1A7"/>
<path d="M294.805 85.75C294.568 85.75 294.334 85.638 294.189 85.429C288.712 77.571 291.484 70.126 293.714 67.287C293.971 66.961 294.442 66.904 294.767 67.161C295.093 67.417 295.15 67.889 294.894 68.214C294.836 68.287 289.203 75.652 295.419 84.572C295.656 84.912 295.572 85.379 295.232 85.616C295.102 85.707 294.952 85.75 294.805 85.75Z" fill="#FDE1A7"/>
<path d="M375.001 247.355C374.67 247.355 374.346 247.191 374.155 246.89C373.86 246.424 373.998 245.806 374.464 245.51C377.355 243.677 382.437 243.181 388.322 242.606C393.272 242.123 398.882 241.575 403.416 240.084C410.818 237.65 418.955 232.399 419.591 224.959C420.007 220.102 417.725 217.781 415.31 215.325C413.273 213.254 411.167 211.113 411 207.527C410.567 198.221 425.321 191.377 425.95 191.09C426.45 190.861 427.045 191.082 427.275 191.585C427.504 192.087 427.283 192.68 426.78 192.91C421.884 195.145 412.701 201.057 412.998 207.434C413.129 210.256 414.8 211.955 416.735 213.923C419.239 216.469 422.077 219.355 421.584 225.129C420.864 233.541 412.05 239.352 404.041 241.984C399.297 243.544 393.57 244.103 388.517 244.596C383.121 245.123 378.023 245.621 375.536 247.2C375.37 247.305 375.184 247.355 375.001 247.355Z" fill="#FDE1A7"/>
<path d="M263.001 118.355C262.67 118.355 262.346 118.191 262.155 117.89C261.86 117.424 261.998 116.806 262.464 116.51C265.355 114.677 270.437 114.181 276.322 113.606C281.272 113.123 286.882 112.575 291.416 111.084C298.818 108.65 306.955 103.399 307.591 95.9594C308.007 91.1024 305.725 88.7814 303.31 86.3254C301.273 84.2544 299.167 82.1134 299 78.5274C298.567 69.2214 313.321 62.3774 313.95 62.0904C314.45 61.8614 315.045 62.0824 315.275 62.5854C315.504 63.0874 315.283 63.6804 314.78 63.9104C309.884 66.1454 300.701 72.0574 300.998 78.4344C301.129 81.2564 302.8 82.9554 304.735 84.9234C307.239 87.4694 310.077 90.3554 309.584 96.1294C308.864 104.541 300.05 110.352 292.041 112.984C287.297 114.544 281.57 115.103 276.517 115.596C271.121 116.123 266.023 116.621 263.536 118.2C263.37 118.305 263.184 118.355 263.001 118.355Z" fill="#FDE1A7"/>
<path d="M405.001 207.875C404.963 207.875 404.926 207.873 404.888 207.869C404.339 207.807 403.945 207.312 404.006 206.764C405.283 195.4 413.454 190.834 416.495 190.034C417.029 189.892 417.577 190.213 417.717 190.747C417.857 191.281 417.538 191.828 417.004 191.969C414.512 192.625 407.139 196.792 405.993 206.989C405.937 207.498 405.503 207.875 405.001 207.875Z" fill="#FDE1A7"/>
<path d="M241.142 325.263C238.31 325.263 231.213 323.966 215.753 315.118C213.723 313.956 211.663 312.758 209.572 311.542C188.927 299.536 165.53 285.936 138.669 288.246C118.773 289.964 109.327 301.684 106.223 305.536C105.919 305.912 105.679 306.211 105.497 306.414C105.13 306.827 104.498 306.865 104.085 306.497C103.672 306.131 103.635 305.498 104.002 305.086C104.168 304.899 104.388 304.626 104.666 304.281C107.902 300.264 117.752 288.045 138.498 286.254C165.983 283.87 189.676 297.658 210.579 309.814C212.665 311.027 214.721 312.223 216.747 313.382C236.455 324.66 241.971 323.196 242.024 323.182C242.538 323.025 243.101 323.301 243.275 323.811C243.449 324.32 243.206 324.87 242.704 325.062C242.557 325.118 242.087 325.263 241.142 325.263Z" fill="#FDE1A7"/>
<path d="M101.083 292C100.918 292 100.753 291.946 100.615 291.836C100.292 291.577 100.24 291.105 100.498 290.781C103.235 287.359 111.168 279.525 125.729 280.752C126.142 280.787 126.448 281.149 126.414 281.562C126.379 281.975 126.009 282.28 125.604 282.247C111.773 281.088 104.257 288.484 101.669 291.718C101.521 291.903 101.303 292 101.083 292Z" fill="#FDE1A7"/>
<path d="M86.3894 350C85.8684 350 85.4294 349.597 85.3924 349.069C84.1034 330.514 86.2634 314.173 87.9274 308.23C88.0764 307.698 88.6294 307.387 89.1594 307.537C89.6914 307.685 90.0014 308.238 89.8524 308.769C88.2254 314.582 86.1164 330.626 87.3874 348.93C87.4254 349.481 87.0104 349.958 86.4594 349.997C86.4364 349.999 86.4124 350 86.3894 350Z" fill="#FDE1A7"/>
<path d="M85.4113 389.655C85.2823 389.655 85.1503 389.63 85.0233 389.577C84.6953 389.438 76.9843 386.128 76.1173 380.576C75.5483 376.935 77.1523 374.606 78.7033 372.354C79.6243 371.017 80.5773 369.635 81.1383 367.914C83.2783 361.355 78.7123 357.752 76.7723 356.918C76.2653 356.699 76.0313 356.111 76.2493 355.604C76.4663 355.097 77.0553 354.865 77.5633 355.081C79.9693 356.117 85.6443 360.553 83.0403 368.536C82.3893 370.532 81.3063 372.103 80.3513 373.49C78.8403 375.682 77.6473 377.415 78.0933 380.268C78.7893 384.717 85.7323 387.705 85.8013 387.735C86.3093 387.95 86.5483 388.537 86.3333 389.045C86.1713 389.426 85.8003 389.655 85.4113 389.655Z" fill="#FDE1A7"/>
<path d="M90.1263 375.221C89.9463 375.221 89.7663 375.157 89.6233 375.027C89.3163 374.75 89.2923 374.275 89.5703 373.968C92.0513 371.225 92.2463 368.22 91.9723 366.183C91.5623 363.132 89.9863 360.871 88.9983 360.241C88.6493 360.018 88.5463 359.554 88.7693 359.206C88.9923 358.856 89.4563 358.754 89.8053 358.977C91.2433 359.894 93.0133 362.662 93.4593 365.983C93.7753 368.336 93.5503 371.805 90.6833 374.974C90.5343 375.138 90.3303 375.221 90.1263 375.221Z" fill="#FDE1A7"/>
<defs>
<linearGradient id="paint0_linear" x1="139.745" y1="62.3754" x2="644.992" y2="567.623" gradientUnits="userSpaceOnUse">
<stop stop-color="#071832"/>
<stop offset="0.21875" stop-color="#38294E"/>
</linearGradient>
<radialGradient id="paint1_radial" cx="0" cy="0" r="1" gradientUnits="userSpaceOnUse" gradientTransform="translate(554.794 518.454) rotate(5.24423) scale(136.953 69.865)">
<stop stop-color="white" stop-opacity="0.3"/>
<stop offset="0.292" stop-color="#FDFDFE" stop-opacity="0.2124"/>
<stop offset="0.4342" stop-color="#F5F8FB" stop-opacity="0.1697"/>
<stop offset="0.5439" stop-color="#E8EEF6" stop-opacity="0.1368"/>
<stop offset="0.6372" stop-color="#D6DFEF" stop-opacity="0.1089"/>
<stop offset="0.7198" stop-color="#BDCDE6" stop-opacity="0.0841"/>
<stop offset="0.7951" stop-color="#A0B6DB" stop-opacity="0.0615"/>
<stop offset="0.8647" stop-color="#7C9BCE" stop-opacity="0.0406"/>
<stop offset="0.9299" stop-color="#537CBE" stop-opacity="0.021"/>
<stop offset="0.9892" stop-color="#265AAD" stop-opacity="0.01"/>
<stop offset="1" stop-color="#1D53AA" stop-opacity="0"/>
</radialGradient>
<radialGradient id="paint2_radial" cx="0" cy="0" r="1" gradientUnits="userSpaceOnUse" gradientTransform="translate(716.7 253.657) scale(34.665)">
<stop stop-color="white" stop-opacity="0.25"/>
<stop offset="0.2938" stop-color="#FDFDFE" stop-opacity="0.1766"/>
<stop offset="0.4368" stop-color="#F6F5FA" stop-opacity="0.1408"/>
<stop offset="0.5472" stop-color="#EAE8F2" stop-opacity="0.1132"/>
<stop offset="0.6409" stop-color="#D9D6E8" stop-opacity="0.0898"/>
<stop offset="0.7241" stop-color="#C3BDDA" stop-opacity="0.069"/>
<stop offset="0.7998" stop-color="#A8A0CA" stop-opacity="0.0501"/>
<stop offset="0.8697" stop-color="#887CB6" stop-opacity="0.0326"/>
<stop offset="0.9348" stop-color="#63549F" stop-opacity="0.0163"/>
<stop offset="0.9946" stop-color="#3A2685" stop-opacity="0.01"/>
<stop offset="1" stop-color="#362283" stop-opacity="0"/>
</radialGradient>
<radialGradient id="paint3_radial" cx="0" cy="0" r="1" gradientUnits="userSpaceOnUse" gradientTransform="translate(57.3335 233.666) scale(34.3335)">
<stop stop-color="white" stop-opacity="0.25"/>
<stop offset="0.3207" stop-color="#FDFDFF" stop-opacity="0.1698"/>
<stop offset="0.4767" stop-color="#F6F5FD" stop-opacity="0.1308"/>
<stop offset="0.5972" stop-color="#E9E8FA" stop-opacity="0.1007"/>
<stop offset="0.6995" stop-color="#D8D6F6" stop-opacity="0.0751"/>
<stop offset="0.7902" stop-color="#C1BDF1" stop-opacity="0.0524"/>
<stop offset="0.8728" stop-color="#A5A0EB" stop-opacity="0.0318"/>
<stop offset="0.9475" stop-color="#847DE4" stop-opacity="0.0131"/>
<stop offset="1" stop-color="#6860DE" stop-opacity="0"/>
</radialGradient>
<linearGradient id="paint4_linear" x1="41.5415" y1="217.874" x2="73.1258" y2="249.459" gradientUnits="userSpaceOnUse">
<stop stop-color="#FFE2A8"/>
<stop offset="1" stop-color="#271068"/>
</linearGradient>
<linearGradient id="paint5_linear" x1="41.5415" y1="217.874" x2="73.1258" y2="249.459" gradientUnits="userSpaceOnUse">
<stop stop-color="#FFE2A8"/>
<stop offset="1" stop-color="#A482FF"/>
</linearGradient>
<linearGradient id="paint6_linear" x1="699.73" y1="236.687" x2="733.672" y2="270.628" gradientUnits="userSpaceOnUse">
<stop stop-color="#8C6AE2"/>
<stop offset="1" stop-color="#5A55F8"/>
</linearGradient>
<linearGradient id="paint7_linear" x1="484.927" y1="494.98" x2="653.282" y2="494.98" gradientUnits="userSpaceOnUse">
<stop stop-color="#005092"/>
<stop offset="1" stop-color="#8C6AE2"/>
</linearGradient>
<linearGradient id="paint8_linear" x1="567.739" y1="496.249" x2="653.282" y2="496.249" gradientUnits="userSpaceOnUse">
<stop stop-color="#1AA9E8"/>
<stop offset="1" stop-color="#005092"/>
</linearGradient>
<linearGradient id="paint9_linear" x1="484.927" y1="487.285" x2="558.089" y2="487.285" gradientUnits="userSpaceOnUse">
<stop stop-color="#005092"/>
<stop offset="1" stop-color="#1AA9E8"/>
</linearGradient>
<linearGradient id="paint10_linear" x1="707.951" y1="262.406" x2="722.903" y2="247.454" gradientUnits="userSpaceOnUse">
<stop stop-color="#FFE2A8"/>
<stop offset="1" stop-color="#745B7F"/>
</linearGradient>
<radialGradient id="paint11_radial" cx="0" cy="0" r="1" gradientUnits="userSpaceOnUse" gradientTransform="translate(711.177 421.48) rotate(89.5817) scale(14.5052 13.5014)">
<stop stop-color="#231F20"/>
<stop offset="0.1018" stop-color="#262228"/>
<stop offset="0.2637" stop-color="#2F2A3F"/>
<stop offset="0.4653" stop-color="#3D3865"/>
<stop offset="0.6989" stop-color="#504A99"/>
<stop offset="0.9564" stop-color="#6962DB"/>
<stop offset="1" stop-color="#6D66E7"/>
</radialGradient>
<linearGradient id="paint12_linear" x1="655.498" y1="444.337" x2="655.498" y2="401.671" gradientUnits="userSpaceOnUse">
<stop stop-color="#1AA9E8"/>
<stop offset="1" stop-color="#B0E1FF"/>
</linearGradient>
<linearGradient id="paint13_linear" x1="690.918" y1="389.463" x2="707.561" y2="406.106" gradientUnits="userSpaceOnUse">
<stop stop-color="#B0E1FF"/>
<stop offset="1" stop-color="#1AA9E8"/>
</linearGradient>
<linearGradient id="paint14_linear" x1="679.688" y1="421.398" x2="713.982" y2="455.692" gradientUnits="userSpaceOnUse">
<stop stop-color="#B0E1FF"/>
<stop offset="1" stop-color="#1AA9E8"/>
</linearGradient>
<linearGradient id="paint15_linear" x1="607.904" y1="438.978" x2="607.904" y2="417.77" gradientUnits="userSpaceOnUse">
<stop stop-color="#6D66E7"/>
<stop offset="0.0436" stop-color="#6962DB"/>
<stop offset="0.3011" stop-color="#504A99"/>
<stop offset="0.5347" stop-color="#3D3865"/>
<stop offset="0.7363" stop-color="#2F2A3F"/>
<stop offset="0.8982" stop-color="#262228"/>
<stop offset="1" stop-color="#231F20"/>
</linearGradient>
<linearGradient id="paint16_linear" x1="622.593" y1="400.894" x2="643.657" y2="413.055" gradientUnits="userSpaceOnUse">
<stop stop-color="#6D66E7"/>
<stop offset="0.0436" stop-color="#6962DB"/>
<stop offset="0.3011" stop-color="#504A99"/>
<stop offset="0.5347" stop-color="#3D3865"/>
<stop offset="0.7363" stop-color="#2F2A3F"/>
<stop offset="0.8982" stop-color="#262228"/>
<stop offset="1" stop-color="#231F20"/>
</linearGradient>
<radialGradient id="paint17_radial" cx="0" cy="0" r="1" gradientUnits="userSpaceOnUse" gradientTransform="translate(651.125 418.709) scale(7.0295)">
<stop stop-color="#231F20"/>
<stop offset="0.1018" stop-color="#262228"/>
<stop offset="0.2637" stop-color="#2F2A3F"/>
<stop offset="0.4653" stop-color="#3D3865"/>
<stop offset="0.6989" stop-color="#504A99"/>
<stop offset="0.9564" stop-color="#6962DB"/>
<stop offset="1" stop-color="#6D66E7"/>
</radialGradient>
<radialGradient id="paint18_radial" cx="0" cy="0" r="1" gradientUnits="userSpaceOnUse" gradientTransform="translate(664.521 418.168) scale(7.104)">
<stop stop-color="#231F20"/>
<stop offset="0.1018" stop-color="#262228"/>
<stop offset="0.2637" stop-color="#2F2A3F"/>
<stop offset="0.4653" stop-color="#3D3865"/>
<stop offset="0.6989" stop-color="#504A99"/>
<stop offset="0.9564" stop-color="#6962DB"/>
<stop offset="1" stop-color="#6D66E7"/>
</radialGradient>
<radialGradient id="paint19_radial" cx="0" cy="0" r="1" gradientUnits="userSpaceOnUse" gradientTransform="translate(677.063 417.668) scale(7.02418)">
<stop stop-color="#231F20"/>
<stop offset="0.1018" stop-color="#262228"/>
<stop offset="0.2637" stop-color="#2F2A3F"/>
<stop offset="0.4653" stop-color="#3D3865"/>
<stop offset="0.6989" stop-color="#504A99"/>
<stop offset="0.9564" stop-color="#6962DB"/>
<stop offset="1" stop-color="#6D66E7"/>
</radialGradient>
<linearGradient id="paint20_linear" x1="606.25" y1="195.576" x2="652.169" y2="195.576" gradientUnits="userSpaceOnUse">
<stop stop-color="#FFE2A8"/>
<stop offset="1" stop-color="#728390"/>
</linearGradient>
<linearGradient id="paint21_linear" x1="559.491" y1="175.847" x2="581.64" y2="175.847" gradientUnits="userSpaceOnUse">
<stop stop-color="#A281FF"/>
<stop offset="1" stop-color="#FF57BD"/>
</linearGradient>
<linearGradient id="paint22_linear" x1="565.851" y1="265.114" x2="600.971" y2="265.114" gradientUnits="userSpaceOnUse">
<stop stop-color="#FF57BD"/>
<stop offset="1" stop-color="#FE6A77"/>
</linearGradient>
<linearGradient id="paint23_linear" x1="588.803" y1="282.288" x2="610.155" y2="282.288" gradientUnits="userSpaceOnUse">
<stop stop-color="#C5188E"/>
<stop offset="1" stop-color="#9F36AD"/>
</linearGradient>
<linearGradient id="paint24_linear" x1="501.096" y1="211.669" x2="520.726" y2="211.669" gradientUnits="userSpaceOnUse">
<stop stop-color="#FF57BD"/>
<stop offset="1" stop-color="#FE6A77"/>
</linearGradient>
<linearGradient id="paint25_linear" x1="476.921" y1="211.599" x2="502.422" y2="211.599" gradientUnits="userSpaceOnUse">
<stop stop-color="#C5188E"/>
<stop offset="1" stop-color="#9F36AD"/>
</linearGradient>
<linearGradient id="paint26_linear" x1="524.596" y1="239.416" x2="617.671" y2="205.539" gradientUnits="userSpaceOnUse">
<stop stop-color="#05C5DA"/>
<stop offset="1" stop-color="#5860C4"/>
</linearGradient>
<linearGradient id="paint27_linear" x1="596.593" y1="246.872" x2="635.825" y2="246.872" gradientUnits="userSpaceOnUse">
<stop stop-color="#00E2EC"/>
<stop offset="1" stop-color="#0090B2"/>
</linearGradient>
<linearGradient id="paint28_linear" x1="618.98" y1="276.875" x2="643.022" y2="276.875" gradientUnits="userSpaceOnUse">
<stop stop-color="#A281FF"/>
<stop offset="1" stop-color="#FF57BD"/>
</linearGradient>
<linearGradient id="paint29_linear" x1="541.882" y1="205.469" x2="563.397" y2="226.984" gradientUnits="userSpaceOnUse">
<stop stop-color="#00E2EC"/>
<stop offset="1" stop-color="#0090B2"/>
</linearGradient>
<linearGradient id="paint30_linear" x1="506.983" y1="233.034" x2="540.153" y2="233.034" gradientUnits="userSpaceOnUse">
<stop stop-color="#A281FF"/>
<stop offset="1" stop-color="#FF57BD"/>
</linearGradient>
<linearGradient id="paint31_linear" x1="494.257" y1="170.859" x2="513.004" y2="170.859" gradientUnits="userSpaceOnUse">
<stop stop-color="#9F36AD"/>
<stop offset="0.1071" stop-color="#8D3399"/>
<stop offset="0.4036" stop-color="#602A65"/>
<stop offset="0.662" stop-color="#3F243F"/>
<stop offset="0.8695" stop-color="#2A2028"/>
<stop offset="1" stop-color="#231F20"/>
</linearGradient>
<linearGradient id="paint32_linear" x1="513.99" y1="131.562" x2="525.798" y2="143.37" gradientUnits="userSpaceOnUse">
<stop stop-color="#FFE2A8"/>
<stop offset="1" stop-color="#728390"/>
</linearGradient>
<linearGradient id="paint33_linear" x1="498.057" y1="131.024" x2="552.603" y2="185.57" gradientUnits="userSpaceOnUse">
<stop stop-color="#FFE2A8"/>
<stop offset="1" stop-color="#728390"/>
</linearGradient>
<linearGradient id="paint34_linear" x1="480.14" y1="152.29" x2="490.669" y2="152.29" gradientUnits="userSpaceOnUse">
<stop stop-color="#653271"/>
<stop offset="0.1129" stop-color="#5B2F65"/>
<stop offset="0.496" stop-color="#3D263F"/>
<stop offset="0.8053" stop-color="#2A2128"/>
<stop offset="1" stop-color="#231F20"/>
</linearGradient>
<radialGradient id="paint35_radial" cx="0" cy="0" r="1" gradientUnits="userSpaceOnUse" gradientTransform="translate(518.571 152.469) scale(44.5061)">
<stop stop-color="#4E40AF" stop-opacity="0"/>
<stop offset="0.1096" stop-color="#5446B2" stop-opacity="0.0438"/>
<stop offset="0.2617" stop-color="#6558B9" stop-opacity="0.1047"/>
<stop offset="0.4387" stop-color="#8076C6" stop-opacity="0.1755"/>
<stop offset="0.6345" stop-color="#A69FD7" stop-opacity="0.2538"/>
<stop offset="0.8432" stop-color="#D6D3ED" stop-opacity="0.3373"/>
<stop offset="1" stop-color="white" stop-opacity="0.4"/>
</radialGradient>
<linearGradient id="paint36_linear" x1="511.66" y1="190.884" x2="559.077" y2="190.884" gradientUnits="userSpaceOnUse">
<stop stop-color="#FF57BD"/>
<stop offset="1" stop-color="#FE6A77"/>
</linearGradient>
<linearGradient id="paint37_linear" x1="551.336" y1="155.521" x2="563.066" y2="155.521" gradientUnits="userSpaceOnUse">
<stop stop-color="#05C5DA"/>
<stop offset="1" stop-color="#0090B2"/>
</linearGradient>
<linearGradient id="paint38_linear" x1="140.805" y1="235.453" x2="165.948" y2="235.453" gradientUnits="userSpaceOnUse">
<stop stop-color="#05C5DA"/>
<stop offset="1" stop-color="#5860C4"/>
</linearGradient>
<linearGradient id="paint39_linear" x1="483.316" y1="417.874" x2="554.359" y2="417.874" gradientUnits="userSpaceOnUse">
<stop stop-color="#05C5DA"/>
<stop offset="1" stop-color="#5860C4"/>
</linearGradient>
<linearGradient id="paint40_linear" x1="391.166" y1="367.775" x2="514.125" y2="367.775" gradientUnits="userSpaceOnUse">
<stop stop-color="#FF57BD"/>
<stop offset="1" stop-color="#FE6A77"/>
</linearGradient>
<linearGradient id="paint41_linear" x1="308.256" y1="186.674" x2="308.256" y2="243.388" gradientUnits="userSpaceOnUse">
<stop stop-color="#FE6A77"/>
<stop offset="1" stop-color="#C91C91"/>
</linearGradient>
<linearGradient id="paint42_linear" x1="353.495" y1="218.555" x2="373.645" y2="218.555" gradientUnits="userSpaceOnUse">
<stop stop-color="#05C5DA"/>
<stop offset="1" stop-color="#5860C4"/>
</linearGradient>
<linearGradient id="paint43_linear" x1="310.499" y1="203.059" x2="373.965" y2="203.059" gradientUnits="userSpaceOnUse">
<stop stop-color="#FF57BD"/>
<stop offset="1" stop-color="#FE6A77"/>
</linearGradient>
<linearGradient id="paint44_linear" x1="353.501" y1="213.727" x2="373.965" y2="213.727" gradientUnits="userSpaceOnUse">
<stop stop-color="#05C5DA"/>
<stop offset="1" stop-color="#0090B2"/>
</linearGradient>
<linearGradient id="paint45_linear" x1="271.944" y1="165.147" x2="333.242" y2="165.147" gradientUnits="userSpaceOnUse">
<stop stop-color="#00E2EC"/>
<stop offset="1" stop-color="#0090B2"/>
</linearGradient>
<linearGradient id="paint46_linear" x1="223.355" y1="339.338" x2="345.409" y2="236.922" gradientUnits="userSpaceOnUse">
<stop stop-color="#FE6A77"/>
<stop offset="1" stop-color="#FF57BD"/>
</linearGradient>
<linearGradient id="paint47_linear" x1="260.006" y1="285.042" x2="328.167" y2="227.848" gradientUnits="userSpaceOnUse">
<stop stop-color="#C5188E"/>
<stop offset="1" stop-color="#FF57BD"/>
</linearGradient>
<linearGradient id="paint48_linear" x1="314.881" y1="347.605" x2="510.134" y2="347.605" gradientUnits="userSpaceOnUse">
<stop stop-color="#C91C91"/>
<stop offset="1" stop-color="#FE6A77"/>
</linearGradient>
<linearGradient id="paint49_linear" x1="393.5" y1="303.349" x2="448.888" y2="303.349" gradientUnits="userSpaceOnUse">
<stop stop-color="#00E2EC"/>
<stop offset="1" stop-color="#0090B2"/>
</linearGradient>
<linearGradient id="paint50_linear" x1="502.047" y1="328.01" x2="572.203" y2="328.01" gradientUnits="userSpaceOnUse">
<stop stop-color="#00E2EC"/>
<stop offset="1" stop-color="#0090B2"/>
</linearGradient>
<linearGradient id="paint51_linear" x1="148.761" y1="313.01" x2="226.32" y2="313.01" gradientUnits="userSpaceOnUse">
<stop stop-color="#FE6A77"/>
<stop offset="1" stop-color="#C91C91"/>
</linearGradient>
<linearGradient id="paint52_linear" x1="148.828" y1="338.255" x2="170.246" y2="338.255" gradientUnits="userSpaceOnUse">
<stop stop-color="#00E2EC"/>
<stop offset="1" stop-color="#0090B2"/>
</linearGradient>
<linearGradient id="paint53_linear" x1="187.173" y1="420.772" x2="234.501" y2="420.772" gradientUnits="userSpaceOnUse">
<stop stop-color="#00E2EC"/>
<stop offset="1" stop-color="#0090B2"/>
</linearGradient>
<linearGradient id="paint54_linear" x1="206.239" y1="187.807" x2="211.833" y2="219.535" gradientUnits="userSpaceOnUse">
<stop stop-color="#C16846"/>
<stop offset="0.2653" stop-color="#D27565"/>
<stop offset="0.5308" stop-color="#DE7F7B"/>
<stop offset="0.7814" stop-color="#E58589"/>
<stop offset="1" stop-color="#E8878E"/>
</linearGradient>
<linearGradient id="paint55_linear" x1="173.77" y1="192.776" x2="211.693" y2="160.955" gradientUnits="userSpaceOnUse">
<stop stop-color="#E8878E"/>
<stop offset="1" stop-color="#F4BEA3"/>
</linearGradient>
<linearGradient id="paint56_linear" x1="199.482" y1="170.167" x2="211.045" y2="170.167" gradientUnits="userSpaceOnUse">
<stop stop-color="#FF57BD"/>
<stop offset="1" stop-color="#FE6A77"/>
</linearGradient>
<linearGradient id="paint57_linear" x1="160.463" y1="161.615" x2="207.06" y2="161.615" gradientUnits="userSpaceOnUse">
<stop stop-color="#994574"/>
<stop offset="1" stop-color="#43256F"/>
</linearGradient>
<radialGradient id="paint58_radial" cx="0" cy="0" r="1" gradientUnits="userSpaceOnUse" gradientTransform="translate(188.767 172.891) scale(47.0205)">
<stop stop-color="#635AD5" stop-opacity="0"/>
<stop offset="0.1205" stop-color="#6960D7" stop-opacity="0.0482"/>
<stop offset="0.2878" stop-color="#7A72DB" stop-opacity="0.1151"/>
<stop offset="0.4824" stop-color="#9690E3" stop-opacity="0.193"/>
<stop offset="0.6977" stop-color="#BDB9ED" stop-opacity="0.2791"/>
<stop offset="0.9273" stop-color="#EEEDFA" stop-opacity="0.3709"/>
<stop offset="1" stop-color="white" stop-opacity="0.4"/>
</radialGradient>
<linearGradient id="paint59_linear" x1="141.881" y1="174.72" x2="217.764" y2="174.72" gradientUnits="userSpaceOnUse">
<stop stop-color="#00E2EC"/>
<stop offset="1" stop-color="#0090B2"/>
</linearGradient>
<linearGradient id="paint60_linear" x1="153.952" y1="204.631" x2="164.966" y2="195.389" gradientUnits="userSpaceOnUse">
<stop stop-color="#A281FF"/>
<stop offset="0.0945" stop-color="#B17AF5"/>
<stop offset="0.3504" stop-color="#D36BDD"/>
<stop offset="0.5934" stop-color="#EB60CB"/>
<stop offset="0.8163" stop-color="#FA59C1"/>
<stop offset="1" stop-color="#FF57BD"/>
</linearGradient>
<linearGradient id="paint61_linear" x1="172.908" y1="212.575" x2="249.871" y2="212.575" gradientUnits="userSpaceOnUse">
<stop stop-color="#00E2EC"/>
<stop offset="1" stop-color="#0090B2"/>
</linearGradient>
<linearGradient id="paint62_linear" x1="268.793" y1="143.099" x2="297.719" y2="143.099" gradientUnits="userSpaceOnUse">
<stop stop-color="#653271"/>
<stop offset="0.1129" stop-color="#5B2F65"/>
<stop offset="0.496" stop-color="#3D263F"/>
<stop offset="0.8053" stop-color="#2A2128"/>
<stop offset="1" stop-color="#231F20"/>
</linearGradient>
<linearGradient id="paint63_linear" x1="270.493" y1="129.574" x2="295.69" y2="154.772" gradientUnits="userSpaceOnUse">
<stop stop-color="#84DBF1"/>
<stop offset="1" stop-color="#FFE2A8"/>
</linearGradient>
</defs>
</svg>
