<svg width="688" height="737" viewBox="0 0 688 737" fill="none" xmlns="http://www.w3.org/2000/svg">
<path d="M431 0.500926C492 1.50093 578.5 26.5009 602 88.5009C627.262 155.147 624.275 169.401 665.5 242.001C706.668 314.499 684.668 416.499 640.668 459.832C578.344 521.211 524.162 505.977 413.5 505.501C336 505.168 249.401 561.368 205.5 576.001C176 585.834 113 596.501 73 555.501C28.829 510.226 38.667 426.501 31 394.501C22.969 360.98 -30.214 242.455 27 150.001C96 38.5009 249.98 -2.46707 431 0.500926Z" fill="url(#paint0_linear)"/>
<path d="M522.447 674.408C544.465 670.412 626.004 654.087 629.668 687.168C632.75 715.001 566.639 712.675 535 711.168C494.75 709.251 412.617 718.016 409.523 701.341C407.668 691.334 432.168 686.001 457.453 684.508C478.24 683.28 490.199 680.261 522.447 674.408Z" fill="url(#paint1_linear)"/>
<path d="M153.14 699.547C133.001 697.274 47.825 684.186 52 717.168C55.333 743.502 118.169 733.201 146.667 735.502C186.917 738.752 255.634 734.475 256.982 717.621C257.791 707.508 235.305 704.095 212.442 704.568C193.648 704.957 182.636 702.877 153.14 699.547Z" fill="url(#paint2_linear)"/>
<path d="M280.792 419.294C280.792 418.252 281.637 417.407 282.679 417.407H303.906C304.948 417.407 305.793 418.252 305.793 419.294V440.521C305.793 441.563 304.948 442.408 303.906 442.408H282.679C281.637 442.408 280.792 441.563 280.792 440.521V419.294Z" fill="url(#paint3_linear)"/>
<path d="M292.417 437.22C292.106 437.22 291.813 437.075 291.623 436.827L285.498 428.827C285.162 428.389 285.246 427.762 285.684 427.426C286.121 427.091 286.75 427.172 287.086 427.613L292.333 434.466L299.443 423.067C299.736 422.598 300.353 422.457 300.821 422.748C301.29 423.04 301.432 423.657 301.14 424.126L293.265 436.751C293.091 437.029 292.792 437.205 292.464 437.221C292.449 437.22 292.433 437.22 292.417 437.22Z" fill="#FDE1A7"/>
<path d="M280.792 456.153C280.792 455.111 281.637 454.266 282.679 454.266H303.906C304.948 454.266 305.793 455.111 305.793 456.153V477.38C305.793 478.422 304.948 479.267 303.906 479.267H282.679C281.637 479.267 280.792 478.422 280.792 477.38V456.153Z" fill="url(#paint4_linear)"/>
<path d="M292.417 474.079C292.106 474.079 291.813 473.934 291.623 473.686L285.498 465.686C285.162 465.248 285.246 464.621 285.684 464.285C286.121 463.95 286.75 464.031 287.086 464.472L292.333 471.325L299.443 459.926C299.736 459.458 300.353 459.315 300.821 459.607C301.29 459.899 301.432 460.516 301.14 460.985L293.265 473.61C293.091 473.888 292.792 474.064 292.464 474.08C292.449 474.079 292.433 474.079 292.417 474.079Z" fill="#FDE1A7"/>
<path d="M280.792 493.013C280.792 491.971 281.637 491.126 282.679 491.126H303.906C304.948 491.126 305.793 491.971 305.793 493.013V514.24C305.793 515.282 304.948 516.127 303.906 516.127H282.679C281.637 516.127 280.792 515.282 280.792 514.24V493.013Z" fill="url(#paint5_linear)"/>
<path d="M292.417 510.938C292.106 510.938 291.813 510.793 291.623 510.545L285.498 502.545C285.162 502.107 285.246 501.48 285.684 501.144C286.121 500.809 286.75 500.89 287.086 501.331L292.333 508.184L299.443 496.785C299.736 496.316 300.353 496.174 300.821 496.466C301.29 496.758 301.432 497.375 301.14 497.844L293.265 510.469C293.091 510.747 292.792 510.923 292.464 510.939C292.449 510.938 292.433 510.938 292.417 510.938Z" fill="#FDE1A7"/>
<path d="M382.063 278.876H240.813V404.751H382.063V278.876Z" fill="url(#paint6_linear)"/>
<path d="M308.105 289.584H255.188V294.584H308.105V289.584Z" fill="url(#paint7_linear)"/>
<path d="M367.688 296.001C367.688 294.897 366.793 294.001 365.688 294.001H353.688C352.584 294.001 351.688 294.897 351.688 296.001V391.001H367.688V296.001Z" fill="url(#paint8_linear)"/>
<path d="M367.688 332.168V296.001C367.688 294.897 366.793 294.001 365.688 294.001H353.688C352.584 294.001 351.688 294.897 351.688 296.001V332.168H367.688Z" fill="url(#paint9_linear)"/>
<path d="M319.438 317.251C319.438 316.147 318.542 315.251 317.438 315.251H305.438C304.334 315.251 303.438 316.147 303.438 317.251V391.001H319.438V317.251Z" fill="url(#paint10_linear)"/>
<path d="M319.438 359.834V317.251C319.438 316.147 318.542 315.251 317.438 315.251H305.438C304.334 315.251 303.438 316.147 303.438 317.251V359.834H319.438Z" fill="url(#paint11_linear)"/>
<path d="M343.563 331.251C343.563 330.147 342.667 329.251 341.563 329.251H329.563C328.459 329.251 327.563 330.147 327.563 331.251V391.001H343.563V331.251Z" fill="url(#paint12_linear)"/>
<path d="M343.563 359.834V331.251C343.563 330.147 342.667 329.251 341.563 329.251H329.563C328.459 329.251 327.563 330.147 327.563 331.251V359.834H343.563Z" fill="url(#paint13_linear)"/>
<path d="M295.313 303.751C295.313 302.647 294.417 301.751 293.313 301.751H281.313C280.209 301.751 279.313 302.647 279.313 303.751V391.001H295.313V303.751Z" fill="url(#paint14_linear)"/>
<path d="M295.313 334.668V303.751C295.313 302.647 294.417 301.751 293.313 301.751H281.313C280.209 301.751 279.313 302.647 279.313 303.751V334.668H295.313Z" fill="url(#paint15_linear)"/>
<path d="M271.188 347.751C271.188 346.647 270.292 345.751 269.188 345.751H257.188C256.084 345.751 255.188 346.647 255.188 347.751V391.001H271.188V347.751Z" fill="url(#paint16_linear)"/>
<path d="M271.188 373.001V347.751C271.188 346.647 270.292 345.751 269.188 345.751H257.188C256.084 345.751 255.188 346.647 255.188 347.751V373.001H271.188Z" fill="url(#paint17_linear)"/>
<path d="M367.688 392.001H255.438C254.886 392.001 254.438 391.554 254.438 391.001C254.438 390.448 254.886 390.001 255.438 390.001H367.688C368.241 390.001 368.688 390.448 368.688 391.001C368.688 391.554 368.24 392.001 367.688 392.001Z" fill="#1AA9E8"/>
<path d="M193.25 90.001H51.5V174.251H193.25V90.001Z" fill="url(#paint18_linear)"/>
<path d="M70.81 161.751H112.167V109.168L70.81 161.751Z" fill="#00E2EC"/>
<path d="M150.5 149.001V161.751H176V118.668L150.5 149.001Z" fill="#00E2EC"/>
<path d="M112.167 109.168V161.751H150.5V149.001L112.167 109.168Z" fill="#0090B2"/>
<path d="M188.334 135.126L176 118.668V161.751H188.334V135.126Z" fill="#0090B2"/>
<path d="M183 101.001H128.75V106.001H183V101.001Z" fill="url(#paint19_linear)"/>
<path d="M97.386 148.344C97.052 148.344 96.725 148.177 96.536 147.872L72.876 109.825C72.584 109.356 72.728 108.739 73.197 108.448C73.666 108.156 74.282 108.3 74.574 108.769L98.234 146.816C98.526 147.285 98.382 147.902 97.913 148.193C97.749 148.295 97.566 148.344 97.386 148.344Z" fill="#1AA9E8"/>
<path d="M73.725 114.672C76.6935 114.672 79.1 112.265 79.1 109.297C79.1 106.328 76.6935 103.922 73.725 103.922C70.7564 103.922 68.35 106.328 68.35 109.297C68.35 112.265 70.7564 114.672 73.725 114.672Z" fill="#F95FC3"/>
<path d="M97.385 150.771C99.2777 150.771 100.812 149.237 100.812 147.344C100.812 145.451 99.2777 143.917 97.385 143.917C95.4923 143.917 93.958 145.451 93.958 147.344C93.958 149.237 95.4923 150.771 97.385 150.771Z" fill="white"/>
<path d="M211.03 192.86C206.475 181.491 205.029 168.725 207.571 155.813C211.308 136.838 222.873 121.398 238.248 112.178L223.861 83.9048C200.13 97.4228 182.192 120.795 176.501 149.694C172.581 169.599 175.034 189.279 182.439 206.63L211.03 192.86Z" fill="white"/>
<path d="M246.264 108.087C257.973 103.086 271.254 101.426 284.689 104.071C304.179 107.909 319.928 120.014 329.049 136.017L357.644 122.245C344.304 97.581 320.466 78.842 290.807 73.001C270.136 68.93 249.706 71.73 231.877 79.815L246.264 108.087Z" fill="white"/>
<path d="M361.553 130.352L332.963 144.122C337.525 155.497 338.974 168.27 336.43 181.19C329.422 216.773 294.895 239.939 259.312 232.931C239.813 229.091 224.06 216.978 214.94 200.966L186.346 214.738C199.683 239.41 223.526 258.158 253.193 264.001C305.936 274.388 357.113 240.051 367.5 187.309C371.422 167.395 368.965 147.707 361.553 130.352Z" fill="white"/>
<path d="M216.885 204.182C210.219 193.907 206.333 181.661 206.333 168.501C206.333 149.162 214.696 131.778 228 119.761L208.421 94.8008C187.749 112.65 174.665 139.047 174.665 168.501C174.665 188.789 180.875 207.624 191.493 223.217L216.885 204.182Z" fill="url(#paint20_linear)"/>
<path d="M235.076 114.198C245.598 107.029 258.308 102.834 272.001 102.834C291.866 102.834 309.657 111.667 321.698 125.606L347.092 106.568C329.239 84.947 302.229 71.167 272.001 71.167C250.933 71.167 231.429 77.862 215.499 89.239L235.076 114.198Z" fill="url(#paint21_linear)"/>
<path d="M352.494 113.767L327.103 132.802C333.776 143.081 337.667 155.333 337.667 168.501C337.667 204.768 308.267 234.168 272 234.168C252.127 234.168 234.33 225.328 222.288 211.379L196.894 230.416C214.747 252.047 241.763 265.834 271.999 265.834C325.755 265.834 369.332 222.256 369.332 168.5C369.334 148.206 363.119 129.363 352.494 113.767Z" fill="url(#paint22_linear)"/>
<path d="M233.931 182.813C239.723 198.21 254.579 209.168 272 209.168C284.502 209.168 295.682 203.522 303.142 194.645L272 168.501L233.931 182.813Z" fill="url(#paint23_linear)"/>
<path d="M286.424 130.476L272 168.501L303.142 194.645C309.083 187.575 312.667 178.458 312.667 168.501C312.667 151.122 301.761 136.297 286.424 130.476Z" fill="url(#paint24_linear)"/>
<path d="M286.424 130.476C281.94 128.774 277.081 127.834 272.001 127.834C249.542 127.834 231.334 146.041 231.334 168.501C231.334 173.539 232.256 178.36 233.931 182.813L272 168.501L286.424 130.476Z" fill="url(#paint25_linear)"/>
<path d="M608.195 46.876H390.111V183.501H608.195V46.876Z" fill="url(#paint26_linear)"/>
<path d="M412.193 74.6382C415.162 74.6382 417.568 72.2317 417.568 69.2632C417.568 66.2947 415.162 63.8882 412.193 63.8882C409.224 63.8882 406.818 66.2947 406.818 69.2632C406.818 72.2317 409.224 74.6382 412.193 74.6382Z" fill="#FDE1A7"/>
<path d="M441.033 74.6382C444.001 74.6382 446.408 72.2317 446.408 69.2632C446.408 66.2947 444.001 63.8882 441.033 63.8882C438.064 63.8882 435.658 66.2947 435.658 69.2632C435.658 72.2317 438.064 74.6382 441.033 74.6382Z" fill="#00E2EC"/>
<path d="M469.873 74.6382C472.842 74.6382 475.248 72.2317 475.248 69.2632C475.248 66.2947 472.842 63.8882 469.873 63.8882C466.905 63.8882 464.498 66.2947 464.498 69.2632C464.498 72.2317 466.905 74.6382 469.873 74.6382Z" fill="#C7A0F6"/>
<path d="M475.25 83.667H406.818V88.667H475.25V83.667Z" fill="url(#paint27_linear)"/>
<path d="M591.486 80.6041C588.173 74.0821 583.205 68.1041 576.152 68.3341C560.82 68.8341 550.818 108.834 540.152 109.334C529.486 109.834 533.152 69.0011 519.486 69.3341C502.32 69.7531 501.652 148.834 480.152 150.667C458.652 152.5 453.818 108.167 444.152 108.834C434.486 109.501 430.33 143.595 428.652 151.001C426.974 158.407 418.486 159.834 418.486 159.834H591.486V80.6041Z" fill="url(#paint28_linear)"/>
<path d="M591.486 80.167C567.818 81.167 562.818 144.834 538.486 143.334C518.3 142.09 521.652 107.834 503.986 106.834C486.318 105.834 477.986 147.334 456.652 148.667C446.279 149.315 437.986 142.834 428.486 143.667C418.986 144.5 409.152 157.167 406.818 159.834H591.486V80.167Z" fill="url(#paint29_linear)"/>
<path d="M359.662 29.418H271.329V57.418H359.662V29.418Z" fill="url(#paint30_linear)"/>
<path d="M351.561 48.293C348.065 48.293 346.309 46.029 344.759 44.031C343.307 42.159 342.053 40.543 339.538 40.543C337.022 40.543 335.768 42.159 334.316 44.031C332.766 46.029 331.01 48.293 327.514 48.293C324.018 48.293 322.262 46.029 320.713 44.031C319.261 42.159 318.007 40.543 315.492 40.543C312.977 40.543 311.722 42.159 310.271 44.031C308.722 46.029 306.965 48.293 303.47 48.293C299.976 48.293 298.22 46.029 296.671 44.031C295.22 42.159 293.966 40.543 291.452 40.543C288.937 40.543 287.683 42.159 286.232 44.031C284.683 46.029 282.927 48.293 279.431 48.293C278.879 48.293 278.431 47.845 278.431 47.293C278.431 46.741 278.879 46.293 279.431 46.293C281.947 46.293 283.2 44.677 284.652 42.805C286.201 40.807 287.957 38.543 291.452 38.543C294.947 38.543 296.702 40.808 298.252 42.805C299.703 44.677 300.956 46.293 303.47 46.293C305.986 46.293 307.239 44.677 308.691 42.805C310.24 40.807 311.997 38.543 315.492 38.543C318.987 38.543 320.744 40.807 322.293 42.805C323.745 44.677 324.999 46.293 327.514 46.293C330.03 46.293 331.284 44.677 332.736 42.805C334.286 40.807 336.042 38.543 339.538 38.543C343.034 38.543 344.789 40.807 346.339 42.805C347.791 44.677 349.045 46.293 351.561 46.293C352.114 46.293 352.561 46.741 352.561 47.293C352.561 47.845 352.113 48.293 351.561 48.293Z" fill="#05C5DA"/>
<path d="M283.743 88.316C283.481 88.316 283.22 88.213 283.023 88.01C282.64 87.612 282.651 86.979 283.048 86.596L314.055 56.698C314.452 56.315 315.085 56.325 315.469 56.723C315.852 57.121 315.841 57.754 315.444 58.137L284.437 88.035C284.243 88.223 283.993 88.316 283.743 88.316Z" fill="#1AA9E8"/>
<path d="M283.743 91.2739C285.929 91.2739 287.701 89.5018 287.701 87.3159C287.701 85.13 285.929 83.3579 283.743 83.3579C281.557 83.3579 279.785 85.13 279.785 87.3159C279.785 89.5018 281.557 91.2739 283.743 91.2739Z" fill="#FDE1A7"/>
<path d="M444.488 342.988C445.275 344.331 447 344.782 448.343 343.997L494.255 323.268C495.599 322.483 496.05 320.758 495.265 319.414L474.406 284.693C473.621 283.35 471.896 282.899 470.552 283.684L419.476 297.84C418.132 298.625 417.679 300.35 418.464 301.694L444.488 342.988Z" fill="url(#paint31_linear)"/>
<path d="M497.764 319.992L475.549 283.013C474.711 281.582 472.873 281.102 471.444 281.938L417.044 297.015C415.614 297.851 415.132 299.689 415.968 301.119L443.685 345.098C444.523 346.528 446.361 347.009 447.79 346.173L496.69 324.096C498.119 323.26 498.602 321.422 497.764 319.992ZM447.49 338.847L424 300.876L471.75 286.501L492.125 319.876L447.49 338.847Z" fill="url(#paint32_linear)"/>
<path d="M479.938 308.376L443.66 322.692L440.721 318.479L477.545 304.697L479.938 308.376Z" fill="#FDE1A7"/>
<path d="M455.166 308.845C457.393 308.845 459.198 307.04 459.198 304.813C459.198 302.586 457.393 300.781 455.166 300.781C452.939 300.781 451.134 302.586 451.134 304.813C451.134 307.04 452.939 308.845 455.166 308.845Z" fill="#F95FC3"/>
<path d="M441.43 314.125C443.657 314.125 445.462 312.32 445.462 310.093C445.462 307.866 443.657 306.061 441.43 306.061C439.203 306.061 437.398 307.866 437.398 310.093C437.398 312.32 439.203 314.125 441.43 314.125Z" fill="#FE687E"/>
<path d="M468.062 303.732C470.066 303.732 471.69 302.108 471.69 300.104C471.69 298.1 470.066 296.476 468.062 296.476C466.058 296.476 464.434 298.1 464.434 300.104C464.434 302.108 466.058 303.732 468.062 303.732Z" fill="#00E2EC"/>
<path d="M528.834 580.667C527.66 560.695 532.15 536.204 531.984 528.538L499.334 526.667C499.334 526.667 498.705 550.029 499 570.251C499.334 593.085 504.084 658.585 502.668 668.834C501.785 675.222 496.568 679.344 491.738 682.387C494.058 683.575 498.168 684.393 504.045 681.485C510.693 678.195 518.182 674.518 523.463 674.335C523.25 670.886 523.035 667.658 523 665.502C522.834 655.084 530.25 604.751 528.834 580.667Z" fill="url(#paint33_linear)"/>
<path d="M504.045 681.484C498.168 684.392 494.059 683.575 491.738 682.386C490.48 683.178 489.248 683.901 488.127 684.567C483.854 687.105 477.01 688.102 477.752 690.751C478.334 692.834 494.477 693.781 503.127 691.317C507.211 690.154 514.209 686.4 514.209 686.4L514.48 691.504C514.48 691.504 522.24 692.082 523.074 691.165C524.34 689.771 523.906 681.562 523.463 674.333C518.182 674.518 510.693 678.194 504.045 681.484Z" fill="url(#paint34_linear)"/>
<path d="M567.752 682.168C574.695 678.731 582.555 674.876 587.857 675.018C587.64 671.573 587.386 668.338 587.25 666.168C586.834 659.502 586.668 648.002 587.502 623.835C588.336 599.668 584.002 582.669 582.502 568.335C581.002 554.001 581.002 538.835 580.834 531.169L549.75 535.001C549.75 535.001 552.141 557.888 554.25 578.001C556.244 597.002 568.334 657.918 566.918 668.167C566.047 674.467 559.809 679.626 555.178 682.933C557.443 684.192 561.648 685.188 567.752 682.168Z" fill="url(#paint35_linear)"/>
<path d="M542 692.501C542 693.918 558.184 694.465 566.834 692.001C570.918 690.838 577.916 687.084 577.916 687.084L578.187 692.188C578.187 692.188 586.5 692.501 587.333 691.584C588.593 690.196 588.306 682.153 587.856 675.018C582.553 674.876 574.694 678.732 567.751 682.168C561.647 685.189 557.442 684.192 555.177 682.933C553.89 683.852 552.72 684.635 551.833 685.251C547.75 688.084 542 689.751 542 692.501Z" fill="url(#paint36_linear)"/>
<path d="M571 411.668C574.5 417.001 584.002 434.002 587.5 451.751C590.729 468.124 590.5 477.501 592.25 490.251C594 503.001 603 531.001 602.5 532.751C602 534.501 598 537.126 590.168 537.335C584.314 537.491 580.002 537.002 569.502 540.502C559.002 544.002 547.168 546.002 532.834 544.502C518.502 543.002 507.168 537.002 500.002 536.835C492.834 536.668 483.334 536.668 482.334 534.668C481.334 532.668 487.842 517.2 489.25 507.501C490.842 496.552 494.334 475.667 502 455.001C509.186 435.631 519.334 413.334 519.334 413.334C519.334 413.334 534.25 413.251 545 413.001C555.75 412.751 571 411.668 571 411.668Z" fill="url(#paint37_linear)"/>
<path d="M542.416 538.516C539.244 538.516 536.024 538.342 532.729 537.996C524.82 537.169 517.691 534.95 511.963 533.167C507.206 531.687 503.098 530.407 499.978 530.335L498.002 530.292C492.439 530.178 486.135 530.049 483.277 529C482.758 528.811 482.493 528.235 482.683 527.717C482.872 527.199 483.445 526.931 483.966 527.123C486.509 528.056 492.904 528.187 498.042 528.293L500.023 528.335C503.423 528.414 507.656 529.731 512.556 531.257C518.494 533.106 525.223 535.2 532.936 536.008C545.594 537.332 557.116 536.075 569.183 532.054C578.382 528.988 582.955 528.933 587.797 528.875C588.562 528.866 589.335 528.856 590.139 528.835C597.154 528.647 600.077 526.559 600.805 525.922C601.22 525.56 601.851 525.601 602.216 526.019C602.578 526.435 602.535 527.067 602.119 527.43C601.022 528.387 597.664 530.635 590.191 530.835C589.378 530.856 588.594 530.865 587.82 530.875C583.138 530.931 578.717 530.983 569.815 533.95C560.61 537.02 551.716 538.516 542.416 538.516Z" fill="#CFAEFF"/>
<path d="M545.607 531.853C541.626 531.853 537.451 531.623 533.063 531.163C524.773 530.296 517.397 528.02 510.889 526.014C506.185 524.563 502.122 523.31 498.903 522.998C496.244 522.742 493.828 522.955 491.698 523.144C489.176 523.369 486.994 523.563 485.177 522.895C484.658 522.705 484.393 522.13 484.583 521.612C484.773 521.094 485.345 520.827 485.866 521.018C487.262 521.532 489.238 521.356 491.521 521.152C493.737 520.955 496.249 520.732 499.096 521.007C502.517 521.337 506.67 522.618 511.478 524.102C517.899 526.082 525.176 528.327 533.272 529.174C547.439 530.653 559.315 529.713 569.576 526.295C578.69 523.258 581.234 523.338 585.069 523.454C585.718 523.474 586.407 523.495 587.176 523.502C594.472 523.57 597.505 521.651 599.16 520.206C599.575 519.843 600.206 519.886 600.571 520.303C600.933 520.719 600.89 521.351 600.474 521.714C598.602 523.348 595.229 525.504 587.524 525.504C587.403 525.504 587.282 525.503 587.158 525.502C586.373 525.495 585.67 525.474 585.007 525.453C581.25 525.337 578.983 525.266 570.208 528.191C562.87 530.639 554.747 531.852 545.607 531.853Z" fill="#CFAEFF"/>
<path d="M477.084 305.376C475.564 305.882 473 307.251 473.5 309.751C474 312.251 478.504 316.641 480.004 317.307C481.504 317.973 480.502 314.001 479.168 312.251C477.834 310.501 481.555 314.483 482.75 314.084C483.625 313.792 483.918 312.126 482.959 309.501C482.105 307.166 485.918 305.001 484.25 304.668C482.584 304.334 479.084 304.709 477.084 305.376Z" fill="url(#paint38_linear)"/>
<path d="M500.533 334.302C500.965 333.736 513.123 325.308 514.025 324.978C515.293 324.515 535 350.25 537.75 353.125C540.5 356 534.115 370.346 528.865 371.346C523.615 372.346 499.396 335.793 500.533 334.302Z" fill="url(#paint39_linear)"/>
<path d="M465.75 304.251C467.518 302.483 476.334 303.501 477.5 303.834C478.668 304.167 481.584 301.751 483.334 301.667C485.084 301.583 490.438 302.563 493.584 304.334C497.07 306.297 514.5 325.501 514.5 325.501C514.5 325.501 514.252 330.501 509.875 333.501C505.488 336.508 502.674 335.133 502.674 335.133C502.674 335.133 496.5 323.876 494.375 322.501C492.25 321.126 487 323.439 482.678 322.379C478.602 321.38 472.938 316.126 474.502 314.751C476.162 313.291 480.131 316.66 481.918 317.251C484.563 318.126 489.522 317.076 489.625 315.063C489.75 312.625 481.85 310.364 475.875 308.563C471.65 307.29 464.313 305.688 465.75 304.251Z" fill="url(#paint40_linear)"/>
<path d="M504.192 336.44C501.517 336.44 499.979 335.146 499.878 335.057C499.461 334.695 499.416 334.063 499.778 333.646C500.14 333.229 500.774 333.186 501.188 333.547C501.303 333.642 504.215 335.981 509.331 332.662C513.269 330.106 513.499 325.51 513.501 325.464C513.523 324.913 513.988 324.477 514.537 324.504C515.088 324.524 515.518 324.985 515.499 325.536C515.491 325.766 515.252 331.205 510.419 334.341C507.954 335.939 505.854 336.44 504.192 336.44Z" fill="#1AA9E8"/>
<path d="M564.334 311.501C567 317.001 577 336.167 576.334 351.001C575.668 365.835 571.666 381.168 571.166 392.668C570.666 404.168 571 411.668 571 411.668C571 411.668 560.002 418.501 543.334 418.001C527.174 417.517 519.334 413.334 519.334 413.334C519.334 413.334 518.855 395.693 516.834 383.668C515.25 374.251 511.375 368.751 511.334 358.168C511.279 344.625 532.125 327.126 538.334 317.668C543.438 309.893 564.334 311.501 564.334 311.501Z" fill="url(#paint41_linear)"/>
<path d="M545.102 419.027C544.51 419.027 543.912 419.018 543.304 419.001C527.096 418.515 519.192 414.392 518.864 414.216C518.378 413.957 518.193 413.353 518.452 412.865C518.711 412.377 519.317 412.192 519.805 412.451C519.881 412.492 527.681 416.531 543.366 417.001C559.51 417.498 570.367 410.885 570.474 410.818C570.943 410.527 571.56 410.672 571.851 411.141C572.142 411.61 571.997 412.226 571.529 412.517C571.085 412.793 560.86 419.027 545.102 419.027Z" fill="#1AA9E8"/>
<path d="M580.25 256.626C582.75 256.751 590.404 254.768 596.125 253.501C607.418 251.001 618.516 251.15 621.375 259.001C623.834 265.751 619.744 271.356 620.418 276.084C621.334 282.501 640.502 287.917 640.875 300.751C641.234 313.055 631.125 317.501 628.375 322.876C625.625 328.251 620.15 344.563 601.125 343.251C590.252 342.501 587.252 336.084 587.25 331.626C587.25 325.902 592.75 321.501 590.125 317.376C587.5 313.251 579.086 315.983 577.25 311.126C575.252 305.834 579.75 301.501 583.125 298.876C586.5 296.251 591.5 293.501 590.375 289.626C589.25 285.751 582.375 284.775 582.625 280.876C582.918 276.334 591.258 272.963 589.875 268.376C588.834 264.918 582.875 265.626 577.75 264.626C572.625 263.626 580.25 256.626 580.25 256.626Z" fill="url(#paint42_linear)"/>
<path d="M561.834 288.834C561.188 294.626 564.334 311.501 564.334 311.501C564.334 311.501 556.5 319.626 545 320.168C539.357 320.434 538.334 317.668 538.334 317.668L540.668 294.501C540.668 294.501 544.182 287.908 551.334 285.168C558.484 282.427 561.168 285.001 561.168 285.001L561.834 288.834Z" fill="url(#paint43_linear)"/>
<path d="M558.668 246.834C548.5 242.501 540.926 242.689 540.926 242.689C533 247 511.928 286.413 525.168 296C533.34 301.918 547.359 295.881 556.676 287.836C557.246 288.015 557.854 288.113 558.485 288.113C561.731 288.113 564.36 285.567 564.36 282.425C564.36 281.528 564.139 280.683 563.758 279.928C564.617 278.575 565.278 277.25 565.668 275.999C567.963 268.629 568.834 251.168 558.668 246.834Z" fill="url(#paint44_linear)"/>
<path d="M542.875 270.689C542.726 270.689 542.573 270.667 542.423 270.619C541.634 270.37 541.195 269.527 541.444 268.737C541.906 267.276 543.586 264.556 544.653 263.539C545.252 262.97 546.203 262.992 546.774 263.592C547.345 264.192 547.321 265.141 546.721 265.713C546.03 266.37 544.607 268.683 544.305 269.64C544.104 270.28 543.513 270.689 542.875 270.689Z" fill="#0090B2"/>
<path d="M528.689 262.772C528.565 262.772 528.438 262.753 528.313 262.713C527.654 262.505 527.29 261.803 527.497 261.145C527.942 259.735 529.295 257.551 530.334 256.562C530.832 256.087 531.625 256.105 532.101 256.606C532.578 257.106 532.557 257.898 532.057 258.374C531.333 259.062 530.195 260.907 529.882 261.898C529.713 262.431 529.221 262.772 528.689 262.772Z" fill="#0090B2"/>
<path d="M542.958 276.6C541.918 276.6 540.942 276.361 540.061 275.889C538.216 274.903 537.006 273.028 536.654 270.609C536.313 268.274 536.818 265.695 538.074 263.346C540.031 259.685 543.421 257.32 546.711 257.32C547.751 257.32 548.727 257.559 549.608 258.031C553.336 260.024 554.228 265.651 551.597 270.575C549.64 274.234 546.249 276.6 542.958 276.6ZM546.71 258.819C544.009 258.819 541.069 260.923 539.396 264.052C538.291 266.12 537.843 268.371 538.138 270.391C538.42 272.327 539.354 273.808 540.768 274.564C541.43 274.918 542.167 275.098 542.958 275.098C545.661 275.098 548.601 272.995 550.274 269.866C552.514 265.671 551.898 260.955 548.9 259.352C548.238 258.999 547.501 258.819 546.71 258.819Z" fill="#9F36AD"/>
<path d="M526.188 267.163C525.446 267.163 524.753 266.995 524.131 266.663C521.135 265.06 520.687 260.249 523.112 255.711C524.947 252.278 528.008 249.973 530.728 249.973C531.471 249.973 532.163 250.141 532.785 250.474C534.272 251.268 535.176 252.886 535.329 255.029C535.474 257.045 534.932 259.317 533.804 261.425C531.971 264.857 528.909 267.163 526.188 267.163ZM530.729 251.472C528.581 251.472 525.993 253.506 524.435 256.417C522.474 260.087 522.659 264.173 524.838 265.339C525.24 265.553 525.694 265.662 526.188 265.662C528.338 265.662 530.926 263.629 532.482 260.717C533.478 258.855 533.958 256.872 533.834 255.134C533.719 253.523 533.096 252.337 532.079 251.795C531.676 251.581 531.222 251.472 530.729 251.472Z" fill="#9F36AD"/>
<path d="M535.252 259.667C531.313 262.938 520.381 268.335 520.084 270.25C519.688 272.813 525.545 274.241 526.879 274.241C528.213 274.241 529.188 270.625 532.752 265.666C534.76 262.873 537.346 257.928 535.252 259.667Z" fill="url(#paint45_linear)"/>
<path d="M539.232 263.598C538.934 263.598 538.653 263.42 538.536 263.127C537.507 260.555 536.189 259.787 533.978 260.474C533.581 260.599 533.162 260.376 533.04 259.981C532.917 259.585 533.138 259.165 533.533 259.042C536.517 258.114 538.607 259.269 539.929 262.57C540.083 262.955 539.896 263.391 539.511 263.545C539.42 263.581 539.325 263.598 539.232 263.598Z" fill="#9F36AD"/>
<path d="M521.904 279.894C522.045 280.482 522.408 281.088 522.826 281.588C523.252 282.091 523.769 282.502 524.342 282.757C525.487 283.291 526.819 283.088 528.004 282.505C528.377 282.321 528.826 282.473 529.01 282.845C529.194 283.217 529.041 283.667 528.67 283.85C528.654 283.857 528.637 283.866 528.621 283.872C527.881 284.175 527.08 284.407 526.238 284.429C525.4 284.465 524.535 284.282 523.789 283.891C523.041 283.505 522.418 282.94 521.932 282.299C521.455 281.648 521.065 280.947 520.903 280.096C520.85 279.819 521.032 279.551 521.309 279.497C521.579 279.445 521.84 279.616 521.903 279.88L521.904 279.894Z" fill="#954374"/>
<path d="M544.264 321.185C538.637 321.185 537.447 318.149 537.397 318.015C537.205 317.497 537.469 316.922 537.988 316.73C538.506 316.541 539.081 316.803 539.272 317.321C539.3 317.383 540.228 319.391 544.954 319.169C555.93 318.652 563.539 310.886 563.615 310.807C563.999 310.41 564.631 310.397 565.029 310.782C565.426 311.165 565.438 311.798 565.054 312.196C564.723 312.539 556.809 320.613 545.047 321.167C544.777 321.179 544.516 321.185 544.264 321.185Z" fill="#1AA9E8"/>
<path d="M556.887 276.956C555.826 277.216 554.307 276.75 554.418 274.584C554.625 270.501 561.633 264.24 561.461 258.459C561.25 251.438 548.063 249.875 539 246.334C529.242 242.521 529.375 231.249 531.812 227.563C534.5 223.5 539.25 224.834 541.25 226.834C543.25 228.834 544.166 231.055 545.918 231.001C547.938 230.938 547.188 227.001 550.25 227.001C553.352 227.001 556.037 232.722 558.168 235.084C561.813 239.126 580.943 245.433 581.916 259.167C583.252 278 564.502 292.667 562.418 292.667C558.869 292.668 559.057 288.561 560.572 287.739C562.09 286.917 564.947 285.182 564.224 281.216C563.5 277.251 559.25 276.376 556.887 276.956Z" fill="url(#paint46_linear)"/>
<path d="M560.604 277.126C562.276 277.752 563.579 279.094 564.106 280.768C564.231 280.59 564.29 280.365 564.225 280.138C563.024 275.839 556.76 272.02 553.397 269.969C552.686 269.536 552.073 269.162 551.711 268.906C551.373 268.667 550.904 268.748 550.666 269.086C550.426 269.424 550.506 269.892 550.846 270.131C551.248 270.416 551.852 270.783 552.616 271.249C554.807 272.586 558.297 274.714 560.604 277.126Z" fill="#9F36AD"/>
<path d="M442.621 324.662C444.644 324.267 446.937 330.876 447.937 334.626C448.937 338.376 449.662 344.724 453.333 348.918C456.687 352.751 467.417 356.251 467.417 356.251C467.417 356.251 468.583 362.501 465.749 366.001C462.917 369.501 458.735 369.324 458.735 369.324C458.735 369.324 446.417 357.084 441.249 353.501C436.083 349.918 432.917 345.084 432.124 341.626C431.276 337.926 430.667 336.084 431.083 332.001C431.308 329.785 432.179 326.842 432.179 326.842C432.179 326.842 439.851 339.016 441.833 342.168C443.917 341.751 442.917 336.001 442.667 333.668C442.417 331.335 440.563 325.063 442.621 324.662Z" fill="url(#paint47_linear)"/>
<path d="M551.002 327.767C559.75 326.251 564.887 330.191 567.625 336.126C570.625 342.626 570 350.668 565.334 355.334C560.668 360 530.619 395.709 514.791 395.256C497.125 394.75 458.062 372.452 457.668 370.167C457.272 367.882 464.563 355.237 465.586 355.605C466.607 355.973 506.998 371.232 513 369.616C519 368.001 544.922 328.821 551.002 327.767Z" fill="url(#paint48_linear)"/>
<path d="M457.657 371.147C457.181 371.147 456.766 370.821 456.682 370.338C456.222 367.685 462.694 356.575 464.556 355.011C465.021 354.62 465.479 354.504 465.924 354.664C466.444 354.851 466.713 355.424 466.527 355.943C466.404 356.283 466.116 356.517 465.786 356.585C464.242 357.88 458.432 368.257 458.653 369.999C458.722 370.538 458.35 371.055 457.813 371.135C457.761 371.144 457.708 371.147 457.657 371.147Z" fill="#1AA9E8"/>
<path d="M171.598 549.583C171.598 551.132 172.854 552.387 174.403 552.387H236.568C238.117 552.387 239.373 551.132 239.373 549.583V508.45C239.373 506.901 238.117 505.646 236.568 505.646H174.403C172.854 505.646 171.598 506.901 171.598 508.45V549.583Z" fill="url(#paint49_linear)"/>
<path d="M238.735 504.017H172.235C170.578 504.017 169.235 505.36 169.235 507.017V551.017C169.235 552.674 170.578 554.017 172.235 554.017H238.735C240.392 554.017 241.735 552.674 241.735 551.017V507.017C241.735 505.359 240.392 504.017 238.735 504.017ZM236.735 549.017H174.235V509.017H236.735V549.017Z" fill="url(#paint50_linear)"/>
<path d="M225.106 532.085H172.188V537.085H225.106V532.085Z" fill="#FDE1A7"/>
<path d="M218.237 520.271L225.106 528.298L211.409 528.335L218.237 520.271Z" fill="#00E2EC"/>
<path d="M200 528.335C202.227 528.335 204.032 526.53 204.032 524.303C204.032 522.076 202.227 520.271 200 520.271C197.773 520.271 195.968 522.076 195.968 524.303C195.968 526.53 197.773 528.335 200 528.335Z" fill="#F95FC3"/>
<path d="M113.075 699.637C114.918 704.251 122.802 706.185 129.417 707.751C136.546 709.439 141.624 710.413 141.334 713.251C141.001 716.501 125.501 717.584 114.251 717.251C103.001 716.918 94.851 715.592 93.185 714.342C91.425 713.022 91.502 701.084 91.918 698.418C92.334 695.752 113.075 699.637 113.075 699.637Z" fill="url(#paint51_linear)"/>
<path d="M101.334 428.668C99.834 434.168 96.001 446.835 94.667 470.835C93.333 494.835 95 568.502 95 586.502C95 604.502 90.667 636.501 90.333 658.168C89.999 679.835 89.57 700.209 90.833 701.001C93.625 702.751 109.625 704.001 115 701.001C115.938 700.478 124.667 624.835 130.667 593.168C134.625 572.276 150 458.833 151 442.167C152 425.501 101.334 428.668 101.334 428.668Z" fill="url(#paint52_linear)"/>
<path d="M104.821 695.933C97.403 695.933 91.671 694.451 89.577 693.394C89.084 693.145 88.886 692.544 89.135 692.051C89.383 691.558 89.984 691.359 90.478 691.609C93.38 693.073 103.847 695.391 116.046 692.739C116.587 692.621 117.118 692.965 117.235 693.505C117.352 694.044 117.01 694.577 116.47 694.694C112.343 695.591 108.387 695.933 104.821 695.933Z" fill="#CD218F"/>
<path d="M194.25 705.418C195.833 708.252 202.884 711.769 209.5 713.335C216.629 715.023 221.707 715.997 221.417 718.835C221.084 722.085 205.584 723.168 194.334 722.835C183.084 722.502 175.501 722.085 173.834 720.835C172.074 719.515 171.167 710.084 171.584 707.418C172.001 704.752 194.25 705.418 194.25 705.418Z" fill="url(#paint53_linear)"/>
<path d="M180.75 440.501C181.5 450.501 188.25 571.751 189.75 591.751C191.25 611.751 197.832 704.071 197 705.835C195.625 708.751 174.375 712.001 171.125 709.126C169.046 707.287 162.333 660.502 157 629.835C151.667 599.168 140 544.835 134 523.502C128 502.169 117 467.251 123.25 436.251C129 429.751 141.755 429.897 155.75 432.501C170.16 435.182 180.75 440.501 180.75 440.501Z" fill="url(#paint54_linear)"/>
<path d="M138.607 543.675C137.447 538.972 136.26 534.277 135.004 529.603C133.762 524.927 132.353 520.3 130.996 515.642C128.267 506.335 125.701 496.954 123.746 487.414C123.635 486.873 123.983 486.345 124.525 486.233C125.066 486.122 125.594 486.47 125.706 487.011C125.706 487.015 125.708 487.025 125.709 487.029C127.479 496.518 129.867 505.897 132.428 515.236C133.699 519.906 135.033 524.578 136.197 529.292C137.374 534.001 138.479 538.723 139.557 543.45C139.617 543.713 139.453 543.974 139.189 544.034C138.93 544.094 138.671 543.933 138.607 543.675Z" fill="#CD218F"/>
<path d="M124.716 488.158C124.586 488.158 124.454 488.133 124.327 488.079C121.402 486.845 114.772 482.063 113.143 479.349C112.859 478.875 113.012 478.261 113.486 477.977C113.959 477.693 114.573 477.846 114.858 478.32C116.168 480.503 122.265 485.038 125.106 486.238C125.615 486.453 125.853 487.039 125.638 487.548C125.476 487.929 125.106 488.158 124.716 488.158Z" fill="#CD218F"/>
<path d="M177.128 703.279C173.202 703.279 170.026 702.852 168.667 702.343C168.149 702.15 167.887 701.573 168.081 701.056C168.274 700.539 168.852 700.28 169.368 700.47C172.572 701.668 187.644 702.31 196.306 696.887C196.775 696.593 197.391 696.736 197.684 697.204C197.977 697.672 197.835 698.289 197.367 698.582C191.611 702.186 183.409 703.279 177.128 703.279Z" fill="#CD218F"/>
<path d="M143.958 264.559C149.958 252.559 174.167 200.668 176.667 197.501C179.167 194.334 181.129 193.712 181.834 188.918C182.419 184.938 182.104 182.189 182.834 179.085C183.834 174.835 189.866 163.487 188.334 160.168C187.334 158.001 183.334 163.752 181.834 165.585C180.334 167.418 175.879 174.578 174.815 173.915C174.532 171.127 174.898 161.752 174.898 161.752C173.001 164.002 170.376 169.752 168.876 175.752C167.376 181.752 167.834 183.835 164.501 190.669C161.168 197.503 133.751 227.502 119.751 258.752C118.941 260.559 118.155 262.404 117.386 264.277C123.303 268.426 131.211 272.611 140.737 274.273C141.734 270.234 142.821 266.832 143.958 264.559Z" fill="url(#paint55_linear)"/>
<path d="M153.917 325.751C136.152 320.765 137.902 323.465 135.963 322.598C133.836 320.47 136.468 291.546 140.736 274.272C131.21 272.61 123.303 268.426 117.385 264.276C104.825 294.883 97.721 333.875 97.25 364.501C96.75 397.001 98 429.501 98.25 431.001C98.5 432.501 121.24 446.5 146.5 446.751C171.667 447.001 180.75 440.501 180.75 440.501C180.75 440.501 185.794 351.403 184.98 348.91C184.166 346.417 171.682 330.737 153.917 325.751Z" fill="url(#paint56_linear)"/>
<path d="M150.042 440.693C149.269 440.693 148.483 440.686 147.676 440.672C117.828 440.157 99.316 426.994 97.152 424.594C96.782 424.184 96.815 423.551 97.225 423.181C97.635 422.812 98.267 422.845 98.637 423.254C100.387 425.195 118.642 438.171 147.71 438.672C172.242 439.097 180.438 432.741 180.518 432.677C180.948 432.332 181.579 432.401 181.924 432.831C182.27 433.262 182.201 433.892 181.77 434.237C181.432 434.51 173.443 440.693 150.042 440.693Z" fill="#05C5DA"/>
<path d="M169.06 345.424C168.7 345.424 168.352 345.23 168.174 344.889C165.048 338.936 154.364 330.625 149.566 328.758C149.051 328.558 148.796 327.978 148.996 327.464C149.196 326.949 149.776 326.694 150.29 326.894C155.474 328.91 166.572 337.539 169.944 343.959C170.201 344.448 170.013 345.052 169.524 345.309C169.375 345.388 169.216 345.424 169.06 345.424Z" fill="#05C5DA"/>
<path d="M119.391 315.042C118.913 315.042 118.492 314.7 118.407 314.213C116.363 302.468 122.909 283.63 126.055 274.578C126.735 272.62 127.273 271.074 127.485 270.275C127.626 269.741 128.174 269.423 128.708 269.566C129.242 269.708 129.56 270.255 129.417 270.789C129.186 271.661 128.665 273.16 127.943 275.235C124.852 284.129 118.421 302.636 120.376 313.871C120.471 314.415 120.106 314.933 119.562 315.028C119.505 315.037 119.447 315.042 119.391 315.042Z" fill="#05C5DA"/>
<path d="M107.251 319.251C106.973 319.251 106.696 319.135 106.498 318.91C106.134 318.494 106.176 317.863 106.592 317.499C108.595 315.747 119.395 309.807 131.889 315.08C132.398 315.295 132.637 315.881 132.422 316.39C132.208 316.899 131.622 317.138 131.112 316.923C119.505 312.026 109.415 317.686 107.909 319.004C107.719 319.169 107.484 319.251 107.251 319.251Z" fill="#05C5DA"/>
<path d="M162.366 256.126C166.174 262.432 173.75 263.626 174.375 265.751C175 267.876 170.875 272.126 169.625 272.876C168.375 273.626 162.375 261.376 161.875 260.001C161.375 258.626 162.366 256.126 162.366 256.126Z" fill="url(#paint57_linear)"/>
<path d="M151.813 242.939C151.813 242.939 134.5 248.001 126 259.835C121.307 266.369 127.133 277.878 133.292 286.88C131.229 288.642 130.167 290.668 130.167 290.668L129.375 292.876C128.917 297.918 123.43 315.277 121.43 320.444C120.686 322.366 125.896 329.433 137.25 330.001C147.25 330.501 153.917 325.751 153.917 325.751L154.875 303.813C154.875 303.813 155.211 302.44 155.573 300.571C160.409 299.955 165.908 298.059 170.5 293.334C182 281.501 158.25 248.126 151.813 242.939Z" fill="url(#paint58_linear)"/>
<path d="M148.334 273.334C149.601 272.477 149.251 269.834 146.251 266.834C143.251 263.834 140.084 261.167 140.668 258.001C141.247 254.86 151.589 251.512 156.444 247.913C164.418 242.001 167.001 227.667 162.168 226.751C155.537 225.494 153.42 234.584 151.668 234.584C149.585 234.584 150.651 229.725 147.663 230.076C143.334 230.584 141.667 236.751 139.168 238.667C135.422 241.539 115.501 247.667 114.251 262.5C113.233 274.575 120.796 281.441 124.126 285.75C127.668 290.333 128.761 292.69 129.376 292.875C130.48 293.207 135.341 292.483 139.501 290.75C144.001 288.875 146.751 286.5 145.876 285.375C145.001 284.25 138.459 282.994 138.001 277.5C137.668 273.5 140.376 271.75 142.501 272.125C144.626 272.5 146.917 274.293 148.334 273.334Z" fill="url(#paint59_linear)"/>
<path d="M151.375 277.376C152.158 277.4 152.75 282.709 155.813 283.439C157.853 283.924 164.417 279.376 167.376 278.064C169.173 277.267 172.377 276.721 172.583 277.543C172.789 278.365 173.251 281.377 174.376 284.064C175.326 286.333 177.501 288.418 176.439 293.064C174.879 299.887 163.001 305.002 154.876 303.814C154.688 301.876 154.417 298.871 153.063 293.439C151.5 287.168 149.067 281.46 149.125 280.314C149.209 278.668 150.042 277.334 151.375 277.376Z" fill="url(#paint60_linear)"/>
<path d="M160.083 266.168C159.426 266.168 158.823 265.733 158.639 265.069C158.295 263.829 156.722 261.099 156.407 260.68C155.914 260.025 156.028 259.082 156.676 258.58C157.323 258.079 158.244 258.174 158.756 258.814C159.159 259.317 161.045 262.518 161.53 264.267C161.752 265.065 161.284 265.892 160.486 266.114C160.351 266.15 160.215 266.168 160.083 266.168Z" fill="#0090B2"/>
<path d="M167.906 282.5C168.083 282.797 168.627 283.161 169.112 283.355C169.618 283.563 170.164 283.664 170.688 283.605C171.751 283.512 172.645 282.649 173.197 281.576C173.297 281.379 173.537 281.301 173.734 281.401C173.921 281.496 174 281.722 173.92 281.913C173.656 282.534 173.311 283.149 172.804 283.668C172.308 284.191 171.62 284.586 170.879 284.738C170.136 284.893 169.372 284.82 168.673 284.605C167.97 284.36 167.32 284.107 166.701 283.392L166.69 283.379C166.418 283.065 166.452 282.588 166.766 282.316C167.08 282.044 167.557 282.078 167.829 282.393C167.857 282.425 167.884 282.464 167.906 282.5Z" fill="#F1D2F8"/>
<path d="M137.25 330.001C147.25 330.501 153.917 325.751 153.917 325.751L154.266 317.758C151.748 319.112 146.313 321.441 139.152 321.083C130.46 320.648 125.382 316.41 123.806 313.582C122.862 316.484 122.003 318.965 121.431 320.444C120.687 322.366 125.896 329.433 137.25 330.001Z" fill="url(#paint61_linear)"/>
<path d="M138.741 331.038C138.236 331.038 137.723 331.026 137.2 330.999C128.809 330.58 123.394 326.675 121.306 323.459C120.451 322.142 120.164 320.943 120.497 320.082C120.697 319.567 121.276 319.311 121.79 319.51C122.303 319.709 122.559 320.284 122.364 320.798C122.335 320.922 122.398 321.593 123.235 322.733C125.285 325.525 130.057 328.639 137.299 329.001C146.842 329.47 153.271 324.981 153.336 324.935C153.785 324.614 154.409 324.719 154.731 325.169C155.051 325.619 154.947 326.243 154.497 326.564C154.228 326.757 148.105 331.038 138.741 331.038Z" fill="#05C5DA"/>
<path d="M203.938 489.313C201.104 480.642 198.118 424.326 193.055 385.16C179.003 385.532 167.572 389.053 161.51 391.951C162.937 398.541 164.992 407.164 168.251 418.501C177.168 449.523 189.126 484.876 189.334 492.501C189.457 496.999 185.628 502.279 185.14 508.922C184.813 513.376 186.625 520.626 188.334 520.501C190.501 520.343 190.32 513.744 191.188 510.626C192.563 505.688 195.501 504.001 195.501 504.001C195.501 504.001 201.751 504.017 212.289 504.017C210.809 498.704 205.173 493.094 203.938 489.313Z" fill="url(#paint62_linear)"/>
<path d="M184.167 347.834C174.167 337.167 155 348.334 153.167 362.334C152.775 365.327 155.5 368.835 157.5 374.001C158.686 377.064 159.43 382.348 161.509 391.951C167.571 389.053 179.002 385.532 193.054 385.16C190.636 366.45 187.744 351.649 184.167 347.834Z" fill="url(#paint63_linear)"/>
<path d="M161.51 392.951C161.137 392.951 160.779 392.741 160.607 392.383C160.369 391.884 160.58 391.287 161.078 391.049C164.216 389.549 175.796 384.617 193.028 384.16C193.582 384.163 194.04 384.582 194.054 385.134C194.069 385.686 193.633 386.146 193.081 386.16C179.703 386.514 168.223 389.849 161.941 392.853C161.802 392.92 161.655 392.951 161.51 392.951Z" fill="#05C5DA"/>
<path d="M153.168 363.334C153.125 363.334 153.081 363.331 153.037 363.326C152.49 363.254 152.103 362.752 152.175 362.204C153.237 354.097 160.122 346.245 168.546 343.533C174.872 341.496 180.832 342.814 184.897 347.151C185.275 347.554 185.254 348.187 184.852 348.565C184.45 348.943 183.816 348.923 183.438 348.52C178.626 343.387 172.426 344.385 169.159 345.438C161.433 347.925 155.125 355.086 154.159 362.465C154.093 362.967 153.663 363.334 153.168 363.334Z" fill="#05C5DA"/>
<path d="M485.861 247.984L475.336 247.067L485.086 237.447L485.861 247.984Z" fill="#F95FC3"/>
<path d="M448.668 280.168C448.247 280.168 447.855 279.9 447.718 279.479C442.586 263.799 452.718 254.082 469.503 237.981C472.969 234.657 476.898 230.889 480.958 226.796C504.857 202.706 500.191 178.243 498.191 171.319C498.038 170.789 498.344 170.234 498.875 170.081C499.408 169.93 499.96 170.234 500.113 170.765C502.189 177.953 507.045 203.341 482.378 228.204C478.3 232.314 474.362 236.092 470.888 239.424C454.668 254.981 444.878 264.371 449.618 278.856C449.79 279.381 449.504 279.946 448.978 280.117C448.876 280.152 448.771 280.168 448.668 280.168Z" fill="#1AA9E8"/>
<path d="M496.129 233.377L492.58 229.856C501.662 220.701 507.492 210.505 509.91 199.552L514.793 200.63C512.168 212.522 505.889 223.54 496.129 233.377Z" fill="#00E2EC"/>
<path d="M499.153 175.001C501.339 175.001 503.111 173.229 503.111 171.043C503.111 168.857 501.339 167.085 499.153 167.085C496.967 167.085 495.195 168.857 495.195 171.043C495.195 173.229 496.967 175.001 499.153 175.001Z" fill="#FDE1A7"/>
<path d="M439.665 284.168C439.51 284.168 439.351 284.131 439.203 284.053C438.91 283.899 432.04 280.149 433.678 268.693C434.605 262.201 438.836 256.74 443.316 250.959C449.141 243.441 455.165 235.667 454.337 224.911C454.017 220.744 451.878 217.082 447.98 214.025C427.102 197.65 362.644 202.059 346.267 204.766C345.714 204.851 345.207 204.487 345.118 203.942C345.027 203.397 345.396 202.882 345.941 202.792C362.51 200.054 427.809 195.663 449.214 212.451C453.571 215.868 455.966 220.009 456.331 224.758C457.218 236.283 450.672 244.731 444.896 252.184C440.583 257.75 436.509 263.008 435.658 268.976C434.229 278.971 439.896 282.155 440.137 282.286C440.621 282.548 440.806 283.152 440.547 283.638C440.368 283.975 440.022 284.168 439.665 284.168Z" fill="#1AA9E8"/>
<path d="M422.24 216.448C412.677 214.876 401.269 214.069 388.33 214.051L388.338 209.051C401.545 209.07 413.223 209.898 423.051 211.514L422.24 216.448Z" fill="#C7A0F6"/>
<path d="M346.103 207.737C348.289 207.737 350.061 205.965 350.061 203.779C350.061 201.593 348.289 199.821 346.103 199.821C343.917 199.821 342.145 201.593 342.145 203.779C342.145 205.965 343.917 207.737 346.103 207.737Z" fill="#FDE1A7"/>
<path d="M59.698 295.969L56.078 305.895L49.321 293.983L59.698 295.969Z" fill="#F95FC3"/>
<path d="M163.296 378.94C162.505 378.94 161.717 378.934 160.926 378.922C120.965 378.318 85.395 362.774 60.769 335.152C31.804 302.663 18.055 261.485 23.989 225.001C28.445 197.608 43.559 175.271 66.548 162.103C67.027 161.828 67.638 161.994 67.913 162.474C68.188 162.954 68.021 163.564 67.542 163.839C45.086 176.701 30.32 198.537 25.963 225.323C20.124 261.218 33.693 301.778 62.262 333.822C113.719 391.539 207.32 391.651 275.354 334.072C287.123 324.112 297.157 313.84 306.861 303.906C329.944 280.277 349.88 259.869 380.124 259.11C408.377 258.402 422.408 272.99 429.209 285.353C429.476 285.837 429.299 286.445 428.815 286.711C428.33 286.979 427.722 286.801 427.457 286.317C420.924 274.44 407.431 260.431 380.175 261.109C350.742 261.848 331.071 281.986 308.292 305.303C298.555 315.27 288.487 325.576 276.646 335.597C243.559 363.601 203.394 378.939 163.296 378.94Z" fill="#1AA9E8"/>
<path d="M45.5611 284.925C40.8751 271.598 38.381 258.127 38.149 244.886L43.148 244.798C43.371 257.503 45.77 270.445 50.278 283.266L45.5611 284.925Z" fill="#C7A0F6"/>
<path d="M199.065 366.951L197.973 362.072C209.662 359.455 221.228 355.52 232.35 350.375L234.449 354.913C223.006 360.208 211.101 364.258 199.065 366.951Z" fill="#00E2EC"/>
<path d="M67.046 166.93C69.232 166.93 71.004 165.158 71.004 162.972C71.004 160.786 69.232 159.014 67.046 159.014C64.8601 159.014 63.088 160.786 63.088 162.972C63.088 165.158 64.8601 166.93 67.046 166.93Z" fill="#FDE1A7"/>
<path d="M400.633 444.75L390.25 446.71L397.039 434.813L400.633 444.75Z" fill="#00E2EC"/>
<path d="M324.22 467.87C322.84 467.87 321.509 467.833 320.238 467.761C319.687 467.731 319.265 467.258 319.296 466.706C319.328 466.155 319.812 465.738 320.351 465.765C339.635 466.859 372.798 459.831 385.114 436.041C390.626 425.394 392.172 410.127 393.807 393.964C396.519 367.177 399.323 339.48 420.145 326.65C420.615 326.359 421.23 326.507 421.521 326.977C421.81 327.447 421.665 328.063 421.194 328.353C401.214 340.664 398.46 367.863 395.798 394.166C394.142 410.524 392.577 425.976 386.89 436.962C374.955 460.013 344.333 467.87 324.22 467.87Z" fill="#1AA9E8"/>
<path d="M404.037 425.397L399.172 424.243C401.213 415.647 402.209 405.796 403.266 395.365C403.563 392.432 403.862 389.477 404.188 386.524L409.159 387.073C408.835 390.011 408.536 392.951 408.241 395.869C407.168 406.469 406.154 416.479 404.037 425.397Z" fill="#F95FC3"/>
<path d="M320.293 470.721C322.479 470.721 324.251 468.949 324.251 466.763C324.251 464.577 322.479 462.805 320.293 462.805C318.107 462.805 316.335 464.577 316.335 466.763C316.335 468.949 318.107 470.721 320.293 470.721Z" fill="#C7A0F6"/>
<defs>
<linearGradient id="paint0_linear" x1="94.7715" y1="73.2904" x2="560.993" y2="539.512" gradientUnits="userSpaceOnUse">
<stop stop-color="#031730"/>
<stop offset="0.59375" stop-color="#38294E"/>
</linearGradient>
<linearGradient id="paint1_linear" x1="519.599" y1="711.968" x2="519.599" y2="666.852" gradientUnits="userSpaceOnUse">
<stop stop-color="#F7EBFF"/>
<stop offset="1" stop-color="#DBEFFF"/>
</linearGradient>
<linearGradient id="paint2_linear" x1="154.428" y1="736.509" x2="154.428" y2="695.08" gradientUnits="userSpaceOnUse">
<stop stop-color="#F7EBFF"/>
<stop offset="1" stop-color="#DBEFFF"/>
</linearGradient>
<linearGradient id="paint3_linear" x1="281.346" y1="417.961" x2="305.24" y2="441.855" gradientUnits="userSpaceOnUse">
<stop stop-color="#FF57BD"/>
<stop offset="1" stop-color="#FE6A77"/>
</linearGradient>
<linearGradient id="paint4_linear" x1="281.345" y1="454.819" x2="305.24" y2="478.715" gradientUnits="userSpaceOnUse">
<stop stop-color="#FF57BD"/>
<stop offset="1" stop-color="#FE6A77"/>
</linearGradient>
<linearGradient id="paint5_linear" x1="281.346" y1="491.68" x2="305.24" y2="515.573" gradientUnits="userSpaceOnUse">
<stop stop-color="#FF57BD"/>
<stop offset="1" stop-color="#FE6A77"/>
</linearGradient>
<linearGradient id="paint6_linear" x1="244.657" y1="275.033" x2="378.22" y2="408.596" gradientUnits="userSpaceOnUse">
<stop stop-color="#706AED"/>
<stop offset="1" stop-color="#271068"/>
</linearGradient>
<linearGradient id="paint7_linear" x1="255.188" y1="292.084" x2="308.106" y2="292.084" gradientUnits="userSpaceOnUse">
<stop stop-color="white"/>
<stop offset="1" stop-color="#F1D1F8"/>
</linearGradient>
<linearGradient id="paint8_linear" x1="359.687" y1="391.001" x2="359.687" y2="294.001" gradientUnits="userSpaceOnUse">
<stop stop-color="#FDE1A7"/>
<stop offset="1" stop-color="#F9A144"/>
</linearGradient>
<linearGradient id="paint9_linear" x1="351.687" y1="313.084" x2="367.687" y2="313.084" gradientUnits="userSpaceOnUse">
<stop stop-color="#00E2EC"/>
<stop offset="1" stop-color="#0090B2"/>
</linearGradient>
<linearGradient id="paint10_linear" x1="311.438" y1="391.001" x2="311.438" y2="315.251" gradientUnits="userSpaceOnUse">
<stop stop-color="#1AA9E8"/>
<stop offset="0.4223" stop-color="#3D80EF"/>
<stop offset="0.7909" stop-color="#5662F4"/>
<stop offset="1" stop-color="#5F57F6"/>
</linearGradient>
<linearGradient id="paint11_linear" x1="303.438" y1="337.543" x2="319.438" y2="337.543" gradientUnits="userSpaceOnUse">
<stop stop-color="#00E2EC"/>
<stop offset="1" stop-color="#0090B2"/>
</linearGradient>
<linearGradient id="paint12_linear" x1="335.563" y1="391.001" x2="335.563" y2="329.251" gradientUnits="userSpaceOnUse">
<stop stop-color="#FF57BD"/>
<stop offset="1" stop-color="#FE6A77"/>
</linearGradient>
<linearGradient id="paint13_linear" x1="327.563" y1="344.543" x2="343.563" y2="344.543" gradientUnits="userSpaceOnUse">
<stop stop-color="#00E2EC"/>
<stop offset="1" stop-color="#0090B2"/>
</linearGradient>
<linearGradient id="paint14_linear" x1="287.313" y1="391.001" x2="287.313" y2="301.751" gradientUnits="userSpaceOnUse">
<stop stop-color="#C7A0F6"/>
<stop offset="1" stop-color="#FF57BD"/>
</linearGradient>
<linearGradient id="paint15_linear" x1="279.313" y1="318.209" x2="295.313" y2="318.209" gradientUnits="userSpaceOnUse">
<stop stop-color="#00E2EC"/>
<stop offset="1" stop-color="#0090B2"/>
</linearGradient>
<linearGradient id="paint16_linear" x1="263.188" y1="391.001" x2="263.188" y2="345.751" gradientUnits="userSpaceOnUse">
<stop stop-color="#FDE1A7"/>
<stop offset="1" stop-color="#F9A144"/>
</linearGradient>
<linearGradient id="paint17_linear" x1="255.188" y1="359.376" x2="271.188" y2="359.376" gradientUnits="userSpaceOnUse">
<stop stop-color="#00E2EC"/>
<stop offset="1" stop-color="#0090B2"/>
</linearGradient>
<linearGradient id="paint18_linear" x1="65.876" y1="75.6265" x2="178.876" y2="188.626" gradientUnits="userSpaceOnUse">
<stop stop-color="#00E2EC"/>
<stop offset="1" stop-color="#0090B2"/>
</linearGradient>
<linearGradient id="paint19_linear" x1="128.751" y1="103.501" x2="183.001" y2="103.501" gradientUnits="userSpaceOnUse">
<stop stop-color="white"/>
<stop offset="1" stop-color="#F1D1F8"/>
</linearGradient>
<linearGradient id="paint20_linear" x1="174.667" y1="159.009" x2="228.001" y2="159.009" gradientUnits="userSpaceOnUse">
<stop stop-color="#FDE1A7"/>
<stop offset="1" stop-color="#F9A144"/>
</linearGradient>
<linearGradient id="paint21_linear" x1="215.498" y1="98.3867" x2="347.092" y2="98.3867" gradientUnits="userSpaceOnUse">
<stop stop-color="#5A55F8"/>
<stop offset="1" stop-color="#8C6AE2"/>
</linearGradient>
<linearGradient id="paint22_linear" x1="196.895" y1="189.801" x2="369.334" y2="189.801" gradientUnits="userSpaceOnUse">
<stop stop-color="#FF57BD"/>
<stop offset="1" stop-color="#FE6A77"/>
</linearGradient>
<linearGradient id="paint23_linear" x1="233.931" y1="188.834" x2="303.142" y2="188.834" gradientUnits="userSpaceOnUse">
<stop stop-color="#C7A0F6"/>
<stop offset="1" stop-color="#FF57BD"/>
</linearGradient>
<linearGradient id="paint24_linear" x1="272" y1="162.561" x2="312.667" y2="162.561" gradientUnits="userSpaceOnUse">
<stop stop-color="#994574"/>
<stop offset="1" stop-color="#43256F"/>
</linearGradient>
<linearGradient id="paint25_linear" x1="243.263" y1="139.729" x2="272.018" y2="168.485" gradientUnits="userSpaceOnUse">
<stop stop-color="#1AA9E8"/>
<stop offset="0.4223" stop-color="#3D80EF"/>
<stop offset="0.7909" stop-color="#5662F4"/>
<stop offset="1" stop-color="#5F57F6"/>
</linearGradient>
<linearGradient id="paint26_linear" x1="410.477" y1="26.5112" x2="587.831" y2="203.866" gradientUnits="userSpaceOnUse">
<stop stop-color="#C91C91"/>
<stop offset="1" stop-color="#FE6A77"/>
</linearGradient>
<linearGradient id="paint27_linear" x1="406.818" y1="86.1675" x2="475.25" y2="86.1675" gradientUnits="userSpaceOnUse">
<stop stop-color="white"/>
<stop offset="1" stop-color="#F1D1F8"/>
</linearGradient>
<linearGradient id="paint28_linear" x1="504.986" y1="159.835" x2="504.986" y2="68.3282" gradientUnits="userSpaceOnUse">
<stop stop-color="#994574"/>
<stop offset="1" stop-color="#9F36AD"/>
</linearGradient>
<linearGradient id="paint29_linear" x1="406.818" y1="120.001" x2="591.486" y2="120.001" gradientUnits="userSpaceOnUse">
<stop stop-color="#FE6A77"/>
<stop offset="1" stop-color="#FF57BD"/>
</linearGradient>
<linearGradient id="paint30_linear" x1="271.329" y1="43.418" x2="359.662" y2="43.418" gradientUnits="userSpaceOnUse">
<stop stop-color="#FDE1A7"/>
<stop offset="1" stop-color="#F9A144"/>
</linearGradient>
<linearGradient id="paint31_linear" x1="418.079" y1="313.841" x2="495.651" y2="313.841" gradientUnits="userSpaceOnUse">
<stop stop-color="#00E2EC"/>
<stop offset="1" stop-color="#0090B2"/>
</linearGradient>
<linearGradient id="paint32_linear" x1="429.739" y1="284.178" x2="483.243" y2="337.682" gradientUnits="userSpaceOnUse">
<stop stop-color="#994574"/>
<stop offset="1" stop-color="#43256F"/>
</linearGradient>
<linearGradient id="paint33_linear" x1="491.738" y1="605.069" x2="531.989" y2="605.069" gradientUnits="userSpaceOnUse">
<stop stop-color="#F4BEA3"/>
<stop offset="1" stop-color="#E8878E"/>
</linearGradient>
<linearGradient id="paint34_linear" x1="477.696" y1="683.56" x2="523.909" y2="683.56" gradientUnits="userSpaceOnUse">
<stop stop-color="#706AED"/>
<stop offset="1" stop-color="#271068"/>
</linearGradient>
<linearGradient id="paint35_linear" x1="549.75" y1="607.662" x2="587.857" y2="607.662" gradientUnits="userSpaceOnUse">
<stop stop-color="#F4BEA3"/>
<stop offset="1" stop-color="#E8878E"/>
</linearGradient>
<linearGradient id="paint36_linear" x1="542" y1="684.359" x2="588.239" y2="684.359" gradientUnits="userSpaceOnUse">
<stop stop-color="#706AED"/>
<stop offset="1" stop-color="#271068"/>
</linearGradient>
<linearGradient id="paint37_linear" x1="493.065" y1="439.602" x2="594.56" y2="541.097" gradientUnits="userSpaceOnUse">
<stop stop-color="#FF57BD"/>
<stop offset="1" stop-color="#FE6A77"/>
</linearGradient>
<linearGradient id="paint38_linear" x1="473.437" y1="310.963" x2="484.678" y2="310.963" gradientUnits="userSpaceOnUse">
<stop stop-color="#C16846"/>
<stop offset="0.2653" stop-color="#D27565"/>
<stop offset="0.5308" stop-color="#DE7F7B"/>
<stop offset="0.7814" stop-color="#E58589"/>
<stop offset="1" stop-color="#E8878E"/>
</linearGradient>
<linearGradient id="paint39_linear" x1="500.494" y1="348.17" x2="538.411" y2="348.17" gradientUnits="userSpaceOnUse">
<stop stop-color="#FDE1A7"/>
<stop offset="1" stop-color="#F9A144"/>
</linearGradient>
<linearGradient id="paint40_linear" x1="465.566" y1="318.555" x2="514.5" y2="318.555" gradientUnits="userSpaceOnUse">
<stop stop-color="#F4BEA3"/>
<stop offset="1" stop-color="#E8878E"/>
</linearGradient>
<linearGradient id="paint41_linear" x1="511.334" y1="364.695" x2="576.366" y2="364.695" gradientUnits="userSpaceOnUse">
<stop stop-color="#FDE1A7"/>
<stop offset="1" stop-color="#F9A144"/>
</linearGradient>
<linearGradient id="paint42_linear" x1="572.148" y1="264.711" x2="631.962" y2="324.524" gradientUnits="userSpaceOnUse">
<stop stop-color="#5A55F8"/>
<stop offset="1" stop-color="#8C6AE2"/>
</linearGradient>
<linearGradient id="paint43_linear" x1="538.334" y1="302.045" x2="564.334" y2="302.045" gradientUnits="userSpaceOnUse">
<stop stop-color="#F4BEA3"/>
<stop offset="1" stop-color="#E8878E"/>
</linearGradient>
<linearGradient id="paint44_linear" x1="520.9" y1="270.534" x2="567.145" y2="270.534" gradientUnits="userSpaceOnUse">
<stop stop-color="#F4BEA3"/>
<stop offset="1" stop-color="#E8878E"/>
</linearGradient>
<linearGradient id="paint45_linear" x1="520.064" y1="266.773" x2="536.028" y2="266.773" gradientUnits="userSpaceOnUse">
<stop stop-color="#FF57BD"/>
<stop offset="1" stop-color="#EC9895"/>
</linearGradient>
<linearGradient id="paint46_linear" x1="530.424" y1="258.794" x2="581.984" y2="258.794" gradientUnits="userSpaceOnUse">
<stop stop-color="#5A55F8"/>
<stop offset="1" stop-color="#8C6AE2"/>
</linearGradient>
<linearGradient id="paint47_linear" x1="430.95" y1="346.985" x2="467.655" y2="346.985" gradientUnits="userSpaceOnUse">
<stop stop-color="#F4BEA3"/>
<stop offset="1" stop-color="#E8878E"/>
</linearGradient>
<linearGradient id="paint48_linear" x1="457.652" y1="361.351" x2="569.459" y2="361.351" gradientUnits="userSpaceOnUse">
<stop stop-color="#FDE1A7"/>
<stop offset="1" stop-color="#F9A144"/>
</linearGradient>
<linearGradient id="paint49_linear" x1="177.678" y1="501.21" x2="233.293" y2="556.825" gradientUnits="userSpaceOnUse">
<stop stop-color="#00E2EC"/>
<stop offset="1" stop-color="#0090B2"/>
</linearGradient>
<linearGradient id="paint50_linear" x1="175.739" y1="499.271" x2="235.232" y2="558.764" gradientUnits="userSpaceOnUse">
<stop stop-color="#706AED"/>
<stop offset="1" stop-color="#271068"/>
</linearGradient>
<linearGradient id="paint51_linear" x1="97.0952" y1="693.097" x2="129.483" y2="725.484" gradientUnits="userSpaceOnUse">
<stop stop-color="#706AED"/>
<stop offset="1" stop-color="#271068"/>
</linearGradient>
<linearGradient id="paint52_linear" x1="40.5557" y1="489.446" x2="183.556" y2="632.447" gradientUnits="userSpaceOnUse">
<stop stop-color="#994574"/>
<stop offset="1" stop-color="#43256F"/>
</linearGradient>
<linearGradient id="paint53_linear" x1="178.585" y1="700.26" x2="209.479" y2="731.154" gradientUnits="userSpaceOnUse">
<stop stop-color="#706AED"/>
<stop offset="1" stop-color="#271068"/>
</linearGradient>
<linearGradient id="paint54_linear" x1="80.2974" y1="479.173" x2="252.026" y2="650.902" gradientUnits="userSpaceOnUse">
<stop stop-color="#994574"/>
<stop offset="1" stop-color="#43256F"/>
</linearGradient>
<linearGradient id="paint55_linear" x1="117.386" y1="216.98" x2="188.582" y2="216.98" gradientUnits="userSpaceOnUse">
<stop stop-color="#F4BEA3"/>
<stop offset="1" stop-color="#E8878E"/>
</linearGradient>
<linearGradient id="paint56_linear" x1="74.2314" y1="307.432" x2="194.026" y2="427.227" gradientUnits="userSpaceOnUse">
<stop stop-color="#1AA9E8"/>
<stop offset="0.4223" stop-color="#3D80EF"/>
<stop offset="0.7909" stop-color="#5662F4"/>
<stop offset="1" stop-color="#5F57F6"/>
</linearGradient>
<linearGradient id="paint57_linear" x1="161.734" y1="264.518" x2="174.44" y2="264.518" gradientUnits="userSpaceOnUse">
<stop stop-color="#EC9895"/>
<stop offset="1" stop-color="#FF57BD"/>
</linearGradient>
<linearGradient id="paint58_linear" x1="119.608" y1="265.652" x2="166.812" y2="312.856" gradientUnits="userSpaceOnUse">
<stop stop-color="#F4BEA3"/>
<stop offset="1" stop-color="#E8878E"/>
</linearGradient>
<linearGradient id="paint59_linear" x1="114.157" y1="259.793" x2="164.605" y2="259.793" gradientUnits="userSpaceOnUse">
<stop stop-color="#CB2090"/>
<stop offset="1" stop-color="#43256F"/>
</linearGradient>
<linearGradient id="paint60_linear" x1="150.518" y1="277.433" x2="172.215" y2="299.13" gradientUnits="userSpaceOnUse">
<stop stop-color="#CB2090"/>
<stop offset="1" stop-color="#43256F"/>
</linearGradient>
<linearGradient id="paint61_linear" x1="121.361" y1="321.81" x2="154.266" y2="321.81" gradientUnits="userSpaceOnUse">
<stop stop-color="#1AA9E8"/>
<stop offset="0.4223" stop-color="#3D80EF"/>
<stop offset="0.7909" stop-color="#5662F4"/>
<stop offset="1" stop-color="#5F57F6"/>
</linearGradient>
<linearGradient id="paint62_linear" x1="161.51" y1="452.832" x2="212.288" y2="452.832" gradientUnits="userSpaceOnUse">
<stop stop-color="#F4BEA3"/>
<stop offset="1" stop-color="#E8878E"/>
</linearGradient>
<linearGradient id="paint63_linear" x1="153.129" y1="367.772" x2="193.055" y2="367.772" gradientUnits="userSpaceOnUse">
<stop stop-color="#1AA9E8"/>
<stop offset="0.4223" stop-color="#3D80EF"/>
<stop offset="0.7909" stop-color="#5662F4"/>
<stop offset="1" stop-color="#5F57F6"/>
</linearGradient>
</defs>
</svg>
