<svg width="695" height="666" viewBox="0 0 695 666" fill="none" xmlns="http://www.w3.org/2000/svg">
<path d="M387.5 387.5C435.358 404.94 503.813 439.35 535.532 447.531C582.699 459.697 687.667 453 694 500C697.563 526.444 678.25 541.75 641 551.5C610.667 559.439 576.774 560.303 569 576.5C560 595.25 591 607 586 631C580.592 656.961 520.535 670.676 457 664C388 656.75 330.706 637.383 327.581 600.248C325.75 578.5 353.484 543.119 306.25 538C280.135 535.17 251 530 229.677 498.262C214.034 474.979 217.191 437.397 235.635 413.87C266.5 374.5 328.5 366 387.5 387.5Z" fill="url(#paint0_linear)"/>
<path d="M694 500C688.597 459.9 611.4 458.887 559.555 451.898L649.536 549.059C681.165 539.239 697.28 524.34 694 500Z" fill="url(#paint1_linear)"/>
<path d="M664.869 543.337L565.957 452.72C556.228 451.529 547.204 450.199 539.457 448.469H539.455L630.404 553.997C633.953 553.235 637.5 552.416 641 551.5C650.04 549.134 658.013 546.438 664.869 543.337Z" fill="#3369FF"/>
<path d="M620.169 500.501H590.611L614.918 527.334H649.569L620.169 500.501Z" fill="url(#paint2_linear)"/>
<path d="M588.8 498.501H617.978L593.227 475.912H568.338L588.8 498.501Z" fill="url(#paint3_linear)"/>
<path d="M617.636 530.334L637.586 552.358C638.728 552.08 639.867 551.796 641 551.5C650.7 548.961 659.171 546.041 666.352 542.65L652.857 530.334H617.636Z" fill="url(#paint4_linear)"/>
<path d="M566.526 473.912H591.035L568.098 452.978C559.577 451.961 551.556 450.856 544.404 449.49L566.526 473.912Z" fill="url(#paint5_linear)"/>
<path opacity="0.4" d="M548.5 571.5C516.686 578.435 472.047 575.714 456 574.5C439.953 573.286 387.25 567.25 383.5 588C380.561 604.267 403.5 618.75 440.5 619.5C484.646 620.395 539.883 601.586 580.236 607.833C573.18 597.028 563.43 588.104 569 576.5C570.664 573.033 573.532 570.272 577.299 567.99C569.408 567.991 559.923 569.01 548.5 571.5Z" fill="url(#paint6_radial)"/>
<path d="M67.6671 26.6668C98.4711 5.80583 163.063 -6.68417 213.5 4.49983C271 17.2498 299.75 46.2498 358.5 41.9998C407.578 38.4498 500 39.9998 534.5 44.4998C569 48.9998 636.334 54.9998 636.5 113C636.615 153.333 600.685 160.484 583 169.5C562.586 179.907 538.666 186.25 538.666 210.5C538.666 230 560.128 238.535 573 248.5C588.5 260.5 608.744 276.662 599.999 305.5C593.497 326.941 571.18 344.183 547.986 345.844C538.188 346.546 503.351 351.431 463.43 334.477C440.332 324.667 420.332 303.667 413.249 284.5C399.186 246.445 397.558 252.375 377.999 255.5C329.61 263.231 301.999 285.75 274.999 319C247.975 352.279 215.173 382.72 173.499 381.5C122.249 380 124.067 333.214 101.999 306.5C73.499 272 10.208 242.582 1.66605 157.667C-3.99995 101.333 15.0001 62.3328 67.6671 26.6668Z" fill="url(#paint7_linear)"/>
<path d="M307.584 73.9996C325.652 73.9996 340.45 60.0386 341.805 42.3166C316.588 41.4296 296.753 34.2266 276.124 25.9126C274.28 30.1246 273.25 34.7736 273.25 39.6656C273.25 58.6276 288.621 73.9996 307.584 73.9996Z" fill="url(#paint8_radial)"/>
<path d="M307.584 61.9995C319.336 61.9995 328.961 52.9195 329.844 41.3935C314.372 39.5485 300.768 35.3655 287.312 30.2935C285.992 33.1445 285.25 36.3175 285.25 39.6655C285.25 52.0005 295.249 61.9995 307.584 61.9995Z" fill="url(#paint9_linear)"/>
<path d="M300.084 41.4998C302.992 41.4998 305.392 39.2968 305.711 36.4728C305.377 36.3778 305.047 36.2748 304.715 36.1778C304.535 38.5878 302.538 40.4998 300.084 40.4998C297.511 40.4998 295.417 38.4068 295.417 35.8328C295.417 34.9578 295.674 34.1488 296.094 33.4478C295.767 33.3368 295.44 33.2258 295.114 33.1138C294.67 33.9218 294.417 34.8478 294.417 35.8328C294.417 38.9578 296.959 41.4998 300.084 41.4998Z" fill="#CFDBA8"/>
<path d="M316.451 54.8907C314.324 54.8907 312.516 53.9787 311.491 52.3887C309.687 49.5887 310.938 45.5597 314.278 43.4067C315.629 42.5367 317.14 42.0767 318.649 42.0767C320.777 42.0767 322.585 42.9887 323.609 44.5797C325.413 47.3797 324.163 51.4087 320.822 53.5607C319.471 54.4317 317.959 54.8907 316.451 54.8907ZM318.648 43.0767C317.332 43.0767 316.008 43.4817 314.819 44.2467C311.942 46.1007 310.825 49.5097 312.331 51.8457C313.168 53.1447 314.669 53.8897 316.45 53.8897C317.766 53.8897 319.091 53.4847 320.279 52.7197C323.156 50.8657 324.273 47.4567 322.767 45.1207C321.931 43.8217 320.43 43.0767 318.648 43.0767Z" fill="#FDE1A7"/>
<path d="M292.837 56.5788L292.247 55.7708C293.472 54.8758 294.175 53.5058 294.175 52.0098C294.175 49.4368 292.081 47.3428 289.508 47.3428C288.627 47.3428 287.76 47.5998 287.001 48.0858L286.462 47.2438C287.382 46.6548 288.436 46.3428 289.508 46.3428C292.633 46.3428 295.175 48.8848 295.175 52.0098C295.175 53.8288 294.323 55.4938 292.837 56.5788Z" fill="#D5DCA8"/>
<path d="M599.999 279.606V305.5C603.048 295.447 602.566 286.939 599.999 279.606Z" fill="url(#paint10_linear)"/>
<path d="M573 248.5C560.128 238.535 538.666 230 538.666 210.5V346.599C542.751 346.324 545.928 345.992 547.986 345.844C571.179 344.183 593.497 326.942 599.999 305.5V279.606C595.2 265.904 583.097 256.317 573 248.5Z" fill="url(#paint11_linear)"/>
<path d="M555.25 263.72V344.807C575.693 340.502 594.181 324.688 599.999 305.499C607.725 280.022 592.826 264.442 578.561 252.881L562.25 256.719C558.384 256.72 555.25 259.854 555.25 263.72Z" fill="url(#paint12_linear)"/>
<path d="M558.25 263.72C558.25 261.514 560.044 259.72 562.25 259.72H562.599L581.453 255.283C579.49 253.611 577.511 252.022 575.573 250.503L561.872 253.727C556.532 253.927 552.25 258.332 552.25 263.72V345.362C554.268 345.052 556.27 344.623 558.25 344.092V263.72Z" fill="#3369FF"/>
<path d="M604.166 61.4678V126H635.095C636.006 122.09 636.514 117.786 636.5 113C636.425 86.6998 622.539 71.0928 604.166 61.4678Z" fill="#003451"/>
<path d="M607 126V63.0298C593.1 55.0508 576.197 50.8338 560.666 48.1738V126H607Z" fill="url(#paint13_linear)"/>
<path d="M553.166 99.167H550.166V122.167H553.166V99.167Z" fill="#003451"/>
<path d="M585.5 82.5H582.5V105.5H585.5V82.5Z" fill="#003451"/>
<path d="M599.999 162.021C617.276 154.312 636.585 142.585 636.5 113C636.479 105.354 635.279 98.619 633.151 92.665H599.999V162.021Z" fill="#003451"/>
<path d="M538.666 123.665V210.5C538.666 186.25 562.586 179.907 583 169.5C587.712 167.098 593.723 164.822 599.999 162.021V92.6641L538.666 123.665Z" fill="url(#paint14_linear)"/>
<path d="M538.666 130.5L599.999 99.5V92.665L538.666 123.665V130.5Z" fill="url(#paint15_linear)"/>
<path d="M539.75 103.625C539.75 104.729 539.875 107.5 541.75 106.75L591.25 82.7498C592.708 82.1668 593.25 80.7288 593.25 79.6248V64.7498C593.25 63.6458 592.333 62.4168 591.25 62.7498L541.75 86.7498C540.312 87.5628 539.75 89.1458 539.75 90.2498V103.625Z" fill="url(#paint16_linear)"/>
<path d="M541.164 108.877C541.163 108.877 541.163 108.877 541.164 108.877C540.137 108.877 537.75 108.365 537.75 103.625V90.2498C537.75 88.6188 538.54 86.2668 540.766 85.0088L540.878 84.9498L590.516 60.8838L590.662 60.8388C590.973 60.7428 591.293 60.6948 591.613 60.6948C593.789 60.6948 595.251 62.7918 595.251 64.7508V79.6258C595.251 81.3058 594.415 83.5988 592.067 84.5778L542.494 108.608C542.045 108.786 541.598 108.877 541.164 108.877ZM542.69 88.5168C542.002 88.9348 541.75 89.7768 541.75 90.2498V103.625C541.75 103.987 541.767 104.278 541.791 104.507L590.507 80.8928C591.23 80.6038 591.25 79.7238 591.25 79.6248V64.9728L542.69 88.5168Z" fill="url(#paint17_linear)"/>
<path d="M599.999 92.665V99.5H635.094C634.578 97.113 633.928 94.836 633.152 92.665H599.999Z" fill="url(#paint18_linear)"/>
<path d="M589 123.25L574 130.25C572.896 130.25 572 131.146 572 132.25V174.758C575.676 173.051 579.393 171.339 583 169.5C585.379 168.288 588.094 167.107 591 165.876V125.25C591 124.146 590.104 123.25 589 123.25Z" fill="url(#paint19_linear)"/>
<path d="M591 145.319L572 152.334V155.533L591 148.517V145.319Z" fill="url(#paint20_linear)"/>
<path d="M589 120.75H588.445L573.342 127.798C571.171 128.117 569.499 129.992 569.499 132.25V175.923C571.154 175.147 572.826 174.375 574.499 173.596V132.75L588.499 126.242V166.946C590.095 166.253 591.772 165.548 593.499 164.821V125.25C593.5 122.769 591.481 120.75 589 120.75Z" fill="url(#paint21_linear)"/>
<path d="M519.5 85.8271C519.5 89.7791 516.297 92.9821 512.346 92.9821H387.904C383.953 92.9821 380.75 89.7791 380.75 85.8271V32.4231C380.75 28.4711 383.953 25.2681 387.904 25.2681H512.345C516.296 25.2681 519.499 28.4711 519.499 32.4231V85.8271H519.5Z" fill="url(#paint22_linear)"/>
<path d="M512.346 95.9821H387.904C382.305 95.9821 377.75 91.4261 377.75 85.8271V32.4231C377.75 26.8241 382.306 22.2681 387.904 22.2681H512.345C517.944 22.2681 522.499 26.8241 522.499 32.4231V85.8271C522.5 91.4261 517.944 95.9821 512.346 95.9821ZM387.904 28.2681C385.613 28.2681 383.75 30.1321 383.75 32.4231V85.8271C383.75 88.1181 385.613 89.9821 387.904 89.9821H512.345C514.636 89.9821 516.499 88.1181 516.499 85.8271V32.4231C516.499 30.1321 514.636 28.2681 512.345 28.2681H387.904Z" fill="url(#paint23_linear)"/>
<path d="M505 42.125C505 43.299 504.049 44.25 502.875 44.25H397.375C396.201 44.25 395.25 43.299 395.25 42.125C395.25 40.951 396.201 40 397.375 40H502.875C504.049 40 505 40.951 505 42.125Z" fill="#FDE1A7"/>
<path d="M437.708 54.75H428.167H421.667H397.375C396.201 54.75 395.25 55.701 395.25 56.875C395.25 58.049 396.201 59 397.375 59H421.667H428.167H437.708C438.882 59 439.833 58.049 439.833 56.875C439.833 55.701 438.882 54.75 437.708 54.75Z" fill="#FDE1A7"/>
<path d="M502.875 54.75H487.334H485.5H478.041C476.867 54.75 475.916 55.701 475.916 56.875C475.916 58.049 476.867 59 478.041 59H485.5H487.334H502.875C504.049 59 505 58.049 505 56.875C505 55.701 504.049 54.75 502.875 54.75Z" fill="#FDE1A7"/>
<path d="M464.541 54.75H461.667H456.5H449.875C448.701 54.75 447.75 55.701 447.75 56.875C447.75 58.049 448.701 59 449.875 59H456.5H461.667H464.541C465.715 59 466.666 58.049 466.666 56.875C466.666 55.701 465.715 54.75 464.541 54.75Z" fill="#FDE1A7"/>
<path d="M502.875 69.5H500.001H494.834H488.209C487.035 69.5 486.084 70.451 486.084 71.625C486.084 72.799 487.035 73.75 488.209 73.75H494.834H500.001H502.875C504.049 73.75 505 72.799 505 71.625C505 70.451 504.049 69.5 502.875 69.5Z" fill="#FDE1A7"/>
<path d="M472.75 69.5H436.875H408.375H397.375C396.201 69.5 395.25 70.451 395.25 71.625C395.25 72.799 396.201 73.75 397.375 73.75H408.375H436.875H472.75C473.924 73.75 474.875 72.799 474.875 71.625C474.875 70.451 473.924 69.5 472.75 69.5Z" fill="#FDE1A7"/>
<path d="M401.667 234C396.167 222.333 394.501 221.167 389.667 216.5C384.833 211.833 381.315 208.226 380.333 208.667C379.031 209.25 379.334 212.667 380.417 215.584C381.5 218.501 383.333 220.001 383.333 220.001C383.333 220.001 380.084 219.668 373.167 216.584C366.25 213.5 360.584 208.667 359.417 209.834C358.25 211.001 360.583 215.001 360.583 215.001C360.583 215.001 358.72 213.813 358.25 215.168C358.023 215.822 359.09 218.081 360 219.501C360.829 220.795 363.083 223.084 363.083 223.084C363.083 223.084 362.584 224.084 363.917 226.251C365.25 228.418 371.5 234.751 378 237.814C382.871 240.109 387.917 240.502 387.917 240.502C387.917 240.502 387.507 245.986 387.693 255.008C392.242 254.389 399.765 252.766 406.597 248.908C404.995 242.908 403.288 237.438 401.667 234Z" fill="url(#paint24_linear)"/>
<path d="M360.787 214.851C361.19 215.36 361.718 215.815 362.23 216.264C362.75 216.71 363.286 217.14 363.83 217.56C364.919 218.396 366.039 219.205 367.19 219.916C367.426 220.059 367.502 220.367 367.359 220.603C367.215 220.839 366.908 220.915 366.671 220.771C366.663 220.766 366.65 220.758 366.643 220.752C365.485 219.938 364.407 219.056 363.352 218.141C362.826 217.683 362.309 217.214 361.806 216.728C361.307 216.235 360.803 215.752 360.378 215.149C360.297 215.034 360.324 214.877 360.439 214.796C360.549 214.719 360.701 214.741 360.783 214.845L360.787 214.851Z" fill="#1AA9E8"/>
<path d="M362.935 222.875C363.071 222.765 363.316 222.595 363.55 222.537C363.783 222.468 364.03 222.445 364.262 222.469C364.731 222.509 365.146 222.67 365.535 222.845C366.308 223.218 367.011 223.614 367.726 224.09C368.418 224.57 369.057 225.094 369.708 225.565C370.348 226.026 371.043 226.488 371.67 226.591L371.693 226.594C371.966 226.639 372.151 226.896 372.106 227.169C372.062 227.441 371.804 227.627 371.532 227.582C371.52 227.58 371.508 227.578 371.496 227.575C370.499 227.336 369.838 226.771 369.175 226.262C368.522 225.738 367.915 225.188 367.282 224.701C366.656 224.236 365.944 223.788 365.258 223.415C364.566 223.054 363.812 222.813 363.231 223.291C363.123 223.38 362.961 223.365 362.872 223.256C362.783 223.147 362.798 222.986 362.907 222.896C362.907 222.896 362.907 222.896 362.908 222.896L362.935 222.875Z" fill="#1AA9E8"/>
<path d="M383.388 219.825C385.33 220.283 387.189 221.179 388.871 222.257L388.881 222.263C389.114 222.412 389.182 222.722 389.032 222.955C388.882 223.188 388.573 223.256 388.34 223.106C388.325 223.097 388.311 223.086 388.297 223.075C386.778 221.857 385.129 220.829 383.278 220.173C383.182 220.139 383.132 220.034 383.167 219.939C383.198 219.85 383.291 219.801 383.381 219.821L383.388 219.825Z" fill="#1AA9E8"/>
<path d="M442.42 252.226C441.167 248 436.25 247.5 436.25 247.5C433.833 250.5 413.667 280.667 413.667 280.667C413.667 280.667 410.433 263.261 406.598 248.906C399.766 252.763 392.243 254.387 387.694 255.006C387.845 262.268 388.382 271.82 389.835 282.667C392.876 305.375 397.249 313.109 402.501 314.167C408.501 315.375 422.335 309.167 433.835 301.334C445.335 293.501 443.673 256.451 442.42 252.226Z" fill="url(#paint25_linear)"/>
<path d="M406.245 304.506C405.456 304.506 404.807 304.305 404.33 303.869C396.263 296.512 394.199 255.401 394.115 253.655C394.101 253.379 394.314 253.145 394.59 253.132C394.896 253.115 395.1 253.332 395.113 253.608C395.134 254.031 397.239 296.05 405.004 303.131C408.901 306.694 430.655 288.442 444.32 275.307C444.517 275.116 444.836 275.12 445.027 275.321C445.218 275.52 445.213 275.837 445.013 276.028C441.755 279.159 415.106 304.506 406.245 304.506Z" fill="#3369FF"/>
<path d="M401.995 265.574L401.313 262.097C401.062 260.818 399.821 259.983 398.541 260.234C398.541 260.234 392.619 262.073 387.985 262.755C388.128 265.462 388.322 268.347 388.59 271.41C392.933 271.176 400.13 268.347 400.13 268.347C401.411 268.097 402.246 266.855 401.995 265.574Z" fill="url(#paint26_linear)"/>
<path d="M388.591 271.91C388.333 271.91 388.115 271.713 388.093 271.453C387.844 268.611 387.64 265.693 387.487 262.781C387.473 262.523 387.658 262.298 387.913 262.26C392.455 261.592 398.335 259.775 398.393 259.757C398.631 259.708 398.816 259.69 398.998 259.69C400.361 259.69 401.541 260.662 401.804 262.002L402.486 265.479C402.633 266.23 402.479 266.993 402.052 267.627C401.625 268.261 400.978 268.692 400.227 268.839C400.017 268.93 392.992 271.674 388.619 271.91C388.608 271.91 388.6 271.91 388.591 271.91ZM388.509 263.18C388.65 265.763 388.83 268.347 389.046 270.875C393.295 270.481 399.88 267.909 399.948 267.882C400.523 267.761 400.944 267.481 401.222 267.068C401.499 266.655 401.6 266.158 401.504 265.67L400.822 262.193C400.627 261.204 399.657 260.519 398.635 260.724C398.63 260.73 393.055 262.454 388.509 263.18Z" fill="#3369FF"/>
<path d="M509.693 229.807C506.25 226.375 500.5 222.5 489.625 219.375C478.75 216.25 447.25 219.25 443.625 227.875C440 236.5 455.043 249.068 467.771 252.034C480.499 255 511.667 251 515.375 238.5C516.286 235.428 509.693 229.807 509.693 229.807Z" fill="url(#paint27_linear)"/>
<path d="M492 213.833C490.375 219.25 494.834 241.5 496.667 247.833C491.375 251.875 483.935 253.608 474.5 253C462.875 252.25 458 247.667 458 247.667C458 247.667 464.625 239.875 466.166 224.334C467.531 210.564 492 213.833 492 213.833Z" fill="url(#paint28_linear)"/>
<path d="M496.556 206.12C501.66 199.188 507.354 187.649 498.334 175.083C493.25 168 482.995 164.927 477.375 165.5C463.64 166.9 461.251 174.25 461.251 174.25C454.917 181.167 445.251 213 458.5 223.25C469.899 232.069 484.291 221.56 489.519 215.199C490.51 216.011 491.777 216.498 493.158 216.498C496.333 216.498 498.906 213.924 498.906 210.749C498.905 208.847 497.979 207.167 496.556 206.12Z" fill="url(#paint29_radial)"/>
<path d="M493.834 180.917C490.132 180.998 479.104 185.786 477.188 182.438C475.292 179.125 482.696 175.311 481.313 172.938C479.625 170.042 473.863 173.146 469.125 175.313C463.25 178.001 459.096 177.859 453.375 171.875C447.937 166.187 447.708 159.25 450.75 157C454.31 154.368 458.333 155.167 460.688 156.562C463.069 157.974 466.215 162.007 468.938 160.062C471.417 158.291 468.407 153.587 471.938 151.937C475.459 150.291 481.542 152.729 484.667 156.916C487.792 161.103 487.869 162.605 492.813 163.312C499.376 164.25 512.288 167.897 513.001 184.916C513.584 198.833 504.449 204.235 501.126 206.326C497.803 208.417 501.633 193.92 500.751 188.166C500.313 185.313 497.668 180.833 493.834 180.917Z" fill="url(#paint30_linear)"/>
<path d="M468.834 191.5C467.854 191.01 462.333 194.167 458.667 197.083C455.377 199.701 451.493 201.133 451.955 202.9C452.417 204.667 458.834 206.667 458.834 206.667C458.834 206.667 460.101 203.159 463.251 199.417C466.583 195.458 469.834 192 468.834 191.5Z" fill="url(#paint31_linear)"/>
<path d="M461.022 217.1C460.714 217.1 460.38 217.066 460.02 216.989C456.655 216.271 455.298 211.956 455.545 209.94C455.578 209.666 455.829 209.466 456.102 209.504C456.376 209.537 456.572 209.787 456.538 210.061C456.354 211.566 457.388 215.405 460.229 216.012C462.499 216.493 463.043 214.876 463.065 214.807C463.149 214.544 463.425 214.394 463.694 214.483C463.957 214.567 464.102 214.848 464.018 215.111C463.776 215.868 462.861 217.1 461.022 217.1Z" fill="#9F36AD"/>
<path d="M475.057 202.397C474.143 203.457 472.542 203.574 471.484 202.659C470.423 201.743 470.306 200.143 471.221 199.084L475.284 194.38C476.198 193.32 477.799 193.203 478.857 194.118C479.918 195.034 480.035 196.634 479.12 197.693L475.057 202.397Z" fill="#212F66"/>
<path d="M473.492 200.586C473.156 200.976 472.567 201.019 472.178 200.683C471.789 200.347 471.746 199.759 472.082 199.369L473.575 197.64C473.912 197.251 474.499 197.207 474.888 197.544C475.278 197.88 475.321 198.469 474.984 198.858L473.492 200.586Z" fill="#00E2EC"/>
<path d="M460.934 192.313C460.039 193.351 458.472 193.465 457.436 192.57C456.398 191.674 456.283 190.107 457.179 189.07L461.157 184.465C462.052 183.427 463.619 183.312 464.655 184.208C465.693 185.104 465.808 186.671 464.912 187.708L460.934 192.313Z" fill="#212F66"/>
<path d="M459.402 190.541C459.073 190.922 458.497 190.964 458.115 190.636C457.734 190.306 457.692 189.731 458.021 189.349L459.483 187.656C459.813 187.275 460.387 187.233 460.769 187.562C461.151 187.892 461.193 188.468 460.863 188.849L459.402 190.541Z" fill="#00E2EC"/>
<path d="M509.667 192.417C509.125 179.313 493.834 180.917 493.834 180.917C493.834 180.917 496.375 182.688 497.251 188.417C498.296 195.252 496.322 202.027 494.671 205.209C496.248 205.639 497.553 206.721 498.28 208.151C501.561 206.281 510.008 200.652 509.667 192.417Z" fill="url(#paint32_linear)"/>
<path d="M514.945 534.923C514.868 520.521 514.833 505.353 514.833 497.833C514.833 481.333 516.5 427.499 515 412.333C513.5 397.167 510 367.667 510 367.667C510 367.667 481.527 371.131 463.984 369.781C445.167 368.334 435.908 363.265 435.908 363.265C435.672 367.521 433.959 409.89 436.111 434.772C438.943 467.506 445.172 512.985 448.15 533.625C452.189 535.094 460.834 536.49 469.322 534.373C469.955 512.086 471.004 482.023 471.333 471.5C471.833 455.5 474.167 427.5 474.167 427.5C474.167 427.5 480.166 467.999 483.5 487.833C485.537 499.95 488.505 519.152 490.85 534.963C496.188 535.911 505.767 536.232 514.945 534.923Z" fill="url(#paint33_linear)"/>
<path d="M431.957 360.141C435.57 363.788 448.275 374.135 494.275 367.885C492.692 351.885 487.834 318.333 489.167 305.5C490.5 292.667 494.977 251.062 494.977 251.062C494.977 251.062 479.834 254.666 468.167 252.166C456.5 249.666 451.333 245 451.333 245C451.333 245 441.75 266.5 435.75 308C429.75 349.5 431.957 360.141 431.957 360.141Z" fill="url(#paint34_linear)"/>
<path d="M462.751 370.234C462.488 370.234 462.269 370.031 462.252 369.765C461.245 353.871 466.221 266.26 467.67 252.115C467.698 251.84 467.942 251.64 468.218 251.668C468.492 251.696 468.693 251.942 468.664 252.216C467.217 266.346 462.245 353.841 463.25 369.702C463.268 369.977 463.059 370.215 462.782 370.232C462.771 370.234 462.761 370.234 462.751 370.234Z" fill="#FFA2BA"/>
<path d="M474.748 431.912C474.505 431.912 474.292 431.734 474.255 431.486C473.799 428.441 473.176 423.896 472.574 419.501C471.717 413.239 470.745 406.141 470.531 405.55C470.224 404.753 464.864 399.886 462.559 398.013C462.345 397.839 462.312 397.525 462.487 397.31C462.661 397.095 462.975 397.062 463.19 397.238C464.319 398.155 470.985 403.912 471.467 405.2C471.702 405.828 472.417 410.992 473.565 419.367C474.166 423.759 474.788 428.3 475.243 431.339C475.284 431.612 475.096 431.866 474.823 431.907C474.798 431.91 474.773 431.912 474.748 431.912Z" fill="#212F66"/>
<path d="M433.719 358.386C437.092 361.677 441.904 363.579 446.832 364.801C451.799 366.011 457.009 366.536 462.236 366.715C472.716 367.036 483.31 365.995 493.804 364.417L494.745 371.353C483.926 372.632 472.975 373.376 461.941 372.694C456.431 372.331 450.891 371.61 445.438 370.101C442.715 369.34 440.015 368.376 437.414 367.071C434.828 365.774 432.287 364.083 430.194 361.896L433.719 358.386Z" fill="url(#paint35_linear)"/>
<path d="M457.697 244.772C457.716 244.799 458.128 245.124 458.517 245.361C458.923 245.616 459.374 245.868 459.841 246.106C460.776 246.584 461.777 247.009 462.797 247.386C464.844 248.137 466.987 248.686 469.154 249.041C473.493 249.752 477.94 249.661 482.224 248.803L483.439 255.697C478.306 256.501 473.039 256.381 467.978 255.329C465.447 254.803 462.965 254.056 460.563 253.057C459.361 252.554 458.179 251.994 457.011 251.334C456.427 251.003 455.847 250.648 455.257 250.242C454.662 249.807 454.085 249.437 453.315 248.562L457.697 244.772Z" fill="url(#paint36_linear)"/>
<path d="M470.545 373.452C467.602 373.452 464.697 373.364 461.911 373.192C455.486 372.768 450.211 371.939 445.306 370.582C442.258 369.73 439.604 368.728 437.191 367.518C434.248 366.041 431.772 364.266 429.835 362.242C429.647 362.046 429.65 361.734 429.844 361.542L433.367 358.032C433.56 357.84 433.872 357.837 434.069 358.029C436.929 360.819 441.143 362.877 446.953 364.316C451.376 365.393 456.382 366.015 462.254 366.215C463.53 366.254 464.812 366.274 466.093 366.274C474.285 366.274 483.068 365.527 493.732 363.923C493.864 363.902 494 363.938 494.106 364.017C494.213 364.098 494.284 364.217 494.301 364.35L495.242 371.286C495.261 371.419 495.224 371.554 495.142 371.66C495.06 371.765 494.938 371.834 494.805 371.849C485.556 372.942 477.847 373.452 470.545 373.452ZM430.899 361.899C432.705 363.697 434.969 365.284 437.639 366.623C439.993 367.806 442.589 368.785 445.574 369.619C450.41 370.957 455.622 371.775 461.975 372.194C464.738 372.365 467.621 372.452 470.544 372.452C477.672 372.452 485.196 371.963 494.182 370.915L493.376 364.986C482.888 366.546 474.205 367.273 466.091 367.273C464.799 367.273 463.509 367.253 462.22 367.214C456.277 367.011 451.204 366.38 446.713 365.285C440.959 363.859 436.704 361.828 433.727 359.082L430.899 361.899Z" fill="#FFA2BA"/>
<path d="M476.706 256.721C473.729 256.721 470.759 256.417 467.878 255.819C465.256 255.274 462.731 254.5 460.372 253.518C459.051 252.965 457.872 252.393 456.767 251.769C456.12 251.402 455.534 251.037 454.976 250.653L454.747 250.487C454.21 250.1 453.654 249.7 452.942 248.891C452.853 248.791 452.809 248.66 452.818 248.526C452.827 248.393 452.889 248.269 452.99 248.182L457.371 244.393C457.479 244.3 457.623 244.259 457.762 244.275C457.903 244.293 458.03 244.37 458.11 244.487L458.111 244.486C458.132 244.486 458.465 244.741 458.779 244.933C459.169 245.178 459.601 245.421 460.07 245.66C460.937 246.103 461.914 246.525 462.972 246.916C464.946 247.641 467.053 248.189 469.238 248.547C473.469 249.241 477.892 249.161 482.13 248.313C482.26 248.287 482.398 248.314 482.51 248.391C482.621 248.467 482.697 248.584 482.72 248.717L483.935 255.611C483.958 255.743 483.927 255.88 483.85 255.988C483.772 256.097 483.653 256.171 483.52 256.192C481.272 256.542 478.981 256.721 476.706 256.721ZM454.035 248.601C454.513 249.087 454.912 249.375 455.33 249.676L455.554 249.838C456.076 250.197 456.638 250.547 457.259 250.899C458.329 251.503 459.474 252.058 460.758 252.595C463.057 253.552 465.522 254.307 468.081 254.839C472.883 255.837 477.95 255.986 482.859 255.279L481.821 249.391C477.624 250.171 473.258 250.221 469.074 249.535C466.828 249.167 464.658 248.602 462.626 247.855C461.529 247.451 460.516 247.012 459.614 246.551C459.12 246.299 458.661 246.041 458.252 245.784C458.167 245.733 457.932 245.579 457.712 245.42L454.035 248.601Z" fill="#FFA2BA"/>
<path d="M448.15 533.625C448.368 535.134 448.569 536.521 448.75 537.75C450.91 552.465 451.899 558.947 451.167 561.167C446.563 575.125 424.725 578.251 424 580.667C423.375 582.75 424.434 585.026 425.625 585.875C429.75 588.813 458.998 586.818 462.834 586.167C467.5 585.375 470.25 583.5 470.334 582C470.399 580.835 469.001 569.333 468.834 559C468.777 555.463 468.993 545.971 469.322 534.373C460.834 536.49 452.189 535.094 448.15 533.625Z" fill="url(#paint37_linear)"/>
<path d="M497.5 579.5C498.666 583.167 500.917 583.501 504.917 585.417C508.917 587.333 526.168 595.249 532.918 594.666C539.668 594.083 539.834 592.167 539.751 590.5C539.668 588.833 535.585 584.417 529.751 580C523.917 575.583 515.833 570.167 515.417 568.917C515.19 568.236 515.038 552.126 514.945 534.923C505.766 536.233 496.187 535.911 490.849 534.963C492.342 545.031 493.582 553.729 494.166 558.333C495.667 570.167 496.334 575.833 497.5 579.5Z" fill="url(#paint38_linear)"/>
<path d="M504.917 585.417C508.917 587.333 526.168 595.249 532.918 594.666C539.668 594.083 539.834 592.167 539.751 590.5C539.734 590.156 539.538 589.69 539.201 589.138C537.74 590.192 534.85 591.503 529.917 590.834C518.69 589.313 498.823 579.38 496.768 576.635C496.997 577.723 497.236 578.667 497.5 579.5C498.666 583.167 500.917 583.501 504.917 585.417Z" fill="url(#paint39_linear)"/>
<path d="M425.625 585.875C429.75 588.813 458.998 586.818 462.834 586.167C467.5 585.375 470.25 583.5 470.334 582C470.353 581.672 470.254 580.521 470.101 578.807C467.449 580.016 462.04 581.977 453 583.125C437.75 585.063 425.687 582.75 424 580.667C423.375 582.75 424.434 585.026 425.625 585.875Z" fill="url(#paint40_linear)"/>
<path d="M515.062 551.584C515.044 549.59 515.027 547.489 515.011 545.313H507.692C504.125 545.313 501.211 548.081 500.963 551.584H515.062Z" fill="url(#paint41_linear)"/>
<path d="M515.156 560C515.132 558.244 515.108 556.283 515.087 554.167H500.938V560H515.156Z" fill="url(#paint42_linear)"/>
<path d="M515.196 562.583H500.938C500.952 566.302 503.968 569.312 507.691 569.312H515.683C515.552 569.158 515.451 569.018 515.416 568.916C515.334 568.666 515.26 566.313 515.196 562.583Z" fill="url(#paint43_linear)"/>
<path d="M458.933 551.375V549.09C458.933 546.033 456.455 543.556 453.4 543.556H449.601C450.046 546.608 450.414 549.186 450.7 551.375H458.933Z" fill="url(#paint44_linear)"/>
<path d="M451.024 554C451.463 557.815 451.537 560.045 451.167 561.167C450.931 561.882 450.64 562.563 450.318 563.222H453.399C456.455 563.222 458.932 560.744 458.932 557.688V554H451.024Z" fill="url(#paint45_linear)"/>
<path d="M451.5 249.833C448.319 259.659 443.261 284.851 440.833 311.5C438.236 340.006 436.75 355.083 436.5 392.833C436.162 443.854 442.05 477.487 441.5 478.666C440.625 480.541 421.5 475 414 471C406.5 467 401 462 401 462C401 462 411 395 417.5 356C424 317 434 280 434.75 269.75C435.5 259.5 436.25 247.5 436.25 247.5C436.25 247.5 439.25 244 444.75 244.75C450.25 245.5 451.5 249.833 451.5 249.833Z" fill="url(#paint46_linear)"/>
<path d="M430.761 315.01L430.579 318.467C430.512 320.123 430.709 321.543 433.292 323.334L439.211 327.637C439.574 324.257 439.943 320.758 440.308 317.041L433.88 312.134C431.959 311.25 430.828 313.354 430.761 315.01Z" fill="url(#paint47_linear)"/>
<path d="M438.405 281.549C436 280.625 435.353 282.77 435.286 284.425L435.104 287.882C435.037 289.538 435.774 290.581 437.979 292.041L442.639 295.267C443.08 291.885 443.551 288.579 444.042 285.383L438.405 281.549Z" fill="url(#paint48_linear)"/>
<path d="M443.625 227.875C443.375 237.625 457.875 238.5 459.5 240.667C461.859 243.813 453.167 261.333 450.5 261C447.833 260.667 443.195 252.829 441.125 250.625C439.187 248.562 437.25 246.375 437.375 245.125C437.5 243.875 441.468 230.666 443.625 227.875Z" fill="url(#paint49_linear)"/>
<path d="M448.152 259.999C448.031 259.999 447.91 259.956 447.813 259.867C447.61 259.68 447.597 259.364 447.784 259.16C452.214 254.343 457.244 245.529 456.128 243.45C455.831 242.898 454.306 242.115 452.69 241.285C448.278 239.019 441.611 235.596 442.182 228.976C442.206 228.701 442.46 228.498 442.723 228.521C442.998 228.544 443.202 228.787 443.178 229.062C442.665 235.012 448.973 238.251 453.147 240.395C455.131 241.414 456.565 242.15 457.008 242.976C458.612 245.965 452.424 255.59 448.52 259.836C448.422 259.944 448.287 259.999 448.152 259.999Z" fill="#3369FF"/>
<path d="M489.375 261.625C488.125 266.5 481.653 315.261 480.333 365.334C479.015 415.333 480.134 483.357 482 486C484.001 488.834 502.584 482.917 514.667 479C526.126 475.285 536 469.333 536 469.333C536 469.333 534.667 411.334 534.667 388.667C534.667 366 526.75 263.5 526.75 263.5C526.75 263.5 519.64 254.527 507.5 252.75C495.36 250.973 489.375 261.625 489.375 261.625Z" fill="url(#paint50_linear)"/>
<path d="M495.75 285.836L475.626 293.711C472.917 294.792 472.684 296.214 472.751 297.87L472.933 301.327C473 302.982 474.001 304.584 476.052 304.203L494.557 296.243C494.937 292.615 495.334 289.14 495.75 285.836Z" fill="url(#paint51_linear)"/>
<path d="M492.554 318.996L475.591 324.234C472.882 325.315 472.649 326.737 472.716 328.393L472.898 331.85C472.965 333.505 473.966 335.107 476.017 334.726L491.851 329.234C492.072 325.762 492.307 322.345 492.554 318.996Z" fill="url(#paint52_linear)"/>
<path d="M474.943 304.709C474.729 304.709 474.532 304.571 474.465 304.357C474.35 303.985 474.283 303.589 474.266 303.18L474.085 299.729C474.016 298.044 474.206 296.303 477.273 295.079L495.1 288.103C495.359 288.002 495.648 288.129 495.748 288.387C495.848 288.645 495.722 288.934 495.465 289.035L477.641 296.01C475.173 296.994 475.023 298.204 475.083 299.683L475.264 303.134C475.278 303.463 475.329 303.773 475.419 304.062C475.501 304.326 475.354 304.606 475.09 304.687C475.042 304.702 474.992 304.709 474.943 304.709Z" fill="#3369FF"/>
<path d="M474.909 335.232C474.695 335.232 474.497 335.094 474.43 334.88C474.315 334.508 474.248 334.112 474.231 333.703L474.05 330.252C473.981 328.567 474.171 326.826 477.238 325.602L492.402 320.918C492.666 320.837 492.945 320.984 493.027 321.248C493.109 321.512 492.962 321.792 492.698 321.873L477.571 326.543C475.138 327.515 474.988 328.725 475.049 330.204L475.23 333.655C475.244 333.984 475.295 334.294 475.385 334.583C475.467 334.847 475.321 335.127 475.057 335.208C475.008 335.225 474.958 335.232 474.909 335.232Z" fill="#3369FF"/>
<path d="M492.505 486.026C492.259 486.026 492.045 485.844 492.011 485.594C485.398 437.377 489.375 292.987 500.524 257.599C500.606 257.336 500.887 257.189 501.151 257.272C501.415 257.355 501.56 257.636 501.477 257.899C490.356 293.2 486.399 437.317 493.001 485.457C493.039 485.731 492.848 485.983 492.574 486.02C492.551 486.024 492.528 486.026 492.505 486.026Z" fill="#3369FF"/>
<path d="M521.81 476.847C521.576 476.847 521.367 476.681 521.32 476.442C514.666 441.948 519.847 347.303 521.55 316.203L521.834 310.974C521.849 310.699 522.094 310.484 522.36 310.501C522.636 310.516 522.846 310.751 522.832 311.027L522.548 316.256C520.847 347.327 515.67 441.879 522.302 476.252C522.354 476.523 522.177 476.785 521.906 476.838C521.873 476.844 521.842 476.847 521.81 476.847Z" fill="#9F36AD"/>
<path d="M534.079 371.505C524.348 374.464 509.34 379.166 503.209 381.833C501.292 382.667 500 384.135 500 385.792V401.333C500 402.99 501.219 403.875 502.876 403.875L534.669 389.976C534.668 389.529 534.667 389.09 534.667 388.667C534.667 384.887 534.446 378.879 534.079 371.505Z" fill="url(#paint53_linear)"/>
<path d="M503.338 404.182C503.168 404.182 503.001 404.094 502.907 403.937C502.645 403.495 502.508 402.978 502.498 402.401L502.219 386.863C502.187 385.053 503.469 383.379 505.649 382.384C510.553 380.145 521.259 376.467 529.378 373.777C529.639 373.689 529.924 373.833 530.01 374.094C530.097 374.356 529.954 374.639 529.693 374.726C518.086 378.574 509.916 381.537 506.066 383.294C504.259 384.118 503.196 385.446 503.22 386.846L503.499 402.384C503.506 402.786 503.597 403.137 503.77 403.428C503.911 403.665 503.832 403.972 503.594 404.114C503.513 404.159 503.425 404.182 503.338 404.182Z" fill="#9F36AD"/>
<path d="M510.084 401.224C509.808 401.224 509.584 401 509.584 400.724V389.667C509.584 387.714 511.211 386.225 512.824 385.615L513.705 385.276C515.721 384.494 518.767 383.312 520.915 383.128C521.842 383.05 522.644 383.291 523.234 383.833C523.836 384.385 524.167 385.223 524.167 386.193V394.785C524.167 395.061 523.943 395.285 523.667 395.285C523.391 395.285 523.167 395.061 523.167 394.785V386.193C523.167 385.497 522.956 384.935 522.559 384.57C522.18 384.221 521.637 384.071 521.001 384.124C518.995 384.297 516.029 385.447 514.067 386.208L513.177 386.551C511.886 387.038 510.583 388.192 510.583 389.667V400.724C510.584 401 510.36 401.224 510.084 401.224Z" fill="#3369FF"/>
<path d="M477 243.5C479.062 241.438 487.523 242.314 496.667 240.833C506.958 239.166 511.5 237.625 512.167 235.333C513.004 232.459 509 229.166 509 229.166C509 229.166 518.167 234.5 518 236.833C517.833 239.166 512.167 254.5 512.167 254.5C512.167 254.5 501.334 259.667 493.667 263C486 266.333 478.501 271.333 476.167 270.167C473.833 269.001 474.167 246.333 477 243.5Z" fill="url(#paint54_linear)"/>
<path d="M478.23 270.139C477.614 267.267 477.491 264.389 477.41 261.514C477.358 258.639 477.419 255.762 477.69 252.891C477.832 251.455 478.013 250.021 478.328 248.592C478.491 247.878 478.677 247.164 478.983 246.456C479.143 246.103 479.319 245.747 479.634 245.41C479.944 245.092 480.328 244.88 480.677 244.727C482.113 244.137 483.551 243.97 484.984 243.779C486.417 243.609 487.847 243.497 489.274 243.389C492.128 243.177 494.975 242.995 497.797 242.649C500.61 242.298 503.415 241.756 506.149 241.011C507.512 240.629 508.862 240.189 510.151 239.627C511.415 239.06 512.719 238.389 513.534 237.363C514.355 236.345 513.961 234.857 513.303 233.674C512.637 232.459 511.727 231.344 510.737 230.335C510.7 230.3 510.698 230.242 510.732 230.205C510.764 230.17 510.82 230.168 510.857 230.195C511.983 231.099 512.998 232.148 513.776 233.403C514.163 234.029 514.466 234.728 514.589 235.493C514.715 236.244 514.579 237.137 514.076 237.764C513.096 238.999 511.744 239.661 510.435 240.273C509.107 240.864 507.734 241.323 506.349 241.722C503.573 242.501 500.753 243.067 497.899 243.446C495.047 243.818 492.187 244.021 489.341 244.255C487.919 244.373 486.498 244.496 485.094 244.673C483.703 244.862 482.269 245.064 481.057 245.579C480.427 245.844 480.116 246.188 479.854 246.835C479.595 247.441 479.419 248.119 479.271 248.798C478.981 250.164 478.813 251.572 478.685 252.982C478.444 255.805 478.36 258.652 478.415 261.493C478.49 264.325 478.619 267.193 479.204 269.918L479.207 269.928C479.265 270.198 479.093 270.464 478.823 270.522C478.554 270.581 478.288 270.409 478.23 270.139Z" fill="#3369FF"/>
<path d="M500.25 260.837C500.199 260.837 500.147 260.829 500.096 260.813C499.833 260.728 499.69 260.446 499.775 260.183C501.202 255.786 505.307 241.681 505.348 241.539C505.424 241.273 505.699 241.119 505.968 241.199C506.234 241.276 506.386 241.553 506.309 241.819C506.267 241.961 502.157 256.081 500.726 260.492C500.657 260.703 500.461 260.837 500.25 260.837Z" fill="#3369FF"/>
<path d="M553.249 397.576C553.237 396.547 552.785 360.187 549.501 338.5C545.795 314.03 533.833 267.5 526.75 263.5C523.147 261.466 510.561 272.668 510.334 298.333C510.166 317.333 516.654 332.503 520.834 349.666C524.75 365.745 531.758 391.55 532.834 398.666C532.87 398.903 532.901 399.116 532.936 399.343C537.657 397.67 546.763 397.094 553.249 397.576Z" fill="url(#paint55_linear)"/>
<path d="M544.136 370.244L545.294 381.147L552.804 380.753L552.413 371.749C552.413 371.75 550.188 370.154 544.136 370.244Z" fill="url(#paint56_linear)"/>
<path d="M545.294 381.647C545.039 381.647 544.824 381.456 544.797 381.2L543.639 370.297C543.624 370.157 543.668 370.018 543.762 369.912C543.855 369.808 543.989 369.746 544.128 369.744L544.624 369.74C550.401 369.74 552.613 371.278 552.704 371.344C552.829 371.433 552.906 371.575 552.913 371.729L553.304 380.733C553.316 381.007 553.104 381.24 552.83 381.254L545.32 381.648C545.312 381.647 545.303 381.647 545.294 381.647ZM544.691 370.74L545.741 380.623L552.282 380.28L551.925 372.042C551.299 371.706 549.125 370.75 544.691 370.74Z" fill="#3369FF"/>
<path d="M541.5 428.25C543.583 427.583 542.875 418.625 542.875 418.625C542.875 418.625 544.314 419.376 546.439 423.751C548.564 428.126 552.152 435.664 554.125 434.875C555.375 434.375 555.125 430.792 555.125 430.792C555.125 430.792 556.875 430.625 557.25 427.25C557.668 423.49 557.75 412.875 556 406.125C554.25 399.375 553.25 397.625 553.25 397.625C553.25 397.625 553.25 397.591 553.249 397.576C546.763 397.094 537.657 397.67 532.936 399.344C534.085 406.992 534.216 408.684 534.902 412.627C535.904 418.393 539.569 428.868 541.5 428.25Z" fill="url(#paint57_linear)"/>
<path d="M552.495 421.382C553.427 422.8 554.047 424.346 554.529 425.922C555.002 427.501 555.299 429.129 555.407 430.768C555.418 430.923 555.3 431.058 555.144 431.069C554.993 431.079 554.861 430.966 554.844 430.817C554.666 429.229 554.309 427.665 553.784 426.163C553.255 424.669 552.582 423.205 551.672 421.953C551.509 421.73 551.559 421.417 551.781 421.254C552.005 421.091 552.317 421.14 552.48 421.362C552.485 421.367 552.491 421.376 552.495 421.382Z" fill="#B75334"/>
<path d="M543.303 413.381C543.153 413.708 543.108 414.188 543.072 414.645C543.04 415.108 543.031 415.583 543.033 416.057C543.039 417.007 543.092 417.964 543.162 418.92C543.174 419.066 543.064 419.194 542.918 419.206C542.779 419.217 542.656 419.117 542.635 418.982C542.486 418.025 542.354 417.065 542.269 416.091C542.227 415.605 542.196 415.115 542.19 414.617C542.196 414.117 542.177 413.613 542.365 413.034L542.371 413.017C542.457 412.753 542.739 412.609 543.003 412.694C543.266 412.78 543.41 413.062 543.325 413.326C543.317 413.346 543.31 413.363 543.303 413.381Z" fill="#B75334"/>
<path d="M546.193 397.944C546.19 397.944 546.187 397.944 546.184 397.944C545.909 397.939 545.688 397.712 545.693 397.435C546.02 377.93 534.508 289.721 517.287 270.273C517.103 270.066 517.123 269.75 517.33 269.567C517.535 269.385 517.851 269.403 518.035 269.61C535.405 289.225 547.022 377.865 546.693 397.452C546.688 397.726 546.466 397.944 546.193 397.944Z" fill="#3369FF"/>
<path d="M190.381 195.711C185.826 184.342 184.38 171.576 186.922 158.664C190.659 139.689 202.224 124.249 217.599 115.029L203.212 86.7563C179.481 100.274 161.543 123.646 155.852 152.545C151.932 172.45 154.385 192.13 161.79 209.481L190.381 195.711Z" fill="white"/>
<path d="M225.615 110.939C237.324 105.938 250.605 104.278 264.04 106.923C283.53 110.761 299.279 122.866 308.4 138.869L336.995 125.097C323.655 100.433 299.817 81.6935 270.158 75.8525C249.487 71.7815 229.057 74.5815 211.228 82.6665L225.615 110.939Z" fill="white"/>
<path d="M340.904 133.204L312.314 146.974C316.876 158.349 318.325 171.122 315.781 184.042C308.773 219.625 274.246 242.791 238.663 235.783C219.164 231.943 203.411 219.83 194.291 203.818L165.697 217.59C179.034 242.262 202.877 261.01 232.544 266.853C285.287 277.24 336.464 242.903 346.851 190.161C350.773 170.247 348.316 150.559 340.904 133.204Z" fill="white"/>
<path d="M196.236 207.033C189.57 196.758 185.684 184.512 185.684 171.352C185.684 152.013 194.047 134.629 207.351 122.612L187.772 97.6523C167.1 115.501 154.016 141.898 154.016 171.352C154.016 191.64 160.226 210.475 170.844 226.068L196.236 207.033Z" fill="url(#paint58_linear)"/>
<path d="M214.427 117.05C224.949 109.881 237.659 105.686 251.352 105.686C271.217 105.686 289.008 114.519 301.049 128.458L326.443 109.42C308.59 87.7985 281.58 74.0186 251.352 74.0186C230.284 74.0186 210.78 80.7135 194.85 92.0905L214.427 117.05Z" fill="url(#paint59_linear)"/>
<path d="M331.845 116.619L306.454 135.654C313.127 145.933 317.018 158.185 317.018 171.353C317.018 207.62 287.618 237.02 251.351 237.02C231.478 237.02 213.681 228.18 201.639 214.231L176.245 233.268C194.098 254.899 221.114 268.686 251.35 268.686C305.106 268.686 348.683 225.108 348.683 171.352C348.685 151.058 342.47 132.215 331.845 116.619Z" fill="url(#paint60_linear)"/>
<path d="M213.282 185.665C219.074 201.062 233.93 212.02 251.351 212.02C263.853 212.02 275.033 206.374 282.493 197.497L251.351 171.353L213.282 185.665Z" fill="url(#paint61_linear)"/>
<path d="M265.775 133.328L251.351 171.353L282.493 197.497C288.434 190.427 292.018 181.31 292.018 171.353C292.018 153.974 281.112 139.149 265.775 133.328Z" fill="url(#paint62_linear)"/>
<path d="M265.775 133.328C261.291 131.626 256.432 130.686 251.352 130.686C228.893 130.686 210.685 148.893 210.685 171.353C210.685 176.391 211.607 181.212 213.282 185.665L251.351 171.353L265.775 133.328Z" fill="url(#paint63_linear)"/>
<path d="M214.111 49.8985C213.849 49.8985 213.588 49.7955 213.391 49.5925C213.008 49.1945 213.019 48.5615 213.416 48.1785L244.423 18.2805C244.82 17.8975 245.453 17.9075 245.837 18.3055C246.22 18.7035 246.209 19.3365 245.812 19.7195L214.805 49.6175C214.611 49.8055 214.361 49.8985 214.111 49.8985Z" fill="#1AA9E8"/>
<path d="M214.111 52.8564C216.297 52.8564 218.069 51.0844 218.069 48.8984C218.069 46.7125 216.297 44.9404 214.111 44.9404C211.925 44.9404 210.153 46.7125 210.153 48.8984C210.153 51.0844 211.925 52.8564 214.111 52.8564Z" fill="#FDE1A7"/>
<path d="M62 95H104V132H62V95Z" fill="#C7A0F6"/>
<path d="M76 95H90V107H76V95Z" fill="#FDE1A7"/>
<path d="M76 120H90V132H76V120Z" fill="#FF57BC"/>
<path d="M90 107H104V120H90V107Z" fill="#FF9BBB"/>
<path d="M62 107H76V120H62V107Z" fill="#1AA9E8"/>
<path d="M43 212V158.991C43 158.444 43.5157 158 44.1538 158H51.8462C52.4843 158 53 158.444 53 158.991V212H43Z" fill="#05C5DA"/>
<path d="M53 212V153.953C53 150.666 55.9856 148 59.6667 148H66.3333C70.0144 148 73 150.666 73 153.953V212H53Z" fill="#FDE1A7"/>
<path d="M53 160H73V166H53V160Z" fill="#C7A0F6"/>
<path d="M99.6684 212H79L99.5495 142.256C100.025 140.642 101.881 139.676 103.695 140.099L116.464 143.078C118.279 143.501 119.364 145.152 118.888 146.766L99.6684 212Z" fill="#1AA9E8"/>
<path d="M100 211.999L120.969 139.75C121.126 139.213 121.734 138.892 122.328 139.033L134.169 141.838C134.764 141.978 135.119 142.528 134.963 143.065L114.957 212H100V211.999Z" fill="#FF9BBB"/>
<path d="M94.9142 158.766L114.236 163.246L106.16 190.491L86.8376 186.011L94.9142 158.766Z" fill="#0090B2"/>
<path d="M136 213V30.0752C138.309 30.0251 140.645 30.002 143 30V213H136Z" fill="url(#paint64_linear)"/>
<path d="M151 62.6319V63H26C28.2513 60.3693 30.5752 58.0305 32.8946 56H144.192C147.951 56 151 58.97 151 62.6319Z" fill="url(#paint65_linear)"/>
<path d="M148 205.368V205H13C15.4314 207.631 17.9412 209.97 20.4461 212H140.647C144.707 212 148 209.03 148 205.368Z" fill="url(#paint66_linear)"/>
<path d="M151 134.632V135H2.54092C2.27748 133.846 2.01167 132.682 1.74102 131.501C1.47037 130.321 1.22855 129.156 0.999999 128H143.783C147.768 128 151 130.97 151 134.632Z" fill="url(#paint67_linear)"/>
<defs>
<linearGradient id="paint0_linear" x1="457.032" y1="665.677" x2="457.032" y2="375.983" gradientUnits="userSpaceOnUse">
<stop stop-color="#031730"/>
<stop offset="1" stop-color="#462855"/>
</linearGradient>
<linearGradient id="paint1_linear" x1="577.069" y1="425.435" x2="706.194" y2="554.56" gradientUnits="userSpaceOnUse">
<stop stop-color="#111B38"/>
<stop offset="1" stop-color="#36244C"/>
</linearGradient>
<linearGradient id="paint2_linear" x1="590.612" y1="513.918" x2="649.57" y2="513.918" gradientUnits="userSpaceOnUse">
<stop stop-color="#3A64D3"/>
<stop offset="1" stop-color="#043753"/>
</linearGradient>
<linearGradient id="paint3_linear" x1="568.338" y1="487.207" x2="617.977" y2="487.207" gradientUnits="userSpaceOnUse">
<stop stop-color="#3A64D3"/>
<stop offset="1" stop-color="#043753"/>
</linearGradient>
<linearGradient id="paint4_linear" x1="617.636" y1="541.346" x2="675.5" y2="541.346" gradientUnits="userSpaceOnUse">
<stop stop-color="#3A64D3"/>
<stop offset="1" stop-color="#043753"/>
</linearGradient>
<linearGradient id="paint5_linear" x1="542" y1="461.701" x2="591.035" y2="461.701" gradientUnits="userSpaceOnUse">
<stop stop-color="#3A64D3"/>
<stop offset="1" stop-color="#043753"/>
</linearGradient>
<radialGradient id="paint6_radial" cx="0" cy="0" r="1" gradientUnits="userSpaceOnUse" gradientTransform="translate(484.409 586.428) scale(104.937 43.3808)">
<stop stop-color="#231F20"/>
<stop offset="0.1225" stop-color="#242228"/>
<stop offset="0.3171" stop-color="#25293F"/>
<stop offset="0.5596" stop-color="#283665"/>
<stop offset="0.8377" stop-color="#2C4799"/>
<stop offset="1" stop-color="#2E52BA"/>
</radialGradient>
<linearGradient id="paint7_linear" x1="123.568" y1="-35.0334" x2="536.33" y2="377.728" gradientUnits="userSpaceOnUse">
<stop stop-color="#042637"/>
<stop offset="1" stop-color="#462855"/>
</linearGradient>
<radialGradient id="paint8_radial" cx="0" cy="0" r="1" gradientUnits="userSpaceOnUse" gradientTransform="translate(307.527 39.6661) scale(34.3616)">
<stop stop-color="white" stop-opacity="0.25"/>
<stop offset="0.2868" stop-color="#FDFDFD" stop-opacity="0.1783"/>
<stop offset="0.4264" stop-color="#F5F8F8" stop-opacity="0.1434"/>
<stop offset="0.5341" stop-color="#E8EFEF" stop-opacity="0.1165"/>
<stop offset="0.6256" stop-color="#D6E2E3" stop-opacity="0.0936"/>
<stop offset="0.7069" stop-color="#BDD1D2" stop-opacity="0.0733"/>
<stop offset="0.7807" stop-color="#A0BCBE" stop-opacity="0.0548"/>
<stop offset="0.8491" stop-color="#7CA4A6" stop-opacity="0.0377"/>
<stop offset="0.9131" stop-color="#53878A" stop-opacity="0.0217"/>
<stop offset="0.9714" stop-color="#26676B" stop-opacity="0.01"/>
<stop offset="1" stop-color="#0D565A" stop-opacity="0"/>
</radialGradient>
<linearGradient id="paint9_linear" x1="289.029" y1="26.6377" x2="320.613" y2="58.2213" gradientUnits="userSpaceOnUse">
<stop stop-color="#3EC6A8"/>
<stop offset="1" stop-color="#FFE2A8"/>
</linearGradient>
<linearGradient id="paint10_linear" x1="599.999" y1="292.553" x2="663" y2="292.553" gradientUnits="userSpaceOnUse">
<stop stop-color="#043753"/>
<stop offset="1" stop-color="#3A64D3"/>
</linearGradient>
<linearGradient id="paint11_linear" x1="538.666" y1="278.549" x2="599.999" y2="278.549" gradientUnits="userSpaceOnUse">
<stop stop-color="#005DA5"/>
<stop offset="1" stop-color="#0A444D"/>
</linearGradient>
<linearGradient id="paint12_linear" x1="555.25" y1="298.845" x2="602.112" y2="298.845" gradientUnits="userSpaceOnUse">
<stop stop-color="#00A39F"/>
<stop offset="1" stop-color="#00E2EC"/>
</linearGradient>
<linearGradient id="paint13_linear" x1="560.666" y1="87.0867" x2="607" y2="87.0867" gradientUnits="userSpaceOnUse">
<stop stop-color="#45959F"/>
<stop offset="1" stop-color="#0E4A5F"/>
</linearGradient>
<linearGradient id="paint14_linear" x1="538.666" y1="151.582" x2="599.999" y2="151.582" gradientUnits="userSpaceOnUse">
<stop stop-color="#005DA5"/>
<stop offset="1" stop-color="#0A444D"/>
</linearGradient>
<linearGradient id="paint15_linear" x1="538.666" y1="111.582" x2="599.999" y2="111.582" gradientUnits="userSpaceOnUse">
<stop stop-color="#00A39F"/>
<stop offset="0.2077" stop-color="#00A7A4"/>
<stop offset="0.4527" stop-color="#00B3B2"/>
<stop offset="0.7164" stop-color="#00C6CA"/>
<stop offset="0.9917" stop-color="#00E1EB"/>
<stop offset="1" stop-color="#00E2EC"/>
</linearGradient>
<linearGradient id="paint16_linear" x1="539.75" y1="84.7854" x2="593.25" y2="84.7854" gradientUnits="userSpaceOnUse">
<stop stop-color="#00AFAF"/>
<stop offset="1" stop-color="#00E2EC"/>
</linearGradient>
<linearGradient id="paint17_linear" x1="537.75" y1="84.7854" x2="595.25" y2="84.7854" gradientUnits="userSpaceOnUse">
<stop stop-color="#7182E2"/>
<stop offset="1" stop-color="#E868EF"/>
</linearGradient>
<linearGradient id="paint18_linear" x1="599.999" y1="96.082" x2="635.094" y2="96.082" gradientUnits="userSpaceOnUse">
<stop stop-color="#00A39F"/>
<stop offset="0.2351" stop-color="#019E9A"/>
<stop offset="0.5123" stop-color="#05908D"/>
<stop offset="0.8096" stop-color="#0B7877"/>
<stop offset="1" stop-color="#106565"/>
</linearGradient>
<linearGradient id="paint19_linear" x1="572" y1="149.004" x2="591" y2="149.004" gradientUnits="userSpaceOnUse">
<stop stop-color="#3EC6A8"/>
<stop offset="1" stop-color="#FFE2A8"/>
</linearGradient>
<linearGradient id="paint20_linear" x1="581.5" y1="155.533" x2="581.5" y2="145.319" gradientUnits="userSpaceOnUse">
<stop stop-color="#7558CE"/>
<stop offset="1" stop-color="#E868EF"/>
</linearGradient>
<linearGradient id="paint21_linear" x1="581.5" y1="175.923" x2="581.5" y2="120.75" gradientUnits="userSpaceOnUse">
<stop stop-color="#7558CE"/>
<stop offset="1" stop-color="#E868EF"/>
</linearGradient>
<linearGradient id="paint22_linear" x1="400.604" y1="9.60507" x2="499.646" y2="108.646" gradientUnits="userSpaceOnUse">
<stop stop-color="#00FFFF"/>
<stop offset="1" stop-color="#0090B2"/>
</linearGradient>
<linearGradient id="paint23_linear" x1="377.75" y1="59.1251" x2="522.5" y2="59.1251" gradientUnits="userSpaceOnUse">
<stop stop-color="#C7A0F6"/>
<stop offset="1" stop-color="#FDE1A7"/>
</linearGradient>
<linearGradient id="paint24_linear" x1="361.111" y1="208.141" x2="404.237" y2="251.268" gradientUnits="userSpaceOnUse">
<stop stop-color="#00FFFF"/>
<stop offset="0.082" stop-color="#25ECED"/>
<stop offset="0.2106" stop-color="#58D1D4"/>
<stop offset="0.3417" stop-color="#84BBBF"/>
<stop offset="0.4729" stop-color="#A8A8AD"/>
<stop offset="0.6041" stop-color="#C49A9F"/>
<stop offset="0.7354" stop-color="#D88F96"/>
<stop offset="0.8672" stop-color="#E48990"/>
<stop offset="1" stop-color="#E8878E"/>
</linearGradient>
<linearGradient id="paint25_linear" x1="387.694" y1="280.909" x2="443.307" y2="280.909" gradientUnits="userSpaceOnUse">
<stop stop-color="#7D59D0"/>
<stop offset="1" stop-color="#7C18A1"/>
</linearGradient>
<linearGradient id="paint26_linear" x1="387.985" y1="265.8" x2="402.04" y2="265.8" gradientUnits="userSpaceOnUse">
<stop stop-color="#3369FF"/>
<stop offset="1" stop-color="#7C18A1"/>
</linearGradient>
<linearGradient id="paint27_linear" x1="443.076" y1="235.569" x2="515.462" y2="235.569" gradientUnits="userSpaceOnUse">
<stop stop-color="#042637"/>
<stop offset="1" stop-color="#2335E0"/>
</linearGradient>
<linearGradient id="paint28_linear" x1="458" y1="233.307" x2="496.667" y2="233.307" gradientUnits="userSpaceOnUse">
<stop stop-color="#00C4C8"/>
<stop offset="0.0173" stop-color="#07C2C6"/>
<stop offset="0.1706" stop-color="#42B3B8"/>
<stop offset="0.3234" stop-color="#75A5AB"/>
<stop offset="0.4725" stop-color="#9E9AA0"/>
<stop offset="0.617" stop-color="#BE9298"/>
<stop offset="0.7558" stop-color="#D58C93"/>
<stop offset="0.8863" stop-color="#E3888F"/>
<stop offset="1" stop-color="#E8878E"/>
</linearGradient>
<radialGradient id="paint29_radial" cx="0" cy="0" r="1" gradientUnits="userSpaceOnUse" gradientTransform="translate(485.842 199.384) rotate(-67.8698) scale(53.7662 34.3661)">
<stop stop-color="#E8878E"/>
<stop offset="0.1328" stop-color="#E48990"/>
<stop offset="0.2646" stop-color="#D88F96"/>
<stop offset="0.3959" stop-color="#C49A9F"/>
<stop offset="0.5271" stop-color="#A8A8AD"/>
<stop offset="0.6583" stop-color="#84BBBF"/>
<stop offset="0.7894" stop-color="#58D1D4"/>
<stop offset="0.918" stop-color="#25ECED"/>
<stop offset="1" stop-color="#00FFFF"/>
</radialGradient>
<linearGradient id="paint30_linear" x1="462.772" y1="189.231" x2="504.946" y2="164.882" gradientUnits="userSpaceOnUse">
<stop stop-color="#3369FF"/>
<stop offset="0.1191" stop-color="#305DDB"/>
<stop offset="0.3562" stop-color="#2C4799"/>
<stop offset="0.5713" stop-color="#283665"/>
<stop offset="0.7571" stop-color="#25293F"/>
<stop offset="0.9062" stop-color="#242228"/>
<stop offset="1" stop-color="#231F20"/>
</linearGradient>
<linearGradient id="paint31_linear" x1="451.917" y1="199.058" x2="469.018" y2="199.058" gradientUnits="userSpaceOnUse">
<stop stop-color="#FF57BD"/>
<stop offset="1" stop-color="#DD8A91"/>
</linearGradient>
<linearGradient id="paint32_linear" x1="493.834" y1="194.503" x2="509.677" y2="194.503" gradientUnits="userSpaceOnUse">
<stop stop-color="#994574"/>
<stop offset="1" stop-color="#43256F"/>
</linearGradient>
<linearGradient id="paint33_linear" x1="475.332" y1="535.793" x2="475.332" y2="363.265" gradientUnits="userSpaceOnUse">
<stop stop-color="#042637"/>
<stop offset="1" stop-color="#2335E0"/>
</linearGradient>
<linearGradient id="paint34_linear" x1="431.561" y1="307.424" x2="494.977" y2="307.424" gradientUnits="userSpaceOnUse">
<stop stop-color="#C91C91"/>
<stop offset="1" stop-color="#FE6A77"/>
</linearGradient>
<linearGradient id="paint35_linear" x1="430.195" y1="365.669" x2="494.746" y2="365.669" gradientUnits="userSpaceOnUse">
<stop stop-color="#FE6A77"/>
<stop offset="1" stop-color="#FF57BD"/>
</linearGradient>
<linearGradient id="paint36_linear" x1="453.316" y1="250.496" x2="483.44" y2="250.496" gradientUnits="userSpaceOnUse">
<stop stop-color="#FE6A77"/>
<stop offset="1" stop-color="#FF57BD"/>
</linearGradient>
<linearGradient id="paint37_linear" x1="434.549" y1="547.227" x2="470.147" y2="582.826" gradientUnits="userSpaceOnUse">
<stop stop-color="#05C5DA"/>
<stop offset="1" stop-color="#5860C4"/>
</linearGradient>
<linearGradient id="paint38_linear" x1="490.849" y1="564.809" x2="539.762" y2="564.809" gradientUnits="userSpaceOnUse">
<stop stop-color="#05C5DA"/>
<stop offset="1" stop-color="#5860C4"/>
</linearGradient>
<linearGradient id="paint39_linear" x1="496.768" y1="585.666" x2="539.763" y2="585.666" gradientUnits="userSpaceOnUse">
<stop stop-color="#A281FF"/>
<stop offset="1" stop-color="#FF57BD"/>
</linearGradient>
<linearGradient id="paint40_linear" x1="423.814" y1="583.121" x2="470.336" y2="583.121" gradientUnits="userSpaceOnUse">
<stop stop-color="#A281FF"/>
<stop offset="1" stop-color="#FF57BD"/>
</linearGradient>
<linearGradient id="paint41_linear" x1="500.962" y1="548.448" x2="515.061" y2="548.448" gradientUnits="userSpaceOnUse">
<stop stop-color="#8C6AE2"/>
<stop offset="1" stop-color="#5A55F8"/>
</linearGradient>
<linearGradient id="paint42_linear" x1="500.937" y1="557.084" x2="515.156" y2="557.084" gradientUnits="userSpaceOnUse">
<stop stop-color="#8C6AE2"/>
<stop offset="1" stop-color="#5A55F8"/>
</linearGradient>
<linearGradient id="paint43_linear" x1="500.938" y1="565.947" x2="515.684" y2="565.947" gradientUnits="userSpaceOnUse">
<stop stop-color="#8C6AE2"/>
<stop offset="1" stop-color="#5A55F8"/>
</linearGradient>
<linearGradient id="paint44_linear" x1="449.601" y1="547.465" x2="458.933" y2="547.465" gradientUnits="userSpaceOnUse">
<stop stop-color="#5A55F8"/>
<stop offset="1" stop-color="#8C6AE2"/>
</linearGradient>
<linearGradient id="paint45_linear" x1="450.318" y1="558.611" x2="458.932" y2="558.611" gradientUnits="userSpaceOnUse">
<stop stop-color="#5A55F8"/>
<stop offset="1" stop-color="#8C6AE2"/>
</linearGradient>
<linearGradient id="paint46_linear" x1="401" y1="361.844" x2="451.5" y2="361.844" gradientUnits="userSpaceOnUse">
<stop stop-color="#7C18A1"/>
<stop offset="1" stop-color="#042637"/>
</linearGradient>
<linearGradient id="paint47_linear" x1="430.569" y1="319.78" x2="440.308" y2="319.78" gradientUnits="userSpaceOnUse">
<stop stop-color="#7D59D0"/>
<stop offset="1" stop-color="#7C18A1"/>
</linearGradient>
<linearGradient id="paint48_linear" x1="435.1" y1="288.297" x2="444.043" y2="288.297" gradientUnits="userSpaceOnUse">
<stop stop-color="#7D59D0"/>
<stop offset="1" stop-color="#7C18A1"/>
</linearGradient>
<linearGradient id="paint49_linear" x1="437.369" y1="244.44" x2="459.901" y2="244.44" gradientUnits="userSpaceOnUse">
<stop stop-color="#7D59D0"/>
<stop offset="1" stop-color="#7C18A1"/>
</linearGradient>
<linearGradient id="paint50_linear" x1="479.759" y1="369.647" x2="536" y2="369.647" gradientUnits="userSpaceOnUse">
<stop stop-color="#7C18A1"/>
<stop offset="1" stop-color="#042637"/>
</linearGradient>
<linearGradient id="paint51_linear" x1="472.742" y1="295.048" x2="495.75" y2="295.048" gradientUnits="userSpaceOnUse">
<stop stop-color="#7D59D0"/>
<stop offset="1" stop-color="#7C18A1"/>
</linearGradient>
<linearGradient id="paint52_linear" x1="472.706" y1="326.89" x2="492.554" y2="326.89" gradientUnits="userSpaceOnUse">
<stop stop-color="#7D59D0"/>
<stop offset="1" stop-color="#7C18A1"/>
</linearGradient>
<linearGradient id="paint53_linear" x1="500" y1="387.689" x2="534.669" y2="387.689" gradientUnits="userSpaceOnUse">
<stop stop-color="#7C1DA5"/>
<stop offset="1" stop-color="#3C2068"/>
</linearGradient>
<linearGradient id="paint54_linear" x1="474.621" y1="249.753" x2="518.002" y2="249.753" gradientUnits="userSpaceOnUse">
<stop stop-color="#7C18A1"/>
<stop offset="1" stop-color="#042637"/>
</linearGradient>
<linearGradient id="paint55_linear" x1="510.331" y1="331.305" x2="553.249" y2="331.305" gradientUnits="userSpaceOnUse">
<stop stop-color="#7D59D0"/>
<stop offset="1" stop-color="#7C18A1"/>
</linearGradient>
<linearGradient id="paint56_linear" x1="544.136" y1="375.694" x2="552.804" y2="375.694" gradientUnits="userSpaceOnUse">
<stop stop-color="#3369FF"/>
<stop offset="1" stop-color="#7C18A1"/>
</linearGradient>
<linearGradient id="paint57_linear" x1="532.936" y1="416.172" x2="557.501" y2="416.172" gradientUnits="userSpaceOnUse">
<stop stop-color="#C16846"/>
<stop offset="0.2653" stop-color="#D27565"/>
<stop offset="0.5308" stop-color="#DE7F7B"/>
<stop offset="0.7814" stop-color="#E58589"/>
<stop offset="1" stop-color="#E8878E"/>
</linearGradient>
<linearGradient id="paint58_linear" x1="154.018" y1="161.86" x2="207.352" y2="161.86" gradientUnits="userSpaceOnUse">
<stop stop-color="#FDE1A7"/>
<stop offset="1" stop-color="#F9A144"/>
</linearGradient>
<linearGradient id="paint59_linear" x1="194.849" y1="101.238" x2="326.443" y2="101.238" gradientUnits="userSpaceOnUse">
<stop stop-color="#5A55F8"/>
<stop offset="1" stop-color="#8C6AE2"/>
</linearGradient>
<linearGradient id="paint60_linear" x1="176.246" y1="192.652" x2="348.685" y2="192.652" gradientUnits="userSpaceOnUse">
<stop stop-color="#FF57BD"/>
<stop offset="1" stop-color="#FE6A77"/>
</linearGradient>
<linearGradient id="paint61_linear" x1="213.282" y1="191.686" x2="282.493" y2="191.686" gradientUnits="userSpaceOnUse">
<stop stop-color="#C7A0F6"/>
<stop offset="1" stop-color="#FF57BD"/>
</linearGradient>
<linearGradient id="paint62_linear" x1="251.352" y1="165.412" x2="292.018" y2="165.412" gradientUnits="userSpaceOnUse">
<stop stop-color="#994574"/>
<stop offset="1" stop-color="#43256F"/>
</linearGradient>
<linearGradient id="paint63_linear" x1="222.614" y1="142.581" x2="251.369" y2="171.336" gradientUnits="userSpaceOnUse">
<stop stop-color="#1AA9E8"/>
<stop offset="0.4223" stop-color="#3D80EF"/>
<stop offset="0.7909" stop-color="#5662F4"/>
<stop offset="1" stop-color="#5F57F6"/>
</linearGradient>
<linearGradient id="paint64_linear" x1="143" y1="121.5" x2="136" y2="121.5" gradientUnits="userSpaceOnUse">
<stop stop-color="white"/>
<stop offset="1" stop-color="#B0E1FF"/>
</linearGradient>
<linearGradient id="paint65_linear" x1="151" y1="59.5006" x2="25.9998" y2="59.5006" gradientUnits="userSpaceOnUse">
<stop stop-color="white"/>
<stop offset="1" stop-color="#B0E1FF"/>
</linearGradient>
<linearGradient id="paint66_linear" x1="148" y1="208.499" x2="12.9998" y2="208.499" gradientUnits="userSpaceOnUse">
<stop stop-color="white"/>
<stop offset="1" stop-color="#B0E1FF"/>
</linearGradient>
<linearGradient id="paint67_linear" x1="151" y1="131.5" x2="0.999759" y2="131.5" gradientUnits="userSpaceOnUse">
<stop stop-color="white"/>
<stop offset="1" stop-color="#B0E1FF"/>
</linearGradient>
</defs>
</svg>
