<svg width="760" height="716" viewBox="0 0 760 716" fill="none" xmlns="http://www.w3.org/2000/svg">
<path d="M423.901 423.938C476.263 443.019 551.16 480.667 585.864 489.618C637.47 502.929 752.316 495.602 759.245 547.025C763.144 575.958 742.013 592.704 701.258 603.372C668.07 612.058 630.987 613.003 622.482 630.724C612.635 651.239 646.552 664.095 641.082 690.353C635.165 718.757 569.456 733.763 499.942 726.459C424.448 718.526 361.762 697.337 358.343 656.707C356.34 632.912 386.684 594.202 335.005 588.601C306.432 585.505 274.555 579.848 251.226 545.123C234.11 519.649 237.565 478.53 257.744 452.789C291.514 409.714 359.349 400.414 423.901 423.938Z" fill="url(#paint0_linear)"/>
<path d="M759.245 547.025C753.334 503.152 668.872 502.043 612.148 494.396L710.597 600.701C745.202 589.957 762.834 573.656 759.245 547.025Z" fill="url(#paint1_linear)"/>
<path d="M727.373 594.44L619.152 495.296C608.508 493.993 598.634 492.537 590.158 490.645H590.156L689.664 606.104C693.547 605.27 697.428 604.374 701.257 603.372C711.148 600.783 719.872 597.833 727.373 594.44Z" fill="#3369FF"/>
<path d="M678.466 547.573H646.126L672.721 576.931H710.633L678.466 547.573Z" fill="url(#paint2_linear)"/>
<path d="M644.145 545.385H676.069L648.989 520.67H621.757L644.145 545.385Z" fill="url(#paint3_linear)"/>
<path d="M675.695 580.214L697.522 604.31C698.772 604.006 700.018 603.696 701.258 603.372C711.87 600.594 721.139 597.399 728.995 593.689L714.23 580.214H675.695Z" fill="url(#paint4_linear)"/>
<path d="M619.775 518.482H646.591L621.495 495.578C612.172 494.465 603.396 493.256 595.571 491.762L619.775 518.482Z" fill="url(#paint5_linear)"/>
<path opacity="0.4" d="M600.052 625.254C565.244 632.842 516.404 629.864 498.847 628.536C481.29 627.208 423.627 620.604 419.524 643.307C416.309 661.105 441.407 676.951 481.889 677.771C530.189 678.75 590.624 658.171 634.775 665.006C627.055 653.184 616.387 643.42 622.481 630.724C624.302 626.931 627.44 623.91 631.562 621.414C622.928 621.415 612.55 622.53 600.052 625.254Z" fill="url(#paint6_radial)"/>
<path d="M73.9689 29.1474C107.672 6.32321 178.342 -7.34221 233.526 4.8943C296.437 18.8442 327.893 50.5733 392.172 45.9234C445.868 42.0393 546.988 43.7352 584.735 48.6586C622.482 53.5821 696.152 60.1468 696.334 123.605C696.46 167.734 657.148 175.558 637.799 185.422C615.464 196.809 589.293 203.749 589.293 230.281C589.293 251.616 612.775 260.954 626.858 271.857C643.817 284.986 665.966 302.669 656.398 334.221C649.284 357.68 624.867 376.544 599.49 378.362C588.77 379.13 550.654 384.474 506.977 365.925C481.705 355.192 459.823 332.215 452.073 311.245C436.687 269.608 434.905 276.096 413.506 279.516C360.563 287.974 330.354 312.612 300.813 348.991C271.245 385.402 235.356 418.708 189.761 417.373C133.688 415.732 135.677 364.543 111.532 335.315C80.3498 297.568 11.1025 265.382 1.75667 172.476C-4.44255 110.84 16.3455 68.1699 73.9689 29.1474Z" fill="url(#paint7_linear)"/>
<path d="M336.464 80.9347C356.232 80.9347 372.423 65.6598 373.906 46.27C346.315 45.2996 324.614 37.4187 302.043 28.3223C300.026 32.9307 298.899 38.0172 298.899 43.3695C298.899 64.116 315.716 80.9347 336.464 80.9347Z" fill="url(#paint8_radial)"/>
<path d="M336.464 67.805C349.322 67.805 359.853 57.8705 360.819 45.2598C343.891 43.2412 329.007 38.6646 314.284 33.1152C312.84 36.2345 312.028 39.7061 312.028 43.3692C312.028 56.865 322.968 67.805 336.464 67.805Z" fill="url(#paint9_linear)"/>
<path d="M328.258 45.3764C331.44 45.3764 334.066 42.966 334.415 39.8763C334.05 39.7723 333.688 39.6597 333.325 39.5535C333.128 42.1903 330.943 44.2823 328.258 44.2823C325.443 44.2823 323.152 41.9923 323.152 39.1761C323.152 38.2187 323.433 37.3336 323.893 36.5666C323.535 36.4452 323.177 36.3237 322.821 36.2012C322.335 37.0852 322.058 38.0984 322.058 39.1761C322.058 42.5951 324.839 45.3764 328.258 45.3764Z" fill="#CFDBA8"/>
<path d="M346.165 60.0272C343.838 60.0272 341.86 59.0294 340.738 57.2898C338.765 54.2263 340.133 49.8181 343.788 47.4625C345.266 46.5106 346.919 46.0073 348.57 46.0073C350.898 46.0073 352.876 47.0051 353.997 48.7459C355.971 51.8094 354.603 56.2175 350.948 58.5721C349.469 59.525 347.815 60.0272 346.165 60.0272ZM348.569 47.1014C347.129 47.1014 345.681 47.5445 344.38 48.3815C341.232 50.41 340.01 54.1398 341.657 56.6957C342.573 58.1169 344.216 58.932 346.164 58.932C347.604 58.932 349.054 58.4889 350.353 57.6519C353.501 55.6234 354.723 51.8936 353.076 49.3378C352.161 47.9165 350.519 47.1014 348.569 47.1014Z" fill="#FDE1A7"/>
<path d="M320.329 61.8741L319.683 60.9901C321.024 60.0108 321.793 58.5119 321.793 56.8751C321.793 54.06 319.502 51.7689 316.687 51.7689C315.723 51.7689 314.774 52.0501 313.944 52.5818L313.354 51.6606C314.361 51.0162 315.514 50.6748 316.687 50.6748C320.106 50.6748 322.887 53.456 322.887 56.8751C322.887 58.8653 321.955 60.687 320.329 61.8741Z" fill="#D5DCA8"/>
<path d="M656.398 305.89V334.221C659.734 323.222 659.207 313.913 656.398 305.89Z" fill="url(#paint10_linear)"/>
<path d="M626.859 271.857C612.775 260.955 589.293 251.616 589.293 230.281V379.188C593.763 378.887 597.239 378.524 599.491 378.362C624.866 376.545 649.285 357.681 656.398 334.222V305.891C651.148 290.899 637.906 280.41 626.859 271.857Z" fill="url(#paint11_linear)"/>
<path d="M607.438 288.509V377.227C629.805 372.517 650.033 355.215 656.398 334.22C664.851 306.346 648.55 289.299 632.943 276.65L615.097 280.85C610.867 280.851 607.438 284.28 607.438 288.509Z" fill="url(#paint12_linear)"/>
<path d="M610.72 288.51C610.72 286.096 612.683 284.133 615.097 284.133H615.479L636.107 279.279C633.959 277.449 631.794 275.711 629.674 274.049L614.683 277.576C608.841 277.795 604.156 282.615 604.156 288.51V377.835C606.364 377.496 608.554 377.026 610.72 376.445V288.51V288.51Z" fill="#3369FF"/>
<path d="M660.958 67.2236V137.829H694.797C695.794 133.551 696.35 128.842 696.334 123.605C696.252 94.8302 681.06 77.7544 660.958 67.2236Z" fill="#003451"/>
<path d="M664.058 137.829V68.9328C648.85 60.2029 630.356 55.589 613.364 52.6787V137.829H664.058Z" fill="url(#paint13_linear)"/>
<path d="M605.158 108.471H601.875V133.635H605.158V108.471Z" fill="#003451"/>
<path d="M640.535 90.2354H637.252V115.4H640.535V90.2354Z" fill="#003451"/>
<path d="M656.398 177.24C675.301 168.805 696.427 155.975 696.334 123.606C696.311 115.24 694.999 107.871 692.67 101.357H656.398V177.24V177.24Z" fill="#003451"/>
<path d="M589.293 135.274V230.281C589.293 203.749 615.465 196.809 637.8 185.423C642.955 182.795 649.532 180.305 656.398 177.24V101.356L589.293 135.274Z" fill="url(#paint14_linear)"/>
<path d="M589.293 142.753L656.398 108.835V101.357L589.293 135.274V142.753Z" fill="url(#paint15_linear)"/>
<path d="M590.479 113.348C590.479 114.556 590.616 117.587 592.668 116.767L646.826 90.5083C648.421 89.8704 649.014 88.2971 649.014 87.0892V70.8144C649.014 69.6065 648.011 68.2618 646.826 68.6261L592.668 94.8847C591.094 95.7742 590.479 97.5062 590.479 98.7141V113.348Z" fill="url(#paint16_linear)"/>
<path d="M592.026 119.094C592.025 119.094 592.025 119.094 592.026 119.094C590.903 119.094 588.291 118.534 588.291 113.348V98.7143C588.291 96.9298 589.155 94.3565 591.591 92.9801L591.713 92.9155L646.023 66.5847L646.182 66.5355C646.523 66.4304 646.873 66.3779 647.223 66.3779C649.604 66.3779 651.203 68.6723 651.203 70.8156V87.0905C651.203 88.9286 650.289 91.4374 647.72 92.5085L593.481 118.8C592.99 118.995 592.501 119.094 592.026 119.094ZM593.696 96.8182C592.943 97.2756 592.667 98.1968 592.667 98.7143V113.348C592.667 113.744 592.686 114.062 592.712 114.313L646.013 88.4767C646.804 88.1605 646.826 87.1977 646.826 87.0894V71.0585L593.696 96.8182Z" fill="url(#paint17_linear)"/>
<path d="M656.398 101.357V108.835H694.796C694.232 106.224 693.52 103.732 692.671 101.357H656.398Z" fill="url(#paint18_linear)"/>
<path d="M644.364 134.82L627.952 142.479C626.744 142.479 625.764 143.459 625.764 144.667V191.176C629.786 189.308 633.853 187.435 637.799 185.423C640.402 184.097 643.373 182.805 646.552 181.458V137.009C646.552 135.801 645.572 134.82 644.364 134.82Z" fill="url(#paint19_linear)"/>
<path d="M646.552 158.966L625.764 166.641V170.142L646.552 162.465V158.966Z" fill="url(#paint20_linear)"/>
<path d="M644.364 132.085H643.757L627.232 139.796C624.857 140.145 623.028 142.197 623.028 144.667V192.45C624.839 191.601 626.668 190.757 628.498 189.904V145.214L643.816 138.094V182.628C645.562 181.87 647.397 181.099 649.286 180.303V137.008C649.288 134.294 647.078 132.085 644.364 132.085Z" fill="url(#paint21_linear)"/>
<path d="M568.323 93.8753C568.323 98.1992 564.819 101.704 560.496 101.704H424.343C420.02 101.704 416.516 98.1992 416.516 93.8753V35.4455C416.516 31.1216 420.02 27.6172 424.343 27.6172H560.495C564.818 27.6172 568.322 31.1216 568.322 35.4455V93.8753H568.323Z" fill="url(#paint22_linear)"/>
<path d="M560.496 104.986H424.343C418.217 104.986 413.233 100.001 413.233 93.8749V35.4451C413.233 29.3192 418.218 24.3345 424.343 24.3345H560.495C566.621 24.3345 571.605 29.3192 571.605 35.4451V93.8749C571.606 100.001 566.621 104.986 560.496 104.986ZM424.343 30.8991C421.836 30.8991 419.798 32.9385 419.798 35.4451V93.8749C419.798 96.3815 421.836 98.4209 424.343 98.4209H560.495C563.001 98.4209 565.04 96.3815 565.04 93.8749V35.4451C565.04 32.9385 563.001 30.8991 560.495 30.8991H424.343Z" fill="url(#paint23_linear)"/>
<path d="M552.459 46.0603C552.459 47.3448 551.418 48.3853 550.134 48.3853H434.705C433.421 48.3853 432.38 47.3448 432.38 46.0603C432.38 44.7758 433.421 43.7354 434.705 43.7354H550.134C551.418 43.7354 552.459 44.7758 552.459 46.0603Z" fill="#FDE1A7"/>
<path d="M478.834 59.8735H468.395H461.283H434.705C433.421 59.8735 432.38 60.914 432.38 62.1985C432.38 63.483 433.421 64.5235 434.705 64.5235H461.283H468.395H478.834C480.119 64.5235 481.159 63.483 481.159 62.1985C481.159 60.914 480.119 59.8735 478.834 59.8735Z" fill="#FDE1A7"/>
<path d="M550.134 59.8735H533.13H531.124H522.963C521.678 59.8735 520.638 60.914 520.638 62.1985C520.638 63.483 521.678 64.5235 522.963 64.5235H531.124H533.13H550.134C551.418 64.5235 552.459 63.483 552.459 62.1985C552.459 60.914 551.418 59.8735 550.134 59.8735Z" fill="#FDE1A7"/>
<path d="M508.192 59.8735H505.047H499.394H492.146C490.861 59.8735 489.821 60.914 489.821 62.1985C489.821 63.483 490.861 64.5235 492.146 64.5235H499.394H505.047H508.192C509.476 64.5235 510.517 63.483 510.517 62.1985C510.517 60.914 509.476 59.8735 508.192 59.8735Z" fill="#FDE1A7"/>
<path d="M550.133 76.0117H546.989H541.336H534.087C532.803 76.0117 531.762 77.0522 531.762 78.3367C531.762 79.6212 532.803 80.6617 534.087 80.6617H541.336H546.989H550.133C551.418 80.6617 552.458 79.6212 552.458 78.3367C552.458 77.0522 551.418 76.0117 550.133 76.0117Z" fill="#FDE1A7"/>
<path d="M517.174 76.0117H477.923H446.741H434.705C433.421 76.0117 432.38 77.0522 432.38 78.3367C432.38 79.6212 433.421 80.6617 434.705 80.6617H446.741H477.923H517.174C518.458 80.6617 519.499 79.6212 519.499 78.3367C519.499 77.0522 518.458 76.0117 517.174 76.0117Z" fill="#FDE1A7"/>
<path d="M439.401 255.992C433.384 243.227 431.561 241.952 426.272 236.845C420.983 231.739 417.134 227.793 416.06 228.275C414.635 228.913 414.967 232.652 416.152 235.843C417.337 239.035 419.342 240.676 419.342 240.676C419.342 240.676 415.787 240.312 408.219 236.937C400.651 233.563 394.452 228.275 393.175 229.552C391.899 230.829 394.451 235.205 394.451 235.205C394.451 235.205 392.413 233.906 391.899 235.388C391.65 236.104 392.818 238.575 393.813 240.129C394.72 241.545 397.186 244.049 397.186 244.049C397.186 244.049 396.64 245.143 398.099 247.514C399.557 249.885 406.396 256.814 413.507 260.165C418.837 262.676 424.357 263.106 424.357 263.106C424.357 263.106 423.909 269.106 424.112 278.977C429.09 278.3 437.32 276.524 444.795 272.303C443.043 265.739 441.175 259.754 439.401 255.992Z" fill="url(#paint24_linear)"/>
<path d="M394.674 235.041C395.115 235.598 395.693 236.096 396.253 236.587C396.822 237.075 397.409 237.546 398.004 238.005C399.195 238.92 400.421 239.805 401.68 240.583C401.938 240.739 402.021 241.076 401.865 241.334C401.707 241.593 401.371 241.676 401.112 241.518C401.103 241.513 401.089 241.504 401.081 241.497C399.814 240.607 398.635 239.642 397.481 238.641C396.905 238.14 396.34 237.627 395.789 237.095C395.243 236.555 394.692 236.027 394.227 235.367C394.138 235.241 394.168 235.07 394.294 234.981C394.414 234.897 394.58 234.921 394.67 235.035L394.674 235.041Z" fill="#1AA9E8"/>
<path d="M397.024 243.82C397.173 243.7 397.441 243.514 397.697 243.45C397.952 243.375 398.222 243.35 398.476 243.376C398.989 243.42 399.443 243.596 399.869 243.787C400.715 244.195 401.484 244.629 402.266 245.149C403.023 245.675 403.723 246.248 404.435 246.763C405.135 247.268 405.895 247.773 406.581 247.886L406.607 247.889C406.905 247.938 407.108 248.219 407.058 248.518C407.01 248.816 406.728 249.019 406.43 248.97C406.417 248.968 406.404 248.966 406.391 248.962C405.3 248.701 404.577 248.083 403.852 247.526C403.137 246.952 402.473 246.351 401.78 245.818C401.096 245.309 400.317 244.819 399.566 244.411C398.809 244.016 397.984 243.752 397.348 244.275C397.23 244.373 397.053 244.356 396.955 244.237C396.858 244.118 396.875 243.941 396.994 243.843C396.994 243.843 396.994 243.843 396.995 243.843L397.024 243.82Z" fill="#1AA9E8"/>
<path d="M419.402 240.483C421.527 240.984 423.561 241.965 425.401 243.144L425.412 243.151C425.667 243.314 425.741 243.653 425.577 243.908C425.413 244.163 425.075 244.237 424.82 244.073C424.804 244.063 424.788 244.051 424.773 244.039C423.111 242.707 421.307 241.582 419.282 240.864C419.177 240.827 419.122 240.712 419.16 240.608C419.194 240.511 419.296 240.457 419.394 240.479L419.402 240.483Z" fill="#1AA9E8"/>
<path d="M483.989 275.933C482.619 271.31 477.239 270.763 477.239 270.763C474.594 274.045 452.531 307.051 452.531 307.051C452.531 307.051 448.992 288.007 444.796 272.301C437.321 276.521 429.09 278.298 424.113 278.975C424.278 286.921 424.866 297.371 426.456 309.239C429.783 334.084 434.567 342.546 440.314 343.704C446.878 345.025 462.014 338.233 474.597 329.663C487.179 321.093 485.36 280.556 483.989 275.933Z" fill="url(#paint25_linear)"/>
<path d="M444.41 333.134C443.547 333.134 442.837 332.914 442.315 332.437C433.489 324.387 431.23 279.407 431.138 277.497C431.123 277.195 431.356 276.939 431.658 276.925C431.993 276.906 432.216 277.144 432.23 277.446C432.253 277.908 434.556 323.882 443.052 331.629C447.316 335.528 471.117 315.558 486.068 301.187C486.284 300.978 486.633 300.982 486.842 301.202C487.051 301.42 487.045 301.767 486.826 301.976C483.262 305.401 454.105 333.134 444.41 333.134Z" fill="#3369FF"/>
<path d="M439.76 290.538L439.013 286.734C438.739 285.334 437.381 284.421 435.981 284.695C435.981 284.695 429.501 286.707 424.431 287.453C424.588 290.415 424.8 293.572 425.093 296.923C429.845 296.667 437.719 293.572 437.719 293.572C439.121 293.298 440.034 291.939 439.76 290.538Z" fill="url(#paint26_linear)"/>
<path d="M425.094 297.47C424.812 297.47 424.574 297.255 424.55 296.97C424.277 293.861 424.054 290.668 423.887 287.482C423.871 287.2 424.074 286.954 424.353 286.912C429.322 286.181 435.755 284.193 435.819 284.173C436.079 284.12 436.282 284.1 436.481 284.1C437.972 284.1 439.263 285.164 439.551 286.63L440.297 290.434C440.458 291.256 440.289 292.09 439.822 292.784C439.355 293.478 438.647 293.949 437.825 294.11C437.596 294.21 429.91 297.212 425.125 297.47C425.113 297.47 425.104 297.47 425.094 297.47ZM425.005 287.919C425.159 290.745 425.356 293.572 425.592 296.338C430.241 295.907 437.446 293.093 437.52 293.063C438.149 292.931 438.61 292.624 438.914 292.172C439.217 291.721 439.328 291.177 439.223 290.643L438.476 286.839C438.263 285.757 437.202 285.007 436.084 285.231C436.078 285.238 429.979 287.124 425.005 287.919Z" fill="#3369FF"/>
<path d="M557.594 251.405C553.827 247.65 547.536 243.41 535.637 239.991C523.739 236.572 489.274 239.854 485.308 249.291C481.342 258.727 497.801 272.478 511.726 275.723C525.652 278.969 559.753 274.592 563.81 260.916C564.807 257.555 557.594 251.405 557.594 251.405Z" fill="url(#paint27_linear)"/>
<path d="M538.235 233.927C536.457 239.854 541.336 264.198 543.342 271.127C537.552 275.549 529.411 277.446 519.088 276.78C506.369 275.96 501.036 270.945 501.036 270.945C501.036 270.945 508.284 262.42 509.97 245.417C511.464 230.351 538.235 233.927 538.235 233.927Z" fill="url(#paint28_linear)"/>
<path d="M543.22 225.489C548.805 217.904 555.034 205.279 545.166 191.531C539.603 183.781 528.383 180.419 522.234 181.046C507.207 182.578 504.593 190.619 504.593 190.619C497.663 198.187 487.087 233.016 501.583 244.231C514.055 253.88 529.801 242.382 535.521 235.422C536.605 236.31 537.992 236.843 539.503 236.843C542.976 236.843 545.791 234.027 545.791 230.553C545.79 228.472 544.777 226.634 543.22 225.489Z" fill="url(#paint29_radial)"/>
<path d="M540.243 197.914C536.192 198.002 524.126 203.241 522.03 199.578C519.956 195.953 528.056 191.78 526.543 189.184C524.696 186.015 518.392 189.411 513.208 191.782C506.78 194.723 502.235 194.568 495.976 188.021C490.026 181.798 489.776 174.208 493.104 171.746C496.999 168.866 501.401 169.74 503.977 171.267C506.582 172.812 510.024 177.224 513.004 175.096C515.716 173.158 512.423 168.012 516.286 166.206C520.138 164.406 526.794 167.073 530.213 171.654C533.632 176.235 533.716 177.878 539.125 178.652C546.306 179.678 560.433 183.668 561.213 202.289C561.851 217.516 551.857 223.426 548.221 225.714C544.585 228.002 548.776 212.14 547.811 205.845C547.331 202.723 544.437 197.822 540.243 197.914Z" fill="url(#paint30_linear)"/>
<path d="M512.889 209.492C511.817 208.956 505.777 212.41 501.766 215.601C498.166 218.465 493.917 220.032 494.422 221.965C494.927 223.899 501.948 226.087 501.948 226.087C501.948 226.087 503.335 222.249 506.781 218.154C510.427 213.823 513.984 210.039 512.889 209.492Z" fill="url(#paint31_linear)"/>
<path d="M504.342 237.502C504.005 237.502 503.64 237.465 503.246 237.381C499.564 236.595 498.08 231.874 498.35 229.668C498.386 229.368 498.661 229.15 498.959 229.191C499.259 229.227 499.474 229.501 499.436 229.801C499.235 231.447 500.366 235.647 503.475 236.312C505.958 236.838 506.554 235.069 506.578 234.993C506.669 234.705 506.971 234.541 507.266 234.639C507.553 234.731 507.712 235.038 507.62 235.326C507.355 236.154 506.354 237.502 504.342 237.502Z" fill="#9F36AD"/>
<path d="M519.698 221.415C518.698 222.575 516.946 222.703 515.789 221.702C514.628 220.7 514.5 218.949 515.501 217.79L519.946 212.644C520.946 211.484 522.698 211.356 523.856 212.357C525.016 213.359 525.144 215.11 524.143 216.268L519.698 221.415Z" fill="#212F66"/>
<path d="M517.986 219.434C517.618 219.861 516.974 219.908 516.548 219.54C516.122 219.172 516.075 218.529 516.443 218.102L518.077 216.211C518.445 215.785 519.087 215.737 519.513 216.106C519.94 216.473 519.987 217.118 519.618 217.543L517.986 219.434Z" fill="#00E2EC"/>
<path d="M504.246 210.382C503.267 211.518 501.552 211.642 500.419 210.663C499.283 209.683 499.157 207.968 500.138 206.834L504.49 201.795C505.469 200.66 507.184 200.534 508.317 201.514C509.453 202.495 509.579 204.209 508.599 205.344L504.246 210.382Z" fill="#212F66"/>
<path d="M502.57 208.443C502.21 208.86 501.58 208.906 501.162 208.547C500.745 208.186 500.699 207.557 501.059 207.139L502.659 205.287C503.02 204.87 503.648 204.824 504.066 205.184C504.484 205.545 504.529 206.175 504.168 206.592L502.57 208.443Z" fill="#00E2EC"/>
<path d="M557.565 210.496C556.972 196.159 540.242 197.914 540.242 197.914C540.242 197.914 543.022 199.851 543.981 206.119C545.124 213.598 542.964 221.01 541.158 224.492C542.883 224.962 544.311 226.146 545.107 227.711C548.696 225.665 557.938 219.506 557.565 210.496Z" fill="url(#paint32_linear)"/>
<path d="M563.34 585.234C563.255 569.477 563.217 552.882 563.217 544.654C563.217 526.601 565.041 467.701 563.4 451.108C561.759 434.514 557.929 402.238 557.929 402.238C557.929 402.238 526.777 406.028 507.583 404.551C486.995 402.968 476.865 397.422 476.865 397.422C476.606 402.078 474.732 448.435 477.087 475.658C480.185 511.473 487 561.232 490.259 583.814C494.678 585.421 504.136 586.949 513.423 584.633C514.116 560.248 515.263 527.356 515.623 515.843C516.17 498.337 518.724 467.702 518.724 467.702C518.724 467.702 525.288 512.012 528.935 533.713C531.164 546.97 534.411 567.979 536.977 585.278C542.817 586.315 553.298 586.666 563.34 585.234Z" fill="url(#paint33_linear)"/>
<path d="M472.541 394.004C476.494 397.994 490.395 409.315 540.724 402.477C538.992 384.971 533.677 348.262 535.135 334.221C536.594 320.18 541.492 274.66 541.492 274.66C541.492 274.66 524.924 278.603 512.159 275.868C499.394 273.132 493.741 268.027 493.741 268.027C493.741 268.027 483.256 291.551 476.691 336.956C470.127 382.362 472.541 394.004 472.541 394.004Z" fill="url(#paint34_linear)"/>
<path d="M506.233 405.047C505.946 405.047 505.706 404.825 505.688 404.534C504.586 387.144 510.03 291.288 511.615 275.812C511.646 275.511 511.913 275.292 512.215 275.323C512.515 275.353 512.735 275.622 512.703 275.922C511.12 291.382 505.68 387.111 506.779 404.465C506.799 404.766 506.57 405.026 506.267 405.045C506.255 405.047 506.244 405.047 506.233 405.047Z" fill="#FFA2BA"/>
<path d="M519.359 472.529C519.093 472.529 518.86 472.335 518.82 472.063C518.321 468.732 517.639 463.759 516.981 458.95C516.043 452.099 514.98 444.333 514.745 443.686C514.41 442.814 508.545 437.489 506.023 435.44C505.789 435.25 505.753 434.906 505.944 434.671C506.135 434.436 506.478 434.4 506.714 434.592C507.949 435.595 515.242 441.894 515.769 443.303C516.027 443.991 516.809 449.641 518.065 458.804C518.722 463.609 519.403 468.577 519.901 471.902C519.946 472.201 519.74 472.479 519.441 472.524C519.414 472.527 519.387 472.529 519.359 472.529Z" fill="#212F66"/>
<path d="M474.469 392.084C478.159 395.685 483.424 397.766 488.816 399.103C494.251 400.427 499.951 401.001 505.67 401.197C517.136 401.548 528.727 400.409 540.209 398.683L541.238 406.271C529.401 407.671 517.419 408.485 505.347 407.739C499.318 407.341 493.257 406.553 487.291 404.901C484.312 404.069 481.358 403.014 478.512 401.586C475.682 400.167 472.902 398.317 470.612 395.924L474.469 392.084Z" fill="url(#paint35_linear)"/>
<path d="M500.704 267.778C500.724 267.807 501.175 268.163 501.601 268.422C502.045 268.701 502.538 268.977 503.049 269.237C504.072 269.76 505.168 270.225 506.284 270.638C508.523 271.459 510.868 272.06 513.239 272.449C517.986 273.226 522.852 273.127 527.539 272.188L528.868 279.731C523.252 280.611 517.489 280.479 511.952 279.328C509.183 278.753 506.467 277.936 503.839 276.843C502.524 276.292 501.231 275.679 499.953 274.957C499.314 274.595 498.679 274.207 498.034 273.763C497.383 273.287 496.752 272.882 495.909 271.925L500.704 267.778Z" fill="url(#paint36_linear)"/>
<path d="M514.761 408.567C511.541 408.567 508.363 408.471 505.314 408.283C498.285 407.819 492.513 406.912 487.147 405.427C483.812 404.495 480.908 403.399 478.268 402.075C475.048 400.459 472.339 398.517 470.22 396.303C470.014 396.088 470.017 395.747 470.23 395.537L474.084 391.696C474.295 391.486 474.637 391.483 474.852 391.693C477.981 394.746 482.592 396.997 488.949 398.572C493.788 399.75 499.265 400.431 505.69 400.649C507.086 400.692 508.488 400.714 509.89 400.714C518.853 400.714 528.462 399.897 540.13 398.142C540.274 398.119 540.423 398.158 540.539 398.245C540.656 398.333 540.734 398.463 540.753 398.609L541.782 406.198C541.803 406.343 541.762 406.491 541.673 406.607C541.583 406.722 541.449 406.797 541.304 406.814C531.185 408.009 522.75 408.567 514.761 408.567ZM471.384 395.927C473.36 397.894 475.837 399.631 478.758 401.096C481.334 402.39 484.174 403.461 487.44 404.374C492.731 405.838 498.433 406.733 505.384 407.191C508.407 407.378 511.562 407.473 514.76 407.473C522.559 407.473 530.791 406.938 540.622 405.792L539.74 399.305C528.265 401.012 518.765 401.807 509.888 401.807C508.474 401.807 507.063 401.785 505.652 401.742C499.15 401.52 493.6 400.83 488.686 399.632C482.391 398.072 477.735 395.85 474.478 392.845L471.384 395.927Z" fill="#FFA2BA"/>
<path d="M521.502 280.851C518.244 280.851 514.995 280.519 511.843 279.865C508.974 279.268 506.211 278.421 503.63 277.347C502.185 276.742 500.895 276.116 499.686 275.433C498.978 275.032 498.337 274.633 497.727 274.212L497.476 274.031C496.889 273.607 496.28 273.17 495.501 272.285C495.404 272.175 495.356 272.032 495.366 271.885C495.375 271.74 495.443 271.604 495.554 271.509L500.347 267.363C500.465 267.262 500.623 267.217 500.775 267.234C500.929 267.254 501.068 267.338 501.156 267.466L501.157 267.465C501.18 267.465 501.544 267.744 501.887 267.954C502.314 268.222 502.787 268.488 503.3 268.75C504.249 269.234 505.318 269.696 506.475 270.124C508.635 270.917 510.94 271.517 513.331 271.908C517.96 272.668 522.799 272.58 527.436 271.652C527.578 271.624 527.729 271.653 527.852 271.738C527.973 271.821 528.056 271.949 528.082 272.094L529.411 279.637C529.436 279.781 529.402 279.931 529.318 280.049C529.233 280.169 529.102 280.25 528.957 280.273C526.497 280.656 523.991 280.851 521.502 280.851ZM496.697 271.967C497.22 272.499 497.657 272.814 498.114 273.143L498.359 273.321C498.93 273.713 499.545 274.096 500.224 274.482C501.395 275.142 502.648 275.75 504.053 276.337C506.568 277.384 509.265 278.21 512.065 278.792C517.319 279.884 522.863 280.047 528.234 279.274L527.098 272.832C522.506 273.685 517.729 273.74 513.151 272.989C510.694 272.587 508.32 271.968 506.097 271.151C504.896 270.709 503.788 270.229 502.801 269.724C502.261 269.449 501.758 269.166 501.311 268.885C501.218 268.829 500.961 268.661 500.72 268.487L496.697 271.967Z" fill="#FFA2BA"/>
<path d="M490.258 583.814C490.497 585.465 490.717 586.983 490.915 588.328C493.278 604.427 494.36 611.519 493.559 613.948C488.522 629.22 464.629 632.64 463.836 635.283C463.152 637.563 464.311 640.053 465.614 640.982C470.127 644.196 502.127 642.013 506.324 641.301C511.429 640.435 514.438 638.383 514.53 636.742C514.601 635.467 513.072 622.883 512.889 611.577C512.827 607.708 513.063 597.322 513.423 584.633C504.136 586.949 494.678 585.422 490.258 583.814Z" fill="url(#paint37_linear)"/>
<path d="M544.253 634.006C545.528 638.019 547.991 638.384 552.367 640.48C556.744 642.577 575.618 651.238 583.004 650.6C590.389 649.962 590.57 647.866 590.48 646.042C590.389 644.218 585.922 639.386 579.539 634.554C573.156 629.721 564.311 623.795 563.856 622.428C563.607 621.682 563.441 604.056 563.339 585.234C553.296 586.668 542.816 586.315 536.976 585.278C538.609 596.294 539.966 605.81 540.605 610.847C542.247 623.795 542.977 629.994 544.253 634.006Z" fill="url(#paint38_linear)"/>
<path d="M552.368 640.481C556.744 642.577 575.619 651.238 583.004 650.6C590.389 649.962 590.571 647.866 590.48 646.042C590.462 645.666 590.247 645.156 589.878 644.552C588.28 645.705 585.118 647.139 579.721 646.407C567.437 644.743 545.701 633.875 543.452 630.872C543.703 632.062 543.964 633.095 544.253 634.007C545.529 638.019 547.992 638.384 552.368 640.481Z" fill="url(#paint39_linear)"/>
<path d="M465.614 640.982C470.127 644.196 502.127 642.013 506.324 641.301C511.429 640.435 514.438 638.383 514.53 636.742C514.551 636.383 514.443 635.124 514.275 633.249C511.374 634.571 505.456 636.717 495.565 637.973C478.88 640.093 465.681 637.563 463.836 635.284C463.152 637.563 464.311 640.053 465.614 640.982Z" fill="url(#paint40_linear)"/>
<path d="M563.468 603.464C563.448 601.282 563.43 598.983 563.412 596.603H555.404C551.502 596.603 548.313 599.631 548.042 603.464H563.468Z" fill="url(#paint41_linear)"/>
<path d="M563.571 612.671C563.544 610.75 563.518 608.605 563.495 606.29H548.015V612.671H563.571Z" fill="url(#paint42_linear)"/>
<path d="M563.614 615.498H548.015C548.03 619.567 551.33 622.86 555.403 622.86H564.147C564.004 622.692 563.893 622.539 563.855 622.427C563.765 622.154 563.684 619.579 563.614 615.498Z" fill="url(#paint43_linear)"/>
<path d="M502.056 603.235V600.735C502.056 597.39 499.345 594.68 496.003 594.68H491.846C492.333 598.019 492.736 600.84 493.049 603.235H502.056Z" fill="url(#paint44_linear)"/>
<path d="M493.403 606.107C493.883 610.281 493.964 612.721 493.559 613.948C493.301 614.731 492.983 615.476 492.63 616.197H496.001C499.345 616.197 502.055 613.486 502.055 610.142V606.107H493.403Z" fill="url(#paint45_linear)"/>
<path d="M493.924 273.315C490.444 284.066 484.91 311.629 482.253 340.786C479.412 371.974 477.786 388.47 477.512 429.773C477.142 485.595 483.585 522.393 482.983 523.683C482.025 525.735 461.101 519.672 452.895 515.296C444.689 510.92 438.671 505.449 438.671 505.449C438.671 505.449 449.612 432.144 456.724 389.474C463.836 346.803 474.777 306.321 475.598 295.107C476.418 283.892 477.239 270.763 477.239 270.763C477.239 270.763 480.521 266.933 486.539 267.754C492.556 268.575 493.924 273.315 493.924 273.315Z" fill="url(#paint46_linear)"/>
<path d="M471.233 344.626L471.034 348.408C470.961 350.22 471.176 351.774 474.002 353.733L480.478 358.441C480.876 354.743 481.279 350.915 481.679 346.848L474.646 341.479C472.544 340.512 471.306 342.814 471.233 344.626Z" fill="url(#paint47_linear)"/>
<path d="M479.596 308.016C476.965 307.005 476.257 309.352 476.184 311.163L475.985 314.945C475.911 316.757 476.718 317.898 479.13 319.496L484.229 323.025C484.711 319.325 485.226 315.708 485.764 312.211L479.596 308.016Z" fill="url(#paint48_linear)"/>
<path d="M485.307 249.291C485.034 259.959 500.898 260.916 502.676 263.287C505.257 266.729 495.747 285.898 492.829 285.533C489.911 285.169 484.837 276.593 482.572 274.182C480.452 271.925 478.332 269.532 478.469 268.164C478.606 266.797 482.947 252.345 485.307 249.291Z" fill="url(#paint49_linear)"/>
<path d="M490.26 284.438C490.128 284.438 489.996 284.391 489.889 284.293C489.667 284.089 489.653 283.743 489.858 283.52C494.705 278.25 500.208 268.606 498.987 266.332C498.662 265.728 496.994 264.871 495.225 263.963C490.398 261.484 483.104 257.738 483.729 250.495C483.755 250.195 484.033 249.972 484.32 249.998C484.621 250.023 484.845 250.289 484.818 250.589C484.257 257.099 491.159 260.643 495.725 262.989C497.896 264.104 499.465 264.909 499.95 265.813C501.705 269.083 494.934 279.614 490.663 284.26C490.556 284.378 490.408 284.438 490.26 284.438Z" fill="#3369FF"/>
<path d="M535.364 286.217C533.996 291.551 526.915 344.901 525.471 399.686C524.029 454.39 525.253 528.816 527.295 531.708C529.484 534.808 549.816 528.335 563.036 524.049C575.573 519.984 586.376 513.472 586.376 513.472C586.376 513.472 584.918 450.015 584.918 425.215C584.918 400.415 576.256 288.269 576.256 288.269C576.256 288.269 568.477 278.451 555.194 276.507C541.912 274.563 535.364 286.217 535.364 286.217Z" fill="url(#paint50_linear)"/>
<path d="M542.339 312.706L520.321 321.322C517.357 322.505 517.102 324.061 517.176 325.873L517.375 329.655C517.448 331.466 518.543 333.218 520.787 332.802L541.034 324.092C541.45 320.123 541.884 316.321 542.339 312.706Z" fill="url(#paint51_linear)"/>
<path d="M538.842 348.987L520.283 354.718C517.319 355.9 517.064 357.456 517.137 359.268L517.336 363.05C517.41 364.861 518.505 366.614 520.749 366.197L538.073 360.188C538.315 356.39 538.572 352.651 538.842 348.987Z" fill="url(#paint52_linear)"/>
<path d="M519.574 333.355C519.34 333.355 519.124 333.204 519.051 332.97C518.925 332.563 518.852 332.13 518.833 331.682L518.635 327.907C518.559 326.063 518.767 324.158 522.123 322.819L541.628 315.186C541.911 315.076 542.227 315.215 542.337 315.497C542.446 315.779 542.308 316.096 542.027 316.206L522.526 323.838C519.825 324.914 519.661 326.238 519.727 327.856L519.925 331.632C519.94 331.992 519.996 332.331 520.094 332.647C520.184 332.936 520.023 333.242 519.735 333.331C519.682 333.348 519.627 333.355 519.574 333.355Z" fill="#3369FF"/>
<path d="M519.536 366.751C519.302 366.751 519.086 366.6 519.013 366.366C518.887 365.959 518.814 365.525 518.795 365.078L518.597 361.302C518.521 359.459 518.729 357.554 522.085 356.215L538.676 351.09C538.965 351.001 539.27 351.162 539.36 351.451C539.449 351.74 539.288 352.046 538.999 352.135L522.449 357.244C519.787 358.308 519.623 359.631 519.69 361.25L519.888 365.025C519.903 365.385 519.959 365.725 520.058 366.041C520.147 366.33 519.986 366.636 519.698 366.725C519.644 366.743 519.589 366.751 519.536 366.751Z" fill="#3369FF"/>
<path d="M538.788 531.736C538.519 531.736 538.285 531.537 538.248 531.264C531.013 478.509 535.364 320.531 547.562 281.812C547.652 281.525 547.959 281.364 548.248 281.455C548.537 281.545 548.696 281.853 548.605 282.141C536.437 320.764 532.108 478.443 539.331 531.114C539.373 531.413 539.164 531.689 538.864 531.73C538.839 531.734 538.814 531.736 538.788 531.736Z" fill="#3369FF"/>
<path d="M570.851 521.693C570.595 521.693 570.367 521.511 570.315 521.25C563.035 483.51 568.704 379.958 570.567 345.931L570.878 340.21C570.894 339.909 571.161 339.674 571.452 339.692C571.754 339.709 571.985 339.966 571.969 340.268L571.659 345.989C569.798 379.984 564.134 483.434 571.39 521.042C571.447 521.339 571.253 521.625 570.956 521.683C570.92 521.69 570.886 521.693 570.851 521.693Z" fill="#9F36AD"/>
<path d="M584.274 406.438C573.628 409.675 557.207 414.819 550.499 417.737C548.402 418.65 546.988 420.256 546.988 422.069V439.073C546.988 440.886 548.322 441.854 550.135 441.854L584.92 426.647C584.919 426.158 584.918 425.677 584.918 425.215C584.918 421.079 584.676 414.505 584.274 406.438Z" fill="url(#paint53_linear)"/>
<path d="M550.641 442.189C550.455 442.189 550.272 442.093 550.169 441.921C549.883 441.438 549.733 440.872 549.722 440.241L549.417 423.24C549.382 421.26 550.784 419.428 553.169 418.34C558.535 415.89 570.248 411.866 579.132 408.923C579.417 408.827 579.729 408.984 579.823 409.27C579.918 409.556 579.762 409.866 579.476 409.961C566.777 414.171 557.838 417.413 553.626 419.335C551.649 420.237 550.486 421.69 550.512 423.222L550.817 440.222C550.825 440.662 550.924 441.046 551.114 441.364C551.268 441.624 551.181 441.959 550.921 442.115C550.832 442.164 550.736 442.189 550.641 442.189Z" fill="#9F36AD"/>
<path d="M558.021 438.953C557.719 438.953 557.474 438.708 557.474 438.406V426.309C557.474 424.172 559.254 422.543 561.019 421.875L561.983 421.505C564.189 420.649 567.521 419.356 569.871 419.154C570.886 419.069 571.763 419.333 572.409 419.926C573.067 420.53 573.43 421.447 573.43 422.508V431.908C573.43 432.21 573.184 432.455 572.882 432.455C572.58 432.455 572.335 432.21 572.335 431.908V422.508C572.335 421.746 572.105 421.131 571.67 420.732C571.256 420.35 570.661 420.186 569.966 420.244C567.771 420.433 564.526 421.692 562.379 422.524L561.405 422.899C559.993 423.432 558.567 424.695 558.567 426.309V438.406C558.568 438.708 558.323 438.953 558.021 438.953Z" fill="#3369FF"/>
<path d="M521.824 266.386C524.08 264.13 533.338 265.088 543.342 263.468C554.602 261.644 559.571 259.958 560.301 257.451C561.217 254.306 556.836 250.703 556.836 250.703C556.836 250.703 566.866 256.539 566.683 259.092C566.5 261.644 560.301 278.421 560.301 278.421C560.301 278.421 548.448 284.075 540.06 287.721C531.671 291.368 523.467 296.838 520.913 295.563C518.359 294.287 518.725 269.486 521.824 266.386Z" fill="url(#paint54_linear)"/>
<path d="M523.17 295.532C522.496 292.39 522.362 289.241 522.273 286.096C522.216 282.95 522.283 279.802 522.579 276.661C522.735 275.09 522.933 273.521 523.277 271.958C523.456 271.176 523.659 270.395 523.994 269.621C524.169 269.234 524.362 268.845 524.706 268.476C525.045 268.128 525.464 267.896 525.846 267.729C527.417 267.083 528.992 266.901 530.56 266.692C532.128 266.506 533.691 266.383 535.252 266.265C538.375 266.033 541.49 265.834 544.577 265.455C547.655 265.071 550.725 264.478 553.716 263.663C555.208 263.245 556.684 262.764 558.094 262.149C559.477 261.529 560.904 260.794 561.795 259.672C562.694 258.558 562.264 256.93 561.544 255.636C560.815 254.306 559.819 253.086 558.736 251.982C558.696 251.944 558.693 251.881 558.73 251.84C558.765 251.802 558.826 251.8 558.866 251.829C560.098 252.818 561.21 253.966 562.061 255.339C562.485 256.024 562.816 256.789 562.951 257.626C563.089 258.448 562.939 259.425 562.388 260.111C561.316 261.462 559.838 262.186 558.406 262.856C556.953 263.502 555.451 264.005 553.935 264.441C550.898 265.293 547.813 265.913 544.689 266.327C541.569 266.734 538.441 266.956 535.327 267.212C533.771 267.342 532.216 267.476 530.68 267.67C529.158 267.877 527.588 268.098 526.262 268.661C525.573 268.951 525.234 269.327 524.947 270.035C524.664 270.698 524.471 271.44 524.309 272.183C523.992 273.678 523.807 275.218 523.667 276.761C523.403 279.849 523.312 282.964 523.372 286.073C523.455 289.171 523.596 292.309 524.236 295.291L524.239 295.302C524.302 295.597 524.114 295.888 523.819 295.951C523.525 296.016 523.234 295.828 523.17 295.532Z" fill="#3369FF"/>
<path d="M547.261 285.354C547.206 285.354 547.149 285.346 547.093 285.328C546.805 285.235 546.649 284.927 546.742 284.639C548.303 279.828 552.794 264.396 552.839 264.24C552.922 263.949 553.223 263.781 553.517 263.868C553.809 263.953 553.975 264.256 553.891 264.547C553.845 264.702 549.348 280.151 547.782 284.977C547.707 285.208 547.492 285.354 547.261 285.354Z" fill="#3369FF"/>
<path d="M605.249 434.962C605.236 433.836 604.741 394.055 601.148 370.327C597.093 343.554 584.005 292.645 576.256 288.269C572.314 286.043 558.543 298.299 558.295 326.38C558.111 347.168 565.21 363.765 569.783 382.544C574.068 400.136 581.735 428.369 582.912 436.155C582.952 436.414 582.986 436.647 583.024 436.896C588.189 435.065 598.152 434.435 605.249 434.962Z" fill="url(#paint55_linear)"/>
<path d="M595.278 405.059L596.545 416.988L604.762 416.557L604.334 406.705C604.334 406.706 601.899 404.96 595.278 405.059Z" fill="url(#paint56_linear)"/>
<path d="M596.545 417.534C596.266 417.534 596.031 417.325 596.001 417.045L594.734 405.116C594.718 404.963 594.766 404.811 594.869 404.695C594.97 404.581 595.117 404.513 595.269 404.511L595.812 404.507C602.133 404.507 604.553 406.19 604.652 406.262C604.789 406.359 604.873 406.515 604.881 406.683L605.309 416.534C605.322 416.834 605.09 417.089 604.79 417.104L596.573 417.536C596.565 417.534 596.555 417.534 596.545 417.534ZM595.885 405.601L597.034 416.414L604.19 416.039L603.8 407.025C603.115 406.658 600.736 405.612 595.885 405.601Z" fill="#3369FF"/>
<path d="M592.393 468.523C594.672 467.793 593.898 457.992 593.898 457.992C593.898 457.992 595.472 458.813 597.797 463.6C600.122 468.387 604.048 476.634 606.207 475.771C607.574 475.224 607.301 471.304 607.301 471.304C607.301 471.304 609.215 471.121 609.626 467.428C610.083 463.315 610.173 451.701 608.258 444.315C606.343 436.93 605.249 435.016 605.249 435.016C605.249 435.016 605.249 434.978 605.248 434.962C598.152 434.435 588.189 435.065 583.023 436.896C584.281 445.264 584.424 447.115 585.174 451.429C586.271 457.738 590.281 469.199 592.393 468.523Z" fill="url(#paint57_linear)"/>
<path d="M604.424 461.009C605.444 462.56 606.122 464.252 606.649 465.976C607.167 467.703 607.491 469.485 607.609 471.278C607.621 471.448 607.492 471.595 607.321 471.607C607.156 471.618 607.011 471.495 606.993 471.332C606.798 469.594 606.407 467.883 605.833 466.24C605.254 464.605 604.519 463.003 603.523 461.633C603.345 461.389 603.399 461.047 603.642 460.869C603.887 460.69 604.228 460.744 604.406 460.987C604.412 460.992 604.419 461.002 604.424 461.009Z" fill="#B75334"/>
<path d="M594.367 452.254C594.203 452.612 594.153 453.137 594.114 453.637C594.079 454.144 594.069 454.664 594.071 455.182C594.078 456.222 594.136 457.269 594.212 458.315C594.226 458.474 594.105 458.614 593.945 458.628C593.793 458.64 593.659 458.53 593.636 458.383C593.473 457.335 593.328 456.285 593.235 455.219C593.189 454.688 593.155 454.152 593.149 453.607C593.155 453.06 593.135 452.508 593.34 451.875L593.347 451.856C593.441 451.567 593.75 451.41 594.038 451.503C594.326 451.597 594.484 451.905 594.391 452.194C594.382 452.216 594.374 452.235 594.367 452.254Z" fill="#B75334"/>
<path d="M597.528 435.365C597.525 435.365 597.522 435.365 597.519 435.365C597.218 435.36 596.976 435.111 596.981 434.808C597.339 413.467 584.744 316.957 565.902 295.679C565.701 295.453 565.723 295.107 565.949 294.907C566.173 294.707 566.519 294.727 566.72 294.954C585.725 316.415 598.435 413.396 598.075 434.827C598.07 435.126 597.827 435.365 597.528 435.365Z" fill="#3369FF"/>
<path d="M208.231 214.101C203.247 201.662 201.665 187.694 204.447 173.567C208.535 152.807 221.189 135.913 238.01 125.826L222.27 94.8921C196.305 109.682 176.679 135.254 170.453 166.872C166.164 188.651 168.847 210.183 176.949 229.167L208.231 214.101Z" fill="white"/>
<path d="M246.781 121.35C259.592 115.878 274.123 114.062 288.822 116.956C310.146 121.155 327.377 134.399 337.357 151.908L368.643 136.84C354.047 109.855 327.966 89.3526 295.516 82.9619C272.9 78.5078 250.547 81.5713 231.04 90.4172L246.781 121.35Z" fill="white"/>
<path d="M372.919 145.71L341.639 160.776C346.63 173.222 348.215 187.197 345.432 201.333C337.764 240.264 299.988 265.611 261.056 257.943C239.722 253.742 222.487 240.489 212.509 222.97L181.224 238.038C195.816 265.032 221.903 285.544 254.361 291.937C312.068 303.301 368.061 265.733 379.426 208.028C383.717 186.239 381.029 164.699 372.919 145.71Z" fill="white"/>
<path d="M214.637 226.488C207.344 215.246 203.092 201.847 203.092 187.449C203.092 166.29 212.242 147.27 226.798 134.122L205.377 106.813C182.759 126.342 168.444 155.223 168.444 187.449C168.444 209.646 175.238 230.254 186.856 247.314L214.637 226.488Z" fill="url(#paint58_linear)"/>
<path d="M234.54 128.036C246.052 120.192 259.958 115.602 274.94 115.602C296.674 115.602 316.14 125.266 329.314 140.517L357.098 119.688C337.565 96.0319 308.013 80.9551 274.94 80.9551C251.889 80.9551 230.55 88.2801 213.121 100.728L234.54 128.036Z" fill="url(#paint59_linear)"/>
<path d="M363.008 127.564L335.227 148.39C342.528 159.637 346.786 173.042 346.786 187.449C346.786 227.129 314.619 259.296 274.939 259.296C253.196 259.296 233.724 249.624 220.548 234.362L192.765 255.191C212.298 278.857 241.856 293.942 274.938 293.942C333.753 293.942 381.431 246.263 381.431 187.448C381.433 165.244 374.633 144.628 363.008 127.564Z" fill="url(#paint60_linear)"/>
<path d="M233.288 203.108C239.625 219.954 255.879 231.943 274.939 231.943C288.618 231.943 300.85 225.766 309.012 216.054L274.939 187.449L233.288 203.108Z" fill="url(#paint61_linear)"/>
<path d="M290.72 145.846L274.939 187.449L309.012 216.054C315.512 208.318 319.433 198.343 319.433 187.449C319.433 168.435 307.501 152.215 290.72 145.846Z" fill="url(#paint62_linear)"/>
<path d="M290.72 145.846C285.814 143.984 280.498 142.955 274.94 142.955C250.367 142.955 230.446 162.876 230.446 187.449C230.446 192.961 231.455 198.236 233.287 203.108L274.939 187.449L290.72 145.846Z" fill="url(#paint63_linear)"/>
<path d="M234.195 54.5655C233.908 54.5655 233.623 54.4528 233.407 54.2307C232.988 53.7952 233 53.1026 233.434 52.6836L267.359 19.972C267.794 19.5529 268.486 19.5639 268.907 19.9993C269.326 20.4348 269.314 21.1273 268.879 21.5464L234.954 54.258C234.742 54.4637 234.468 54.5655 234.195 54.5655Z" fill="#1AA9E8"/>
<path d="M234.195 57.8016C236.586 57.8016 238.525 55.8628 238.525 53.4711C238.525 51.0794 236.586 49.1406 234.195 49.1406C231.803 49.1406 229.864 51.0794 229.864 53.4711C229.864 55.8628 231.803 57.8016 234.195 57.8016Z" fill="#FDE1A7"/>
<path d="M67.7686 103.911H113.721V144.393H67.7686V103.911Z" fill="#C7A0F6"/>
<path d="M83.0863 103.911H98.4038V117.04H83.0863V103.911Z" fill="#FDE1A7"/>
<path d="M83.0863 131.264H98.4038V144.393H83.0863V131.264Z" fill="#FF57BC"/>
<path d="M98.4037 117.041H113.721V131.264H98.4037V117.041Z" fill="#FF9BBB"/>
<path d="M67.7684 117.041H83.0859V131.264H67.7684V117.041Z" fill="#1AA9E8"/>
<path d="M46.9803 231.922V173.924C46.9803 173.326 47.5446 172.84 48.2427 172.84H56.659C57.3571 172.84 57.9214 173.326 57.9214 173.924V231.922H46.9803Z" fill="#05C5DA"/>
<path d="M57.9215 231.922V168.413C57.9215 164.816 61.1881 161.899 65.2156 161.899H72.5097C76.5372 161.899 79.8037 164.816 79.8037 168.413V231.922H57.9215Z" fill="#FDE1A7"/>
<path d="M57.9215 175.028H79.8037V181.593H57.9215V175.028Z" fill="#C7A0F6"/>
<path d="M108.982 231.922H86.3685L108.852 155.614C109.372 153.849 111.402 152.792 113.387 153.255L127.358 156.513C129.344 156.976 130.531 158.783 130.011 160.549L108.982 231.922Z" fill="#1AA9E8"/>
<path d="M109.345 231.921L132.287 152.873C132.459 152.286 133.124 151.934 133.774 152.089L146.729 155.157C147.381 155.311 147.769 155.913 147.599 156.5L125.709 231.922H109.345V231.921Z" fill="#FF9BBB"/>
<path d="M103.78 173.678L124.921 178.58L116.084 208.389L94.9437 203.487L103.78 173.678Z" fill="#0090B2"/>
<path d="M148.732 233.016V32.8767C151.259 32.8219 153.814 32.7966 156.391 32.7944V233.016H148.732Z" fill="url(#paint64_linear)"/>
<path d="M165.144 68.4973V68.9H28.3805C30.8436 66.0217 33.3862 63.4628 35.9239 61.2412H157.695C161.808 61.2412 165.144 64.4907 165.144 68.4973Z" fill="url(#paint65_linear)"/>
<path d="M161.862 224.666V224.263H14.1572C16.8174 227.141 19.5634 229.7 22.3041 231.922H153.817C158.259 231.922 161.862 228.672 161.862 224.666Z" fill="url(#paint66_linear)"/>
<path d="M165.144 147.273V147.676H2.71371C2.42548 146.413 2.13465 145.14 1.83853 143.847C1.54241 142.557 1.27783 141.282 1.02778 140.017H157.247C161.608 140.017 165.144 143.267 165.144 147.273Z" fill="url(#paint67_linear)"/>
<defs>
<linearGradient id="paint0_linear" x1="499.977" y1="728.293" x2="499.977" y2="411.337" gradientUnits="userSpaceOnUse">
<stop stop-color="#031730"/>
<stop offset="1" stop-color="#462855"/>
</linearGradient>
<linearGradient id="paint1_linear" x1="631.31" y1="465.443" x2="772.586" y2="606.719" gradientUnits="userSpaceOnUse">
<stop stop-color="#111B38"/>
<stop offset="1" stop-color="#36244C"/>
</linearGradient>
<linearGradient id="paint2_linear" x1="646.127" y1="562.253" x2="710.633" y2="562.253" gradientUnits="userSpaceOnUse">
<stop stop-color="#3A64D3"/>
<stop offset="1" stop-color="#043753"/>
</linearGradient>
<linearGradient id="paint3_linear" x1="621.757" y1="533.028" x2="676.068" y2="533.028" gradientUnits="userSpaceOnUse">
<stop stop-color="#3A64D3"/>
<stop offset="1" stop-color="#043753"/>
</linearGradient>
<linearGradient id="paint4_linear" x1="675.694" y1="592.262" x2="739.004" y2="592.262" gradientUnits="userSpaceOnUse">
<stop stop-color="#3A64D3"/>
<stop offset="1" stop-color="#043753"/>
</linearGradient>
<linearGradient id="paint5_linear" x1="592.941" y1="505.122" x2="646.591" y2="505.122" gradientUnits="userSpaceOnUse">
<stop stop-color="#3A64D3"/>
<stop offset="1" stop-color="#043753"/>
</linearGradient>
<radialGradient id="paint6_radial" cx="0" cy="0" r="1" gradientUnits="userSpaceOnUse" gradientTransform="translate(529.93 641.587) scale(114.812 47.4633)">
<stop stop-color="#231F20"/>
<stop offset="0.1225" stop-color="#242228"/>
<stop offset="0.3171" stop-color="#25293F"/>
<stop offset="0.5596" stop-color="#283665"/>
<stop offset="0.8377" stop-color="#2C4799"/>
<stop offset="1" stop-color="#2E52BA"/>
</radialGradient>
<linearGradient id="paint7_linear" x1="135.131" y1="-38.3593" x2="586.736" y2="413.246" gradientUnits="userSpaceOnUse">
<stop stop-color="#042637"/>
<stop offset="1" stop-color="#462855"/>
</linearGradient>
<radialGradient id="paint8_radial" cx="0" cy="0" r="1" gradientUnits="userSpaceOnUse" gradientTransform="translate(336.402 43.3701) scale(37.5953)">
<stop stop-color="white" stop-opacity="0.25"/>
<stop offset="0.2868" stop-color="#FDFDFD" stop-opacity="0.1783"/>
<stop offset="0.4264" stop-color="#F5F8F8" stop-opacity="0.1434"/>
<stop offset="0.5341" stop-color="#E8EFEF" stop-opacity="0.1165"/>
<stop offset="0.6256" stop-color="#D6E2E3" stop-opacity="0.0936"/>
<stop offset="0.7069" stop-color="#BDD1D2" stop-opacity="0.0733"/>
<stop offset="0.7807" stop-color="#A0BCBE" stop-opacity="0.0548"/>
<stop offset="0.8491" stop-color="#7CA4A6" stop-opacity="0.0377"/>
<stop offset="0.9131" stop-color="#53878A" stop-opacity="0.0217"/>
<stop offset="0.9714" stop-color="#26676B" stop-opacity="0.01"/>
<stop offset="1" stop-color="#0D565A" stop-opacity="0"/>
</radialGradient>
<linearGradient id="paint9_linear" x1="316.163" y1="29.1154" x2="350.719" y2="63.6713" gradientUnits="userSpaceOnUse">
<stop stop-color="#3EC6A8"/>
<stop offset="1" stop-color="#FFE2A8"/>
</linearGradient>
<linearGradient id="paint10_linear" x1="656.398" y1="320.056" x2="725.328" y2="320.056" gradientUnits="userSpaceOnUse">
<stop stop-color="#043753"/>
<stop offset="1" stop-color="#3A64D3"/>
</linearGradient>
<linearGradient id="paint11_linear" x1="589.293" y1="304.735" x2="656.398" y2="304.735" gradientUnits="userSpaceOnUse">
<stop stop-color="#005DA5"/>
<stop offset="1" stop-color="#0A444D"/>
</linearGradient>
<linearGradient id="paint12_linear" x1="607.438" y1="326.94" x2="658.71" y2="326.94" gradientUnits="userSpaceOnUse">
<stop stop-color="#00A39F"/>
<stop offset="1" stop-color="#00E2EC"/>
</linearGradient>
<linearGradient id="paint13_linear" x1="613.364" y1="95.2536" x2="664.058" y2="95.2536" gradientUnits="userSpaceOnUse">
<stop stop-color="#45959F"/>
<stop offset="1" stop-color="#0E4A5F"/>
</linearGradient>
<linearGradient id="paint14_linear" x1="589.293" y1="165.819" x2="656.398" y2="165.819" gradientUnits="userSpaceOnUse">
<stop stop-color="#005DA5"/>
<stop offset="1" stop-color="#0A444D"/>
</linearGradient>
<linearGradient id="paint15_linear" x1="589.293" y1="122.054" x2="656.398" y2="122.054" gradientUnits="userSpaceOnUse">
<stop stop-color="#00A39F"/>
<stop offset="0.2077" stop-color="#00A7A4"/>
<stop offset="0.4527" stop-color="#00B3B2"/>
<stop offset="0.7164" stop-color="#00C6CA"/>
<stop offset="0.9917" stop-color="#00E1EB"/>
<stop offset="1" stop-color="#00E2EC"/>
</linearGradient>
<linearGradient id="paint16_linear" x1="590.479" y1="92.7355" x2="649.014" y2="92.7355" gradientUnits="userSpaceOnUse">
<stop stop-color="#00AFAF"/>
<stop offset="1" stop-color="#00E2EC"/>
</linearGradient>
<linearGradient id="paint17_linear" x1="588.291" y1="92.7357" x2="651.202" y2="92.7357" gradientUnits="userSpaceOnUse">
<stop stop-color="#7182E2"/>
<stop offset="1" stop-color="#E868EF"/>
</linearGradient>
<linearGradient id="paint18_linear" x1="656.398" y1="105.096" x2="694.796" y2="105.096" gradientUnits="userSpaceOnUse">
<stop stop-color="#00A39F"/>
<stop offset="0.2351" stop-color="#019E9A"/>
<stop offset="0.5123" stop-color="#05908D"/>
<stop offset="0.8096" stop-color="#0B7877"/>
<stop offset="1" stop-color="#106565"/>
</linearGradient>
<linearGradient id="paint19_linear" x1="625.764" y1="162.998" x2="646.552" y2="162.998" gradientUnits="userSpaceOnUse">
<stop stop-color="#3EC6A8"/>
<stop offset="1" stop-color="#FFE2A8"/>
</linearGradient>
<linearGradient id="paint20_linear" x1="636.158" y1="170.141" x2="636.158" y2="158.966" gradientUnits="userSpaceOnUse">
<stop stop-color="#7558CE"/>
<stop offset="1" stop-color="#E868EF"/>
</linearGradient>
<linearGradient id="paint21_linear" x1="636.158" y1="192.451" x2="636.158" y2="132.085" gradientUnits="userSpaceOnUse">
<stop stop-color="#7558CE"/>
<stop offset="1" stop-color="#E868EF"/>
</linearGradient>
<linearGradient id="paint22_linear" x1="438.239" y1="10.4802" x2="546.6" y2="118.842" gradientUnits="userSpaceOnUse">
<stop stop-color="#00FFFF"/>
<stop offset="1" stop-color="#0090B2"/>
</linearGradient>
<linearGradient id="paint23_linear" x1="413.233" y1="64.66" x2="571.606" y2="64.66" gradientUnits="userSpaceOnUse">
<stop stop-color="#C7A0F6"/>
<stop offset="1" stop-color="#FDE1A7"/>
</linearGradient>
<linearGradient id="paint24_linear" x1="395.028" y1="227.7" x2="442.213" y2="274.885" gradientUnits="userSpaceOnUse">
<stop stop-color="#00FFFF"/>
<stop offset="0.082" stop-color="#25ECED"/>
<stop offset="0.2106" stop-color="#58D1D4"/>
<stop offset="0.3417" stop-color="#84BBBF"/>
<stop offset="0.4729" stop-color="#A8A8AD"/>
<stop offset="0.6041" stop-color="#C49A9F"/>
<stop offset="0.7354" stop-color="#D88F96"/>
<stop offset="0.8672" stop-color="#E48990"/>
<stop offset="1" stop-color="#E8878E"/>
</linearGradient>
<linearGradient id="paint25_linear" x1="424.113" y1="307.316" x2="484.959" y2="307.316" gradientUnits="userSpaceOnUse">
<stop stop-color="#7D59D0"/>
<stop offset="1" stop-color="#7C18A1"/>
</linearGradient>
<linearGradient id="paint26_linear" x1="424.432" y1="290.785" x2="439.809" y2="290.785" gradientUnits="userSpaceOnUse">
<stop stop-color="#3369FF"/>
<stop offset="1" stop-color="#7C18A1"/>
</linearGradient>
<linearGradient id="paint27_linear" x1="484.708" y1="257.709" x2="563.905" y2="257.709" gradientUnits="userSpaceOnUse">
<stop stop-color="#042637"/>
<stop offset="1" stop-color="#2335E0"/>
</linearGradient>
<linearGradient id="paint28_linear" x1="501.036" y1="255.234" x2="543.342" y2="255.234" gradientUnits="userSpaceOnUse">
<stop stop-color="#00C4C8"/>
<stop offset="0.0173" stop-color="#07C2C6"/>
<stop offset="0.1706" stop-color="#42B3B8"/>
<stop offset="0.3234" stop-color="#75A5AB"/>
<stop offset="0.4725" stop-color="#9E9AA0"/>
<stop offset="0.617" stop-color="#BE9298"/>
<stop offset="0.7558" stop-color="#D58C93"/>
<stop offset="0.8863" stop-color="#E3888F"/>
<stop offset="1" stop-color="#E8878E"/>
</linearGradient>
<radialGradient id="paint29_radial" cx="0" cy="0" r="1" gradientUnits="userSpaceOnUse" gradientTransform="translate(531.498 218.118) rotate(-67.8698) scale(58.8261 37.6002)">
<stop stop-color="#E8878E"/>
<stop offset="0.1328" stop-color="#E48990"/>
<stop offset="0.2646" stop-color="#D88F96"/>
<stop offset="0.3959" stop-color="#C49A9F"/>
<stop offset="0.5271" stop-color="#A8A8AD"/>
<stop offset="0.6583" stop-color="#84BBBF"/>
<stop offset="0.7894" stop-color="#58D1D4"/>
<stop offset="0.918" stop-color="#25ECED"/>
<stop offset="1" stop-color="#00FFFF"/>
</radialGradient>
<linearGradient id="paint30_linear" x1="506.257" y1="207.01" x2="552.4" y2="180.37" gradientUnits="userSpaceOnUse">
<stop stop-color="#3369FF"/>
<stop offset="0.1191" stop-color="#305DDB"/>
<stop offset="0.3562" stop-color="#2C4799"/>
<stop offset="0.5713" stop-color="#283665"/>
<stop offset="0.7571" stop-color="#25293F"/>
<stop offset="0.9062" stop-color="#242228"/>
<stop offset="1" stop-color="#231F20"/>
</linearGradient>
<linearGradient id="paint31_linear" x1="494.38" y1="217.762" x2="513.09" y2="217.762" gradientUnits="userSpaceOnUse">
<stop stop-color="#FF57BD"/>
<stop offset="1" stop-color="#DD8A91"/>
</linearGradient>
<linearGradient id="paint32_linear" x1="540.242" y1="212.778" x2="557.576" y2="212.778" gradientUnits="userSpaceOnUse">
<stop stop-color="#994574"/>
<stop offset="1" stop-color="#43256F"/>
</linearGradient>
<linearGradient id="paint33_linear" x1="519.999" y1="586.186" x2="519.999" y2="397.423" gradientUnits="userSpaceOnUse">
<stop stop-color="#042637"/>
<stop offset="1" stop-color="#2335E0"/>
</linearGradient>
<linearGradient id="paint34_linear" x1="472.107" y1="336.326" x2="541.492" y2="336.326" gradientUnits="userSpaceOnUse">
<stop stop-color="#C91C91"/>
<stop offset="1" stop-color="#FE6A77"/>
</linearGradient>
<linearGradient id="paint35_linear" x1="470.614" y1="400.052" x2="541.239" y2="400.052" gradientUnits="userSpaceOnUse">
<stop stop-color="#FE6A77"/>
<stop offset="1" stop-color="#FF57BD"/>
</linearGradient>
<linearGradient id="paint36_linear" x1="495.911" y1="274.041" x2="528.87" y2="274.041" gradientUnits="userSpaceOnUse">
<stop stop-color="#FE6A77"/>
<stop offset="1" stop-color="#FF57BD"/>
</linearGradient>
<linearGradient id="paint37_linear" x1="475.377" y1="598.697" x2="514.326" y2="637.646" gradientUnits="userSpaceOnUse">
<stop stop-color="#05C5DA"/>
<stop offset="1" stop-color="#5860C4"/>
</linearGradient>
<linearGradient id="paint38_linear" x1="536.976" y1="617.934" x2="590.492" y2="617.934" gradientUnits="userSpaceOnUse">
<stop stop-color="#05C5DA"/>
<stop offset="1" stop-color="#5860C4"/>
</linearGradient>
<linearGradient id="paint39_linear" x1="543.452" y1="640.753" x2="590.493" y2="640.753" gradientUnits="userSpaceOnUse">
<stop stop-color="#A281FF"/>
<stop offset="1" stop-color="#FF57BD"/>
</linearGradient>
<linearGradient id="paint40_linear" x1="463.633" y1="637.969" x2="514.532" y2="637.969" gradientUnits="userSpaceOnUse">
<stop stop-color="#A281FF"/>
<stop offset="1" stop-color="#FF57BD"/>
</linearGradient>
<linearGradient id="paint41_linear" x1="548.041" y1="600.033" x2="563.467" y2="600.033" gradientUnits="userSpaceOnUse">
<stop stop-color="#8C6AE2"/>
<stop offset="1" stop-color="#5A55F8"/>
</linearGradient>
<linearGradient id="paint42_linear" x1="548.014" y1="609.481" x2="563.571" y2="609.481" gradientUnits="userSpaceOnUse">
<stop stop-color="#8C6AE2"/>
<stop offset="1" stop-color="#5A55F8"/>
</linearGradient>
<linearGradient id="paint43_linear" x1="548.015" y1="619.179" x2="564.148" y2="619.179" gradientUnits="userSpaceOnUse">
<stop stop-color="#8C6AE2"/>
<stop offset="1" stop-color="#5A55F8"/>
</linearGradient>
<linearGradient id="paint44_linear" x1="491.846" y1="598.957" x2="502.056" y2="598.957" gradientUnits="userSpaceOnUse">
<stop stop-color="#5A55F8"/>
<stop offset="1" stop-color="#8C6AE2"/>
</linearGradient>
<linearGradient id="paint45_linear" x1="492.631" y1="611.152" x2="502.056" y2="611.152" gradientUnits="userSpaceOnUse">
<stop stop-color="#5A55F8"/>
<stop offset="1" stop-color="#8C6AE2"/>
</linearGradient>
<linearGradient id="paint46_linear" x1="438.671" y1="395.867" x2="493.924" y2="395.867" gradientUnits="userSpaceOnUse">
<stop stop-color="#7C18A1"/>
<stop offset="1" stop-color="#042637"/>
</linearGradient>
<linearGradient id="paint47_linear" x1="471.023" y1="349.845" x2="481.678" y2="349.845" gradientUnits="userSpaceOnUse">
<stop stop-color="#7D59D0"/>
<stop offset="1" stop-color="#7C18A1"/>
</linearGradient>
<linearGradient id="paint48_linear" x1="475.981" y1="315.399" x2="485.765" y2="315.399" gradientUnits="userSpaceOnUse">
<stop stop-color="#7D59D0"/>
<stop offset="1" stop-color="#7C18A1"/>
</linearGradient>
<linearGradient id="paint49_linear" x1="478.463" y1="267.415" x2="503.115" y2="267.415" gradientUnits="userSpaceOnUse">
<stop stop-color="#7D59D0"/>
<stop offset="1" stop-color="#7C18A1"/>
</linearGradient>
<linearGradient id="paint50_linear" x1="524.842" y1="404.404" x2="586.376" y2="404.404" gradientUnits="userSpaceOnUse">
<stop stop-color="#7C18A1"/>
<stop offset="1" stop-color="#042637"/>
</linearGradient>
<linearGradient id="paint51_linear" x1="517.165" y1="322.785" x2="542.339" y2="322.785" gradientUnits="userSpaceOnUse">
<stop stop-color="#7D59D0"/>
<stop offset="1" stop-color="#7C18A1"/>
</linearGradient>
<linearGradient id="paint52_linear" x1="517.126" y1="357.623" x2="538.842" y2="357.623" gradientUnits="userSpaceOnUse">
<stop stop-color="#7D59D0"/>
<stop offset="1" stop-color="#7C18A1"/>
</linearGradient>
<linearGradient id="paint53_linear" x1="546.988" y1="424.145" x2="584.92" y2="424.145" gradientUnits="userSpaceOnUse">
<stop stop-color="#7C1DA5"/>
<stop offset="1" stop-color="#3C2068"/>
</linearGradient>
<linearGradient id="paint54_linear" x1="519.222" y1="273.227" x2="566.685" y2="273.227" gradientUnits="userSpaceOnUse">
<stop stop-color="#7C18A1"/>
<stop offset="1" stop-color="#042637"/>
</linearGradient>
<linearGradient id="paint55_linear" x1="558.292" y1="362.454" x2="605.249" y2="362.454" gradientUnits="userSpaceOnUse">
<stop stop-color="#7D59D0"/>
<stop offset="1" stop-color="#7C18A1"/>
</linearGradient>
<linearGradient id="paint56_linear" x1="595.278" y1="411.021" x2="604.761" y2="411.021" gradientUnits="userSpaceOnUse">
<stop stop-color="#3369FF"/>
<stop offset="1" stop-color="#7C18A1"/>
</linearGradient>
<linearGradient id="paint57_linear" x1="583.023" y1="455.308" x2="609.9" y2="455.308" gradientUnits="userSpaceOnUse">
<stop stop-color="#C16846"/>
<stop offset="0.2653" stop-color="#D27565"/>
<stop offset="0.5308" stop-color="#DE7F7B"/>
<stop offset="0.7814" stop-color="#E58589"/>
<stop offset="1" stop-color="#E8878E"/>
</linearGradient>
<linearGradient id="paint58_linear" x1="168.445" y1="177.063" x2="226.799" y2="177.063" gradientUnits="userSpaceOnUse">
<stop stop-color="#FDE1A7"/>
<stop offset="1" stop-color="#F9A144"/>
</linearGradient>
<linearGradient id="paint59_linear" x1="213.12" y1="110.736" x2="357.097" y2="110.736" gradientUnits="userSpaceOnUse">
<stop stop-color="#5A55F8"/>
<stop offset="1" stop-color="#8C6AE2"/>
</linearGradient>
<linearGradient id="paint60_linear" x1="192.766" y1="210.753" x2="381.433" y2="210.753" gradientUnits="userSpaceOnUse">
<stop stop-color="#FF57BD"/>
<stop offset="1" stop-color="#FE6A77"/>
</linearGradient>
<linearGradient id="paint61_linear" x1="233.288" y1="209.696" x2="309.012" y2="209.696" gradientUnits="userSpaceOnUse">
<stop stop-color="#C7A0F6"/>
<stop offset="1" stop-color="#FF57BD"/>
</linearGradient>
<linearGradient id="paint62_linear" x1="274.94" y1="180.95" x2="319.433" y2="180.95" gradientUnits="userSpaceOnUse">
<stop stop-color="#994574"/>
<stop offset="1" stop-color="#43256F"/>
</linearGradient>
<linearGradient id="paint63_linear" x1="243.497" y1="155.97" x2="274.958" y2="187.431" gradientUnits="userSpaceOnUse">
<stop stop-color="#1AA9E8"/>
<stop offset="0.4223" stop-color="#3D80EF"/>
<stop offset="0.7909" stop-color="#5662F4"/>
<stop offset="1" stop-color="#5F57F6"/>
</linearGradient>
<linearGradient id="paint64_linear" x1="156.391" y1="132.905" x2="148.732" y2="132.905" gradientUnits="userSpaceOnUse">
<stop stop-color="white"/>
<stop offset="1" stop-color="#B0E1FF"/>
</linearGradient>
<linearGradient id="paint65_linear" x1="165.144" y1="65.0712" x2="28.3802" y2="65.0712" gradientUnits="userSpaceOnUse">
<stop stop-color="white"/>
<stop offset="1" stop-color="#B0E1FF"/>
</linearGradient>
<linearGradient id="paint66_linear" x1="161.862" y1="228.092" x2="14.1569" y2="228.092" gradientUnits="userSpaceOnUse">
<stop stop-color="white"/>
<stop offset="1" stop-color="#B0E1FF"/>
</linearGradient>
<linearGradient id="paint67_linear" x1="165.144" y1="143.846" x2="1.02751" y2="143.846" gradientUnits="userSpaceOnUse">
<stop stop-color="white"/>
<stop offset="1" stop-color="#B0E1FF"/>
</linearGradient>
</defs>
</svg>
