<svg width="816" height="649" viewBox="0 0 816 649" fill="none" xmlns="http://www.w3.org/2000/svg">
<path d="M401.792 0.118438C455.397 2.3252 480.963 10.9699 534.691 69.1182C575.507 113.293 584.464 132.573 618.844 151.055C643.675 164.404 770.729 191.1 803.056 314.93C837.38 446.409 801.68 563.585 716.851 616.188C623.462 674.098 550.028 624.794 506.469 602.634C445.921 571.831 421.263 558.58 318.666 620.5C222.711 678.411 116.494 644.527 54.4062 550.885C-4.19581 462.501 -25.743 298.582 42.0912 197.877C99.2194 113.065 164.728 138.734 218.606 106.082C261.168 80.2888 311.995 -3.57798 401.792 0.118438Z" fill="url(#paint0_linear)"/>
<path d="M576.082 568C542.455 568 510.978 577.185 484 593.163C496.879 596.917 510.139 602.574 525.893 609.25C565.29 625.944 629.775 661.605 711.606 629.052C678.448 591.612 630.028 568 576.082 568Z" fill="url(#paint1_radial)"/>
<path d="M681.715 281.418C700.86 281.418 716.38 265.898 716.38 246.753C716.38 227.608 700.86 212.088 681.715 212.088C662.57 212.088 647.05 227.608 647.05 246.753C647.05 265.898 662.57 281.418 681.715 281.418Z" fill="url(#paint2_radial)"/>
<path d="M55.333 317.666C74.2946 317.666 89.666 302.295 89.666 283.333C89.666 264.371 74.2946 249 55.333 249C36.3714 249 21 264.371 21 283.333C21 302.295 36.3714 317.666 55.333 317.666Z" fill="url(#paint3_radial)"/>
<path d="M54.333 303.666C66.6672 303.666 76.666 293.667 76.666 281.333C76.666 268.999 66.6672 259 54.333 259C41.9988 259 32 268.999 32 281.333C32 293.667 41.9988 303.666 54.333 303.666Z" fill="url(#paint4_linear)"/>
<path d="M54.333 303.666C66.6672 303.666 76.666 293.667 76.666 281.333C76.666 268.999 66.6672 259 54.333 259C41.9988 259 32 268.999 32 281.333C32 293.667 41.9988 303.666 54.333 303.666Z" fill="url(#paint5_linear)"/>
<path d="M48.667 281.334C45.542 281.334 43 278.792 43 275.667C43 272.542 45.542 270 48.667 270C51.792 270 54.334 272.542 54.334 275.667C54.334 278.792 51.792 281.334 48.667 281.334ZM48.667 271.001C46.094 271.001 44 273.094 44 275.668C44 278.242 46.093 280.335 48.667 280.335C51.241 280.335 53.334 278.242 53.334 275.668C53.334 273.094 51.241 271.001 48.667 271.001Z" fill="#FDE1A7"/>
<path d="M60.7857 299.814C58.6587 299.814 56.8497 298.902 55.8257 297.312C54.0217 294.512 55.2727 290.483 58.6127 288.33C59.9637 287.46 61.4747 287 62.9837 287C65.1107 287 66.9197 287.912 67.9437 289.503C69.7477 292.303 68.4977 296.332 65.1567 298.484C63.8057 299.355 62.2947 299.814 60.7857 299.814ZM62.9827 288C61.6667 288 60.3427 288.405 59.1537 289.17C56.2767 291.024 55.1597 294.433 56.6657 296.769C57.5027 298.068 59.0037 298.813 60.7857 298.813C62.1017 298.813 63.4257 298.408 64.6147 297.643C67.4917 295.789 68.6087 292.38 67.1027 290.044C66.2657 288.745 64.7647 288 62.9827 288Z" fill="#DABACC"/>
<path d="M40.375 297.236L39.785 296.428C41.01 295.533 41.713 294.163 41.713 292.667C41.713 290.094 39.62 288 37.046 288C36.164 288 35.297 288.257 34.539 288.743L34 287.901C34.919 287.312 35.973 287 37.046 287C40.171 287 42.713 289.542 42.713 292.667C42.713 294.486 41.861 296.151 40.375 297.236Z" fill="#FDE1A7"/>
<path d="M67 270.473C64.243 270.473 62 268.23 62 265.473C62 264.175 62.501 262.941 63.412 262L64.131 262.695C63.402 263.448 63.001 264.435 63.001 265.472C63.001 267.678 64.795 269.472 67.001 269.472C68.55 269.472 69.931 268.594 70.603 267.18L71.506 267.61C70.678 269.349 68.91 270.473 67 270.473Z" fill="#FDE1A7"/>
<path d="M681.715 270.753C694.969 270.753 705.715 260.008 705.715 246.753C705.715 233.498 694.969 222.753 681.715 222.753C668.46 222.753 657.715 233.498 657.715 246.753C657.715 260.008 668.46 270.753 681.715 270.753Z" fill="url(#paint6_linear)"/>
<path d="M703.92 256.37C703.86 256.37 703.801 256.36 703.742 256.337C699.845 254.852 692.861 249.427 685.95 242.516C679.039 235.605 673.614 228.621 672.131 224.724C672.032 224.466 672.162 224.177 672.42 224.079C672.678 223.98 672.967 224.11 673.065 224.369C674.503 228.144 679.838 234.99 686.658 241.809C693.477 248.628 700.323 253.964 704.098 255.402C704.357 255.5 704.486 255.789 704.387 256.048C704.312 256.248 704.121 256.37 703.92 256.37Z" fill="#0090B2"/>
<path d="M705.699 248.151C705.624 248.151 705.548 248.134 705.475 248.098C701.759 246.244 696.476 242.073 691.342 236.939C686.318 231.915 682.185 226.706 680.286 223.007C680.159 222.761 680.257 222.46 680.502 222.334C680.747 222.209 681.05 222.305 681.175 222.55C683.029 226.162 687.095 231.277 692.049 236.232C697.111 241.294 702.297 245.395 705.922 247.204C706.169 247.327 706.269 247.627 706.146 247.874C706.059 248.049 705.882 248.151 705.699 248.151Z" fill="#8A69E3"/>
<path d="M573.683 584C549.202 584 526.352 590.976 507 603.037C510.097 604.337 513.278 605.685 516.573 607.082C551.542 621.899 606.273 651.66 675.355 635.404C652.368 604.228 615.39 584 573.683 584Z" fill="url(#paint7_linear)"/>
<path d="M676.544 634.866C658.321 610.153 631.304 592.332 600.112 586C595.233 586.976 590.747 589.272 591.011 594.294C591.511 603.794 605.977 604.691 613.261 606.294C621.595 608.127 633.262 611.877 633.511 618.044C633.693 622.543 627.846 623.209 624.846 623.209C621.846 623.209 617.35 621.793 616.594 624.377C615.595 627.794 622.893 629.037 622.428 631.544C621.74 635.259 612.201 634.548 610.297 637.748C630.518 640.605 652.674 640.483 676.544 634.866Z" fill="url(#paint8_linear)"/>
<path d="M557.573 616.016C560.573 611.849 582.739 611.349 581.073 603.349C579.638 596.462 553.406 601.683 552.239 593.849C551.548 589.206 557.296 586.028 562.856 584C542.851 585.861 524.197 592.375 508 602.471C511.097 603.771 514.278 605.119 517.573 606.516C528.936 611.331 542.389 617.724 557.741 623.603C556.573 620.935 556.072 618.1 557.573 616.016Z" fill="url(#paint9_linear)"/>
<path d="M385.096 554.069C382.318 554.069 379.511 553.851 376.667 553.396C359.792 550.691 348.214 540.847 342.253 524.135C332.909 497.94 340.804 461.105 348.316 452.655C348.499 452.449 348.815 452.431 349.022 452.613C349.229 452.797 349.247 453.113 349.064 453.319C342.682 460.499 333.417 496.382 343.196 523.799C349.025 540.141 360.339 549.766 376.826 552.407C379.605 552.852 382.355 553.065 385.074 553.066C413.003 553.068 437.933 530.609 464.195 506.954C486.091 487.232 508.732 466.838 536.162 455.192C575.498 438.491 610.43 440.598 635.938 442.137C649.317 442.946 660.871 443.642 669.571 441.499C684.419 437.841 697.101 429.731 709.366 421.888C716.036 417.622 722.933 413.212 730.13 409.54C755.885 396.398 776.68 394.24 783.109 404.044C790.852 415.853 777.121 426.997 763.84 437.774C753.083 446.503 741.961 455.53 741.524 465.008C740.873 479.157 761.25 484.119 761.456 484.16C761.727 484.214 761.902 484.477 761.849 484.748C761.794 485.019 761.528 485.196 761.261 485.141C761.046 485.098 739.837 479.919 740.527 464.961C740.984 455.035 752.284 445.865 763.212 436.997C776.742 426.017 789.523 415.644 782.275 404.592C776.145 395.245 755.856 397.538 730.587 410.43C723.434 414.079 716.557 418.477 709.906 422.73C697.573 430.617 684.821 438.772 669.811 442.469C660.966 444.649 649.34 443.948 635.879 443.134C610.475 441.603 575.676 439.501 536.554 456.111C509.278 467.692 486.7 488.029 464.866 507.696C438.456 531.484 413.381 554.068 385.096 554.069Z" fill="#4578BA"/>
<path d="M576.797 344.328C578.019 344.328 579.008 343.338 579.008 342.117C579.008 340.896 578.019 339.906 576.797 339.906C575.576 339.906 574.586 340.896 574.586 342.117C574.586 343.338 575.576 344.328 576.797 344.328Z" fill="#4578BA"/>
<path d="M559.746 345.316C540.225 345.316 514.361 336.569 500.402 309.156C480.402 269.88 512.492 237.438 516.765 234.996C517.001 234.859 517.31 234.941 517.449 235.182C517.586 235.422 517.503 235.727 517.262 235.864C513.074 238.258 481.63 270.091 501.291 308.703C519.793 345.034 559.484 348.09 576.621 341.65C576.878 341.549 577.167 341.684 577.264 341.942C577.362 342.201 577.232 342.489 576.973 342.586C572.493 344.269 566.499 345.316 559.746 345.316Z" fill="#4578BA"/>
<path d="M665.14 333.471C665.004 333.471 664.869 333.416 664.771 333.308C664.584 333.104 664.599 332.787 664.803 332.602C668.832 328.928 669.786 320.37 668.921 318.019C668.825 317.76 668.958 317.472 669.217 317.377C669.472 317.278 669.763 317.414 669.859 317.673C670.82 320.278 669.869 329.336 665.477 333.34C665.381 333.428 665.26 333.471 665.14 333.471Z" fill="#4578BA"/>
<path d="M711.804 270.779C711.261 268.898 710.467 267.175 709.599 265.51C707.887 262.261 705.844 259.253 703.703 256.335C703.428 256.967 703.132 257.591 702.8 258.202C704.648 260.848 706.365 263.584 707.793 266.432C708.586 268.035 709.293 269.684 709.731 271.343C709.946 272.168 710.087 273.003 710.072 273.763C710.061 274.53 709.855 275.162 709.491 275.503C709.135 275.853 708.51 276.033 707.75 276.024C706.999 276.02 706.176 275.86 705.362 275.627C703.727 275.156 702.104 274.416 700.529 273.591C697.373 271.926 694.373 269.885 691.461 267.738C685.639 263.422 680.207 258.545 675.09 253.379C672.516 250.809 670.021 248.16 667.631 245.423C665.23 242.697 662.908 239.901 660.749 236.994C658.587 234.094 656.554 231.088 654.884 227.935C654.059 226.361 653.319 224.739 652.846 223.104C652.612 222.291 652.452 221.469 652.447 220.717C652.437 219.965 652.614 219.347 652.956 218.989C653.736 218.167 655.525 218.31 657.127 218.733C658.787 219.169 660.438 219.875 662.041 220.667C664.895 222.092 667.63 223.816 670.285 225.657C670.884 225.332 671.495 225.044 672.113 224.774C669.209 222.621 666.2 220.587 662.957 218.872C661.293 218.004 659.571 217.208 657.69 216.665C656.748 216.399 655.761 216.193 654.685 216.187C654.147 216.187 653.581 216.243 653.002 216.415C652.713 216.507 652.422 216.621 652.143 216.784C652.01 216.856 651.859 216.955 651.705 217.076C651.53 217.207 651.509 217.243 651.402 217.331L651.39 217.341L651.36 217.371C650.388 218.337 650.126 219.641 650.113 220.695C650.098 221.781 650.285 222.78 650.532 223.735C651.038 225.641 651.8 227.391 652.636 229.084C654.325 232.46 656.351 235.6 658.502 238.633C662.825 244.687 667.739 250.26 672.969 255.5C678.242 260.697 683.823 265.592 689.85 269.949C692.871 272.116 696.016 274.133 699.389 275.827C701.081 276.663 702.83 277.426 704.736 277.932C705.69 278.18 706.688 278.368 707.774 278.353C708.829 278.34 710.132 278.078 711.098 277.107C712.054 276.126 712.29 274.828 712.284 273.782C712.275 272.708 712.069 271.721 711.804 270.779Z" fill="url(#paint10_linear)"/>
<path d="M747.932 469.295L759.598 463.712C759.598 463.712 761.848 468.878 761.848 476.212C761.848 483.712 758.932 489.295 758.932 489.295L747.848 483.712L747.932 469.295Z" fill="url(#paint11_radial)"/>
<path d="M637.5 485.821C636.598 481.642 655.348 461.546 669.848 458.046C684.348 454.546 746.494 458.816 747.827 460.983C749.16 463.15 749.357 471.245 749.515 476.712C749.616 480.211 749.681 490.046 747.848 490.546C746.015 491.046 701.873 499.243 688.348 499.379C671.765 499.545 638.75 491.612 637.5 485.821Z" fill="url(#paint12_linear)"/>
<path d="M744.682 436.711V462.045H723.432C723.432 462.045 721.552 461.462 721.515 459.878C721.474 458.129 733.515 438.295 736.703 437.045C739.239 436.05 744.682 436.711 744.682 436.711Z" fill="url(#paint13_linear)"/>
<path d="M699.681 494.463C699.681 494.463 715.098 488.463 720.848 486.463C726.598 484.463 744.309 479.272 744.309 479.272C744.309 479.272 766.242 488.323 768.098 489.879C769.265 490.858 769.673 492.895 768.848 493.879C767.765 495.17 758.077 500.42 755.944 500.977C753.956 501.496 743.14 501.42 726.431 500.046C714.439 499.06 698.264 497.88 699.681 494.463Z" fill="url(#paint14_linear)"/>
<path d="M737.704 501.337C737.544 501.337 737.387 501.26 737.29 501.117C737.136 500.888 737.195 500.578 737.424 500.423C743.057 496.604 757.583 489.707 765.293 487.615C765.564 487.544 765.834 487.701 765.906 487.967C765.978 488.234 765.821 488.508 765.554 488.58C757.927 490.649 743.557 497.473 737.984 501.251C737.899 501.309 737.801 501.337 737.704 501.337Z" fill="#C0EAFB"/>
<path d="M646.71 472.816C640.966 478.416 637.077 483.865 637.5 485.822C638.063 488.434 645.097 491.479 654.161 494.023C655.462 481.031 650.371 475.362 646.71 472.816Z" fill="url(#paint15_linear)"/>
<path d="M681.181 468.212C683.626 466.506 684.523 460.446 684.845 456.766C678.35 456.897 672.984 457.289 669.848 458.046C665.044 459.205 659.776 462.192 654.908 465.813C660.613 467.63 677.336 470.895 681.181 468.212Z" fill="url(#paint16_linear)"/>
<path d="M692.432 479.546C694.641 479.546 696.432 477.755 696.432 475.546C696.432 473.337 694.641 471.546 692.432 471.546C690.223 471.546 688.432 473.337 688.432 475.546C688.432 477.755 690.223 479.546 692.432 479.546Z" fill="url(#paint17_radial)"/>
<path d="M705.849 478.213C707.92 478.213 709.599 476.534 709.599 474.463C709.599 472.392 707.92 470.713 705.849 470.713C703.778 470.713 702.099 472.392 702.099 474.463C702.099 476.534 703.778 478.213 705.849 478.213Z" fill="url(#paint18_radial)"/>
<path d="M718.265 477.13C720.152 477.13 721.682 475.6 721.682 473.713C721.682 471.826 720.152 470.296 718.265 470.296C716.377 470.296 714.848 471.826 714.848 473.713C714.848 475.6 716.377 477.13 718.265 477.13Z" fill="url(#paint19_radial)"/>
<path d="M739.89 460.337C739.614 460.337 739.39 460.113 739.39 459.837V436.5C739.39 436.224 739.614 436 739.89 436C740.166 436 740.39 436.224 740.39 436.5V459.837C740.39 460.113 740.166 460.337 739.89 460.337Z" fill="#C0EAFB"/>
<path d="M562.265 263.596C565.911 263.563 577.012 263.138 585.015 254.846C595.39 244.096 591.765 223.596 591.765 223.596C591.765 223.596 595.522 223.446 597.015 226.721C598.953 230.971 596.39 238.721 598.015 239.596C600.725 241.055 601.39 234.721 603.515 235.721C605.64 236.721 605.353 241.594 604.89 245.971C604.452 250.104 601.577 253.997 602.577 255.284C603.89 256.972 607.015 252.721 608.015 254.721C609.015 256.721 605.39 260.596 602.202 262.659C599.43 264.453 594.639 266.097 594.764 267.097C594.889 268.097 599.389 268.097 598.639 270.097C597.889 272.097 592.264 271.347 588.889 271.347C585.514 271.347 580.389 271.222 577.639 273.472C574.889 275.722 562.265 263.596 562.265 263.596Z" fill="url(#paint20_linear)"/>
<path d="M575.349 244.263C575.192 244.263 575.037 244.19 574.94 244.052C574.781 243.827 574.834 243.515 575.059 243.355C575.123 243.309 581.482 238.737 581.183 233.961C580.99 230.88 579.306 229.312 577.357 227.496C576.091 226.316 574.782 225.097 573.752 223.35C569.677 216.44 574.033 211.147 576.057 209.69C576.279 209.529 576.592 209.579 576.754 209.804C576.916 210.028 576.865 210.34 576.641 210.502C574.825 211.81 570.918 216.578 574.614 222.842C575.571 224.464 576.826 225.633 578.04 226.764C580.059 228.644 581.965 230.42 582.183 233.898C582.517 239.231 575.92 243.971 575.639 244.17C575.549 244.233 575.449 244.263 575.349 244.263Z" fill="#E8878E"/>
<path d="M567.682 231.429C567.581 231.429 567.48 231.399 567.392 231.337C563.986 228.916 563.039 225.651 562.845 223.339C562.571 220.075 563.662 217.075 564.828 215.909C565.023 215.714 565.34 215.714 565.535 215.909C565.73 216.104 565.73 216.421 565.535 216.616C564.514 217.637 563.601 220.4 563.841 223.255C564.018 225.357 564.878 228.323 567.972 230.522C568.197 230.682 568.249 230.994 568.089 231.219C567.993 231.356 567.838 231.429 567.682 231.429Z" fill="#E8878E"/>
<path d="M606.516 269.096C606.501 269.096 606.488 269.096 606.473 269.094C606.199 269.071 605.994 268.829 606.017 268.554C606.169 266.728 608.429 265.834 612.531 264.212C613.781 263.718 615.213 263.151 616.82 262.469C619.086 261.506 620.534 260.165 621.124 258.484C621.953 256.122 620.899 253.745 620.408 252.833C620.277 252.59 620.368 252.287 620.611 252.155C620.853 252.025 621.157 252.115 621.289 252.358C621.843 253.387 623.028 256.077 622.068 258.815C621.38 260.773 619.747 262.312 617.211 263.389C615.596 264.076 614.156 264.645 612.898 265.142C609.292 266.568 607.114 267.429 607.013 268.637C606.992 268.899 606.773 269.096 606.516 269.096Z" fill="#E8878E"/>
<path d="M516.273 205.563L517.069 205.623C517.425 205.667 517.832 205.71 518.146 205.769C518.796 205.879 519.44 206.016 520.067 206.195C521.325 206.545 522.53 207.021 523.668 207.595C525.946 208.745 527.957 210.28 529.681 212.043C533.124 215.58 535.453 220.02 536.608 224.698C537.736 229.279 537.964 234.009 537.237 238.727C536.485 243.418 534.81 248.17 531.446 252.322L523.335 245.369C525.252 243.301 526.672 240.228 527.357 236.951C528.058 233.669 528.086 230.114 527.446 226.763C526.838 223.517 525.399 220.434 523.295 218.019C522.244 216.816 521.027 215.79 519.715 215.033C519.06 214.655 518.381 214.343 517.693 214.108C517.349 213.986 517.003 213.894 516.656 213.813L516.227 213.721C516.048 213.689 515.743 213.659 515.507 213.628L516.273 205.563Z" fill="url(#paint21_linear)"/>
<path d="M524.031 219.588C523.783 219.588 523.567 219.403 523.536 219.15C523.502 218.876 523.696 218.626 523.97 218.592C525.697 218.375 528.795 217.352 530.156 212.929C530.236 212.665 530.518 212.516 530.78 212.598C531.045 212.679 531.192 212.959 531.111 213.223C529.587 218.183 526.061 219.338 524.095 219.584C524.073 219.587 524.052 219.588 524.031 219.588Z" fill="#FFA2BA"/>
<path d="M531.101 230.41C529.776 230.41 528.543 230.195 527.666 229.936C527.401 229.858 527.25 229.58 527.328 229.315C527.405 229.05 527.681 228.897 527.949 228.977C530.13 229.619 534.767 230.003 536.69 226.856C536.833 226.62 537.139 226.545 537.378 226.69C537.613 226.834 537.688 227.142 537.544 227.378C536.111 229.726 533.461 230.41 531.101 230.41Z" fill="#FFA2BA"/>
<path d="M533.653 242.001C529.521 242.001 527.283 239.863 526.417 238.783C526.244 238.567 526.278 238.253 526.494 238.08C526.709 237.909 527.023 237.942 527.196 238.157C528.148 239.344 530.975 241.96 536.656 240.633C536.934 240.57 537.194 240.738 537.258 241.006C537.321 241.275 537.154 241.544 536.885 241.607C535.698 241.883 534.623 242.001 533.653 242.001Z" fill="#FFA2BA"/>
<path d="M556.986 324.438C556.508 323.514 556.086 322.543 555.765 321.513C553.691 314.843 554.431 308.43 554.431 308.43C554.431 308.43 545.514 305.597 538.431 304.097C531.348 302.597 521.866 300.576 521.866 300.576C522.098 307.014 526.182 320.18 534.848 328.43C538.536 331.942 541.877 334.256 544.818 335.847C548.518 335.843 554.515 331.157 556.986 324.438Z" fill="url(#paint22_linear)"/>
<path d="M564.598 346.263C567.327 345.596 565.848 336.846 565.015 334.846C564.308 333.148 559.671 329.64 556.986 324.438C554.515 331.157 548.518 335.843 544.818 335.846C551.065 339.224 555.502 339.322 557.598 340.596C559.522 341.766 561.673 346.978 564.598 346.263Z" fill="url(#paint23_linear)"/>
<path d="M471.847 254.679C467.928 256.957 465.324 258.226 458.764 258.429C458.411 258.44 458.049 258.444 457.681 258.445C458.703 261.827 458.846 267.591 457.11 271.883C463.081 274.354 469.296 275.342 475.262 274.621C478.686 270.832 475.577 258.971 471.847 254.679Z" fill="url(#paint24_linear)"/>
<path d="M457.681 258.445C452.442 258.445 445.84 257.42 443.098 257.512C438.765 257.658 436.202 259.345 434.327 261.283C432.724 262.939 432.306 266.241 434.139 267.408C436.434 268.868 442.18 266.762 445.346 266.345C448.512 265.928 451.014 269.345 457.014 271.845C457.045 271.858 457.076 271.868 457.109 271.882C458.846 267.591 458.703 261.827 457.681 258.445Z" fill="url(#paint25_linear)"/>
<path d="M556.39 277.471C564.66 267.957 576.681 270.921 578.99 273.204C578.858 273.058 578.733 272.905 578.598 272.762C568.767 262.348 554.849 259.512 540.848 252.429C528.858 246.363 516.182 237.929 512.515 233.971C512.515 233.971 506.182 242.846 491.209 249.303C481.044 253.686 467.765 252.221 467.765 252.221C467.765 252.221 468.946 263.371 473.515 271.846C480.39 284.596 503.765 297.846 524.14 304.346C538.385 308.89 548.024 310.167 558.14 311.221C555.89 307.096 547.985 287.141 556.39 277.471Z" fill="url(#paint26_linear)"/>
<path d="M555.859 278.64C555.838 278.64 555.817 278.639 555.796 278.636C522.177 274.518 504.124 248.948 501.962 244.084C501.85 243.832 501.964 243.536 502.216 243.424C502.469 243.314 502.764 243.425 502.876 243.678C505 248.457 522.764 273.583 555.918 277.644C556.192 277.677 556.388 277.927 556.354 278.201C556.323 278.454 556.108 278.64 555.859 278.64Z" fill="#00E2EC"/>
<path d="M591.839 316.093C589.237 308.305 589.589 285.013 578.988 273.205C576.679 270.921 564.658 267.957 556.388 277.472C547.983 287.142 555.888 307.097 558.138 311.222C563.543 319.745 569.538 325.265 574.992 329.036C579.182 328.262 589.331 322.255 591.839 316.093Z" fill="url(#paint27_linear)"/>
<path d="M595.639 343.846C599.851 343.664 599.243 333.218 598.514 328.721C597.764 324.096 593.766 321.128 592.014 316.596C591.953 316.439 591.897 316.264 591.839 316.093C589.331 322.255 579.182 328.262 574.993 329.036C580.764 333.026 585.928 335.058 589.139 336.597C590.753 337.369 591.764 344.013 595.639 343.846Z" fill="url(#paint28_linear)"/>
<path d="M585.89 323.691C585.763 323.691 585.636 323.643 585.538 323.546C564.907 303.137 566.803 284.182 567.517 277.046C567.544 276.771 567.793 276.576 568.064 276.598C568.338 276.625 568.54 276.87 568.511 277.145C567.811 284.151 565.949 302.762 586.241 322.835C586.437 323.029 586.439 323.346 586.245 323.542C586.148 323.642 586.019 323.691 585.89 323.691Z" fill="#00E2EC"/>
<path d="M525.389 254.721C521.973 251.244 514.389 248.846 507.514 251.721C498.297 255.575 490.135 267.628 484.32 274.374C487.633 275.119 492.167 277.245 494.139 280.908C495.508 283.45 496.003 286.157 496.167 288.173C506.069 286.34 517.343 281.928 523.764 275.721C532.261 267.507 528.889 258.284 525.389 254.721Z" fill="url(#paint29_linear)"/>
<path d="M484.32 274.375C483.011 275.893 481.821 277.144 480.764 277.971C474.475 282.893 468.543 286.369 466.014 288.971C463.826 291.221 461.764 294.721 463.889 296.721C466.791 299.453 470.952 297.034 475.639 292.971C479.389 289.721 481.351 289.895 491.318 288.883C492.875 288.725 494.505 288.481 496.168 288.174C496.004 286.158 495.509 283.451 494.14 280.909C492.166 277.245 487.633 275.12 484.32 274.375Z" fill="url(#paint30_linear)"/>
<path d="M494.139 281.409C493.932 281.409 493.739 281.28 493.666 281.073C493.576 280.812 493.714 280.528 493.975 280.438C507.364 275.791 522.817 259.03 524.936 254.509C525.054 254.259 525.353 254.152 525.601 254.27C525.851 254.387 525.959 254.685 525.842 254.935C523.61 259.695 508.181 276.566 494.303 281.382C494.248 281.401 494.194 281.409 494.139 281.409Z" fill="#00E2EC"/>
<path d="M450.271 226.334C452.389 226.283 461.889 223.533 463.514 220.721C465.139 217.909 469.014 220.533 469.014 220.533C469.014 220.533 469.452 228.221 461.076 228.471C452.7 228.721 450.271 226.334 450.271 226.334Z" fill="url(#paint31_linear)"/>
<path d="M456.021 226.959C456.25 226.272 457.577 225.127 459.952 224.283C462.516 223.372 464.64 223.095 468.077 223.033C464.983 225.137 466.39 228.274 463.848 228.471C457.931 228.929 456.021 226.959 456.021 226.959Z" fill="#D039A3"/>
<path d="M472.848 196.429C472.515 193.762 473.1 180.846 474.183 180.512C475.266 180.178 483.014 188.679 483.098 195.179C479.515 197.096 472.848 196.429 472.848 196.429Z" fill="url(#paint32_linear)"/>
<path d="M436.765 201.471C437.524 200.427 438.64 200.471 439.765 200.471C440.89 200.471 462.39 200.721 462.39 200.721C462.39 200.721 470.515 195.096 476.765 194.346C483.015 193.596 491.39 194.471 491.39 194.471C491.39 194.471 495.015 190.721 498.14 187.971C501.265 185.221 504.89 181.596 506.265 181.971C507.64 182.346 506.636 192.051 505.015 196.846C503.515 201.284 499.89 205.721 499.89 205.721C499.89 205.721 501.265 214.096 504.515 221.221C507.345 227.426 512.515 233.971 512.515 233.971C512.515 233.971 506.147 243.978 493.265 248.596C476.702 254.534 467.765 252.221 467.765 252.221C467.765 252.221 467.568 247.846 467.64 244.096C467.728 239.538 467.89 235.721 467.89 235.721C467.89 235.721 462.314 234.982 458.015 233.221C452.827 231.096 450.39 229.158 450.272 226.334C451.319 226.654 454.27 227.437 459.14 226.471C467.328 224.846 467.765 221.221 467.765 221.221C467.765 221.221 461.865 222.984 452.515 219.221C442.265 215.096 433.766 205.596 436.765 201.471Z" fill="url(#paint33_linear)"/>
<path d="M446.684 200.542C443.075 200.502 440.161 200.471 439.765 200.471C438.64 200.471 437.524 200.427 436.765 201.471C435.272 203.525 436.63 206.91 439.634 210.302C442.252 208.998 446.323 205.715 446.684 200.542Z" fill="url(#paint34_linear)"/>
<path d="M471.099 203.68C472.157 203.68 473.016 202.822 473.016 201.763C473.016 200.704 472.157 199.846 471.099 199.846C470.04 199.846 469.182 200.704 469.182 201.763C469.182 202.822 470.04 203.68 471.099 203.68Z" fill="#212F66"/>
<path d="M470.568 201.7C470.97 201.7 471.297 201.374 471.297 200.971C471.297 200.569 470.97 200.242 470.568 200.242C470.165 200.242 469.839 200.569 469.839 200.971C469.839 201.374 470.165 201.7 470.568 201.7Z" fill="#0090B2"/>
<path d="M483.433 207.679C484.675 207.679 485.683 206.672 485.683 205.429C485.683 204.187 484.675 203.179 483.433 203.179C482.19 203.179 481.183 204.187 481.183 205.429C481.183 206.672 482.19 207.679 483.433 207.679Z" fill="#212F66"/>
<path d="M482.515 205.555C482.952 205.555 483.307 205.201 483.307 204.763C483.307 204.326 482.952 203.971 482.515 203.971C482.077 203.971 481.723 204.326 481.723 204.763C481.723 205.201 482.077 205.555 482.515 205.555Z" fill="#0090B2"/>
<path d="M498.078 167.772C477.206 154.797 449.766 161.199 436.792 182.071C423.818 202.943 430.219 230.383 451.092 243.358C471.964 256.333 499.404 249.931 512.378 229.059C525.352 208.187 518.952 180.747 498.078 167.772ZM506.574 225.863C496.193 242.564 474.238 247.686 457.538 237.304C440.838 226.922 435.715 204.968 446.098 188.267C456.479 171.567 478.434 166.444 495.134 176.826C511.833 187.207 516.956 209.162 506.574 225.863Z" fill="url(#paint35_radial)"/>
<g opacity="0.5">
<path opacity="0.5" d="M471.539 172.009L470.435 172.255L469.418 172.526C468.729 172.723 468.047 172.938 467.374 173.169C466.323 173.531 465.178 172.972 464.815 171.921C464.454 170.87 465.012 169.725 466.064 169.363C466.205 169.314 466.362 169.281 466.504 169.265C467.296 169.179 468.086 169.114 468.875 169.071L470.084 169.029L471.215 169.033C472.047 169.035 472.72 169.713 472.717 170.545C472.716 171.261 472.212 171.859 471.539 172.009Z" fill="white"/>
</g>
<g opacity="0.5">
<path opacity="0.5" d="M461.195 175.193L460.066 175.694L459.045 176.19C458.353 176.546 457.669 176.922 456.998 177.32C455.66 178.122 454.378 179.019 453.163 180.004C450.734 181.972 448.582 184.292 446.785 186.873C446.254 187.64 445.201 187.831 444.434 187.299C443.682 186.778 443.487 185.752 443.98 184.989C445.865 182.091 448.163 179.448 450.793 177.176C452.107 176.04 453.504 174.996 454.969 174.055C455.702 173.587 456.452 173.143 457.215 172.721L458.403 172.099L459.52 171.561C460.515 171.082 461.71 171.5 462.19 172.495C462.67 173.49 462.252 174.686 461.255 175.165C461.239 175.173 461.211 175.185 461.195 175.193Z" fill="white"/>
</g>
<path d="M515.091 236.316C514.016 235.433 513.129 234.635 512.514 233.971C512.514 233.971 511.776 233.035 510.705 231.539C500.695 245.486 483.861 252.073 467.674 249.536C467.714 251.113 467.764 252.221 467.764 252.221C467.764 252.221 467.924 253.724 468.351 256.042C485.919 258.201 503.922 251.063 515.091 236.316Z" fill="url(#paint36_linear)"/>
<path d="M517.724 194.643C516.4 189.581 514.183 184.762 511.205 180.477C508.221 176.198 504.485 172.45 500.209 169.483C495.947 166.487 491.186 164.231 486.159 162.887C481.14 161.531 475.883 161.094 470.712 161.564C460.361 162.489 450.395 167.181 443.167 174.628C435.906 182.032 431.366 192.046 430.693 202.383C429.901 212.706 432.903 223.28 439.036 231.649C445.126 240.046 454.302 246.146 464.408 248.554C474.512 251.005 485.466 249.69 494.745 244.967C499.395 242.636 503.645 239.481 507.202 235.663C510.769 231.855 513.654 227.402 515.706 222.591C513.729 227.434 510.909 231.945 507.383 235.829C503.865 239.724 499.633 242.974 494.968 245.404C485.617 250.243 474.525 251.632 464.255 249.202C453.983 246.811 444.618 240.668 438.364 232.142C432.071 223.648 428.936 212.875 429.698 202.312C430.443 191.742 435.136 181.55 442.574 174.046C449.981 166.496 460.144 161.785 470.653 160.903C481.164 159.958 491.947 162.93 500.49 169.085C504.765 172.151 508.471 175.99 511.406 180.339C514.333 184.695 516.478 189.562 517.724 194.643Z" fill="white"/>
<path d="M517.712 194.646C516.066 195.195 514.485 196.03 513.051 197.177C506.504 202.411 505.439 211.964 510.674 218.513C512.082 220.275 513.806 221.637 515.697 222.587C519.457 213.537 520.013 203.738 517.712 194.646Z" fill="url(#paint37_linear)"/>
<path d="M116.702 259.736C116.105 260.319 115.394 261.277 114.745 262.297C114.092 263.325 113.482 264.44 112.924 265.589C111.808 267.893 110.899 270.341 110.202 272.83C108.81 277.814 108.277 282.985 108.718 287.964C109.151 292.948 110.566 297.73 112.853 302.074C115.132 306.426 118.266 310.345 121.963 313.8L111.317 324.142C106.992 319.345 103.267 313.806 100.714 307.689C98.1436 301.587 96.8136 294.951 96.8196 288.424C96.8116 281.887 98.0696 275.493 100.293 269.547C101.412 266.571 102.766 263.698 104.404 260.944C105.226 259.567 106.117 258.219 107.129 256.896C108.154 255.58 109.244 254.26 110.829 252.957L116.702 259.736Z" fill="url(#paint38_linear)"/>
<path d="M109.618 272.683C104.698 272.683 101.41 268.926 100.483 267.722C100.315 267.503 100.356 267.189 100.575 267.021C100.794 266.854 101.107 266.895 101.276 267.113C102.174 268.282 105.484 272.066 110.357 271.653C110.632 271.626 110.874 271.834 110.897 272.109C110.92 272.384 110.716 272.626 110.441 272.649C110.162 272.672 109.887 272.683 109.618 272.683Z" fill="#00E2EC"/>
<path d="M102.951 288.39C100.158 288.39 97.9456 287.337 96.6026 286.476C96.3706 286.327 96.3026 286.018 96.4516 285.785C96.6006 285.552 96.9096 285.484 97.1426 285.634C99.1456 286.919 103.268 288.67 108.376 285.944C108.618 285.814 108.922 285.905 109.052 286.15C109.182 286.394 109.09 286.696 108.846 286.826C106.7 287.972 104.71 288.39 102.951 288.39Z" fill="#00E2EC"/>
<path d="M101.241 306.867C100.847 306.867 100.478 306.854 100.138 306.835C99.8616 306.819 99.6516 306.583 99.6676 306.307C99.6836 306.031 99.9206 305.818 100.196 305.837C103.189 306.012 108.694 305.578 111.903 300.74C112.055 300.51 112.365 300.446 112.596 300.6C112.826 300.752 112.889 301.063 112.736 301.293C109.619 305.992 104.569 306.867 101.241 306.867Z" fill="#00E2EC"/>
<path d="M510.349 483.429C509.349 480.095 488.682 480.096 486.015 479.762C484.546 479.578 479.437 462.968 470.14 443.868C454.349 446.429 442.515 459.762 439.331 464.974L439.333 464.979C457.753 480.843 470.511 496.165 476.849 497.928C482.694 499.555 511.349 486.763 510.349 483.429Z" fill="url(#paint39_linear)"/>
<path d="M470.14 443.868C462.553 428.283 452.178 411.042 438.712 399.711C421.024 384.827 402.682 378.096 388.348 376.763C388.348 376.763 368.935 385.023 359.182 394.263C349.682 403.263 349.015 410.431 347.181 422.93C366.014 424.096 382.685 428.939 406.682 441.929C418.987 448.59 429.901 456.856 439.333 464.98L439.331 464.975C442.515 459.762 454.349 446.429 470.14 443.868Z" fill="url(#paint40_linear)"/>
<path d="M435.516 444.596C435.201 444.596 434.89 444.448 434.696 444.169C414.86 415.784 367.425 398.923 357.092 397.176C356.548 397.083 356.181 396.568 356.273 396.023C356.365 395.479 356.873 395.118 357.426 395.204C367.926 396.979 416.145 414.132 436.334 443.023C436.65 443.476 436.54 444.099 436.088 444.416C435.913 444.537 435.713 444.596 435.516 444.596Z" fill="#9F36AD"/>
<path d="M267.264 241.596C267.264 241.596 252.639 238.846 226.889 240.096C218.896 240.484 211.854 241.231 205.885 242.091C204.348 248.025 201.968 253.62 198.881 258.739C203.514 259.846 207.514 260.346 227.014 269.721C246.514 279.096 275.395 298.293 285.889 296.346C298.014 294.096 328.389 282.971 329.639 266.221C330.951 248.643 267.264 241.596 267.264 241.596Z" fill="url(#paint41_linear)"/>
<path d="M329.639 266.221C329.937 262.224 326.868 258.773 321.958 255.824C317.522 258.892 312.066 264.286 310.348 271.846C308.819 278.574 309.71 284.413 310.441 287.477C320.297 282.255 328.983 275.015 329.639 266.221Z" fill="url(#paint42_linear)"/>
<path d="M271.847 253.846C271.77 253.846 271.691 253.834 271.614 253.809C245.846 245.382 204.7 247.808 201.61 248.965C201.225 249.112 200.791 248.914 200.645 248.526C200.499 248.138 200.696 247.706 201.084 247.561C204.347 246.337 245.424 243.666 272.08 252.384C272.474 252.513 272.689 252.936 272.56 253.33C272.457 253.645 272.163 253.846 271.847 253.846Z" fill="#9F36AD"/>
<path d="M328.889 259.721C325.076 249.783 308.8 241.743 298.663 236.72C295.727 235.265 292.526 233.889 289.255 232.556C288.824 235.788 287.427 240.953 283.013 245.263C277.702 250.447 270.856 251.379 266.512 251.444C269.601 255.256 272.789 258.803 276.013 261.472C284.143 268.204 300.736 278.516 313.271 279.649C318.658 280.136 323.408 279.007 326.19 275.009C328.184 272.142 331.799 267.305 328.889 259.721Z" fill="url(#paint43_linear)"/>
<path d="M326.191 275.008C328.185 272.142 331.799 267.306 328.889 259.721C328.112 257.696 326.811 255.751 325.157 253.893C320.65 256.207 312.518 262.296 310.348 271.846C309.765 274.411 309.538 276.844 309.516 279.048C310.796 279.319 312.058 279.538 313.272 279.648C318.659 280.135 323.409 279.006 326.191 275.008Z" fill="url(#paint44_linear)"/>
<path d="M289.256 232.556C277.069 227.587 263.903 223.213 259.764 217.596C255.643 212.004 257.201 202.408 255.389 195.596C254.037 190.515 249.826 184.408 245.639 185.096C240.544 185.932 239.764 192.846 240.764 198.346C241.764 203.846 243.014 208.346 239.889 209.096C237.212 209.739 233.738 207.586 232.139 206.971C231.056 206.554 226.793 206.45 228.264 211.471C230.181 218.013 241.597 223.286 248.139 228.846C253.307 233.239 259.665 242.993 266.513 251.443C270.857 251.378 277.703 250.446 283.014 245.262C287.428 240.953 288.825 235.788 289.256 232.556Z" fill="url(#paint45_linear)"/>
<path d="M349.515 348.346C349.515 348.346 332.682 322.429 296.39 295.596C257.07 266.524 201.781 253.358 196.515 253.596C196.515 253.596 186.265 266.846 175.015 273.846C163.765 280.846 140.515 281.596 140.515 281.596C140.515 281.596 144.265 313.471 160.515 351.971C165.75 364.374 171.387 373.431 178.168 385.314C198.015 420.096 229.515 456.096 271.765 458.346C265.682 424.429 291.515 373.096 349.515 348.346Z" fill="url(#paint46_linear)"/>
<path d="M318.151 367.351C317.859 367.351 317.569 367.224 317.372 366.978C274.611 313.896 222.536 278.333 190.935 264.008C190.432 263.78 190.209 263.188 190.437 262.684C190.665 262.182 191.257 261.959 191.761 262.186C223.561 276.602 275.947 312.368 318.929 365.724C319.275 366.154 319.208 366.784 318.778 367.129C318.593 367.279 318.371 367.351 318.151 367.351Z" fill="#FFA2BA"/>
<path d="M271.848 437.874C271.808 437.874 271.769 437.872 271.729 437.867C221.537 431.947 188.869 381.124 187.502 378.963C187.207 378.496 187.346 377.879 187.813 377.584C188.28 377.287 188.897 377.428 189.193 377.895C200.589 395.918 232.555 431.233 271.964 435.881C272.512 435.945 272.904 436.443 272.84 436.991C272.78 437.5 272.348 437.874 271.848 437.874Z" fill="#FFA2BA"/>
<path d="M201.182 315.43C199.349 324.43 232.849 354.972 242.515 354.972C251.894 354.972 286.252 316.195 296.625 295.773C296.545 295.714 296.47 295.655 296.39 295.597C281.99 284.95 265.449 276.438 250.006 269.935C235.811 278.54 203.192 305.564 201.182 315.43Z" fill="url(#paint47_linear)"/>
<path d="M240.261 326.794C245.095 326.794 249.014 322.875 249.014 318.041C249.014 313.206 245.095 309.288 240.261 309.288C235.427 309.288 231.508 313.206 231.508 318.041C231.508 322.875 235.427 326.794 240.261 326.794Z" fill="#1AA9E8"/>
<path d="M253.169 308.953C255.278 308.953 256.989 307.243 256.989 305.133C256.989 303.024 255.278 301.313 253.169 301.313C251.059 301.313 249.349 303.024 249.349 305.133C249.349 307.243 251.059 308.953 253.169 308.953Z" fill="#1AA9E8"/>
<path d="M240.261 337.291C229.647 337.291 221.011 328.655 221.011 318.041C221.011 307.427 229.647 298.791 240.261 298.791C250.875 298.791 259.511 307.427 259.511 318.041C259.511 328.655 250.875 337.291 240.261 337.291ZM240.261 300.791C230.749 300.791 223.011 308.529 223.011 318.041C223.011 327.553 230.749 335.291 240.261 335.291C249.773 335.291 257.511 327.553 257.511 318.041C257.511 308.529 249.773 300.791 240.261 300.791Z" fill="#1AA9E8"/>
<path d="M262.229 299.476C261.728 299.476 261.226 299.288 260.837 298.912C260.044 298.143 260.024 296.877 260.793 296.084L275.02 281.403C275.79 280.61 277.056 280.591 277.848 281.359C278.641 282.128 278.661 283.394 277.892 284.187L263.665 298.868C263.273 299.273 262.751 299.476 262.229 299.476Z" fill="#9F36AD"/>
<path d="M253.28 291.439C252.774 291.439 252.267 291.248 251.878 290.865C251.09 290.091 251.08 288.824 251.855 288.037L264.076 275.612C264.85 274.825 266.118 274.815 266.904 275.589C267.692 276.363 267.702 277.63 266.927 278.417L254.706 290.842C254.314 291.24 253.797 291.439 253.28 291.439Z" fill="#9F36AD"/>
<path d="M272.791 306.981C272.319 306.981 271.845 306.815 271.464 306.477C270.638 305.744 270.563 304.479 271.296 303.653L285.415 287.743C286.15 286.917 287.414 286.843 288.239 287.575C289.065 288.308 289.14 289.573 288.407 290.399L274.288 306.309C273.892 306.754 273.343 306.981 272.791 306.981Z" fill="#9F36AD"/>
<path d="M466.149 365.526C437.995 355.682 402.929 341.956 379.015 342.846C359.015 343.591 349.515 348.346 349.515 348.346C291.515 373.096 265.682 424.429 271.765 458.346C345.937 462.296 367.703 418.653 407.015 405.096C422.528 399.746 441.68 399.13 459.179 399.483C459.179 399.482 459.178 399.481 459.178 399.48C455.008 381.197 463.682 369.263 466.149 365.526Z" fill="url(#paint48_linear)"/>
<path d="M378.765 369.93C399.727 368.107 405.2 352.615 404.891 345.899C395.516 343.785 386.69 342.56 379.015 342.846C359.015 343.591 349.515 348.346 349.515 348.346C350.432 358.93 359.026 371.647 378.765 369.93Z" fill="url(#paint49_linear)"/>
<path d="M376.564 361.596C375.739 361.596 375.068 360.93 375.064 360.104L374.972 342.737C374.968 341.909 375.636 341.234 376.464 341.229C376.467 341.229 376.469 341.229 376.472 341.229C377.297 341.229 377.968 341.895 377.972 342.721L378.064 360.088C378.068 360.916 377.4 361.591 376.572 361.596C376.569 361.596 376.567 361.596 376.564 361.596Z" fill="#9F36AD"/>
<path d="M387.937 361.58C387.112 361.58 386.441 360.913 386.437 360.088L386.351 343.15C386.347 342.321 387.015 341.646 387.843 341.642C387.846 341.642 387.849 341.642 387.851 341.642C388.676 341.642 389.347 342.309 389.351 343.134L389.437 360.072C389.441 360.901 388.773 361.576 387.945 361.58C387.942 361.58 387.939 361.58 387.937 361.58Z" fill="#9F36AD"/>
<path d="M365.443 361.659C364.639 361.659 363.974 361.022 363.945 360.213L363.376 344.243C363.347 343.415 363.994 342.72 364.821 342.69C365.642 342.652 366.343 343.307 366.374 344.135L366.943 360.105C366.972 360.933 366.325 361.628 365.498 361.658C365.479 361.659 365.46 361.659 365.443 361.659Z" fill="#9F36AD"/>
<path d="M282.935 438.519C279.229 438.519 275.493 438.311 271.73 437.868C271.182 437.804 270.79 437.306 270.854 436.758C270.919 436.209 271.417 435.819 271.964 435.882C311.814 440.585 349.135 418.2 373.83 403.39C382.744 398.044 389.784 393.822 395.167 391.827C412.731 385.316 439.135 386.841 458.192 389.266C458.74 389.336 459.128 389.836 459.058 390.384C458.988 390.932 458.495 391.314 457.94 391.25C439.102 388.852 413.044 387.332 395.862 393.701C390.654 395.632 383.334 400.021 374.858 405.104C352.245 418.666 319.143 438.519 282.935 438.519Z" fill="#FFA2BA"/>
<path d="M505.515 398.596C509.866 396.77 515.683 393.231 522.265 382.346C526.598 375.18 529.932 361.77 527.265 361.846C521.432 362.013 514.501 374.299 505.015 375.096C496.921 375.776 482.734 371.324 466.149 365.526C463.682 369.263 455.008 381.197 459.178 399.48C459.178 399.481 459.179 399.482 459.179 399.483C479.845 399.898 498.204 401.664 505.515 398.596Z" fill="url(#paint50_linear)"/>
<path d="M478.015 393.096C481.328 393.096 484.015 390.41 484.015 387.096C484.015 383.782 481.328 381.096 478.015 381.096C474.701 381.096 472.015 383.782 472.015 387.096C472.015 390.41 474.701 393.096 478.015 393.096Z" fill="#9F36AD"/>
<path d="M172.515 412.596C174.765 391.346 181.515 379.721 182.265 363.096C183.083 344.954 177.159 292.26 143.265 284.846C137.265 283.533 130.515 284.909 130.515 284.909C116.848 304.096 103.681 332.096 104.847 368.096C106.133 407.778 129.154 433.953 142.847 447.596C142.963 447.711 143.073 447.821 143.188 447.935C147.472 443.902 157.719 437.043 172.729 436.761C171.947 428.725 171.708 420.213 172.515 412.596Z" fill="url(#paint51_linear)"/>
<path d="M124.765 384.971C120.533 371.592 110.066 368.066 104.843 367.808C104.846 367.905 104.846 367.999 104.849 368.096C105.449 386.6 110.776 402.165 117.679 414.894C123.441 410.671 129.015 398.405 124.765 384.971Z" fill="url(#paint52_linear)"/>
<path d="M108.534 392.771C107.885 392.771 107.287 392.347 107.095 391.694C106.862 390.899 107.317 390.065 108.112 389.832L118.028 386.921C118.822 386.691 119.656 387.145 119.89 387.938C120.123 388.733 119.668 389.567 118.873 389.8L108.957 392.711C108.816 392.751 108.673 392.771 108.534 392.771Z" fill="#9F36AD"/>
<path d="M106.749 384.748C106.1 384.748 105.502 384.324 105.31 383.671C105.077 382.876 105.532 382.042 106.327 381.809L115.767 379.038C116.562 378.807 117.395 379.261 117.629 380.055C117.862 380.85 117.407 381.684 116.612 381.917L107.172 384.688C107.031 384.729 106.889 384.748 106.749 384.748Z" fill="#9F36AD"/>
<path d="M110.961 401.223C110.337 401.223 109.755 400.831 109.542 400.208C109.274 399.424 109.692 398.571 110.476 398.304L120.007 395.045C120.793 394.774 121.644 395.195 121.912 395.979C122.18 396.763 121.762 397.616 120.978 397.883L111.447 401.142C111.286 401.198 111.121 401.223 110.961 401.223Z" fill="#9F36AD"/>
<path d="M149.015 432.763C148.675 432.763 148.344 432.59 148.157 432.278C147.985 431.992 147.758 431.624 147.482 431.175C128.984 401.178 124.33 375.079 123.682 358.468C122.209 320.7 133.304 293.825 140.093 283.9C140.404 283.444 141.028 283.327 141.483 283.639C141.939 283.951 142.056 284.573 141.744 285.029C135.095 294.752 124.228 321.144 125.681 358.39C126.32 374.762 130.916 400.498 149.185 430.125C149.466 430.582 149.698 430.957 149.873 431.248C150.157 431.722 150.004 432.336 149.53 432.62C149.368 432.717 149.19 432.763 149.015 432.763Z" fill="#FFA2BA"/>
<path d="M166.702 475.721C168.806 482.416 163.264 489.263 162.889 495.221C162.465 501.957 170.435 511.192 174.639 510.971C178.597 510.763 180.639 506.096 180.514 502.846C180.389 499.596 178.889 491.846 181.764 491.221C184.639 490.596 183.796 496.356 185.139 498.346C186.264 500.013 189.097 499.929 189.889 497.596C190.697 495.214 191.014 488.513 189.014 484.346C186.57 479.253 182.014 473.721 178.764 466.346C176.747 461.769 174.009 449.904 172.729 436.761C157.72 437.043 147.472 443.902 143.188 447.935C159.535 464.22 164.653 469.204 166.702 475.721Z" fill="url(#paint53_linear)"/>
<path d="M169.639 241.721C171.07 243.971 179.264 253.096 183.889 255.596C182.514 259.846 176.889 266.596 168.014 270.721C160.75 274.097 151.701 275.471 151.701 275.471C151.701 275.471 148.263 267.096 146.138 257.158C144.695 250.409 144.138 244.095 144.138 244.095C144.138 244.095 149.951 247.283 157.263 247.095C164.467 246.911 169.639 241.721 169.639 241.721Z" fill="url(#paint54_linear)"/>
<path d="M170.597 227.179C167.68 215.512 158.764 203.679 156.347 200.512H149.43L125.013 215.512L124.263 228.345C124.263 228.345 127.62 232.619 132.995 238.297C130.898 239.156 129.43 241.148 129.43 243.469C129.43 246.576 132.06 249.094 135.305 249.094C137.68 249.094 139.72 247.743 140.646 245.802C149.446 253.077 161.141 252.976 166.68 249.177C172.497 245.191 173.514 238.846 170.597 227.179Z" fill="url(#paint55_linear)"/>
<path d="M148.514 228.346C149.619 228.346 150.514 227.451 150.514 226.346C150.514 225.242 149.619 224.346 148.514 224.346C147.41 224.346 146.514 225.242 146.514 226.346C146.514 227.451 147.41 228.346 148.514 228.346Z" fill="#212F66"/>
<path d="M162.597 218.596C163.61 218.596 164.43 217.776 164.43 216.763C164.43 215.751 163.61 214.93 162.597 214.93C161.585 214.93 160.764 215.751 160.764 216.763C160.764 217.776 161.585 218.596 162.597 218.596Z" fill="#212F66"/>
<path d="M155.559 217.38C156.983 215.779 167.321 224.241 167.054 226.023C166.787 227.805 164.139 229.034 162.326 229.346C160.349 225.783 154.846 218.182 155.559 217.38Z" fill="url(#paint56_linear)"/>
<path d="M162.733 239.18C161.566 239.18 160.464 238.797 159.548 238.073C159.331 237.902 159.295 237.587 159.466 237.371C159.637 237.154 159.953 237.118 160.169 237.289C160.907 237.872 161.793 238.181 162.732 238.181C165.024 238.181 166.888 236.303 166.888 233.993C166.888 233.709 166.861 233.424 166.805 233.148C166.75 232.877 166.924 232.613 167.194 232.559C167.466 232.502 167.73 232.679 167.784 232.949C167.854 233.291 167.888 233.642 167.888 233.993C167.889 236.853 165.577 239.18 162.733 239.18Z" fill="#954374"/>
<path d="M161.847 186.846C159.264 184.429 155.43 187.263 153.097 189.846C150.764 192.429 148.923 195.438 146.764 195.263C143.681 195.013 144.746 187.647 140.931 188.096C135.264 188.763 132.431 201.929 130.598 202.929C128.765 203.929 127.228 199.787 124.348 201.596C120.765 203.846 121.872 214.5 121.431 217.096C121.134 218.843 115.998 222.025 116.514 228.346C117.136 235.961 124.638 241.616 129.432 243.494C129.432 243.486 129.431 243.478 129.431 243.471C129.431 240.806 131.369 238.578 133.968 237.998C133.946 235.271 133.426 232.148 132.764 229.847C131.181 224.347 127.557 220.076 127.557 220.076C129.89 219.826 144.348 215.514 154.431 206.681C163.046 199.133 164.567 189.39 161.847 186.846Z" fill="url(#paint57_linear)"/>
<path d="M144.896 179.252C127.838 179.252 112.904 188.34 104.667 201.938C112.429 194.91 122.724 190.627 134.021 190.627C158.184 190.627 177.771 210.214 177.771 234.377C177.771 250.187 169.383 264.036 156.817 271.723C177.001 266.446 191.896 248.09 191.896 226.252C191.896 200.295 170.853 179.252 144.896 179.252Z" fill="url(#paint58_radial)"/>
<path d="M156.918 266.444C141.854 266.444 125.565 261.073 117.348 249.763C102.515 229.346 111.89 191.721 128.036 182.38C110.411 189.158 97.8965 206.238 97.8965 226.252C97.8965 252.21 118.938 273.252 144.896 273.252C155.789 273.252 165.809 269.536 173.779 263.316C168.543 265.329 162.862 266.444 156.918 266.444Z" fill="url(#paint59_linear)"/>
<path d="M110.035 243.42C107.12 243.42 104.412 244.295 102.148 245.787C106.184 254.604 112.861 261.953 121.174 266.823C123.182 264.353 124.39 261.206 124.39 257.775C124.391 249.846 117.964 243.42 110.035 243.42Z" fill="url(#paint60_linear)"/>
<g opacity="0.5">
<path opacity="0.5" d="M168.141 195.548L169.145 196.191L170.183 196.911C170.854 197.396 171.513 197.9 172.161 198.424C172.934 199.049 173.054 200.183 172.428 200.957C171.803 201.73 170.669 201.85 169.896 201.224C169.809 201.154 169.722 201.067 169.651 200.985C169.163 200.407 168.657 199.84 168.135 199.285L167.352 198.483L166.487 197.663C165.946 197.151 165.924 196.297 166.436 195.757C166.888 195.279 167.607 195.206 168.141 195.548Z" fill="white"/>
</g>
<g opacity="0.5">
<path opacity="0.5" d="M177.268 204.2C178.263 205.703 179.183 207.325 179.967 208.974C180.755 210.629 181.425 212.339 181.971 214.086C183.064 217.58 183.652 221.223 183.728 224.865C183.748 225.798 183.007 226.57 182.074 226.59C181.159 226.609 180.398 225.892 180.351 224.984C180.182 221.658 179.548 218.367 178.465 215.237C177.924 213.672 177.274 212.147 176.519 210.676C175.76 209.199 174.916 207.804 173.946 206.428C173.309 205.525 173.525 204.277 174.427 203.64C175.329 203.003 176.578 203.219 177.215 204.121C177.225 204.135 177.234 204.148 177.243 204.162L177.268 204.2Z" fill="white"/>
</g>
<path d="M205.885 242.091C197.634 243.279 191.451 244.68 187.701 245.654C180.313 261.928 163.931 273.253 144.894 273.253C143.184 273.253 141.497 273.156 139.833 272.978C135.762 277.425 131.358 283.635 128.92 287.205C134.022 288.538 139.374 289.253 144.893 289.253C174.218 289.252 198.86 269.218 205.885 242.091Z" fill="url(#paint61_linear)"/>
<path d="M128.031 182.368C133.146 180.278 138.665 179.174 144.21 179.016C149.757 178.883 155.34 179.732 160.605 181.539C171.164 185.127 180.284 192.685 185.927 202.313C191.574 211.942 193.6 223.639 191.549 234.578C190.533 240.052 188.536 245.332 185.69 250.098C182.813 254.843 179.122 259.088 174.793 262.52C183.194 255.349 188.991 245.262 190.793 234.444C191.694 229.04 191.697 223.49 190.73 218.111C189.766 212.728 187.838 207.525 185.065 202.818C182.327 198.09 178.734 193.861 174.534 190.361C170.328 186.863 165.501 184.126 160.352 182.263C150.044 178.539 138.407 178.582 128.031 182.368Z" fill="white"/>
<path d="M253.704 212.405C253.834 212.918 253.524 213.439 253.011 213.57L236.402 218.172C235.889 218.302 235.368 217.992 235.237 217.479L224.837 180.987C224.707 180.475 225.017 179.953 225.529 179.822L243.138 174.22C243.65 174.09 244.172 174.4 244.302 174.912L253.704 212.405Z" fill="url(#paint62_linear)"/>
<path d="M249.802 209.771L236.602 213.507L227.455 181.722L241.583 177.005L249.802 209.771Z" fill="url(#paint63_linear)"/>
<path d="M236.515 192.596C238.54 192.596 240.182 190.954 240.182 188.929C240.182 186.904 238.54 185.262 236.515 185.262C234.489 185.262 232.848 186.904 232.848 188.929C232.848 190.954 234.489 192.596 236.515 192.596Z" fill="#FE697A"/>
<path d="M44.9049 365.096C46.8379 365.096 48.4049 363.529 48.4049 361.596C48.4049 359.663 46.8379 358.096 44.9049 358.096C42.9719 358.096 41.4049 359.663 41.4049 361.596C41.4049 363.529 42.9719 365.096 44.9049 365.096Z" fill="#FE697A"/>
<path d="M198.361 380.724C200.294 380.724 201.861 379.157 201.861 377.224C201.861 375.291 200.294 373.724 198.361 373.724C196.428 373.724 194.861 375.291 194.861 377.224C194.861 379.157 196.428 380.724 198.361 380.724Z" fill="#FE697A"/>
<path d="M384.515 249.096C386.448 249.096 388.015 247.529 388.015 245.596C388.015 243.663 386.448 242.096 384.515 242.096C382.582 242.096 381.015 243.663 381.015 245.596C381.015 247.529 382.582 249.096 384.515 249.096Z" fill="#FE697A"/>
<path d="M394.181 147.096C393.64 147.096 393.195 146.664 393.181 146.12C393.091 142.42 392.154 139.779 390.317 138.045C386.473 134.419 378.74 134.679 368.958 135.01L366.379 135.096C362.573 135.208 360.157 134.523 358.737 132.925C356.805 130.751 357.295 127.483 357.813 124.023C358.282 120.902 358.765 117.674 357.596 114.997C354.139 107.074 333.747 107.302 316.838 112.059C299.315 116.987 285.738 122.342 285.603 122.395C285.09 122.597 284.508 122.347 284.305 121.833C284.101 121.32 284.353 120.739 284.867 120.535C285.003 120.481 298.669 115.091 316.297 110.133C330.54 106.127 354.844 103.688 359.431 114.196C360.829 117.401 360.279 121.076 359.792 124.319C359.325 127.433 358.922 130.122 360.232 131.596C361.214 132.702 363.207 133.191 366.316 133.097L368.889 133.013C379.138 132.666 387.237 132.393 391.688 136.592C393.934 138.711 395.076 141.812 395.18 146.072C395.193 146.624 394.756 147.083 394.204 147.096C394.197 147.096 394.189 147.096 394.181 147.096Z" fill="#FDE1A7"/>
<path d="M399.85 138.748C399.444 138.748 399.11 138.424 399.1 138.016C398.935 131.227 396.149 128.019 389.483 126.942C389.074 126.876 388.795 126.491 388.862 126.082C388.928 125.673 389.322 125.396 389.721 125.461C397.063 126.647 400.418 130.507 400.6 137.979C400.61 138.393 400.283 138.737 399.869 138.747C399.862 138.748 399.856 138.748 399.85 138.748Z" fill="#FDE1A7"/>
<path d="M290.62 111.802C290.384 111.802 290.151 111.691 290.005 111.482C289.767 111.143 289.85 110.675 290.189 110.438C292.355 108.921 303.931 102.905 316.899 103.428C317.313 103.445 317.635 103.794 317.619 104.207C317.603 104.621 317.247 104.952 316.84 104.927C304.27 104.419 293.133 110.208 291.05 111.667C290.919 111.758 290.769 111.802 290.62 111.802Z" fill="#FDE1A7"/>
<path d="M316.744 129.677C316.65 129.677 316.554 129.659 316.46 129.621C313.867 128.56 306.526 128.675 304.159 128.801C303.721 128.812 303.392 128.504 303.37 128.092C303.349 127.678 303.666 127.325 304.079 127.303C304.175 127.299 313.633 126.845 317.028 128.233C317.411 128.39 317.595 128.828 317.438 129.212C317.32 129.501 317.04 129.677 316.744 129.677Z" fill="#FDE1A7"/>
<path d="M380.236 234.848C380.195 234.848 380.153 234.846 380.111 234.84C379.563 234.772 379.174 234.272 379.243 233.724C379.976 227.854 386.145 225.14 392.11 222.515C398.84 219.554 405.197 216.757 405.318 209.997C405.404 205.241 401.444 202.802 396.86 199.978C392.338 197.192 387.211 194.035 386.492 187.966C385.64 180.776 390.926 174.782 395.172 169.966C397.495 167.332 399.69 164.843 400.27 162.821C400.422 162.291 400.976 161.984 401.506 162.135C402.037 162.287 402.344 162.841 402.192 163.372C401.488 165.828 399.256 168.358 396.672 171.289C392.482 176.041 387.732 181.427 388.479 187.73C389.084 192.838 393.371 195.479 397.91 198.274C402.588 201.156 407.425 204.135 407.319 210.032C407.174 218.071 399.599 221.404 392.917 224.345C387.211 226.855 381.821 229.227 381.229 233.971C381.164 234.478 380.733 234.848 380.236 234.848Z" fill="#FDE1A7"/>
<path d="M374.819 197.723C374.582 197.723 374.348 197.611 374.203 197.402C368.726 189.544 371.498 182.099 373.728 179.26C373.985 178.934 374.456 178.877 374.781 179.134C375.107 179.39 375.164 179.862 374.908 180.187C374.85 180.26 369.217 187.625 375.433 196.545C375.67 196.885 375.586 197.352 375.246 197.589C375.116 197.68 374.966 197.723 374.819 197.723Z" fill="#FDE1A7"/>
<path d="M250.819 138.846C250.582 138.846 250.348 138.734 250.203 138.525C244.726 130.667 247.498 123.222 249.728 120.383C249.985 120.057 250.456 120 250.781 120.257C251.107 120.513 251.164 120.985 250.908 121.31C250.85 121.383 245.217 128.748 251.433 137.668C251.67 138.008 251.586 138.475 251.246 138.712C251.116 138.803 250.966 138.846 250.819 138.846Z" fill="#FDE1A7"/>
<path d="M331.016 300.452C330.685 300.452 330.361 300.288 330.17 299.987C329.875 299.521 330.013 298.903 330.479 298.607C333.37 296.774 338.452 296.278 344.337 295.703C349.287 295.22 354.897 294.672 359.431 293.181C366.833 290.747 374.97 285.496 375.606 278.056C376.022 273.199 373.74 270.878 371.325 268.422C369.288 266.351 367.182 264.21 367.015 260.624C366.582 251.318 381.336 244.474 381.965 244.187C382.465 243.958 383.06 244.179 383.29 244.682C383.519 245.184 383.298 245.777 382.795 246.007C377.899 248.242 368.716 254.154 369.013 260.531C369.144 263.353 370.815 265.052 372.75 267.02C375.254 269.566 378.092 272.452 377.599 278.226C376.879 286.638 368.065 292.449 360.056 295.081C355.312 296.641 349.585 297.2 344.532 297.693C339.136 298.22 334.038 298.718 331.551 300.297C331.385 300.402 331.199 300.452 331.016 300.452Z" fill="#FDE1A7"/>
<path d="M219.016 171.452C218.685 171.452 218.361 171.288 218.17 170.987C217.875 170.521 218.013 169.903 218.479 169.607C221.37 167.774 226.452 167.278 232.337 166.703C237.287 166.22 242.897 165.672 247.431 164.181C254.833 161.747 262.97 156.496 263.606 149.056C264.022 144.199 261.74 141.878 259.325 139.422C257.288 137.351 255.182 135.21 255.015 131.624C254.582 122.318 269.336 115.474 269.965 115.187C270.465 114.958 271.06 115.179 271.29 115.682C271.519 116.184 271.298 116.777 270.795 117.007C265.899 119.242 256.716 125.154 257.013 131.531C257.144 134.353 258.815 136.052 260.75 138.02C263.254 140.566 266.092 143.452 265.599 149.226C264.879 157.638 256.065 163.449 248.056 166.081C243.312 167.641 237.585 168.2 232.532 168.693C227.136 169.22 222.038 169.718 219.551 171.297C219.385 171.402 219.199 171.452 219.016 171.452Z" fill="#FDE1A7"/>
<path d="M361.016 260.971C360.978 260.971 360.941 260.969 360.903 260.965C360.354 260.903 359.96 260.408 360.021 259.86C361.298 248.496 369.469 243.93 372.51 243.13C373.044 242.988 373.592 243.309 373.732 243.843C373.872 244.377 373.553 244.924 373.019 245.065C370.527 245.721 363.154 249.888 362.008 260.085C361.952 260.594 361.518 260.971 361.016 260.971Z" fill="#FDE1A7"/>
<path d="M197.157 378.359C194.325 378.359 187.228 377.062 171.768 368.214C169.738 367.052 167.678 365.854 165.587 364.638C144.942 352.632 121.545 339.032 94.6835 341.342C74.7875 343.06 65.3415 354.78 62.2375 358.632C61.9335 359.008 61.6935 359.307 61.5115 359.51C61.1445 359.923 60.5125 359.961 60.0995 359.593C59.6865 359.227 59.6495 358.594 60.0165 358.182C60.1825 357.995 60.4025 357.722 60.6805 357.377C63.9165 353.36 73.7665 341.141 94.5125 339.35C121.998 336.966 145.691 350.754 166.594 362.91C168.68 364.123 170.736 365.319 172.762 366.478C192.47 377.756 197.986 376.292 198.039 376.278C198.553 376.121 199.116 376.397 199.29 376.907C199.464 377.416 199.221 377.966 198.719 378.158C198.572 378.214 198.102 378.359 197.157 378.359Z" fill="#FDE1A7"/>
<path d="M57.0975 345.096C56.9325 345.096 56.7675 345.042 56.6295 344.932C56.3065 344.673 56.2545 344.201 56.5125 343.877C59.2495 340.455 67.1825 332.621 81.7435 333.848C82.1565 333.883 82.4625 334.245 82.4285 334.658C82.3935 335.071 82.0235 335.376 81.6185 335.343C67.7875 334.184 60.2715 341.58 57.6835 344.814C57.5355 344.999 57.3175 345.096 57.0975 345.096Z" fill="#FDE1A7"/>
<path d="M42.4039 403.096C41.8829 403.096 41.4439 402.693 41.4069 402.165C40.1179 383.61 42.2779 367.269 43.9419 361.326C44.0909 360.794 44.6439 360.483 45.1739 360.633C45.7059 360.781 46.0159 361.334 45.8669 361.865C44.2399 367.678 42.1309 383.722 43.4019 402.026C43.4399 402.577 43.0249 403.054 42.4739 403.093C42.4509 403.095 42.4269 403.096 42.4039 403.096Z" fill="#FDE1A7"/>
<path d="M41.4259 442.751C41.2969 442.751 41.1649 442.726 41.0379 442.673C40.7099 442.534 32.9988 439.224 32.1318 433.672C31.5628 430.031 33.1668 427.702 34.7178 425.45C35.6388 424.113 36.5918 422.731 37.1528 421.01C39.2928 414.451 34.7268 410.848 32.7868 410.014C32.2798 409.795 32.0459 409.207 32.2639 408.7C32.4809 408.193 33.0698 407.961 33.5778 408.177C35.9838 409.213 41.6589 413.649 39.0549 421.632C38.4039 423.628 37.3208 425.199 36.3658 426.586C34.8548 428.778 33.6618 430.511 34.1078 433.364C34.8038 437.813 41.7469 440.801 41.8159 440.831C42.3239 441.046 42.5629 441.633 42.3479 442.141C42.1859 442.522 41.8149 442.751 41.4259 442.751Z" fill="#FDE1A7"/>
<path d="M46.1408 428.317C45.9608 428.317 45.7808 428.253 45.6378 428.123C45.3308 427.846 45.3068 427.371 45.5848 427.064C48.0658 424.321 48.2608 421.316 47.9868 419.279C47.5768 416.228 46.0008 413.967 45.0128 413.337C44.6638 413.114 44.5608 412.65 44.7838 412.302C45.0068 411.952 45.4708 411.85 45.8198 412.073C47.2578 412.99 49.0278 415.758 49.4738 419.079C49.7898 421.432 49.5648 424.901 46.6978 428.07C46.5488 428.234 46.3448 428.317 46.1408 428.317Z" fill="#FDE1A7"/>
<defs>
<linearGradient id="paint0_linear" x1="142.402" y1="75.7416" x2="754.673" y2="585.704" gradientUnits="userSpaceOnUse">
<stop stop-color="#071832"/>
<stop offset="0.526042" stop-color="#38294E"/>
</linearGradient>
<radialGradient id="paint1_radial" cx="0" cy="0" r="1" gradientUnits="userSpaceOnUse" gradientTransform="translate(586.187 637.704) rotate(5.24423) scale(136.953 69.865)">
<stop stop-color="white" stop-opacity="0.3"/>
<stop offset="0.292" stop-color="#FDFDFE" stop-opacity="0.2124"/>
<stop offset="0.4342" stop-color="#F5F8FB" stop-opacity="0.1697"/>
<stop offset="0.5439" stop-color="#E8EEF6" stop-opacity="0.1368"/>
<stop offset="0.6372" stop-color="#D6DFEF" stop-opacity="0.1089"/>
<stop offset="0.7198" stop-color="#BDCDE6" stop-opacity="0.0841"/>
<stop offset="0.7951" stop-color="#A0B6DB" stop-opacity="0.0615"/>
<stop offset="0.8647" stop-color="#7C9BCE" stop-opacity="0.0406"/>
<stop offset="0.9299" stop-color="#537CBE" stop-opacity="0.021"/>
<stop offset="0.9892" stop-color="#265AAD" stop-opacity="0.01"/>
<stop offset="1" stop-color="#1D53AA" stop-opacity="0"/>
</radialGradient>
<radialGradient id="paint2_radial" cx="0" cy="0" r="1" gradientUnits="userSpaceOnUse" gradientTransform="translate(681.715 246.753) scale(34.665)">
<stop stop-color="white" stop-opacity="0.25"/>
<stop offset="0.2938" stop-color="#FDFDFE" stop-opacity="0.1766"/>
<stop offset="0.4368" stop-color="#F6F5FA" stop-opacity="0.1408"/>
<stop offset="0.5472" stop-color="#EAE8F2" stop-opacity="0.1132"/>
<stop offset="0.6409" stop-color="#D9D6E8" stop-opacity="0.0898"/>
<stop offset="0.7241" stop-color="#C3BDDA" stop-opacity="0.069"/>
<stop offset="0.7998" stop-color="#A8A0CA" stop-opacity="0.0501"/>
<stop offset="0.8697" stop-color="#887CB6" stop-opacity="0.0326"/>
<stop offset="0.9348" stop-color="#63549F" stop-opacity="0.0163"/>
<stop offset="0.9946" stop-color="#3A2685" stop-opacity="0.01"/>
<stop offset="1" stop-color="#362283" stop-opacity="0"/>
</radialGradient>
<radialGradient id="paint3_radial" cx="0" cy="0" r="1" gradientUnits="userSpaceOnUse" gradientTransform="translate(55.3335 283.332) scale(34.3335)">
<stop stop-color="white" stop-opacity="0.25"/>
<stop offset="0.3207" stop-color="#FDFDFF" stop-opacity="0.1698"/>
<stop offset="0.4767" stop-color="#F6F5FD" stop-opacity="0.1308"/>
<stop offset="0.5972" stop-color="#E9E8FA" stop-opacity="0.1007"/>
<stop offset="0.6995" stop-color="#D8D6F6" stop-opacity="0.0751"/>
<stop offset="0.7902" stop-color="#C1BDF1" stop-opacity="0.0524"/>
<stop offset="0.8728" stop-color="#A5A0EB" stop-opacity="0.0318"/>
<stop offset="0.9475" stop-color="#847DE4" stop-opacity="0.0131"/>
<stop offset="1" stop-color="#6860DE" stop-opacity="0"/>
</radialGradient>
<linearGradient id="paint4_linear" x1="38.5415" y1="265.54" x2="70.1258" y2="297.125" gradientUnits="userSpaceOnUse">
<stop stop-color="#FFE2A8"/>
<stop offset="1" stop-color="#271068"/>
</linearGradient>
<linearGradient id="paint5_linear" x1="38.5415" y1="265.54" x2="70.1258" y2="297.125" gradientUnits="userSpaceOnUse">
<stop stop-color="#FFE2A8"/>
<stop offset="1" stop-color="#A482FF"/>
</linearGradient>
<linearGradient id="paint6_linear" x1="664.745" y1="229.783" x2="698.686" y2="263.724" gradientUnits="userSpaceOnUse">
<stop stop-color="#8C6AE2"/>
<stop offset="1" stop-color="#5A55F8"/>
</linearGradient>
<linearGradient id="paint7_linear" x1="507.001" y1="612.062" x2="675.356" y2="612.062" gradientUnits="userSpaceOnUse">
<stop stop-color="#005092"/>
<stop offset="1" stop-color="#8C6AE2"/>
</linearGradient>
<linearGradient id="paint8_linear" x1="591.001" y1="612.793" x2="676.544" y2="612.793" gradientUnits="userSpaceOnUse">
<stop stop-color="#1AA9E8"/>
<stop offset="1" stop-color="#005092"/>
</linearGradient>
<linearGradient id="paint9_linear" x1="508" y1="603.801" x2="581.162" y2="603.801" gradientUnits="userSpaceOnUse">
<stop stop-color="#005092"/>
<stop offset="1" stop-color="#1AA9E8"/>
</linearGradient>
<linearGradient id="paint10_linear" x1="672.966" y1="255.502" x2="687.917" y2="240.55" gradientUnits="userSpaceOnUse">
<stop stop-color="#FFE2A8"/>
<stop offset="1" stop-color="#745B7F"/>
</linearGradient>
<radialGradient id="paint11_radial" cx="0" cy="0" r="1" gradientUnits="userSpaceOnUse" gradientTransform="translate(749.191 476.525) rotate(89.5817) scale(14.5052 13.5014)">
<stop stop-color="#231F20"/>
<stop offset="0.1018" stop-color="#262228"/>
<stop offset="0.2637" stop-color="#2F2A3F"/>
<stop offset="0.4653" stop-color="#3D3865"/>
<stop offset="0.6989" stop-color="#504A99"/>
<stop offset="0.9564" stop-color="#6962DB"/>
<stop offset="1" stop-color="#6D66E7"/>
</radialGradient>
<linearGradient id="paint12_linear" x1="693.513" y1="499.382" x2="693.513" y2="456.716" gradientUnits="userSpaceOnUse">
<stop stop-color="#1AA9E8"/>
<stop offset="1" stop-color="#B0E1FF"/>
</linearGradient>
<linearGradient id="paint13_linear" x1="728.933" y1="444.508" x2="745.576" y2="461.151" gradientUnits="userSpaceOnUse">
<stop stop-color="#B0E1FF"/>
<stop offset="1" stop-color="#1AA9E8"/>
</linearGradient>
<linearGradient id="paint14_linear" x1="717.702" y1="476.442" x2="751.997" y2="510.737" gradientUnits="userSpaceOnUse">
<stop stop-color="#B0E1FF"/>
<stop offset="1" stop-color="#1AA9E8"/>
</linearGradient>
<linearGradient id="paint15_linear" x1="645.919" y1="494.022" x2="645.919" y2="472.815" gradientUnits="userSpaceOnUse">
<stop stop-color="#6D66E7"/>
<stop offset="0.0436" stop-color="#6962DB"/>
<stop offset="0.3011" stop-color="#504A99"/>
<stop offset="0.5347" stop-color="#3D3865"/>
<stop offset="0.7363" stop-color="#2F2A3F"/>
<stop offset="0.8982" stop-color="#262228"/>
<stop offset="1" stop-color="#231F20"/>
</linearGradient>
<linearGradient id="paint16_linear" x1="660.608" y1="455.939" x2="681.672" y2="468.1" gradientUnits="userSpaceOnUse">
<stop stop-color="#6D66E7"/>
<stop offset="0.0436" stop-color="#6962DB"/>
<stop offset="0.3011" stop-color="#504A99"/>
<stop offset="0.5347" stop-color="#3D3865"/>
<stop offset="0.7363" stop-color="#2F2A3F"/>
<stop offset="0.8982" stop-color="#262228"/>
<stop offset="1" stop-color="#231F20"/>
</linearGradient>
<radialGradient id="paint17_radial" cx="0" cy="0" r="1" gradientUnits="userSpaceOnUse" gradientTransform="translate(689.14 473.754) scale(7.0295)">
<stop stop-color="#231F20"/>
<stop offset="0.1018" stop-color="#262228"/>
<stop offset="0.2637" stop-color="#2F2A3F"/>
<stop offset="0.4653" stop-color="#3D3865"/>
<stop offset="0.6989" stop-color="#504A99"/>
<stop offset="0.9564" stop-color="#6962DB"/>
<stop offset="1" stop-color="#6D66E7"/>
</radialGradient>
<radialGradient id="paint18_radial" cx="0" cy="0" r="1" gradientUnits="userSpaceOnUse" gradientTransform="translate(702.536 473.213) scale(7.104)">
<stop stop-color="#231F20"/>
<stop offset="0.1018" stop-color="#262228"/>
<stop offset="0.2637" stop-color="#2F2A3F"/>
<stop offset="0.4653" stop-color="#3D3865"/>
<stop offset="0.6989" stop-color="#504A99"/>
<stop offset="0.9564" stop-color="#6962DB"/>
<stop offset="1" stop-color="#6D66E7"/>
</radialGradient>
<radialGradient id="paint19_radial" cx="0" cy="0" r="1" gradientUnits="userSpaceOnUse" gradientTransform="translate(715.077 472.713) scale(7.02418)">
<stop stop-color="#231F20"/>
<stop offset="0.1018" stop-color="#262228"/>
<stop offset="0.2637" stop-color="#2F2A3F"/>
<stop offset="0.4653" stop-color="#3D3865"/>
<stop offset="0.6989" stop-color="#504A99"/>
<stop offset="0.9564" stop-color="#6962DB"/>
<stop offset="1" stop-color="#6D66E7"/>
</radialGradient>
<linearGradient id="paint20_linear" x1="562.265" y1="248.672" x2="608.184" y2="248.672" gradientUnits="userSpaceOnUse">
<stop stop-color="#FFE2A8"/>
<stop offset="1" stop-color="#728390"/>
</linearGradient>
<linearGradient id="paint21_linear" x1="515.506" y1="228.943" x2="537.654" y2="228.943" gradientUnits="userSpaceOnUse">
<stop stop-color="#A281FF"/>
<stop offset="1" stop-color="#FF57BD"/>
</linearGradient>
<linearGradient id="paint22_linear" x1="521.865" y1="318.21" x2="556.985" y2="318.21" gradientUnits="userSpaceOnUse">
<stop stop-color="#FF57BD"/>
<stop offset="1" stop-color="#FE6A77"/>
</linearGradient>
<linearGradient id="paint23_linear" x1="544.817" y1="335.384" x2="566.17" y2="335.384" gradientUnits="userSpaceOnUse">
<stop stop-color="#C5188E"/>
<stop offset="1" stop-color="#9F36AD"/>
</linearGradient>
<linearGradient id="paint24_linear" x1="457.11" y1="264.766" x2="476.74" y2="264.766" gradientUnits="userSpaceOnUse">
<stop stop-color="#FF57BD"/>
<stop offset="1" stop-color="#FE6A77"/>
</linearGradient>
<linearGradient id="paint25_linear" x1="432.935" y1="264.695" x2="458.436" y2="264.695" gradientUnits="userSpaceOnUse">
<stop stop-color="#C5188E"/>
<stop offset="1" stop-color="#9F36AD"/>
</linearGradient>
<linearGradient id="paint26_linear" x1="480.61" y1="292.512" x2="573.686" y2="258.636" gradientUnits="userSpaceOnUse">
<stop stop-color="#05C5DA"/>
<stop offset="1" stop-color="#5860C4"/>
</linearGradient>
<linearGradient id="paint27_linear" x1="552.607" y1="299.968" x2="591.84" y2="299.968" gradientUnits="userSpaceOnUse">
<stop stop-color="#00E2EC"/>
<stop offset="1" stop-color="#0090B2"/>
</linearGradient>
<linearGradient id="paint28_linear" x1="574.994" y1="329.971" x2="599.036" y2="329.971" gradientUnits="userSpaceOnUse">
<stop stop-color="#A281FF"/>
<stop offset="1" stop-color="#FF57BD"/>
</linearGradient>
<linearGradient id="paint29_linear" x1="497.896" y1="258.565" x2="519.411" y2="280.08" gradientUnits="userSpaceOnUse">
<stop stop-color="#00E2EC"/>
<stop offset="1" stop-color="#0090B2"/>
</linearGradient>
<linearGradient id="paint30_linear" x1="462.998" y1="286.13" x2="496.168" y2="286.13" gradientUnits="userSpaceOnUse">
<stop stop-color="#A281FF"/>
<stop offset="1" stop-color="#FF57BD"/>
</linearGradient>
<linearGradient id="paint31_linear" x1="450.271" y1="223.955" x2="469.018" y2="223.955" gradientUnits="userSpaceOnUse">
<stop stop-color="#9F36AD"/>
<stop offset="0.1071" stop-color="#8D3399"/>
<stop offset="0.4036" stop-color="#602A65"/>
<stop offset="0.662" stop-color="#3F243F"/>
<stop offset="0.8695" stop-color="#2A2028"/>
<stop offset="1" stop-color="#231F20"/>
</linearGradient>
<linearGradient id="paint32_linear" x1="470.005" y1="184.658" x2="481.813" y2="196.466" gradientUnits="userSpaceOnUse">
<stop stop-color="#FFE2A8"/>
<stop offset="1" stop-color="#728390"/>
</linearGradient>
<linearGradient id="paint33_linear" x1="454.071" y1="184.121" x2="508.617" y2="238.667" gradientUnits="userSpaceOnUse">
<stop stop-color="#FFE2A8"/>
<stop offset="1" stop-color="#728390"/>
</linearGradient>
<linearGradient id="paint34_linear" x1="436.154" y1="205.386" x2="446.683" y2="205.386" gradientUnits="userSpaceOnUse">
<stop stop-color="#653271"/>
<stop offset="0.1129" stop-color="#5B2F65"/>
<stop offset="0.496" stop-color="#3D263F"/>
<stop offset="0.8053" stop-color="#2A2128"/>
<stop offset="1" stop-color="#231F20"/>
</linearGradient>
<radialGradient id="paint35_radial" cx="0" cy="0" r="1" gradientUnits="userSpaceOnUse" gradientTransform="translate(474.586 205.565) scale(44.5061)">
<stop stop-color="#4E40AF" stop-opacity="0"/>
<stop offset="0.1096" stop-color="#5446B2" stop-opacity="0.0438"/>
<stop offset="0.2617" stop-color="#6558B9" stop-opacity="0.1047"/>
<stop offset="0.4387" stop-color="#8076C6" stop-opacity="0.1755"/>
<stop offset="0.6345" stop-color="#A69FD7" stop-opacity="0.2538"/>
<stop offset="0.8432" stop-color="#D6D3ED" stop-opacity="0.3373"/>
<stop offset="1" stop-color="white" stop-opacity="0.4"/>
</radialGradient>
<linearGradient id="paint36_linear" x1="467.675" y1="243.98" x2="515.091" y2="243.98" gradientUnits="userSpaceOnUse">
<stop stop-color="#FF57BD"/>
<stop offset="1" stop-color="#FE6A77"/>
</linearGradient>
<linearGradient id="paint37_linear" x1="507.35" y1="208.617" x2="519.081" y2="208.617" gradientUnits="userSpaceOnUse">
<stop stop-color="#05C5DA"/>
<stop offset="1" stop-color="#0090B2"/>
</linearGradient>
<linearGradient id="paint38_linear" x1="96.8198" y1="288.549" x2="121.963" y2="288.549" gradientUnits="userSpaceOnUse">
<stop stop-color="#05C5DA"/>
<stop offset="1" stop-color="#5860C4"/>
</linearGradient>
<linearGradient id="paint39_linear" x1="439.331" y1="470.97" x2="510.374" y2="470.97" gradientUnits="userSpaceOnUse">
<stop stop-color="#05C5DA"/>
<stop offset="1" stop-color="#5860C4"/>
</linearGradient>
<linearGradient id="paint40_linear" x1="347.181" y1="420.872" x2="470.14" y2="420.872" gradientUnits="userSpaceOnUse">
<stop stop-color="#FF57BD"/>
<stop offset="1" stop-color="#FE6A77"/>
</linearGradient>
<linearGradient id="paint41_linear" x1="264.271" y1="239.771" x2="264.271" y2="296.484" gradientUnits="userSpaceOnUse">
<stop stop-color="#FE6A77"/>
<stop offset="1" stop-color="#C91C91"/>
</linearGradient>
<linearGradient id="paint42_linear" x1="309.509" y1="271.651" x2="329.659" y2="271.651" gradientUnits="userSpaceOnUse">
<stop stop-color="#05C5DA"/>
<stop offset="1" stop-color="#5860C4"/>
</linearGradient>
<linearGradient id="paint43_linear" x1="266.513" y1="256.155" x2="329.98" y2="256.155" gradientUnits="userSpaceOnUse">
<stop stop-color="#FF57BD"/>
<stop offset="1" stop-color="#FE6A77"/>
</linearGradient>
<linearGradient id="paint44_linear" x1="309.516" y1="266.824" x2="329.98" y2="266.824" gradientUnits="userSpaceOnUse">
<stop stop-color="#05C5DA"/>
<stop offset="1" stop-color="#0090B2"/>
</linearGradient>
<linearGradient id="paint45_linear" x1="227.959" y1="218.243" x2="289.256" y2="218.243" gradientUnits="userSpaceOnUse">
<stop stop-color="#00E2EC"/>
<stop offset="1" stop-color="#0090B2"/>
</linearGradient>
<linearGradient id="paint46_linear" x1="179.37" y1="392.434" x2="301.424" y2="290.019" gradientUnits="userSpaceOnUse">
<stop stop-color="#FE6A77"/>
<stop offset="1" stop-color="#FF57BD"/>
</linearGradient>
<linearGradient id="paint47_linear" x1="216.021" y1="338.139" x2="284.182" y2="280.945" gradientUnits="userSpaceOnUse">
<stop stop-color="#C5188E"/>
<stop offset="1" stop-color="#FF57BD"/>
</linearGradient>
<linearGradient id="paint48_linear" x1="270.895" y1="400.701" x2="466.148" y2="400.701" gradientUnits="userSpaceOnUse">
<stop stop-color="#C91C91"/>
<stop offset="1" stop-color="#FE6A77"/>
</linearGradient>
<linearGradient id="paint49_linear" x1="349.515" y1="356.445" x2="404.902" y2="356.445" gradientUnits="userSpaceOnUse">
<stop stop-color="#00E2EC"/>
<stop offset="1" stop-color="#0090B2"/>
</linearGradient>
<linearGradient id="paint50_linear" x1="458.062" y1="381.106" x2="528.218" y2="381.106" gradientUnits="userSpaceOnUse">
<stop stop-color="#00E2EC"/>
<stop offset="1" stop-color="#0090B2"/>
</linearGradient>
<linearGradient id="paint51_linear" x1="104.776" y1="366.107" x2="182.335" y2="366.107" gradientUnits="userSpaceOnUse">
<stop stop-color="#FE6A77"/>
<stop offset="1" stop-color="#C91C91"/>
</linearGradient>
<linearGradient id="paint52_linear" x1="104.842" y1="391.351" x2="126.261" y2="391.351" gradientUnits="userSpaceOnUse">
<stop stop-color="#00E2EC"/>
<stop offset="1" stop-color="#0090B2"/>
</linearGradient>
<linearGradient id="paint53_linear" x1="143.188" y1="473.868" x2="190.515" y2="473.868" gradientUnits="userSpaceOnUse">
<stop stop-color="#00E2EC"/>
<stop offset="1" stop-color="#0090B2"/>
</linearGradient>
<linearGradient id="paint54_linear" x1="162.253" y1="240.903" x2="167.848" y2="272.631" gradientUnits="userSpaceOnUse">
<stop stop-color="#C16846"/>
<stop offset="0.2653" stop-color="#D27565"/>
<stop offset="0.5308" stop-color="#DE7F7B"/>
<stop offset="0.7814" stop-color="#E58589"/>
<stop offset="1" stop-color="#E8878E"/>
</linearGradient>
<linearGradient id="paint55_linear" x1="129.784" y1="245.872" x2="167.707" y2="214.05" gradientUnits="userSpaceOnUse">
<stop stop-color="#E8878E"/>
<stop offset="1" stop-color="#F4BEA3"/>
</linearGradient>
<linearGradient id="paint56_linear" x1="155.496" y1="223.263" x2="167.059" y2="223.263" gradientUnits="userSpaceOnUse">
<stop stop-color="#FF57BD"/>
<stop offset="1" stop-color="#FE6A77"/>
</linearGradient>
<linearGradient id="paint57_linear" x1="116.478" y1="214.711" x2="163.075" y2="214.711" gradientUnits="userSpaceOnUse">
<stop stop-color="#994574"/>
<stop offset="1" stop-color="#43256F"/>
</linearGradient>
<radialGradient id="paint58_radial" cx="0" cy="0" r="1" gradientUnits="userSpaceOnUse" gradientTransform="translate(144.781 225.988) scale(47.0205)">
<stop stop-color="#635AD5" stop-opacity="0"/>
<stop offset="0.1205" stop-color="#6960D7" stop-opacity="0.0482"/>
<stop offset="0.2878" stop-color="#7A72DB" stop-opacity="0.1151"/>
<stop offset="0.4824" stop-color="#9690E3" stop-opacity="0.193"/>
<stop offset="0.6977" stop-color="#BDB9ED" stop-opacity="0.2791"/>
<stop offset="0.9273" stop-color="#EEEDFA" stop-opacity="0.3709"/>
<stop offset="1" stop-color="white" stop-opacity="0.4"/>
</radialGradient>
<linearGradient id="paint59_linear" x1="97.8954" y1="227.816" x2="173.778" y2="227.816" gradientUnits="userSpaceOnUse">
<stop stop-color="#00E2EC"/>
<stop offset="1" stop-color="#0090B2"/>
</linearGradient>
<linearGradient id="paint60_linear" x1="109.967" y1="257.727" x2="120.981" y2="248.485" gradientUnits="userSpaceOnUse">
<stop stop-color="#A281FF"/>
<stop offset="0.0945" stop-color="#B17AF5"/>
<stop offset="0.3504" stop-color="#D36BDD"/>
<stop offset="0.5934" stop-color="#EB60CB"/>
<stop offset="0.8163" stop-color="#FA59C1"/>
<stop offset="1" stop-color="#FF57BD"/>
</linearGradient>
<linearGradient id="paint61_linear" x1="128.922" y1="265.671" x2="205.886" y2="265.671" gradientUnits="userSpaceOnUse">
<stop stop-color="#00E2EC"/>
<stop offset="1" stop-color="#0090B2"/>
</linearGradient>
<linearGradient id="paint62_linear" x1="224.808" y1="196.196" x2="253.734" y2="196.196" gradientUnits="userSpaceOnUse">
<stop stop-color="#653271"/>
<stop offset="0.1129" stop-color="#5B2F65"/>
<stop offset="0.496" stop-color="#3D263F"/>
<stop offset="0.8053" stop-color="#2A2128"/>
<stop offset="1" stop-color="#231F20"/>
</linearGradient>
<linearGradient id="paint63_linear" x1="226.507" y1="182.671" x2="251.705" y2="207.868" gradientUnits="userSpaceOnUse">
<stop stop-color="#84DBF1"/>
<stop offset="1" stop-color="#FFE2A8"/>
</linearGradient>
</defs>
</svg>
